ISO-10303-21;
HEADER;
FILE_DESCRIPTION (( 'STEP AP214' ),
    '1' );
FILE_NAME ('PCB.STEP',
    '2023-06-14T12:14:22',
    ( '' ),
    ( '' ),
    'SwSTEP 2.0',
    'SolidWorks 2020',
    '' );
FILE_SCHEMA (( 'AUTOMOTIVE_DESIGN' ));
ENDSEC;

DATA;
#1 = VERTEX_POINT ( 'NONE', #336 ) ;
#2 = ADVANCED_BREP_SHAPE_REPRESENTATION ( 'PCB', ( #454, #416 ), #13 ) ;
#3 = CARTESIAN_POINT ( 'NONE',  ( 41.99999999999999289, 41.99999999999999289, 1.600000000000000089 ) ) ;
#4 = ORIENTED_EDGE ( 'NONE', *, *, #598, .F. ) ;
#5 = ADVANCED_FACE ( 'NONE', ( #377 ), #37, .F. ) ;
#6 = DIRECTION ( 'NONE',  ( -0.000000000000000000, -0.000000000000000000, -1.000000000000000000 ) ) ;
#7 = DIRECTION ( 'NONE',  ( 1.000000000000000000, 0.000000000000000000, 0.000000000000000000 ) ) ;
#8 = FACE_BOUND ( 'NONE', #120, .T. ) ;
#9 = ORIENTED_EDGE ( 'NONE', *, *, #78, .T. ) ;
#10 = CARTESIAN_POINT ( 'NONE',  ( 42.00000000000000000, 3.000000000000000000, 1.600000000000000089 ) ) ;
#11 = CARTESIAN_POINT ( 'NONE',  ( 3.000000000000000000, 2.999999999999995115, 1.600000000000000089 ) ) ;
#12 = EDGE_LOOP ( 'NONE', ( #282, #626, #261, #83 ) ) ;
#13 =( GEOMETRIC_REPRESENTATION_CONTEXT ( 3 ) GLOBAL_UNCERTAINTY_ASSIGNED_CONTEXT ( ( #376 ) ) GLOBAL_UNIT_ASSIGNED_CONTEXT ( ( #20, #413, #163 ) ) REPRESENTATION_CONTEXT ( 'NONE', 'WORKASPACE' ) );
#14 = CARTESIAN_POINT ( 'NONE',  ( 42.00000000000000000, 3.000000000000000000, 1.600000000000000089 ) ) ;
#15 = CARTESIAN_POINT ( 'NONE',  ( 3.000000000000000000, 41.99999999999999289, 1.600000000000000089 ) ) ;
#16 = ORIENTED_EDGE ( 'NONE', *, *, #160, .F. ) ;
#17 = SURFACE_SIDE_STYLE ('',( #262 ) ) ;
#18 = CARTESIAN_POINT ( 'NONE',  ( 0.000000000000000000, 0.000000000000000000, 0.000000000000000000 ) ) ;
#19 = EDGE_LOOP ( 'NONE', ( #466, #273, #145, #517 ) ) ;
#20 =( LENGTH_UNIT ( ) NAMED_UNIT ( * ) SI_UNIT ( .MILLI., .METRE. ) );
#21 = CARTESIAN_POINT ( 'NONE',  ( 3.000000000000000000, 41.99999999999999289, 1.600000000000000089 ) ) ;
#22 = ORIENTED_EDGE ( 'NONE', *, *, #115, .F. ) ;
#23 = AXIS2_PLACEMENT_3D ( 'NONE', #496, #200, #104 ) ;
#24 = AXIS2_PLACEMENT_3D ( 'NONE', #274, #80, #229 ) ;
#25 = EDGE_CURVE ( 'NONE', #570, #486, #429, .T. ) ;
#26 = EDGE_CURVE ( 'NONE', #136, #65, #509, .T. ) ;
#27 = ORIENTED_EDGE ( 'NONE', *, *, #483, .F. ) ;
#28 = ADVANCED_FACE ( 'NONE', ( #142 ), #530, .T. ) ;
#29 = ORIENTED_EDGE ( 'NONE', *, *, #139, .F. ) ;
#30 = CARTESIAN_POINT ( 'NONE',  ( 40.45000000000000284, 3.000000000000000000, 1.600000000000000089 ) ) ;
#31 = ORIENTED_EDGE ( 'NONE', *, *, #396, .T. ) ;
#32 = AXIS2_PLACEMENT_3D ( 'NONE', #14, #637, #34 ) ;
#33 =( GEOMETRIC_REPRESENTATION_CONTEXT ( 3 ) GLOBAL_UNCERTAINTY_ASSIGNED_CONTEXT ( ( #164 ) ) GLOBAL_UNIT_ASSIGNED_CONTEXT ( ( #106, #552, #502 ) ) REPRESENTATION_CONTEXT ( 'NONE', 'WORKASPACE' ) );
#34 = DIRECTION ( 'NONE',  ( 1.000000000000000000, 0.000000000000000000, 0.000000000000000000 ) ) ;
#35 = CARTESIAN_POINT ( 'NONE',  ( 3.000000000000000000, 41.99999999999999289, 1.600000000000000089 ) ) ;
#36 = DIRECTION ( 'NONE',  ( -1.541976423090495387E-16, 1.000000000000000000, 0.000000000000000000 ) ) ;
#37 = CYLINDRICAL_SURFACE ( 'NONE', #437, 1.550000000000006040 ) ;
#38 = CARTESIAN_POINT ( 'NONE',  ( 40.44999999999999574, 41.99999999999999289, 1.600000000000000089 ) ) ;
#39 = DIRECTION ( 'NONE',  ( 0.000000000000000000, 0.000000000000000000, 1.000000000000000000 ) ) ;
#40 = DIRECTION ( 'NONE',  ( -0.000000000000000000, -0.000000000000000000, 1.000000000000000000 ) ) ;
#41 = FACE_OUTER_BOUND ( 'NONE', #564, .T. ) ;
#42 = VECTOR ( 'NONE', #40, 1000.000000000000000 ) ;
#43 = MECHANICAL_DESIGN_GEOMETRIC_PRESENTATION_REPRESENTATION (  '', ( #131 ), #33 ) ;
#44 = CARTESIAN_POINT ( 'NONE',  ( 42.99999999999999289, 43.00000000000000000, 0.000000000000000000 ) ) ;
#45 = DIRECTION ( 'NONE',  ( -0.000000000000000000, -0.000000000000000000, -1.000000000000000000 ) ) ;
#46 = CARTESIAN_POINT ( 'NONE',  ( 1.999999999999998668, 0.000000000000000000, 1.600000000000000089 ) ) ;
#47 = DIRECTION ( 'NONE',  ( 0.000000000000000000, 0.000000000000000000, 1.000000000000000000 ) ) ;
#48 = CARTESIAN_POINT ( 'NONE',  ( 0.000000000000000000, 0.000000000000000000, 1.600000000000000089 ) ) ;
#49 = ORIENTED_EDGE ( 'NONE', *, *, #214, .F. ) ;
#50 = LINE ( 'NONE', #150, #394 ) ;
#51 = FACE_BOUND ( 'NONE', #213, .T. ) ;
#52 = DIRECTION ( 'NONE',  ( 1.000000000000000000, 0.000000000000000000, 0.000000000000000000 ) ) ;
#53 = EDGE_CURVE ( 'NONE', #491, #581, #586, .T. ) ;
#54 = ORIENTED_EDGE ( 'NONE', *, *, #127, .T. ) ;
#55 = CARTESIAN_POINT ( 'NONE',  ( 43.54999999999999716, 41.99999999999999289, 1.600000000000000089 ) ) ;
#56 = CIRCLE ( 'NONE', #446, 1.550000000000006262 ) ;
#57 = DIRECTION ( 'NONE',  ( 0.000000000000000000, 0.000000000000000000, -1.000000000000000000 ) ) ;
#58 = CIRCLE ( 'NONE', #121, 1.550000000000006262 ) ;
#59 = CARTESIAN_POINT ( 'NONE',  ( 4.549999999999999822, 2.999999999999995115, 1.600000000000000089 ) ) ;
#60 = DIRECTION ( 'NONE',  ( 1.000000000000000000, 0.000000000000000000, 0.000000000000000000 ) ) ;
#61 = CARTESIAN_POINT ( 'NONE',  ( -7.806255641895631925E-15, 45.00000000000000000, 0.000000000000000000 ) ) ;
#62 = CARTESIAN_POINT ( 'NONE',  ( 41.99999999999999289, 41.99999999999999289, 1.600000000000000089 ) ) ;
#63 = DIRECTION ( 'NONE',  ( -1.000000000000000000, 0.000000000000000000, 0.000000000000000000 ) ) ;
#64 = AXIS2_PLACEMENT_3D ( 'NONE', #183, #435, #335 ) ;
#65 = VERTEX_POINT ( 'NONE', #99 ) ;
#66 = PRODUCT_DEFINITION_FORMATION_WITH_SPECIFIED_SOURCE ( 'ANY', '', #488, .NOT_KNOWN. ) ;
#67 = FILL_AREA_STYLE ('',( #462 ) ) ;
#68 = CARTESIAN_POINT ( 'NONE',  ( 45.00000000000000711, 0.000000000000000000, 0.000000000000000000 ) ) ;
#69 = CARTESIAN_POINT ( 'NONE',  ( 1.999999999999991340, 45.00000000000000000, 1.600000000000000089 ) ) ;
#70 = ORIENTED_EDGE ( 'NONE', *, *, #414, .T. ) ;
#71 = ORIENTED_EDGE ( 'NONE', *, *, #270, .T. ) ;
#72 = ADVANCED_FACE ( 'NONE', ( #342 ), #597, .F. ) ;
#73 = EDGE_CURVE ( 'NONE', #135, #268, #467, .T. ) ;
#74 = CARTESIAN_POINT ( 'NONE',  ( 1.449999999999993960, 41.99999999999999289, 0.000000000000000000 ) ) ;
#75 = DIRECTION ( 'NONE',  ( 0.000000000000000000, 0.000000000000000000, -1.000000000000000000 ) ) ;
#76 = ORIENTED_EDGE ( 'NONE', *, *, #127, .F. ) ;
#77 = AXIS2_PLACEMENT_3D ( 'NONE', #431, #279, #337 ) ;
#78 = EDGE_CURVE ( 'NONE', #581, #512, #389, .T. ) ;
#79 = ORIENTED_EDGE ( 'NONE', *, *, #504, .F. ) ;
#80 = DIRECTION ( 'NONE',  ( 0.000000000000000000, 0.000000000000000000, 1.000000000000000000 ) ) ;
#81 = SURFACE_STYLE_USAGE ( .BOTH. , #17 ) ;
#82 = CARTESIAN_POINT ( 'NONE',  ( 43.00000000000000000, 1.999999999999999112, 1.600000000000000089 ) ) ;
#83 = ORIENTED_EDGE ( 'NONE', *, *, #188, .F. ) ;
#84 = VECTOR ( 'NONE', #57, 1000.000000000000000 ) ;
#85 = CARTESIAN_POINT ( 'NONE',  ( 1.999999999999991340, 45.00000000000000000, 0.000000000000000000 ) ) ;
#86 = AXIS2_PLACEMENT_3D ( 'NONE', #44, #381, #489 ) ;
#87 = CARTESIAN_POINT ( 'NONE',  ( 40.44999999999999574, 41.99999999999999289, 0.000000000000000000 ) ) ;
#88 = PRODUCT_DEFINITION_CONTEXT ( 'detailed design', #422, 'design' ) ;
#89 = ORIENTED_EDGE ( 'NONE', *, *, #565, .T. ) ;
#90 = DIRECTION ( 'NONE',  ( 1.734723475976807587E-16, -1.000000000000000000, -0.000000000000000000 ) ) ;
#91 = EDGE_LOOP ( 'NONE', ( #439, #100 ) ) ;
#92 = EDGE_CURVE ( 'NONE', #512, #402, #276, .T. ) ;
#93 = CARTESIAN_POINT ( 'NONE',  ( 43.00000000000000000, 0.000000000000000000, 1.600000000000000089 ) ) ;
#94 = ORIENTED_EDGE ( 'NONE', *, *, #329, .F. ) ;
#95 = DIRECTION ( 'NONE',  ( -1.000000000000000000, 0.000000000000000000, 0.000000000000000000 ) ) ;
#96 = VECTOR ( 'NONE', #535, 1000.000000000000000 ) ;
#97 = PRODUCT_RELATED_PRODUCT_CATEGORY ( 'part', '', ( #488 ) ) ;
#98 = VECTOR ( 'NONE', #90, 1000.000000000000000 ) ;
#99 = CARTESIAN_POINT ( 'NONE',  ( 1.999999999999997780, 0.000000000000000000, 1.600000000000000089 ) ) ;
#100 = ORIENTED_EDGE ( 'NONE', *, *, #53, .F. ) ;
#101 = LINE ( 'NONE', #493, #547 ) ;
#102 = CARTESIAN_POINT ( 'NONE',  ( 0.000000000000000000, 0.000000000000000000, 1.600000000000000089 ) ) ;
#103 = EDGE_LOOP ( 'NONE', ( #76, #234, #9, #557 ) ) ;
#104 = DIRECTION ( 'NONE',  ( 1.000000000000000000, 0.000000000000000000, 0.000000000000000000 ) ) ;
#105 = CARTESIAN_POINT ( 'NONE',  ( 40.45000000000000284, 3.000000000000000000, 1.600000000000000089 ) ) ;
#106 =( LENGTH_UNIT ( ) NAMED_UNIT ( * ) SI_UNIT ( .MILLI., .METRE. ) );
#107 = DIRECTION ( 'NONE',  ( 0.000000000000000000, 0.000000000000000000, 1.000000000000000000 ) ) ;
#108 = LINE ( 'NONE', #59, #425 ) ;
#109 = DIRECTION ( 'NONE',  ( 0.000000000000000000, -0.000000000000000000, 1.000000000000000000 ) ) ;
#110 = AXIS2_PLACEMENT_3D ( 'NONE', #15, #543, #602 ) ;
#111 = LINE ( 'NONE', #239, #169 ) ;
#112 = VERTEX_POINT ( 'NONE', #241 ) ;
#113 = DIRECTION ( 'NONE',  ( -0.000000000000000000, -0.000000000000000000, 1.000000000000000000 ) ) ;
#114 = SURFACE_STYLE_FILL_AREA ( #606 ) ;
#115 = EDGE_CURVE ( 'NONE', #418, #576, #303, .T. ) ;
#116 = LINE ( 'NONE', #511, #587 ) ;
#117 = VERTEX_POINT ( 'NONE', #198 ) ;
#118 = DIRECTION ( 'NONE',  ( 0.000000000000000000, 0.000000000000000000, -1.000000000000000000 ) ) ;
#119 = AXIS2_PLACEMENT_3D ( 'NONE', #631, #47, #187 ) ;
#120 = EDGE_LOOP ( 'NONE', ( #176, #399 ) ) ;
#121 = AXIS2_PLACEMENT_3D ( 'NONE', #610, #468, #207 ) ;
#122 = EDGE_CURVE ( 'NONE', #463, #117, #56, .T. ) ;
#123 = CARTESIAN_POINT ( 'NONE',  ( 45.00000000000000000, 42.99999999999998579, 1.600000000000000089 ) ) ;
#124 = ORIENTED_EDGE ( 'NONE', *, *, #326, .F. ) ;
#125 = CARTESIAN_POINT ( 'NONE',  ( 43.55000000000000426, 3.000000000000000000, 1.600000000000000089 ) ) ;
#126 = ORIENTED_EDGE ( 'NONE', *, *, #617, .T. ) ;
#127 = EDGE_CURVE ( 'NONE', #491, #402, #111, .T. ) ;
#128 = CARTESIAN_POINT ( 'NONE',  ( 3.000000000000000000, 41.99999999999999289, 0.000000000000000000 ) ) ;
#129 = CARTESIAN_POINT ( 'NONE',  ( 1.449999999999999956, 2.999999999999995115, 0.000000000000000000 ) ) ;
#130 = EDGE_LOOP ( 'NONE', ( #447, #426, #558, #4 ) ) ;
#131 = STYLED_ITEM ( 'NONE', ( #158 ), #454 ) ;
#132 = ORIENTED_EDGE ( 'NONE', *, *, #159, .T. ) ;
#133 = DIRECTION ( 'NONE',  ( 1.541976423090495387E-16, -1.000000000000000000, 0.000000000000000000 ) ) ;
#134 = EDGE_CURVE ( 'NONE', #306, #366, #349, .T. ) ;
#135 = VERTEX_POINT ( 'NONE', #545 ) ;
#136 = VERTEX_POINT ( 'NONE', #148 ) ;
#137 = CARTESIAN_POINT ( 'NONE',  ( 45.00000000000000711, 1.999999999999998668, 0.000000000000000000 ) ) ;
#138 = CIRCLE ( 'NONE', #448, 2.000000000000001776 ) ;
#139 = EDGE_CURVE ( 'NONE', #306, #136, #256, .T. ) ;
#140 = VERTEX_POINT ( 'NONE', #289 ) ;
#141 = ADVANCED_FACE ( 'NONE', ( #452, #8, #490, #442, #404 ), #600, .F. ) ;
#142 = FACE_OUTER_BOUND ( 'NONE', #324, .T. ) ;
#143 = DIRECTION ( 'NONE',  ( -1.000000000000000000, 0.000000000000000000, 0.000000000000000000 ) ) ;
#144 = CARTESIAN_POINT ( 'NONE',  ( 3.000000000000000000, 41.99999999999999289, 1.600000000000000089 ) ) ;
#145 = ORIENTED_EDGE ( 'NONE', *, *, #188, .T. ) ;
#146 = AXIS2_PLACEMENT_3D ( 'NONE', #62, #407, #553 ) ;
#147 = DIRECTION ( 'NONE',  ( 0.000000000000000000, -0.000000000000000000, -1.000000000000000000 ) ) ;
#148 = CARTESIAN_POINT ( 'NONE',  ( -3.469446951953612217E-16, 1.999999999999998224, 1.600000000000000089 ) ) ;
#149 = CYLINDRICAL_SURFACE ( 'NONE', #525, 1.550000000000000266 ) ;
#150 = CARTESIAN_POINT ( 'NONE',  ( 1.449999999999999956, 2.999999999999995115, 1.600000000000000089 ) ) ;
#151 = ADVANCED_FACE ( 'NONE', ( #157 ), #245, .F. ) ;
#152 = CARTESIAN_POINT ( 'NONE',  ( 45.00000000000000711, 1.999999999999999556, 1.600000000000000089 ) ) ;
#153 = ORIENTED_EDGE ( 'NONE', *, *, #73, .T. ) ;
#154 = CARTESIAN_POINT ( 'NONE',  ( 42.99999999999999289, 43.00000000000000000, 1.600000000000000089 ) ) ;
#155 = DIRECTION ( 'NONE',  ( 0.000000000000000000, 0.000000000000000000, 1.000000000000000000 ) ) ;
#156 = VERTEX_POINT ( 'NONE', #391 ) ;
#157 = FACE_OUTER_BOUND ( 'NONE', #130, .T. ) ;
#158 = PRESENTATION_STYLE_ASSIGNMENT (( #161 ) ) ;
#159 = EDGE_CURVE ( 'NONE', #184, #486, #588, .T. ) ;
#160 = EDGE_CURVE ( 'NONE', #486, #306, #601, .T. ) ;
#161 = SURFACE_STYLE_USAGE ( .BOTH. , #360 ) ;
#162 = VERTEX_POINT ( 'NONE', #305 ) ;
#163 =( NAMED_UNIT ( * ) SI_UNIT ( $, .STERADIAN. ) SOLID_ANGLE_UNIT ( ) );
#164 = UNCERTAINTY_MEASURE_WITH_UNIT (LENGTH_MEASURE( 1.000000000000000082E-05 ), #106, 'distance_accuracy_value', 'NONE');
#165 = CARTESIAN_POINT ( 'NONE',  ( 1.449999999999999956, 2.999999999999995115, 1.600000000000000089 ) ) ;
#166 = EDGE_LOOP ( 'NONE', ( #520, #470, #461, #632, #49, #308, #536, #475 ) ) ;
#167 = LINE ( 'NONE', #61, #249 ) ;
#168 = ADVANCED_FACE ( 'NONE', ( #51, #505, #440, #513, #209 ), #507, .T. ) ;
#169 = VECTOR ( 'NONE', #542, 1000.000000000000000 ) ;
#170 = CIRCLE ( 'NONE', #23, 1.550000000000002709 ) ;
#171 = ORIENTED_EDGE ( 'NONE', *, *, #370, .T. ) ;
#172 = AXIS2_PLACEMENT_3D ( 'NONE', #224, #281, #479 ) ;
#173 = DIRECTION ( 'NONE',  ( -1.000000000000000000, 0.000000000000000000, 0.000000000000000000 ) ) ;
#174 = ORIENTED_EDGE ( 'NONE', *, *, #434, .T. ) ;
#175 = DIRECTION ( 'NONE',  ( -0.000000000000000000, -0.000000000000000000, -1.000000000000000000 ) ) ;
#176 = ORIENTED_EDGE ( 'NONE', *, *, #464, .F. ) ;
#177 = CARTESIAN_POINT ( 'NONE',  ( 1.999999999999998668, 1.999999999999999556, 1.600000000000000089 ) ) ;
#178 = CIRCLE ( 'NONE', #146, 1.550000000000002709 ) ;
#179 = EDGE_LOOP ( 'NONE', ( #555, #242 ) ) ;
#180 = LINE ( 'NONE', #182, #228 ) ;
#181 = ORIENTED_EDGE ( 'NONE', *, *, #254, .T. ) ;
#182 = CARTESIAN_POINT ( 'NONE',  ( 42.99999999999999289, 45.00000000000000000, 1.600000000000000089 ) ) ;
#183 = CARTESIAN_POINT ( 'NONE',  ( 3.000000000000000000, 2.999999999999995115, 1.600000000000000089 ) ) ;
#184 = VERTEX_POINT ( 'NONE', #417 ) ;
#185 = VECTOR ( 'NONE', #627, 1000.000000000000000 ) ;
#186 = AXIS2_PLACEMENT_3D ( 'NONE', #577, #325, #433 ) ;
#187 = DIRECTION ( 'NONE',  ( 1.000000000000000000, 0.000000000000000000, 0.000000000000000000 ) ) ;
#188 = EDGE_CURVE ( 'NONE', #117, #247, #560, .T. ) ;
#189 = EDGE_LOOP ( 'NONE', ( #594, #31 ) ) ;
#190 = DIRECTION ( 'NONE',  ( 0.000000000000000000, 0.000000000000000000, -1.000000000000000000 ) ) ;
#191 = CARTESIAN_POINT ( 'NONE',  ( 42.00000000000000000, 3.000000000000000000, 1.600000000000000089 ) ) ;
#192 = DIRECTION ( 'NONE',  ( -1.000000000000000000, 0.000000000000000000, -0.000000000000000000 ) ) ;
#193 = EDGE_LOOP ( 'NONE', ( #79, #174, #393, #443 ) ) ;
#194 = LINE ( 'NONE', #46, #623 ) ;
#195 = VECTOR ( 'NONE', #445, 1000.000000000000000 ) ;
#196 = FACE_OUTER_BOUND ( 'NONE', #277, .T. ) ;
#197 = DIRECTION ( 'NONE',  ( -0.000000000000000000, -0.000000000000000000, 1.000000000000000000 ) ) ;
#198 = CARTESIAN_POINT ( 'NONE',  ( 1.449999999999993960, 41.99999999999999289, 1.600000000000000089 ) ) ;
#199 = ORIENTED_EDGE ( 'NONE', *, *, #368, .F. ) ;
#200 = DIRECTION ( 'NONE',  ( 0.000000000000000000, 0.000000000000000000, 1.000000000000000000 ) ) ;
#201 = DIRECTION ( 'NONE',  ( 1.000000000000000000, 0.000000000000000000, 0.000000000000000000 ) ) ;
#202 = ORIENTED_EDGE ( 'NONE', *, *, #254, .F. ) ;
#203 = EDGE_CURVE ( 'NONE', #463, #607, #611, .T. ) ;
#204 = DIRECTION ( 'NONE',  ( 0.000000000000000000, 0.000000000000000000, 1.000000000000000000 ) ) ;
#205 = CYLINDRICAL_SURFACE ( 'NONE', #110, 1.550000000000006040 ) ;
#206 = ORIENTED_EDGE ( 'NONE', *, *, #396, .F. ) ;
#207 = DIRECTION ( 'NONE',  ( 1.000000000000000000, 0.000000000000000000, 0.000000000000000000 ) ) ;
#208 = VECTOR ( 'NONE', #556, 1000.000000000000000 ) ;
#209 = FACE_BOUND ( 'NONE', #223, .T. ) ;
#210 = DIRECTION ( 'NONE',  ( -0.000000000000000000, -0.000000000000000000, 1.000000000000000000 ) ) ;
#211 = ORIENTED_EDGE ( 'NONE', *, *, #385, .F. ) ;
#212 = CARTESIAN_POINT ( 'NONE',  ( 4.550000000000006040, 41.99999999999999289, 1.600000000000000089 ) ) ;
#213 = EDGE_LOOP ( 'NONE', ( #624, #379 ) ) ;
#214 = EDGE_CURVE ( 'NONE', #576, #156, #365, .T. ) ;
#215 = FACE_OUTER_BOUND ( 'NONE', #193, .T. ) ;
#216 = CLOSED_SHELL ( 'NONE', ( #521, #506, #151, #436, #141, #168, #387, #618, #574, #409, #5, #72, #427, #255, #503, #221, #288, #28 ) ) ;
#217 = CIRCLE ( 'NONE', #299, 1.550000000000000266 ) ;
#218 = ORIENTED_EDGE ( 'NONE', *, *, #635, .T. ) ;
#219 = CARTESIAN_POINT ( 'NONE',  ( 43.00000000000000000, 1.999999999999999112, 0.000000000000000000 ) ) ;
#220 = VERTEX_POINT ( 'NONE', #123 ) ;
#221 = ADVANCED_FACE ( 'NONE', ( #309 ), #516, .T. ) ;
#222 = PRODUCT_DEFINITION ( 'UNKNOWN', '', #66, #88 ) ;
#223 = EDGE_LOOP ( 'NONE', ( #361, #153 ) ) ;
#224 = CARTESIAN_POINT ( 'NONE',  ( 0.000000000000000000, 0.000000000000000000, 1.600000000000000089 ) ) ;
#225 = AXIS2_PLACEMENT_3D ( 'NONE', #386, #424, #583 ) ;
#226 = ORIENTED_EDGE ( 'NONE', *, *, #159, .F. ) ;
#227 = VECTOR ( 'NONE', #283, 1000.000000000000000 ) ;
#228 = VECTOR ( 'NONE', #235, 1000.000000000000000 ) ;
#229 = DIRECTION ( 'NONE',  ( 1.000000000000000000, 0.000000000000000000, 0.000000000000000000 ) ) ;
#230 = FACE_OUTER_BOUND ( 'NONE', #351, .T. ) ;
#231 = DIRECTION ( 'NONE',  ( -1.000000000000000000, 0.000000000000000000, 0.000000000000000000 ) ) ;
#232 = EDGE_CURVE ( 'NONE', #576, #252, #373, .T. ) ;
#233 = DIRECTION ( 'NONE',  ( -0.000000000000000000, -0.000000000000000000, -1.000000000000000000 ) ) ;
#234 = ORIENTED_EDGE ( 'NONE', *, *, #53, .T. ) ;
#235 = DIRECTION ( 'NONE',  ( 0.000000000000000000, 0.000000000000000000, -1.000000000000000000 ) ) ;
#236 = ORIENTED_EDGE ( 'NONE', *, *, #345, .F. ) ;
#237 = AXIS2_PLACEMENT_3D ( 'NONE', #102, #346, #192 ) ;
#238 = AXIS2_PLACEMENT_3D ( 'NONE', #253, #190, #95 ) ;
#239 = CARTESIAN_POINT ( 'NONE',  ( 43.55000000000000426, 3.000000000000000000, 1.600000000000000089 ) ) ;
#240 = DIRECTION ( 'NONE',  ( 1.000000000000000000, 0.000000000000000000, 0.000000000000000000 ) ) ;
#241 = CARTESIAN_POINT ( 'NONE',  ( 43.54999999999999716, 41.99999999999999289, 0.000000000000000000 ) ) ;
#242 = ORIENTED_EDGE ( 'NONE', *, *, #621, .T. ) ;
#243 = FACE_OUTER_BOUND ( 'NONE', #293, .T. ) ;
#244 = FACE_OUTER_BOUND ( 'NONE', #263, .T. ) ;
#245 = CYLINDRICAL_SURFACE ( 'NONE', #533, 1.550000000000002709 ) ;
#246 = FACE_OUTER_BOUND ( 'NONE', #12, .T. ) ;
#247 = VERTEX_POINT ( 'NONE', #74 ) ;
#248 = DIRECTION ( 'NONE',  ( -0.000000000000000000, 0.000000000000000000, -1.000000000000000000 ) ) ;
#249 = VECTOR ( 'NONE', #459, 1000.000000000000000 ) ;
#250 = CARTESIAN_POINT ( 'NONE',  ( 0.000000000000000000, 0.000000000000000000, 1.600000000000000089 ) ) ;
#251 = CARTESIAN_POINT ( 'NONE',  ( 41.99999999999999289, 41.99999999999999289, 1.600000000000000089 ) ) ;
#252 = VERTEX_POINT ( 'NONE', #307 ) ;
#253 = CARTESIAN_POINT ( 'NONE',  ( 1.999999999999998668, 1.999999999999999556, 0.000000000000000000 ) ) ;
#254 = EDGE_CURVE ( 'NONE', #1, #418, #578, .T. ) ;
#255 = ADVANCED_FACE ( 'NONE', ( #215 ), #369, .F. ) ;
#256 = LINE ( 'NONE', #48, #96 ) ;
#257 = ORIENTED_EDGE ( 'NONE', *, *, #546, .F. ) ;
#258 = AXIS2_PLACEMENT_3D ( 'NONE', #251, #592, #450 ) ;
#259 = AXIS2_PLACEMENT_3D ( 'NONE', #266, #419, #563 ) ;
#260 = UNCERTAINTY_MEASURE_WITH_UNIT (LENGTH_MEASURE( 1.000000000000000082E-05 ), #571, 'distance_accuracy_value', 'NONE');
#261 = ORIENTED_EDGE ( 'NONE', *, *, #526, .F. ) ;
#262 = SURFACE_STYLE_FILL_AREA ( #67 ) ;
#263 = EDGE_LOOP ( 'NONE', ( #29, #620, #126, #70 ) ) ;
#264 = DIRECTION ( 'NONE',  ( 0.000000000000000000, 0.000000000000000000, -1.000000000000000000 ) ) ;
#265 = ORIENTED_EDGE ( 'NONE', *, *, #297, .T. ) ;
#266 = CARTESIAN_POINT ( 'NONE',  ( 3.000000000000000000, 2.999999999999995115, 1.600000000000000089 ) ) ;
#267 = AXIS2_PLACEMENT_3D ( 'NONE', #10, #590, #143 ) ;
#268 = VERTEX_POINT ( 'NONE', #129 ) ;
#269 = EDGE_CURVE ( 'NONE', #140, #539, #178, .T. ) ;
#270 = EDGE_CURVE ( 'NONE', #561, #252, #116, .T. ) ;
#271 = EDGE_LOOP ( 'NONE', ( #527, #89, #495, #280 ) ) ;
#272 = PRESENTATION_STYLE_ASSIGNMENT (( #81 ) ) ;
#273 = ORIENTED_EDGE ( 'NONE', *, *, #122, .T. ) ;
#274 = CARTESIAN_POINT ( 'NONE',  ( 41.99999999999999289, 41.99999999999999289, 0.000000000000000000 ) ) ;
#275 = EDGE_CURVE ( 'NONE', #581, #491, #519, .T. ) ;
#276 = CIRCLE ( 'NONE', #518, 1.550000000000002709 ) ;
#277 = EDGE_LOOP ( 'NONE', ( #522, #54, #314, #474 ) ) ;
#278 = CARTESIAN_POINT ( 'NONE',  ( 45.00000000000000711, 0.000000000000000000, 1.600000000000000089 ) ) ;
#279 = DIRECTION ( 'NONE',  ( 0.000000000000000000, 0.000000000000000000, -1.000000000000000000 ) ) ;
#280 = ORIENTED_EDGE ( 'NONE', *, *, #115, .T. ) ;
#281 = DIRECTION ( 'NONE',  ( 0.000000000000000000, 1.000000000000000000, 0.000000000000000000 ) ) ;
#282 = ORIENTED_EDGE ( 'NONE', *, *, #464, .T. ) ;
#283 = DIRECTION ( 'NONE',  ( -0.000000000000000000, -0.000000000000000000, 1.000000000000000000 ) ) ;
#284 = EDGE_LOOP ( 'NONE', ( #132, #619, #604, #343, #265, #181, #451, #171 ) ) ;
#285 = VECTOR ( 'NONE', #312, 1000.000000000000000 ) ;
#286 = CIRCLE ( 'NONE', #534, 1.550000000000002709 ) ;
#287 = CIRCLE ( 'NONE', #186, 2.000000000000000000 ) ;
#288 = ADVANCED_FACE ( 'NONE', ( #230 ), #428, .T. ) ;
#289 = CARTESIAN_POINT ( 'NONE',  ( 43.54999999999999716, 41.99999999999999289, 1.600000000000000089 ) ) ;
#290 = ORIENTED_EDGE ( 'NONE', *, *, #414, .F. ) ;
#291 = CYLINDRICAL_SURFACE ( 'NONE', #613, 1.550000000000002709 ) ;
#292 = CARTESIAN_POINT ( 'NONE',  ( 1.999999999999992228, 42.99999999999999289, 1.600000000000000089 ) ) ;
#293 = EDGE_LOOP ( 'NONE', ( #572, #330, #420, #211 ) ) ;
#294 = DIRECTION ( 'NONE',  ( 1.000000000000000000, 0.000000000000000000, 0.000000000000000000 ) ) ;
#295 = DIRECTION ( 'NONE',  ( 1.000000000000000000, 1.734723475976807587E-16, -0.000000000000000000 ) ) ;
#296 = DIRECTION ( 'NONE',  ( -1.000000000000000000, 0.000000000000000000, 0.000000000000000000 ) ) ;
#297 = EDGE_CURVE ( 'NONE', #65, #1, #532, .T. ) ;
#298 = CIRCLE ( 'NONE', #119, 1.550000000000000266 ) ;
#299 = AXIS2_PLACEMENT_3D ( 'NONE', #11, #593, #52 ) ;
#300 = APPLICATION_CONTEXT ( 'automotive_design' ) ;
#301 = CIRCLE ( 'NONE', #549, 1.550000000000006262 ) ;
#302 = CARTESIAN_POINT ( 'NONE',  ( 45.00000000000000711, 1.999999999999998668, 1.600000000000000089 ) ) ;
#303 = LINE ( 'NONE', #152, #84 ) ;
#304 = CARTESIAN_POINT ( 'NONE',  ( 0.000000000000000000, 0.000000000000000000, 0.000000000000000000 ) ) ;
#305 = CARTESIAN_POINT ( 'NONE',  ( -3.469446951953612217E-16, 1.999999999999998224, 0.000000000000000000 ) ) ;
#306 = VERTEX_POINT ( 'NONE', #388 ) ;
#307 = CARTESIAN_POINT ( 'NONE',  ( 42.99999999999999289, 0.000000000000000000, 0.000000000000000000 ) ) ;
#308 = ORIENTED_EDGE ( 'NONE', *, *, #232, .T. ) ;
#309 = FACE_OUTER_BOUND ( 'NONE', #405, .T. ) ;
#310 = FACE_OUTER_BOUND ( 'NONE', #609, .T. ) ;
#311 = VERTEX_POINT ( 'NONE', #87 ) ;
#312 = DIRECTION ( 'NONE',  ( -1.541976423090495387E-16, 1.000000000000000000, 0.000000000000000000 ) ) ;
#313 = CARTESIAN_POINT ( 'NONE',  ( 1.999999999999992228, 42.99999999999999289, 1.600000000000000089 ) ) ;
#314 = ORIENTED_EDGE ( 'NONE', *, *, #92, .F. ) ;
#315 = EDGE_CURVE ( 'NONE', #402, #512, #286, .T. ) ;
#316 = EDGE_CURVE ( 'NONE', #418, #220, #575, .T. ) ;
#317 = DIRECTION ( 'NONE',  ( 0.000000000000000000, 0.000000000000000000, 1.000000000000000000 ) ) ;
#318 =( NAMED_UNIT ( * ) SI_UNIT ( $, .STERADIAN. ) SOLID_ANGLE_UNIT ( ) );
#319 = AXIS2_PLACEMENT_3D ( 'NONE', #292, #113, #494 ) ;
#320 = CARTESIAN_POINT ( 'NONE',  ( 42.99999999999999289, 43.00000000000000000, 1.600000000000000089 ) ) ;
#321 = PRESENTATION_LAYER_ASSIGNMENT (  '', '', ( #131 ) ) ;
#322 = VECTOR ( 'NONE', #233, 1000.000000000000000 ) ;
#323 = ORIENTED_EDGE ( 'NONE', *, *, #25, .F. ) ;
#324 = EDGE_LOOP ( 'NONE', ( #616, #290, #327, #27 ) ) ;
#325 = DIRECTION ( 'NONE',  ( 0.000000000000000000, 0.000000000000000000, -1.000000000000000000 ) ) ;
#326 = EDGE_CURVE ( 'NONE', #472, #412, #524, .T. ) ;
#327 = ORIENTED_EDGE ( 'NONE', *, *, #480, .F. ) ;
#328 = CARTESIAN_POINT ( 'NONE',  ( 45.00000000000000000, 43.00000000000000000, 1.600000000000000089 ) ) ;
#329 = EDGE_CURVE ( 'NONE', #383, #156, #622, .T. ) ;
#330 = ORIENTED_EDGE ( 'NONE', *, *, #504, .T. ) ;
#331 = COLOUR_RGB ( '',0.5019607843137254832, 1.000000000000000000, 0.5019607843137254832 ) ;
#332 = CARTESIAN_POINT ( 'NONE',  ( 4.550000000000006040, 41.99999999999999289, 0.000000000000000000 ) ) ;
#333 = ORIENTED_EDGE ( 'NONE', *, *, #134, .F. ) ;
#334 = DIRECTION ( 'NONE',  ( -1.000000000000000000, -1.541976423090495387E-16, 0.000000000000000000 ) ) ;
#335 = DIRECTION ( 'NONE',  ( 1.000000000000000000, 0.000000000000000000, 0.000000000000000000 ) ) ;
#336 = CARTESIAN_POINT ( 'NONE',  ( 42.99999999999999289, 0.000000000000000000, 1.600000000000000089 ) ) ;
#337 = DIRECTION ( 'NONE',  ( -1.000000000000000000, 0.000000000000000000, 0.000000000000000000 ) ) ;
#338 = DIRECTION ( 'NONE',  ( 1.000000000000000000, 0.000000000000000000, 0.000000000000000000 ) ) ;
#339 = ORIENTED_EDGE ( 'NONE', *, *, #546, .T. ) ;
#340 = CIRCLE ( 'NONE', #24, 1.550000000000002709 ) ;
#341 = FACE_OUTER_BOUND ( 'NONE', #515, .T. ) ;
#342 = FACE_OUTER_BOUND ( 'NONE', #528, .T. ) ;
#343 = ORIENTED_EDGE ( 'NONE', *, *, #26, .T. ) ;
#344 = CARTESIAN_POINT ( 'NONE',  ( 3.000000000000000000, 2.999999999999995115, 1.600000000000000089 ) ) ;
#345 = EDGE_CURVE ( 'NONE', #252, #1, #579, .T. ) ;
#346 = DIRECTION ( 'NONE',  ( 0.000000000000000000, 0.000000000000000000, -1.000000000000000000 ) ) ;
#347 = DIRECTION ( 'NONE',  ( -1.000000000000000000, 0.000000000000000000, 0.000000000000000000 ) ) ;
#348 = DIRECTION ( 'NONE',  ( 0.000000000000000000, -1.000000000000000000, 0.000000000000000000 ) ) ;
#349 = LINE ( 'NONE', #585, #498 ) ;
#350 = DIRECTION ( 'NONE',  ( -0.000000000000000000, -0.000000000000000000, -1.000000000000000000 ) ) ;
#351 = EDGE_LOOP ( 'NONE', ( #202, #236, #410, #22 ) ) ;
#352 = PRESENTATION_LAYER_ASSIGNMENT (  '', '', ( #580 ) ) ;
#353 = DIRECTION ( 'NONE',  ( -0.000000000000000000, -0.000000000000000000, -1.000000000000000000 ) ) ;
#354 = CARTESIAN_POINT ( 'NONE',  ( 1.449999999999993960, 41.99999999999999289, 1.600000000000000089 ) ) ;
#355 = DIRECTION ( 'NONE',  ( -1.000000000000000000, 0.000000000000000000, 0.000000000000000000 ) ) ;
#356 = ORIENTED_EDGE ( 'NONE', *, *, #269, .T. ) ;
#357 = SHAPE_DEFINITION_REPRESENTATION ( #584, #2 ) ;
#358 = EDGE_CURVE ( 'NONE', #268, #135, #298, .T. ) ;
#359 = DIRECTION ( 'NONE',  ( -1.000000000000000000, 0.000000000000000000, -0.000000000000000000 ) ) ;
#360 = SURFACE_SIDE_STYLE ('',( #114 ) ) ;
#361 = ORIENTED_EDGE ( 'NONE', *, *, #358, .T. ) ;
#362 = AXIS2_PLACEMENT_3D ( 'NONE', #177, #375, #501 ) ;
#363 = AXIS2_PLACEMENT_3D ( 'NONE', #82, #210, #63 ) ;
#364 =( GEOMETRIC_REPRESENTATION_CONTEXT ( 3 ) GLOBAL_UNCERTAINTY_ASSIGNED_CONTEXT ( ( #260 ) ) GLOBAL_UNIT_ASSIGNED_CONTEXT ( ( #571, #471, #318 ) ) REPRESENTATION_CONTEXT ( 'NONE', 'WORKASPACE' ) );
#365 = LINE ( 'NONE', #68, #285 ) ;
#366 = VERTEX_POINT ( 'NONE', #582 ) ;
#367 = APPLICATION_PROTOCOL_DEFINITION ( 'draft international standard', 'automotive_design', 1998, #422 ) ;
#368 = EDGE_CURVE ( 'NONE', #140, #112, #633, .T. ) ;
#369 = CYLINDRICAL_SURFACE ( 'NONE', #259, 1.550000000000000266 ) ;
#370 = EDGE_CURVE ( 'NONE', #220, #184, #138, .T. ) ;
#371 = ORIENTED_EDGE ( 'NONE', *, *, #297, .F. ) ;
#372 = ORIENTED_EDGE ( 'NONE', *, *, #25, .T. ) ;
#373 = CIRCLE ( 'NONE', #568, 2.000000000000001776 ) ;
#374 = MECHANICAL_DESIGN_GEOMETRIC_PRESENTATION_REPRESENTATION (  '', ( #580 ), #364 ) ;
#375 = DIRECTION ( 'NONE',  ( -0.000000000000000000, 0.000000000000000000, -1.000000000000000000 ) ) ;
#376 = UNCERTAINTY_MEASURE_WITH_UNIT (LENGTH_MEASURE( 1.000000000000000082E-05 ), #20, 'distance_accuracy_value', 'NONE');
#377 = FACE_OUTER_BOUND ( 'NONE', #19, .T. ) ;
#378 = CARTESIAN_POINT ( 'NONE',  ( 1.999999999999997780, 0.000000000000000000, 0.000000000000000000 ) ) ;
#379 = ORIENTED_EDGE ( 'NONE', *, *, #315, .T. ) ;
#380 = FACE_OUTER_BOUND ( 'NONE', #271, .T. ) ;
#381 = DIRECTION ( 'NONE',  ( 0.000000000000000000, 0.000000000000000000, -1.000000000000000000 ) ) ;
#382 = AXIS2_PLACEMENT_3D ( 'NONE', #400, #348, #147 ) ;
#383 = VERTEX_POINT ( 'NONE', #591 ) ;
#384 = DIRECTION ( 'NONE',  ( 1.000000000000000000, 0.000000000000000000, 0.000000000000000000 ) ) ;
#385 = EDGE_CURVE ( 'NONE', #472, #268, #50, .T. ) ;
#386 = CARTESIAN_POINT ( 'NONE',  ( 1.999999999999998668, 1.999999999999999556, 1.600000000000000089 ) ) ;
#387 = ADVANCED_FACE ( 'NONE', ( #244 ), #397, .F. ) ;
#388 = CARTESIAN_POINT ( 'NONE',  ( -7.459310946700267351E-15, 42.99999999999997868, 1.600000000000000089 ) ) ;
#389 = LINE ( 'NONE', #105, #195 ) ;
#390 = DIRECTION ( 'NONE',  ( -0.000000000000000000, -0.000000000000000000, -1.000000000000000000 ) ) ;
#391 = CARTESIAN_POINT ( 'NONE',  ( 45.00000000000000000, 42.99999999999998579, 0.000000000000000000 ) ) ;
#392 = AXIS2_PLACEMENT_3D ( 'NONE', #638, #204, #7 ) ;
#393 = ORIENTED_EDGE ( 'NONE', *, *, #385, .T. ) ;
#394 = VECTOR ( 'NONE', #390, 1000.000000000000000 ) ;
#395 = AXIS2_PLACEMENT_3D ( 'NONE', #313, #75, #347 ) ;
#396 = EDGE_CURVE ( 'NONE', #112, #311, #170, .T. ) ;
#397 = PLANE ( 'NONE',  #499 ) ;
#398 = DIRECTION ( 'NONE',  ( 0.000000000000000000, 0.000000000000000000, -1.000000000000000000 ) ) ;
#399 = ORIENTED_EDGE ( 'NONE', *, *, #122, .F. ) ;
#400 = CARTESIAN_POINT ( 'NONE',  ( -7.806255641895631925E-15, 45.00000000000000000, 1.600000000000000089 ) ) ;
#401 = CARTESIAN_POINT ( 'NONE',  ( 42.00000000000000000, 3.000000000000000000, 0.000000000000000000 ) ) ;
#402 = VERTEX_POINT ( 'NONE', #537 ) ;
#403 = APPLICATION_PROTOCOL_DEFINITION ( 'draft international standard', 'automotive_design', 1998, #300 ) ;
#404 = FACE_BOUND ( 'NONE', #453, .T. ) ;
#405 = EDGE_LOOP ( 'NONE', ( #599, #457, #94, #257 ) ) ;
#406 = AXIS2_PLACEMENT_3D ( 'NONE', #18, #411, #359 ) ;
#407 = DIRECTION ( 'NONE',  ( 0.000000000000000000, 0.000000000000000000, 1.000000000000000000 ) ) ;
#408 = CARTESIAN_POINT ( 'NONE',  ( 41.99999999999999289, 41.99999999999999289, 1.600000000000000089 ) ) ;
#409 = ADVANCED_FACE ( 'NONE', ( #341 ), #449, .F. ) ;
#410 = ORIENTED_EDGE ( 'NONE', *, *, #232, .F. ) ;
#411 = DIRECTION ( 'NONE',  ( 0.000000000000000000, 0.000000000000000000, -1.000000000000000000 ) ) ;
#412 = VERTEX_POINT ( 'NONE', #544 ) ;
#413 =( NAMED_UNIT ( * ) PLANE_ANGLE_UNIT ( ) SI_UNIT ( $, .RADIAN. ) );
#414 = EDGE_CURVE ( 'NONE', #162, #136, #101, .T. ) ;
#415 = VECTOR ( 'NONE', #551, 1000.000000000000000 ) ;
#416 = AXIS2_PLACEMENT_3D ( 'NONE', #304, #39, #636 ) ;
#417 = CARTESIAN_POINT ( 'NONE',  ( 42.99999999999997868, 45.00000000000000000, 1.600000000000000089 ) ) ;
#418 = VERTEX_POINT ( 'NONE', #302 ) ;
#419 = DIRECTION ( 'NONE',  ( -0.000000000000000000, -0.000000000000000000, -1.000000000000000000 ) ) ;
#420 = ORIENTED_EDGE ( 'NONE', *, *, #358, .F. ) ;
#421 = PLANE ( 'NONE',  #172 ) ;
#422 = APPLICATION_CONTEXT ( 'automotive_design' ) ;
#423 = DIRECTION ( 'NONE',  ( 1.000000000000000000, 0.000000000000000000, 0.000000000000000000 ) ) ;
#424 = DIRECTION ( 'NONE',  ( -0.000000000000000000, -0.000000000000000000, 1.000000000000000000 ) ) ;
#425 = VECTOR ( 'NONE', #492, 1000.000000000000000 ) ;
#426 = ORIENTED_EDGE ( 'NONE', *, *, #368, .T. ) ;
#427 = ADVANCED_FACE ( 'NONE', ( #500 ), #291, .F. ) ;
#428 = CYLINDRICAL_SURFACE ( 'NONE', #77, 2.000000000000001776 ) ;
#429 = LINE ( 'NONE', #482, #42 ) ;
#430 = CARTESIAN_POINT ( 'NONE',  ( 40.44999999999999574, 41.99999999999999289, 1.600000000000000089 ) ) ;
#431 = CARTESIAN_POINT ( 'NONE',  ( 43.00000000000000000, 1.999999999999999112, 1.600000000000000089 ) ) ;
#432 = EDGE_LOOP ( 'NONE', ( #508, #523 ) ) ;
#433 = DIRECTION ( 'NONE',  ( -1.000000000000000000, 0.000000000000000000, 0.000000000000000000 ) ) ;
#434 = EDGE_CURVE ( 'NONE', #412, #472, #217, .T. ) ;
#435 = DIRECTION ( 'NONE',  ( 0.000000000000000000, 0.000000000000000000, 1.000000000000000000 ) ) ;
#436 = ADVANCED_FACE ( 'NONE', ( #246 ), #205, .F. ) ;
#437 = AXIS2_PLACEMENT_3D ( 'NONE', #35, #45, #231 ) ;
#438 = VECTOR ( 'NONE', #6, 1000.000000000000000 ) ;
#439 = ORIENTED_EDGE ( 'NONE', *, *, #275, .F. ) ;
#440 = FACE_OUTER_BOUND ( 'NONE', #166, .T. ) ;
#441 = DIRECTION ( 'NONE',  ( 0.000000000000000000, 0.000000000000000000, 1.000000000000000000 ) ) ;
#442 = FACE_BOUND ( 'NONE', #91, .T. ) ;
#443 = ORIENTED_EDGE ( 'NONE', *, *, #73, .F. ) ;
#444 = CARTESIAN_POINT ( 'NONE',  ( 42.00000000000000000, 3.000000000000000000, 1.600000000000000089 ) ) ;
#445 = DIRECTION ( 'NONE',  ( -0.000000000000000000, -0.000000000000000000, -1.000000000000000000 ) ) ;
#446 = AXIS2_PLACEMENT_3D ( 'NONE', #144, #634, #338 ) ;
#447 = ORIENTED_EDGE ( 'NONE', *, *, #456, .T. ) ;
#448 = AXIS2_PLACEMENT_3D ( 'NONE', #154, #197, #541 ) ;
#449 = PLANE ( 'NONE',  #382 ) ;
#450 = DIRECTION ( 'NONE',  ( -1.000000000000000000, 0.000000000000000000, 0.000000000000000000 ) ) ;
#451 = ORIENTED_EDGE ( 'NONE', *, *, #316, .T. ) ;
#452 = FACE_OUTER_BOUND ( 'NONE', #284, .T. ) ;
#453 = EDGE_LOOP ( 'NONE', ( #124, #589 ) ) ;
#454 = MANIFOLD_SOLID_BREP ( 'Verrundung1', #216 ) ;
#455 = CYLINDRICAL_SURFACE ( 'NONE', #267, 1.550000000000002709 ) ;
#456 = EDGE_CURVE ( 'NONE', #539, #140, #510, .T. ) ;
#457 = ORIENTED_EDGE ( 'NONE', *, *, #565, .F. ) ;
#458 = AXIS2_PLACEMENT_3D ( 'NONE', #320, #264, #173 ) ;
#459 = DIRECTION ( 'NONE',  ( -1.000000000000000000, -0.000000000000000000, -0.000000000000000000 ) ) ;
#460 = DIRECTION ( 'NONE',  ( 1.000000000000000000, 0.000000000000000000, 0.000000000000000000 ) ) ;
#461 = ORIENTED_EDGE ( 'NONE', *, *, #635, .F. ) ;
#462 = FILL_AREA_STYLE_COLOUR ( '', #331 ) ;
#463 = VERTEX_POINT ( 'NONE', #212 ) ;
#464 = EDGE_CURVE ( 'NONE', #117, #463, #301, .T. ) ;
#465 = DIRECTION ( 'NONE',  ( -1.000000000000000000, 0.000000000000000000, 0.000000000000000000 ) ) ;
#466 = ORIENTED_EDGE ( 'NONE', *, *, #203, .F. ) ;
#467 = CIRCLE ( 'NONE', #392, 1.550000000000000266 ) ;
#468 = DIRECTION ( 'NONE',  ( 0.000000000000000000, 0.000000000000000000, 1.000000000000000000 ) ) ;
#469 = VECTOR ( 'NONE', #473, 1000.000000000000000 ) ;
#470 = ORIENTED_EDGE ( 'NONE', *, *, #595, .T. ) ;
#471 =( NAMED_UNIT ( * ) PLANE_ANGLE_UNIT ( ) SI_UNIT ( $, .RADIAN. ) );
#472 = VERTEX_POINT ( 'NONE', #165 ) ;
#473 = DIRECTION ( 'NONE',  ( -0.000000000000000000, -0.000000000000000000, 1.000000000000000000 ) ) ;
#474 = ORIENTED_EDGE ( 'NONE', *, *, #78, .F. ) ;
#475 = ORIENTED_EDGE ( 'NONE', *, *, #480, .T. ) ;
#476 = LINE ( 'NONE', #430, #322 ) ;
#477 = CARTESIAN_POINT ( 'NONE',  ( 45.00000000000000711, 0.000000000000000000, 1.600000000000000089 ) ) ;
#478 = ORIENTED_EDGE ( 'NONE', *, *, #598, .T. ) ;
#479 = DIRECTION ( 'NONE',  ( 0.000000000000000000, -0.000000000000000000, 1.000000000000000000 ) ) ;
#480 = EDGE_CURVE ( 'NONE', #561, #162, #487, .T. ) ;
#481 = CARTESIAN_POINT ( 'NONE',  ( 42.00000000000000000, 3.000000000000000000, 0.000000000000000000 ) ) ;
#482 = CARTESIAN_POINT ( 'NONE',  ( 1.999999999999992228, 45.00000000000000000, 1.600000000000000089 ) ) ;
#483 = EDGE_CURVE ( 'NONE', #65, #561, #194, .T. ) ;
#484 = AXIS2_PLACEMENT_3D ( 'NONE', #191, #155, #201 ) ;
#485 = VECTOR ( 'NONE', #36, 1000.000000000000000 ) ;
#486 = VERTEX_POINT ( 'NONE', #69 ) ;
#487 = CIRCLE ( 'NONE', #238, 2.000000000000000000 ) ;
#488 = PRODUCT ( 'PCB', 'PCB', '', ( #559 ) ) ;
#489 = DIRECTION ( 'NONE',  ( -1.000000000000000000, 0.000000000000000000, 0.000000000000000000 ) ) ;
#490 = FACE_BOUND ( 'NONE', #432, .T. ) ;
#491 = VERTEX_POINT ( 'NONE', #125 ) ;
#492 = DIRECTION ( 'NONE',  ( -0.000000000000000000, -0.000000000000000000, -1.000000000000000000 ) ) ;
#493 = CARTESIAN_POINT ( 'NONE',  ( -3.469446951953613203E-16, 1.999999999999999112, 1.600000000000000089 ) ) ;
#494 = DIRECTION ( 'NONE',  ( -1.000000000000000000, 2.081668171172168513E-14, 0.000000000000000000 ) ) ;
#495 = ORIENTED_EDGE ( 'NONE', *, *, #316, .F. ) ;
#496 = CARTESIAN_POINT ( 'NONE',  ( 41.99999999999999289, 41.99999999999999289, 0.000000000000000000 ) ) ;
#497 = CARTESIAN_POINT ( 'NONE',  ( -7.806255641895631925E-15, 45.00000000000000000, 1.600000000000000089 ) ) ;
#498 = VECTOR ( 'NONE', #398, 1000.000000000000000 ) ;
#499 = AXIS2_PLACEMENT_3D ( 'NONE', #250, #295, #596 ) ;
#500 = FACE_OUTER_BOUND ( 'NONE', #103, .T. ) ;
#501 = DIRECTION ( 'NONE',  ( -1.000000000000000000, 0.000000000000000000, 0.000000000000000000 ) ) ;
#502 =( NAMED_UNIT ( * ) SI_UNIT ( $, .STERADIAN. ) SOLID_ANGLE_UNIT ( ) );
#503 = ADVANCED_FACE ( 'NONE', ( #310 ), #514, .T. ) ;
#504 = EDGE_CURVE ( 'NONE', #412, #135, #108, .T. ) ;
#505 = FACE_BOUND ( 'NONE', #179, .T. ) ;
#506 = ADVANCED_FACE ( 'NONE', ( #196 ), #455, .F. ) ;
#507 = PLANE ( 'NONE',  #406 ) ;
#508 = ORIENTED_EDGE ( 'NONE', *, *, #456, .F. ) ;
#509 = CIRCLE ( 'NONE', #225, 2.000000000000000000 ) ;
#510 = CIRCLE ( 'NONE', #605, 1.550000000000002709 ) ;
#511 = CARTESIAN_POINT ( 'NONE',  ( 0.000000000000000000, 0.000000000000000000, 0.000000000000000000 ) ) ;
#512 = VERTEX_POINT ( 'NONE', #531 ) ;
#513 = FACE_BOUND ( 'NONE', #189, .T. ) ;
#514 = CYLINDRICAL_SURFACE ( 'NONE', #395, 2.000000000000000000 ) ;
#515 = EDGE_LOOP ( 'NONE', ( #218, #372, #226, #339 ) ) ;
#516 = CYLINDRICAL_SURFACE ( 'NONE', #458, 2.000000000000001776 ) ;
#517 = ORIENTED_EDGE ( 'NONE', *, *, #621, .F. ) ;
#518 = AXIS2_PLACEMENT_3D ( 'NONE', #401, #538, #60 ) ;
#519 = CIRCLE ( 'NONE', #32, 1.550000000000002709 ) ;
#520 = ORIENTED_EDGE ( 'NONE', *, *, #617, .F. ) ;
#521 = ADVANCED_FACE ( 'NONE', ( #243 ), #149, .F. ) ;
#522 = ORIENTED_EDGE ( 'NONE', *, *, #275, .T. ) ;
#523 = ORIENTED_EDGE ( 'NONE', *, *, #269, .F. ) ;
#524 = CIRCLE ( 'NONE', #64, 1.550000000000000266 ) ;
#525 = AXIS2_PLACEMENT_3D ( 'NONE', #344, #540, #562 ) ;
#526 = EDGE_CURVE ( 'NONE', #247, #607, #630, .T. ) ;
#527 = ORIENTED_EDGE ( 'NONE', *, *, #214, .T. ) ;
#528 = EDGE_LOOP ( 'NONE', ( #199, #356, #478, #206 ) ) ;
#529 = CARTESIAN_POINT ( 'NONE',  ( 0.000000000000000000, 0.000000000000000000, 0.000000000000000000 ) ) ;
#530 = CYLINDRICAL_SURFACE ( 'NONE', #362, 2.000000000000000000 ) ;
#531 = CARTESIAN_POINT ( 'NONE',  ( 40.45000000000000284, 3.000000000000000000, 0.000000000000000000 ) ) ;
#532 = LINE ( 'NONE', #625, #185 ) ;
#533 = AXIS2_PLACEMENT_3D ( 'NONE', #3, #353, #296 ) ;
#534 = AXIS2_PLACEMENT_3D ( 'NONE', #481, #441, #240 ) ;
#535 = DIRECTION ( 'NONE',  ( 1.734723475976807587E-16, -1.000000000000000000, -0.000000000000000000 ) ) ;
#536 = ORIENTED_EDGE ( 'NONE', *, *, #270, .F. ) ;
#537 = CARTESIAN_POINT ( 'NONE',  ( 43.55000000000000426, 3.000000000000000000, 0.000000000000000000 ) ) ;
#538 = DIRECTION ( 'NONE',  ( 0.000000000000000000, 0.000000000000000000, 1.000000000000000000 ) ) ;
#539 = VERTEX_POINT ( 'NONE', #38 ) ;
#540 = DIRECTION ( 'NONE',  ( -0.000000000000000000, -0.000000000000000000, -1.000000000000000000 ) ) ;
#541 = DIRECTION ( 'NONE',  ( -1.000000000000000000, 0.000000000000000000, 0.000000000000000000 ) ) ;
#542 = DIRECTION ( 'NONE',  ( -0.000000000000000000, -0.000000000000000000, -1.000000000000000000 ) ) ;
#543 = DIRECTION ( 'NONE',  ( -0.000000000000000000, -0.000000000000000000, -1.000000000000000000 ) ) ;
#544 = CARTESIAN_POINT ( 'NONE',  ( 4.549999999999999822, 2.999999999999995115, 1.600000000000000089 ) ) ;
#545 = CARTESIAN_POINT ( 'NONE',  ( 4.549999999999999822, 2.999999999999995115, 0.000000000000000000 ) ) ;
#546 = EDGE_CURVE ( 'NONE', #184, #383, #180, .T. ) ;
#547 = VECTOR ( 'NONE', #109, 1000.000000000000000 ) ;
#548 = ORIENTED_EDGE ( 'NONE', *, *, #483, .T. ) ;
#549 = AXIS2_PLACEMENT_3D ( 'NONE', #21, #107, #294 ) ;
#550 = EDGE_CURVE ( 'NONE', #311, #112, #340, .T. ) ;
#551 = DIRECTION ( 'NONE',  ( -1.000000000000000000, -0.000000000000000000, -0.000000000000000000 ) ) ;
#552 =( NAMED_UNIT ( * ) PLANE_ANGLE_UNIT ( ) SI_UNIT ( $, .RADIAN. ) );
#553 = DIRECTION ( 'NONE',  ( 1.000000000000000000, 0.000000000000000000, 0.000000000000000000 ) ) ;
#554 = DIRECTION ( 'NONE',  ( 0.000000000000000000, 0.000000000000000000, 1.000000000000000000 ) ) ;
#555 = ORIENTED_EDGE ( 'NONE', *, *, #526, .T. ) ;
#556 = DIRECTION ( 'NONE',  ( -0.000000000000000000, -0.000000000000000000, -1.000000000000000000 ) ) ;
#557 = ORIENTED_EDGE ( 'NONE', *, *, #315, .F. ) ;
#558 = ORIENTED_EDGE ( 'NONE', *, *, #550, .F. ) ;
#559 = PRODUCT_CONTEXT ( 'NONE', #300, 'mechanical' ) ;
#560 = LINE ( 'NONE', #354, #208 ) ;
#561 = VERTEX_POINT ( 'NONE', #378 ) ;
#562 = DIRECTION ( 'NONE',  ( -1.000000000000000000, 0.000000000000000000, 0.000000000000000000 ) ) ;
#563 = DIRECTION ( 'NONE',  ( -1.000000000000000000, 0.000000000000000000, 0.000000000000000000 ) ) ;
#564 = EDGE_LOOP ( 'NONE', ( #71, #612, #371, #548 ) ) ;
#565 = EDGE_CURVE ( 'NONE', #156, #220, #573, .T. ) ;
#566 = VECTOR ( 'NONE', #175, 1000.000000000000000 ) ;
#567 = PLANE ( 'NONE',  #569 ) ;
#568 = AXIS2_PLACEMENT_3D ( 'NONE', #219, #118, #465 ) ;
#569 = AXIS2_PLACEMENT_3D ( 'NONE', #278, #334, #133 ) ;
#570 = VERTEX_POINT ( 'NONE', #85 ) ;
#571 =( LENGTH_UNIT ( ) NAMED_UNIT ( * ) SI_UNIT ( .MILLI., .METRE. ) );
#572 = ORIENTED_EDGE ( 'NONE', *, *, #326, .T. ) ;
#573 = LINE ( 'NONE', #328, #469 ) ;
#574 = ADVANCED_FACE ( 'NONE', ( #380 ), #567, .F. ) ;
#575 = LINE ( 'NONE', #477, #485 ) ;
#576 = VERTEX_POINT ( 'NONE', #137 ) ;
#577 = CARTESIAN_POINT ( 'NONE',  ( 1.999999999999992228, 42.99999999999999289, 0.000000000000000000 ) ) ;
#578 = CIRCLE ( 'NONE', #363, 2.000000000000001776 ) ;
#579 = LINE ( 'NONE', #93, #227 ) ;
#580 = STYLED_ITEM ( 'NONE', ( #272 ), #2 ) ;
#581 = VERTEX_POINT ( 'NONE', #30 ) ;
#582 = CARTESIAN_POINT ( 'NONE',  ( -7.459310946700267351E-15, 42.99999999999997868, 0.000000000000000000 ) ) ;
#583 = DIRECTION ( 'NONE',  ( -1.000000000000000000, -8.673617379884035472E-16, 0.000000000000000000 ) ) ;
#584 = PRODUCT_DEFINITION_SHAPE ( 'NONE', 'NONE',  #222 ) ;
#585 = CARTESIAN_POINT ( 'NONE',  ( -7.459310946700270506E-15, 42.99999999999999289, 1.600000000000000089 ) ) ;
#586 = CIRCLE ( 'NONE', #484, 1.550000000000002709 ) ;
#587 = VECTOR ( 'NONE', #460, 1000.000000000000000 ) ;
#588 = LINE ( 'NONE', #497, #415 ) ;
#589 = ORIENTED_EDGE ( 'NONE', *, *, #434, .F. ) ;
#590 = DIRECTION ( 'NONE',  ( -0.000000000000000000, -0.000000000000000000, -1.000000000000000000 ) ) ;
#591 = CARTESIAN_POINT ( 'NONE',  ( 42.99999999999997868, 45.00000000000000000, 0.000000000000000000 ) ) ;
#592 = DIRECTION ( 'NONE',  ( -0.000000000000000000, -0.000000000000000000, -1.000000000000000000 ) ) ;
#593 = DIRECTION ( 'NONE',  ( 0.000000000000000000, 0.000000000000000000, 1.000000000000000000 ) ) ;
#594 = ORIENTED_EDGE ( 'NONE', *, *, #550, .T. ) ;
#595 = EDGE_CURVE ( 'NONE', #366, #570, #287, .T. ) ;
#596 = DIRECTION ( 'NONE',  ( -1.734723475976807587E-16, 1.000000000000000000, 0.000000000000000000 ) ) ;
#597 = CYLINDRICAL_SURFACE ( 'NONE', #258, 1.550000000000002709 ) ;
#598 = EDGE_CURVE ( 'NONE', #539, #311, #476, .T. ) ;
#599 = ORIENTED_EDGE ( 'NONE', *, *, #370, .F. ) ;
#600 = PLANE ( 'NONE',  #237 ) ;
#601 = CIRCLE ( 'NONE', #319, 2.000000000000000000 ) ;
#602 = DIRECTION ( 'NONE',  ( -1.000000000000000000, 0.000000000000000000, 0.000000000000000000 ) ) ;
#603 = COLOUR_RGB ( '',0.5019607843137254832, 1.000000000000000000, 0.5019607843137254832 ) ;
#604 = ORIENTED_EDGE ( 'NONE', *, *, #139, .T. ) ;
#605 = AXIS2_PLACEMENT_3D ( 'NONE', #408, #554, #423 ) ;
#606 = FILL_AREA_STYLE ('',( #608 ) ) ;
#607 = VERTEX_POINT ( 'NONE', #332 ) ;
#608 = FILL_AREA_STYLE_COLOUR ( '', #603 ) ;
#609 = EDGE_LOOP ( 'NONE', ( #16, #323, #628, #333 ) ) ;
#610 = CARTESIAN_POINT ( 'NONE',  ( 3.000000000000000000, 41.99999999999999289, 0.000000000000000000 ) ) ;
#611 = LINE ( 'NONE', #615, #566 ) ;
#612 = ORIENTED_EDGE ( 'NONE', *, *, #345, .T. ) ;
#613 = AXIS2_PLACEMENT_3D ( 'NONE', #444, #350, #355 ) ;
#614 = AXIS2_PLACEMENT_3D ( 'NONE', #128, #317, #384 ) ;
#615 = CARTESIAN_POINT ( 'NONE',  ( 4.550000000000006040, 41.99999999999999289, 1.600000000000000089 ) ) ;
#616 = ORIENTED_EDGE ( 'NONE', *, *, #26, .F. ) ;
#617 = EDGE_CURVE ( 'NONE', #366, #162, #629, .T. ) ;
#618 = ADVANCED_FACE ( 'NONE', ( #41 ), #421, .F. ) ;
#619 = ORIENTED_EDGE ( 'NONE', *, *, #160, .T. ) ;
#620 = ORIENTED_EDGE ( 'NONE', *, *, #134, .T. ) ;
#621 = EDGE_CURVE ( 'NONE', #607, #247, #58, .T. ) ;
#622 = CIRCLE ( 'NONE', #86, 2.000000000000001776 ) ;
#623 = VECTOR ( 'NONE', #248, 1000.000000000000000 ) ;
#624 = ORIENTED_EDGE ( 'NONE', *, *, #92, .T. ) ;
#625 = CARTESIAN_POINT ( 'NONE',  ( 0.000000000000000000, 0.000000000000000000, 1.600000000000000089 ) ) ;
#626 = ORIENTED_EDGE ( 'NONE', *, *, #203, .T. ) ;
#627 = DIRECTION ( 'NONE',  ( 1.000000000000000000, 0.000000000000000000, 0.000000000000000000 ) ) ;
#628 = ORIENTED_EDGE ( 'NONE', *, *, #595, .F. ) ;
#629 = LINE ( 'NONE', #529, #98 ) ;
#630 = CIRCLE ( 'NONE', #614, 1.550000000000006262 ) ;
#631 = CARTESIAN_POINT ( 'NONE',  ( 3.000000000000000000, 2.999999999999995115, 0.000000000000000000 ) ) ;
#632 = ORIENTED_EDGE ( 'NONE', *, *, #329, .T. ) ;
#633 = LINE ( 'NONE', #55, #438 ) ;
#634 = DIRECTION ( 'NONE',  ( 0.000000000000000000, 0.000000000000000000, 1.000000000000000000 ) ) ;
#635 = EDGE_CURVE ( 'NONE', #383, #570, #167, .T. ) ;
#636 = DIRECTION ( 'NONE',  ( 1.000000000000000000, 0.000000000000000000, 0.000000000000000000 ) ) ;
#637 = DIRECTION ( 'NONE',  ( 0.000000000000000000, 0.000000000000000000, 1.000000000000000000 ) ) ;
#638 = CARTESIAN_POINT ( 'NONE',  ( 3.000000000000000000, 2.999999999999995115, 0.000000000000000000 ) ) ;
ENDSEC;
END-ISO-10303-21;
