G04*
G04 #@! TF.GenerationSoftware,Altium Limited,Altium Designer,21.6.4 (81)*
G04*
G04 Layer_Color=255*
%FSLAX44Y44*%
%MOMM*%
G71*
G04*
G04 #@! TF.SameCoordinates,26D0E7B3-AAE4-4812-B184-49AD84F33247*
G04*
G04*
G04 #@! TF.FilePolarity,Positive*
G04*
G01*
G75*
%ADD43O,1.8000X1.4000*%
%ADD44O,1.5240X3.0480*%
%ADD45C,1.6510*%
%ADD46C,1.0000*%
%ADD47O,1.6000X2.6000*%
D43*
X650750Y171800D02*
D03*
Y196800D02*
D03*
Y95600D02*
D03*
Y69800D02*
D03*
Y44800D02*
D03*
Y121000D02*
D03*
Y146400D02*
D03*
D44*
X39800Y430620D02*
D03*
X65200D02*
D03*
X90600D02*
D03*
X116000D02*
D03*
X141400D02*
D03*
X166800D02*
D03*
X192200D02*
D03*
X217600D02*
D03*
X243000D02*
D03*
X268400D02*
D03*
X293800D02*
D03*
X319200D02*
D03*
X344600D02*
D03*
X370000D02*
D03*
X395400D02*
D03*
D03*
X39800Y262980D02*
D03*
X65200D02*
D03*
X90600D02*
D03*
X116000D02*
D03*
X141400D02*
D03*
X166800D02*
D03*
X192200D02*
D03*
X217600D02*
D03*
X243000D02*
D03*
X268400D02*
D03*
X293800D02*
D03*
X319200D02*
D03*
X344600D02*
D03*
X370000D02*
D03*
X395400D02*
D03*
D45*
X14400Y423000D02*
D03*
Y270600D02*
D03*
X420800D02*
D03*
Y423000D02*
D03*
D46*
X19480Y401410D02*
D03*
Y376010D02*
D03*
X394380Y321400D02*
D03*
X419780D02*
D03*
Y346800D02*
D03*
X394380Y372200D02*
D03*
X419780D02*
D03*
X394380Y346800D02*
D03*
D47*
X31750Y33274D02*
D03*
X56750D02*
D03*
X377894Y31750D02*
D03*
X403294D02*
D03*
X453694D02*
D03*
X428694D02*
D03*
X201971Y32500D02*
D03*
X176971D02*
D03*
X151571D02*
D03*
X314444Y32250D02*
D03*
X289444D02*
D03*
X264044D02*
D03*
X511694Y31750D02*
D03*
X537094D02*
D03*
X562094D02*
D03*
M02*
