G04*
G04 #@! TF.GenerationSoftware,Altium Limited,Altium Designer,21.6.4 (81)*
G04*
G04 Layer_Color=128*
%FSLAX44Y44*%
%MOMM*%
G71*
G04*
G04 #@! TF.SameCoordinates,26D0E7B3-AAE4-4812-B184-49AD84F33247*
G04*
G04*
G04 #@! TF.FilePolarity,Positive*
G04*
G01*
G75*
%ADD14C,0.1270*%
D14*
X646250Y171800D02*
X655250D01*
X650750Y167300D02*
Y176300D01*
X646250Y196800D02*
X655250D01*
X650750Y192300D02*
Y201300D01*
X646250Y95600D02*
X655250D01*
X650750Y91100D02*
Y100100D01*
X646250Y69800D02*
X655250D01*
X650750Y65300D02*
Y74300D01*
X646250Y44800D02*
X655250D01*
X650750Y40300D02*
Y49300D01*
X646250Y121000D02*
X655250D01*
X650750Y116500D02*
Y125500D01*
X646250Y146400D02*
X655250D01*
X650750Y141900D02*
Y150900D01*
X34720Y423000D02*
X44880D01*
X39800Y417920D02*
Y428080D01*
X60120Y423000D02*
X70280D01*
X65200Y417920D02*
Y428080D01*
X85520Y423000D02*
X95680D01*
X90600Y417920D02*
Y428080D01*
X110920Y423000D02*
X121080D01*
X116000Y417920D02*
Y428080D01*
X136320Y423000D02*
X146480D01*
X141400Y417920D02*
Y428080D01*
X161720Y423000D02*
X171880D01*
X166800Y417920D02*
Y428080D01*
X187120Y423000D02*
X197280D01*
X192200Y417920D02*
Y428080D01*
X212520Y423000D02*
X222680D01*
X217600Y417920D02*
Y428080D01*
X237920Y423000D02*
X248080D01*
X243000Y417920D02*
Y428080D01*
X263320Y423000D02*
X273480D01*
X268400Y417920D02*
Y428080D01*
X288720Y423000D02*
X298880D01*
X293800Y417920D02*
Y428080D01*
X314120Y423000D02*
X324280D01*
X319200Y417920D02*
Y428080D01*
X339520Y423000D02*
X349680D01*
X344600Y417920D02*
Y428080D01*
X364920Y423000D02*
X375080D01*
X370000Y417920D02*
Y428080D01*
X390320Y423000D02*
X400480D01*
X395400Y417920D02*
Y428080D01*
X390320Y423000D02*
X400480D01*
X395400Y417920D02*
Y428080D01*
X34720Y270600D02*
X44880D01*
X39800Y265520D02*
Y275680D01*
X60120Y270600D02*
X70280D01*
X65200Y265520D02*
Y275680D01*
X85520Y270600D02*
X95680D01*
X90600Y265520D02*
Y275680D01*
X110920Y270600D02*
X121080D01*
X116000Y265520D02*
Y275680D01*
X136320Y270600D02*
X146480D01*
X141400Y265520D02*
Y275680D01*
X161720Y270600D02*
X171880D01*
X166800Y265520D02*
Y275680D01*
X187120Y270600D02*
X197280D01*
X192200Y265520D02*
Y275680D01*
X212520Y270600D02*
X222680D01*
X217600Y265520D02*
Y275680D01*
X237920Y270600D02*
X248080D01*
X243000Y265520D02*
Y275680D01*
X263320Y270600D02*
X273480D01*
X268400Y265520D02*
Y275680D01*
X288720Y270600D02*
X298880D01*
X293800Y265520D02*
Y275680D01*
X314120Y270600D02*
X324280D01*
X319200Y265520D02*
Y275680D01*
X339520Y270600D02*
X349680D01*
X344600Y265520D02*
Y275680D01*
X364920Y270600D02*
X375080D01*
X370000Y265520D02*
Y275680D01*
X390320Y270600D02*
X400480D01*
X395400Y265520D02*
Y275680D01*
X6145Y423000D02*
X22655D01*
X14400Y414745D02*
Y431255D01*
X6145Y270600D02*
X22655D01*
X14400Y262345D02*
Y278855D01*
X412545Y270600D02*
X429055D01*
X420800Y262345D02*
Y278855D01*
X412545Y423000D02*
X429055D01*
X420800Y414745D02*
Y431255D01*
X16480Y401410D02*
X22480D01*
X19480Y398410D02*
Y404410D01*
X16480Y376010D02*
X22480D01*
X19480Y373010D02*
Y379010D01*
X391380Y321400D02*
X397380D01*
X394380Y318400D02*
Y324400D01*
X416780Y321400D02*
X422780D01*
X419780Y318400D02*
Y324400D01*
X416780Y346800D02*
X422780D01*
X419780Y343800D02*
Y349800D01*
X391380Y372200D02*
X397380D01*
X394380Y369200D02*
Y375200D01*
X416780Y372200D02*
X422780D01*
X419780Y369200D02*
Y375200D01*
X391380Y346800D02*
X397380D01*
X394380Y343800D02*
Y349800D01*
X26750Y33274D02*
X36750D01*
X31750Y28274D02*
Y38274D01*
X51750Y33274D02*
X61750D01*
X56750Y28274D02*
Y38274D01*
X372894Y31750D02*
X382894D01*
X377894Y26750D02*
Y36750D01*
X398294Y31750D02*
X408294D01*
X403294Y26750D02*
Y36750D01*
X448694Y31750D02*
X458694D01*
X453694Y26750D02*
Y36750D01*
X423694Y31750D02*
X433694D01*
X428694Y26750D02*
Y36750D01*
X196971Y32500D02*
X206971D01*
X201971Y27500D02*
Y37500D01*
X171971Y32500D02*
X181971D01*
X176971Y27500D02*
Y37500D01*
X146571Y32500D02*
X156571D01*
X151571Y27500D02*
Y37500D01*
X309444Y32250D02*
X319444D01*
X314444Y27250D02*
Y37250D01*
X284444Y32250D02*
X294444D01*
X289444Y27250D02*
Y37250D01*
X259044Y32250D02*
X269044D01*
X264044Y27250D02*
Y37250D01*
X506694Y31750D02*
X516694D01*
X511694Y26750D02*
Y36750D01*
X532094Y31750D02*
X542094D01*
X537094Y26750D02*
Y36750D01*
X557094Y31750D02*
X567094D01*
X562094Y26750D02*
Y36750D01*
X526930Y256399D02*
X529930D01*
X528430Y254899D02*
Y257899D01*
X42000Y210750D02*
X45000D01*
X43500Y209250D02*
Y212250D01*
X183250Y213500D02*
X186250D01*
X184750Y212000D02*
Y215000D01*
X386000Y171800D02*
X389000D01*
X387500Y170300D02*
Y173300D01*
X146221Y165300D02*
X149221D01*
X147721Y163800D02*
Y166800D01*
X574724Y256399D02*
X577724D01*
X576224Y254899D02*
Y257899D01*
X134000Y368500D02*
X137000D01*
X135500Y367000D02*
Y370000D01*
X448750Y141321D02*
X451750D01*
X450250Y139821D02*
Y142821D01*
X566268Y163000D02*
X569268D01*
X567768Y161500D02*
Y164500D01*
X588242Y151638D02*
X591242D01*
X589743Y150138D02*
Y153138D01*
X619038Y214322D02*
X622038D01*
X620538Y212822D02*
Y215822D01*
X126444Y197466D02*
X129444D01*
X127944Y195966D02*
Y198966D01*
X436000Y280500D02*
X439000D01*
X437500Y279000D02*
Y282000D01*
X447318Y285092D02*
X450318D01*
X448818Y283592D02*
Y286592D01*
X547500Y205500D02*
X550500D01*
X549000Y204000D02*
Y207000D01*
X552930Y194250D02*
X555930D01*
X554430Y192750D02*
Y195750D01*
X572430Y191050D02*
X575430D01*
X573930Y189550D02*
Y192550D01*
X454000Y417250D02*
X485000D01*
X469500Y401750D02*
Y432750D01*
X90750Y95750D02*
X121750D01*
X106250Y80250D02*
Y111250D01*
M02*
