G04*
G04 #@! TF.GenerationSoftware,Altium Limited,Altium Designer,21.6.4 (81)*
G04*
G04 Layer_Color=16711935*
%FSLAX44Y44*%
%MOMM*%
G71*
G04*
G04 #@! TF.SameCoordinates,26D0E7B3-AAE4-4812-B184-49AD84F33247*
G04*
G04*
G04 #@! TF.FilePolarity,Negative*
G04*
G01*
G75*
%ADD35O,2.0032X1.6032*%
%ADD36O,1.7272X3.2512*%
%ADD37C,1.8542*%
%ADD38C,1.2032*%
%ADD39O,1.8032X2.8032*%
%ADD40C,6.0000*%
D35*
X650750Y171800D02*
D03*
Y196800D02*
D03*
Y95600D02*
D03*
Y69800D02*
D03*
Y44800D02*
D03*
Y121000D02*
D03*
Y146400D02*
D03*
D36*
X39800Y430620D02*
D03*
X65200D02*
D03*
X90600D02*
D03*
X116000D02*
D03*
X141400D02*
D03*
X166800D02*
D03*
X192200D02*
D03*
X217600D02*
D03*
X243000D02*
D03*
X268400D02*
D03*
X293800D02*
D03*
X319200D02*
D03*
X344600D02*
D03*
X370000D02*
D03*
X395400D02*
D03*
D03*
X39800Y262980D02*
D03*
X65200D02*
D03*
X90600D02*
D03*
X116000D02*
D03*
X141400D02*
D03*
X166800D02*
D03*
X192200D02*
D03*
X217600D02*
D03*
X243000D02*
D03*
X268400D02*
D03*
X293800D02*
D03*
X319200D02*
D03*
X344600D02*
D03*
X370000D02*
D03*
X395400D02*
D03*
D37*
X14400Y423000D02*
D03*
Y270600D02*
D03*
X420800D02*
D03*
Y423000D02*
D03*
D38*
X19480Y401410D02*
D03*
Y376010D02*
D03*
X394380Y321400D02*
D03*
X419780D02*
D03*
Y346800D02*
D03*
X394380Y372200D02*
D03*
X419780D02*
D03*
X394380Y346800D02*
D03*
D39*
X31750Y33274D02*
D03*
X56750D02*
D03*
X377894Y31750D02*
D03*
X403294D02*
D03*
X453694D02*
D03*
X428694D02*
D03*
X201971Y32500D02*
D03*
X176971D02*
D03*
X151571D02*
D03*
X314444Y32250D02*
D03*
X289444D02*
D03*
X264044D02*
D03*
X511694Y31750D02*
D03*
X537094D02*
D03*
X562094D02*
D03*
D40*
X469500Y417250D02*
D03*
X106250Y95750D02*
D03*
M02*
