G04*
G04 #@! TF.GenerationSoftware,Altium Limited,Altium Designer,21.6.4 (81)*
G04*
G04 Layer_Color=8388736*
%FSLAX44Y44*%
%MOMM*%
G71*
G04*
G04 #@! TF.SameCoordinates,26D0E7B3-AAE4-4812-B184-49AD84F33247*
G04*
G04*
G04 #@! TF.FilePolarity,Negative*
G04*
G01*
G75*
%ADD26O,0.6032X1.4032*%
%ADD27R,0.8032X1.1532*%
%ADD28R,1.7032X1.5032*%
%ADD29R,1.7032X1.9032*%
%ADD30R,1.4032X1.6032*%
%ADD31R,1.9032X1.7032*%
%ADD32R,1.8032X1.7032*%
%ADD33R,1.0032X1.6032*%
%ADD34R,1.7032X1.2032*%
%ADD35O,2.0032X1.6032*%
%ADD36O,1.7272X3.2512*%
%ADD37C,1.8542*%
%ADD38C,1.2032*%
%ADD39O,1.8032X2.8032*%
%ADD40C,6.0000*%
D26*
X528430Y181050D02*
D03*
X534930D02*
D03*
X541430D02*
D03*
X547930D02*
D03*
X554430D02*
D03*
X560930D02*
D03*
X567430D02*
D03*
X573930D02*
D03*
X528430Y238050D02*
D03*
X534930D02*
D03*
X541430D02*
D03*
X547930D02*
D03*
X554430D02*
D03*
X560930D02*
D03*
X567430D02*
D03*
X573930D02*
D03*
D27*
X479932Y151638D02*
D03*
X463932D02*
D03*
X479932Y133350D02*
D03*
X463932D02*
D03*
X348106Y136906D02*
D03*
X332106D02*
D03*
X575430Y269748D02*
D03*
X559430D02*
D03*
X118998Y188468D02*
D03*
X102998D02*
D03*
X310610Y136906D02*
D03*
X294610D02*
D03*
X196750Y136000D02*
D03*
X180750D02*
D03*
D28*
X513268Y315092D02*
D03*
D29*
X648268Y447092D02*
D03*
X513268D02*
D03*
D30*
Y389092D02*
D03*
D31*
X645768Y298592D02*
D03*
D32*
X519768D02*
D03*
D33*
X611768Y297592D02*
D03*
X600768D02*
D03*
X589768D02*
D03*
X578768D02*
D03*
X567768D02*
D03*
X556768D02*
D03*
X545768D02*
D03*
X534768D02*
D03*
D34*
X25800Y156466D02*
D03*
Y188466D02*
D03*
X75800D02*
D03*
Y156466D02*
D03*
D35*
X650750Y171800D02*
D03*
Y196800D02*
D03*
Y95600D02*
D03*
Y69800D02*
D03*
Y44800D02*
D03*
Y121000D02*
D03*
Y146400D02*
D03*
D36*
X39800Y430620D02*
D03*
X65200D02*
D03*
X90600D02*
D03*
X116000D02*
D03*
X141400D02*
D03*
X166800D02*
D03*
X192200D02*
D03*
X217600D02*
D03*
X243000D02*
D03*
X268400D02*
D03*
X293800D02*
D03*
X319200D02*
D03*
X344600D02*
D03*
X370000D02*
D03*
X395400D02*
D03*
D03*
X39800Y262980D02*
D03*
X65200D02*
D03*
X90600D02*
D03*
X116000D02*
D03*
X141400D02*
D03*
X166800D02*
D03*
X192200D02*
D03*
X217600D02*
D03*
X243000D02*
D03*
X268400D02*
D03*
X293800D02*
D03*
X319200D02*
D03*
X344600D02*
D03*
X370000D02*
D03*
X395400D02*
D03*
D37*
X14400Y423000D02*
D03*
Y270600D02*
D03*
X420800D02*
D03*
Y423000D02*
D03*
D38*
X19480Y401410D02*
D03*
Y376010D02*
D03*
X394380Y321400D02*
D03*
X419780D02*
D03*
Y346800D02*
D03*
X394380Y372200D02*
D03*
X419780D02*
D03*
X394380Y346800D02*
D03*
D39*
X31750Y33274D02*
D03*
X56750D02*
D03*
X377894Y31750D02*
D03*
X403294D02*
D03*
X453694D02*
D03*
X428694D02*
D03*
X201971Y32500D02*
D03*
X176971D02*
D03*
X151571D02*
D03*
X314444Y32250D02*
D03*
X289444D02*
D03*
X264044D02*
D03*
X511694Y31750D02*
D03*
X537094D02*
D03*
X562094D02*
D03*
D40*
X469500Y417250D02*
D03*
X106250Y95750D02*
D03*
M02*
