G04*
G04 #@! TF.GenerationSoftware,Altium Limited,Altium Designer,21.6.4 (81)*
G04*
G04 Layer_Physical_Order=2*
G04 Layer_Color=16711680*
%FSLAX44Y44*%
%MOMM*%
G71*
G04*
G04 #@! TF.SameCoordinates,26D0E7B3-AAE4-4812-B184-49AD84F33247*
G04*
G04*
G04 #@! TF.FilePolarity,Positive*
G04*
G01*
G75*
%ADD40C,6.0000*%
%ADD41C,0.3000*%
%ADD42C,0.5000*%
%ADD43O,1.8000X1.4000*%
%ADD44O,1.5240X3.0480*%
%ADD45C,1.6510*%
%ADD46C,1.0000*%
%ADD47O,1.6000X2.6000*%
%ADD48C,0.5000*%
G36*
X673451Y475451D02*
X673451Y1549D01*
X1549Y1549D01*
X1549Y475451D01*
X673451Y475451D01*
D02*
G37*
%LPC*%
G36*
X319950Y447340D02*
Y431370D01*
X328399D01*
Y438240D01*
X328085Y440621D01*
X327166Y442839D01*
X325704Y444744D01*
X323799Y446206D01*
X321581Y447125D01*
X319950Y447340D01*
D02*
G37*
G36*
X318450D02*
X316819Y447125D01*
X314601Y446206D01*
X312696Y444744D01*
X311234Y442839D01*
X310315Y440621D01*
X310001Y438240D01*
Y431370D01*
X318450D01*
Y447340D01*
D02*
G37*
G36*
X470250Y448788D02*
Y418000D01*
X501038D01*
X500708Y422193D01*
X499551Y427014D01*
X497654Y431595D01*
X495063Y435822D01*
X491843Y439593D01*
X488073Y442813D01*
X483845Y445404D01*
X479264Y447301D01*
X474443Y448458D01*
X470250Y448788D01*
D02*
G37*
G36*
X468750D02*
X464557Y448458D01*
X459736Y447301D01*
X455155Y445404D01*
X450928Y442813D01*
X447157Y439593D01*
X443937Y435822D01*
X441347Y431595D01*
X439449Y427014D01*
X438292Y422193D01*
X437962Y418000D01*
X468750D01*
Y448788D01*
D02*
G37*
G36*
X328399Y429870D02*
X319950D01*
Y413900D01*
X321581Y414115D01*
X323799Y415034D01*
X325704Y416496D01*
X327166Y418401D01*
X328085Y420619D01*
X328399Y423000D01*
Y429870D01*
D02*
G37*
G36*
X318450D02*
X310001D01*
Y423000D01*
X310315Y420619D01*
X311234Y418401D01*
X312696Y416496D01*
X314601Y415034D01*
X316819Y414115D01*
X318450Y413900D01*
Y429870D01*
D02*
G37*
G36*
X395400Y447439D02*
X393019Y447125D01*
X390801Y446206D01*
X388895Y444744D01*
X387434Y442839D01*
X386515Y440621D01*
X386201Y438240D01*
Y423000D01*
X386515Y420619D01*
X387434Y418401D01*
X388895Y416496D01*
X390801Y415034D01*
X393019Y414115D01*
X395400Y413801D01*
X397781Y414115D01*
X399999Y415034D01*
X401904Y416496D01*
X403366Y418401D01*
X404285Y420619D01*
X404599Y423000D01*
Y438240D01*
X404285Y440621D01*
X403366Y442839D01*
X401904Y444744D01*
X399999Y446206D01*
X397781Y447125D01*
X395400Y447439D01*
D02*
G37*
G36*
X370000D02*
X367619Y447125D01*
X365401Y446206D01*
X363495Y444744D01*
X362034Y442839D01*
X361115Y440621D01*
X360801Y438240D01*
Y423000D01*
X361115Y420619D01*
X362034Y418401D01*
X363495Y416496D01*
X365401Y415034D01*
X367619Y414115D01*
X370000Y413801D01*
X372381Y414115D01*
X374599Y415034D01*
X376505Y416496D01*
X377966Y418401D01*
X378885Y420619D01*
X379199Y423000D01*
Y438240D01*
X378885Y440621D01*
X377966Y442839D01*
X376505Y444744D01*
X374599Y446206D01*
X372381Y447125D01*
X370000Y447439D01*
D02*
G37*
G36*
X344600D02*
X342219Y447125D01*
X340001Y446206D01*
X338096Y444744D01*
X336634Y442839D01*
X335715Y440621D01*
X335401Y438240D01*
Y423000D01*
X335715Y420619D01*
X336634Y418401D01*
X338096Y416496D01*
X340001Y415034D01*
X342219Y414115D01*
X344600Y413801D01*
X346981Y414115D01*
X349199Y415034D01*
X351105Y416496D01*
X352566Y418401D01*
X353485Y420619D01*
X353799Y423000D01*
Y438240D01*
X353485Y440621D01*
X352566Y442839D01*
X351105Y444744D01*
X349199Y446206D01*
X346981Y447125D01*
X344600Y447439D01*
D02*
G37*
G36*
X293800D02*
X291419Y447125D01*
X289201Y446206D01*
X287295Y444744D01*
X285834Y442839D01*
X284915Y440621D01*
X284601Y438240D01*
Y423000D01*
X284915Y420619D01*
X285834Y418401D01*
X287295Y416496D01*
X289201Y415034D01*
X291419Y414115D01*
X293800Y413801D01*
X296181Y414115D01*
X298399Y415034D01*
X300305Y416496D01*
X301766Y418401D01*
X302685Y420619D01*
X302999Y423000D01*
Y438240D01*
X302685Y440621D01*
X301766Y442839D01*
X300305Y444744D01*
X298399Y446206D01*
X296181Y447125D01*
X293800Y447439D01*
D02*
G37*
G36*
X268400D02*
X266019Y447125D01*
X263801Y446206D01*
X261896Y444744D01*
X260434Y442839D01*
X259515Y440621D01*
X259201Y438240D01*
Y423000D01*
X259515Y420619D01*
X260434Y418401D01*
X261896Y416496D01*
X263801Y415034D01*
X266019Y414115D01*
X268400Y413801D01*
X270781Y414115D01*
X272999Y415034D01*
X274904Y416496D01*
X276366Y418401D01*
X277285Y420619D01*
X277599Y423000D01*
Y438240D01*
X277285Y440621D01*
X276366Y442839D01*
X274904Y444744D01*
X272999Y446206D01*
X270781Y447125D01*
X268400Y447439D01*
D02*
G37*
G36*
X243000D02*
X240619Y447125D01*
X238401Y446206D01*
X236495Y444744D01*
X235034Y442839D01*
X234115Y440621D01*
X233801Y438240D01*
Y423000D01*
X234115Y420619D01*
X235034Y418401D01*
X236495Y416496D01*
X238401Y415034D01*
X240619Y414115D01*
X243000Y413801D01*
X245381Y414115D01*
X247599Y415034D01*
X249505Y416496D01*
X250966Y418401D01*
X251885Y420619D01*
X252199Y423000D01*
Y438240D01*
X251885Y440621D01*
X250966Y442839D01*
X249505Y444744D01*
X247599Y446206D01*
X245381Y447125D01*
X243000Y447439D01*
D02*
G37*
G36*
X217600D02*
X215219Y447125D01*
X213001Y446206D01*
X211096Y444744D01*
X209634Y442839D01*
X208715Y440621D01*
X208401Y438240D01*
Y423000D01*
X208715Y420619D01*
X209634Y418401D01*
X211096Y416496D01*
X213001Y415034D01*
X215219Y414115D01*
X217600Y413801D01*
X219981Y414115D01*
X222199Y415034D01*
X224104Y416496D01*
X225566Y418401D01*
X226485Y420619D01*
X226799Y423000D01*
Y438240D01*
X226485Y440621D01*
X225566Y442839D01*
X224104Y444744D01*
X222199Y446206D01*
X219981Y447125D01*
X217600Y447439D01*
D02*
G37*
G36*
X192200D02*
X189819Y447125D01*
X187601Y446206D01*
X185695Y444744D01*
X184234Y442839D01*
X183315Y440621D01*
X183001Y438240D01*
Y423000D01*
X183315Y420619D01*
X184234Y418401D01*
X185695Y416496D01*
X187601Y415034D01*
X189819Y414115D01*
X192200Y413801D01*
X194581Y414115D01*
X196799Y415034D01*
X198704Y416496D01*
X200166Y418401D01*
X201085Y420619D01*
X201399Y423000D01*
Y438240D01*
X201085Y440621D01*
X200166Y442839D01*
X198704Y444744D01*
X196799Y446206D01*
X194581Y447125D01*
X192200Y447439D01*
D02*
G37*
G36*
X166800D02*
X164419Y447125D01*
X162201Y446206D01*
X160296Y444744D01*
X158834Y442839D01*
X157915Y440621D01*
X157601Y438240D01*
Y423000D01*
X157915Y420619D01*
X158834Y418401D01*
X160296Y416496D01*
X162201Y415034D01*
X164419Y414115D01*
X166800Y413801D01*
X169181Y414115D01*
X171399Y415034D01*
X173305Y416496D01*
X174766Y418401D01*
X175685Y420619D01*
X175999Y423000D01*
Y438240D01*
X175685Y440621D01*
X174766Y442839D01*
X173305Y444744D01*
X171399Y446206D01*
X169181Y447125D01*
X166800Y447439D01*
D02*
G37*
G36*
X141400D02*
X139019Y447125D01*
X136801Y446206D01*
X134895Y444744D01*
X133434Y442839D01*
X132515Y440621D01*
X132201Y438240D01*
Y423000D01*
X132515Y420619D01*
X133434Y418401D01*
X134895Y416496D01*
X136801Y415034D01*
X139019Y414115D01*
X141400Y413801D01*
X143781Y414115D01*
X145999Y415034D01*
X147905Y416496D01*
X149366Y418401D01*
X150285Y420619D01*
X150599Y423000D01*
Y438240D01*
X150285Y440621D01*
X149366Y442839D01*
X147905Y444744D01*
X145999Y446206D01*
X143781Y447125D01*
X141400Y447439D01*
D02*
G37*
G36*
X116000D02*
X113619Y447125D01*
X111401Y446206D01*
X109495Y444744D01*
X108034Y442839D01*
X107115Y440621D01*
X106801Y438240D01*
Y423000D01*
X107115Y420619D01*
X108034Y418401D01*
X109495Y416496D01*
X111401Y415034D01*
X113619Y414115D01*
X116000Y413801D01*
X118381Y414115D01*
X120599Y415034D01*
X122505Y416496D01*
X123966Y418401D01*
X124885Y420619D01*
X125199Y423000D01*
Y438240D01*
X124885Y440621D01*
X123966Y442839D01*
X122505Y444744D01*
X120599Y446206D01*
X118381Y447125D01*
X116000Y447439D01*
D02*
G37*
G36*
X90600D02*
X88219Y447125D01*
X86001Y446206D01*
X84095Y444744D01*
X82634Y442839D01*
X81715Y440621D01*
X81401Y438240D01*
Y423000D01*
X81715Y420619D01*
X82634Y418401D01*
X84095Y416496D01*
X86001Y415034D01*
X88219Y414115D01*
X90600Y413801D01*
X92981Y414115D01*
X95199Y415034D01*
X97105Y416496D01*
X98566Y418401D01*
X99485Y420619D01*
X99799Y423000D01*
Y438240D01*
X99485Y440621D01*
X98566Y442839D01*
X97105Y444744D01*
X95199Y446206D01*
X92981Y447125D01*
X90600Y447439D01*
D02*
G37*
G36*
X420800Y432839D02*
X418253Y432504D01*
X415880Y431521D01*
X413843Y429957D01*
X412279Y427920D01*
X411296Y425546D01*
X410961Y423000D01*
X411296Y420453D01*
X412279Y418080D01*
X413843Y416043D01*
X415880Y414479D01*
X418253Y413496D01*
X420800Y413161D01*
X423346Y413496D01*
X425720Y414479D01*
X427757Y416043D01*
X429321Y418080D01*
X430304Y420453D01*
X430639Y423000D01*
X430304Y425546D01*
X429321Y427920D01*
X427757Y429957D01*
X425720Y431521D01*
X423346Y432504D01*
X420800Y432839D01*
D02*
G37*
G36*
X14400D02*
X11853Y432504D01*
X9480Y431521D01*
X7443Y429957D01*
X5879Y427920D01*
X4896Y425546D01*
X4561Y423000D01*
X4896Y420453D01*
X5879Y418080D01*
X7443Y416043D01*
X9480Y414479D01*
X11853Y413496D01*
X14400Y413161D01*
X16947Y413496D01*
X19320Y414479D01*
X21357Y416043D01*
X22921Y418080D01*
X23904Y420453D01*
X24239Y423000D01*
X23904Y425546D01*
X22921Y427920D01*
X21357Y429957D01*
X19320Y431521D01*
X16947Y432504D01*
X14400Y432839D01*
D02*
G37*
G36*
X19480Y407966D02*
X17783Y407743D01*
X16202Y407088D01*
X14844Y406046D01*
X13802Y404688D01*
X13147Y403107D01*
X12924Y401410D01*
X13147Y399713D01*
X13802Y398132D01*
X14844Y396774D01*
X16202Y395732D01*
X17783Y395077D01*
X19480Y394854D01*
X21177Y395077D01*
X22758Y395732D01*
X24116Y396774D01*
X25158Y398132D01*
X25813Y399713D01*
X26036Y401410D01*
X25813Y403107D01*
X25158Y404688D01*
X24116Y406046D01*
X22758Y407088D01*
X21177Y407743D01*
X19480Y407966D01*
D02*
G37*
G36*
X501038Y416500D02*
X470250D01*
Y385712D01*
X474443Y386042D01*
X479264Y387199D01*
X483845Y389096D01*
X488073Y391687D01*
X491843Y394907D01*
X495063Y398677D01*
X497654Y402905D01*
X499551Y407486D01*
X500708Y412307D01*
X501038Y416500D01*
D02*
G37*
G36*
X468750D02*
X437962D01*
X438292Y412307D01*
X439449Y407486D01*
X441347Y402905D01*
X443937Y398677D01*
X447157Y394907D01*
X450928Y391687D01*
X455155Y389096D01*
X459736Y387199D01*
X464557Y386042D01*
X468750Y385712D01*
Y416500D01*
D02*
G37*
G36*
X19480Y382566D02*
X17783Y382343D01*
X16202Y381688D01*
X14844Y380646D01*
X13802Y379288D01*
X13147Y377707D01*
X12924Y376010D01*
X13147Y374313D01*
X13802Y372732D01*
X14844Y371374D01*
X16202Y370332D01*
X17783Y369677D01*
X19480Y369454D01*
X21177Y369677D01*
X22758Y370332D01*
X24116Y371374D01*
X25158Y372732D01*
X25813Y374313D01*
X26036Y376010D01*
X25813Y377707D01*
X25158Y379288D01*
X24116Y380646D01*
X22758Y381688D01*
X21177Y382343D01*
X19480Y382566D01*
D02*
G37*
G36*
X419780Y378756D02*
X418083Y378533D01*
X416502Y377878D01*
X415144Y376836D01*
X414102Y375478D01*
X413447Y373897D01*
X413224Y372200D01*
X413447Y370503D01*
X414102Y368922D01*
X415144Y367564D01*
X416502Y366522D01*
X418083Y365867D01*
X419780Y365644D01*
X421477Y365867D01*
X423058Y366522D01*
X424416Y367564D01*
X425458Y368922D01*
X426113Y370503D01*
X426336Y372200D01*
X426113Y373897D01*
X425458Y375478D01*
X424416Y376836D01*
X423058Y377878D01*
X421477Y378533D01*
X419780Y378756D01*
D02*
G37*
G36*
X394380D02*
X392683Y378533D01*
X391102Y377878D01*
X389744Y376836D01*
X388702Y375478D01*
X388047Y373897D01*
X387824Y372200D01*
X388047Y370503D01*
X388702Y368922D01*
X389744Y367564D01*
X391102Y366522D01*
X392683Y365867D01*
X394380Y365644D01*
X396077Y365867D01*
X397658Y366522D01*
X399016Y367564D01*
X400058Y368922D01*
X400713Y370503D01*
X400936Y372200D01*
X400713Y373897D01*
X400058Y375478D01*
X399016Y376836D01*
X397658Y377878D01*
X396077Y378533D01*
X394380Y378756D01*
D02*
G37*
G36*
X419780Y353356D02*
X418083Y353133D01*
X416502Y352478D01*
X415144Y351436D01*
X414102Y350078D01*
X413447Y348497D01*
X413224Y346800D01*
X413447Y345103D01*
X414102Y343522D01*
X415144Y342164D01*
X416502Y341122D01*
X418083Y340467D01*
X419780Y340244D01*
X421477Y340467D01*
X423058Y341122D01*
X424416Y342164D01*
X425458Y343522D01*
X426113Y345103D01*
X426336Y346800D01*
X426113Y348497D01*
X425458Y350078D01*
X424416Y351436D01*
X423058Y352478D01*
X421477Y353133D01*
X419780Y353356D01*
D02*
G37*
G36*
X394380D02*
X392683Y353133D01*
X391102Y352478D01*
X389744Y351436D01*
X388702Y350078D01*
X388047Y348497D01*
X387824Y346800D01*
X388047Y345103D01*
X388702Y343522D01*
X389744Y342164D01*
X391102Y341122D01*
X392683Y340467D01*
X394380Y340244D01*
X396077Y340467D01*
X397658Y341122D01*
X399016Y342164D01*
X400058Y343522D01*
X400713Y345103D01*
X400936Y346800D01*
X400713Y348497D01*
X400058Y350078D01*
X399016Y351436D01*
X397658Y352478D01*
X396077Y353133D01*
X394380Y353356D01*
D02*
G37*
G36*
X65200Y447439D02*
X62819Y447125D01*
X60601Y446206D01*
X58696Y444744D01*
X57234Y442839D01*
X56315Y440621D01*
X56001Y438240D01*
Y423000D01*
X56315Y420619D01*
X57234Y418401D01*
X58696Y416496D01*
X60601Y415034D01*
X62819Y414115D01*
X65200Y413801D01*
X67581Y414115D01*
X69121Y414753D01*
X175287Y308587D01*
X175287Y308587D01*
X175300Y308579D01*
X174914Y307309D01*
X159817D01*
X48047Y419079D01*
X48685Y420619D01*
X48999Y423000D01*
Y438240D01*
X48685Y440621D01*
X47766Y442839D01*
X46304Y444744D01*
X44399Y446206D01*
X42181Y447125D01*
X39800Y447439D01*
X37419Y447125D01*
X35201Y446206D01*
X33296Y444744D01*
X31834Y442839D01*
X30915Y440621D01*
X30601Y438240D01*
Y423000D01*
X30915Y420619D01*
X31834Y418401D01*
X33296Y416496D01*
X35201Y415034D01*
X37419Y414115D01*
X39800Y413801D01*
X42181Y414115D01*
X43721Y414753D01*
X155895Y302579D01*
X155369Y301309D01*
X67450D01*
X67450Y301309D01*
X66280Y301076D01*
X65287Y300413D01*
X43721Y278847D01*
X42181Y279485D01*
X39800Y279799D01*
X37419Y279485D01*
X35201Y278566D01*
X33296Y277104D01*
X31834Y275199D01*
X30915Y272981D01*
X30601Y270600D01*
Y255360D01*
X30915Y252979D01*
X31834Y250761D01*
X33296Y248855D01*
X35201Y247394D01*
X37419Y246475D01*
X39800Y246161D01*
X42181Y246475D01*
X44399Y247394D01*
X46304Y248855D01*
X47766Y250761D01*
X48685Y252979D01*
X48999Y255360D01*
Y270600D01*
X48685Y272981D01*
X48047Y274521D01*
X68717Y295191D01*
X174058D01*
X174286Y294868D01*
X174541Y293921D01*
X164637Y284018D01*
X163974Y283025D01*
X163741Y281855D01*
X163741Y281855D01*
Y279204D01*
X162201Y278566D01*
X160296Y277104D01*
X158834Y275199D01*
X157915Y272981D01*
X157601Y270600D01*
Y255360D01*
X157915Y252979D01*
X158834Y250761D01*
X160296Y248855D01*
X162201Y247394D01*
X164419Y246475D01*
X166800Y246161D01*
X169181Y246475D01*
X171399Y247394D01*
X173305Y248855D01*
X174766Y250761D01*
X175685Y252979D01*
X175999Y255360D01*
Y270600D01*
X175685Y272981D01*
X174766Y275199D01*
X173305Y277104D01*
X171399Y278566D01*
X169859Y279204D01*
Y280588D01*
X178212Y288941D01*
X204419D01*
X204946Y287671D01*
X196121Y278847D01*
X194581Y279485D01*
X192200Y279799D01*
X189819Y279485D01*
X187601Y278566D01*
X185695Y277104D01*
X184234Y275199D01*
X183315Y272981D01*
X183001Y270600D01*
Y255360D01*
X183315Y252979D01*
X184234Y250761D01*
X185695Y248855D01*
X187601Y247394D01*
X189819Y246475D01*
X192200Y246161D01*
X194581Y246475D01*
X196799Y247394D01*
X198704Y248855D01*
X200166Y250761D01*
X201085Y252979D01*
X201399Y255360D01*
Y270600D01*
X201085Y272981D01*
X200447Y274521D01*
X209617Y283691D01*
X429442D01*
X433617Y279516D01*
X433732Y278939D01*
X434616Y277616D01*
X435939Y276732D01*
X437500Y276422D01*
X439061Y276732D01*
X440384Y277616D01*
X441268Y278939D01*
X441578Y280500D01*
X441268Y282061D01*
X440384Y283384D01*
X439061Y284268D01*
X437500Y284578D01*
X437255Y284530D01*
X434113Y287671D01*
X434639Y288941D01*
X440643D01*
X444801Y284783D01*
X445050Y283531D01*
X445934Y282208D01*
X447257Y281324D01*
X448818Y281014D01*
X450379Y281324D01*
X451702Y282208D01*
X452586Y283531D01*
X452825Y284733D01*
X453827Y285199D01*
X454121Y285233D01*
X547267Y192087D01*
X547267Y192087D01*
X548259Y191424D01*
X549430Y191191D01*
X551808D01*
X552869Y190482D01*
X554430Y190172D01*
X555991Y190482D01*
X557314Y191366D01*
X558198Y192689D01*
X558508Y194250D01*
X558198Y195811D01*
X557314Y197134D01*
X555991Y198018D01*
X554430Y198328D01*
X552869Y198018D01*
X551808Y197309D01*
X550697D01*
X547601Y200405D01*
X548226Y201576D01*
X549000Y201422D01*
X550561Y201732D01*
X551884Y202616D01*
X552768Y203939D01*
X553078Y205500D01*
X553009Y205849D01*
X554179Y206475D01*
X569913Y190741D01*
X570162Y189489D01*
X571046Y188166D01*
X572369Y187282D01*
X573930Y186972D01*
X575491Y187282D01*
X576814Y188166D01*
X577698Y189489D01*
X578008Y191050D01*
X577698Y192611D01*
X576814Y193934D01*
X575491Y194818D01*
X574239Y195067D01*
X456393Y312913D01*
X455401Y313576D01*
X454230Y313809D01*
X454230Y313809D01*
X421644D01*
X421477Y315067D01*
X423058Y315722D01*
X424416Y316764D01*
X425458Y318122D01*
X426113Y319703D01*
X426336Y321400D01*
X426113Y323097D01*
X425458Y324678D01*
X424416Y326036D01*
X423058Y327078D01*
X421477Y327733D01*
X419780Y327956D01*
X418083Y327733D01*
X416502Y327078D01*
X415144Y326036D01*
X414102Y324678D01*
X413447Y323097D01*
X413224Y321400D01*
X413447Y319703D01*
X414102Y318122D01*
X415144Y316764D01*
X416502Y315722D01*
X418083Y315067D01*
X417916Y313809D01*
X396244D01*
X396077Y315067D01*
X397658Y315722D01*
X399016Y316764D01*
X400058Y318122D01*
X400713Y319703D01*
X400936Y321400D01*
X400713Y323097D01*
X400058Y324678D01*
X399016Y326036D01*
X397658Y327078D01*
X396077Y327733D01*
X394380Y327956D01*
X392683Y327733D01*
X391102Y327078D01*
X389744Y326036D01*
X388702Y324678D01*
X388047Y323097D01*
X387824Y321400D01*
X388047Y319703D01*
X388702Y318122D01*
X389744Y316764D01*
X391102Y315722D01*
X392683Y315067D01*
X392516Y313809D01*
X178717D01*
X73447Y419079D01*
X74085Y420619D01*
X74399Y423000D01*
Y438240D01*
X74085Y440621D01*
X73166Y442839D01*
X71705Y444744D01*
X69799Y446206D01*
X67581Y447125D01*
X65200Y447439D01*
D02*
G37*
G36*
X370750Y279700D02*
Y263730D01*
X379199D01*
Y270600D01*
X378885Y272981D01*
X377966Y275199D01*
X376505Y277104D01*
X374599Y278566D01*
X372381Y279485D01*
X370750Y279700D01*
D02*
G37*
G36*
X369250D02*
X367619Y279485D01*
X365401Y278566D01*
X363495Y277104D01*
X362034Y275199D01*
X361115Y272981D01*
X360801Y270600D01*
Y263730D01*
X369250D01*
Y279700D01*
D02*
G37*
G36*
X420800Y280439D02*
X418253Y280104D01*
X415880Y279121D01*
X413843Y277557D01*
X412279Y275520D01*
X411296Y273146D01*
X410961Y270600D01*
X411296Y268053D01*
X412279Y265680D01*
X413843Y263643D01*
X415880Y262079D01*
X418253Y261096D01*
X420800Y260761D01*
X423346Y261096D01*
X425720Y262079D01*
X427757Y263643D01*
X429321Y265680D01*
X430304Y268053D01*
X430639Y270600D01*
X430304Y273146D01*
X429321Y275520D01*
X427757Y277557D01*
X425720Y279121D01*
X423346Y280104D01*
X420800Y280439D01*
D02*
G37*
G36*
X14400D02*
X11853Y280104D01*
X9480Y279121D01*
X7443Y277557D01*
X5879Y275520D01*
X4896Y273146D01*
X4561Y270600D01*
X4896Y268053D01*
X5879Y265680D01*
X7443Y263643D01*
X9480Y262079D01*
X11853Y261096D01*
X14400Y260761D01*
X16947Y261096D01*
X19320Y262079D01*
X21357Y263643D01*
X22921Y265680D01*
X23904Y268053D01*
X24239Y270600D01*
X23904Y273146D01*
X22921Y275520D01*
X21357Y277557D01*
X19320Y279121D01*
X16947Y280104D01*
X14400Y280439D01*
D02*
G37*
G36*
X135500Y372578D02*
X133939Y372268D01*
X132616Y371384D01*
X131732Y370061D01*
X131422Y368500D01*
X131732Y366939D01*
X132616Y365616D01*
X133939Y364732D01*
X135500Y364422D01*
X137061Y364732D01*
X138122Y365441D01*
X142233D01*
X175087Y332587D01*
X176080Y331924D01*
X177250Y331691D01*
X441733D01*
X519188Y254236D01*
X520181Y253573D01*
X521351Y253340D01*
X521351Y253340D01*
X525808D01*
X526869Y252631D01*
X528430Y252320D01*
X529991Y252631D01*
X531052Y253340D01*
X573602D01*
X574663Y252631D01*
X576224Y252320D01*
X577785Y252631D01*
X579108Y253515D01*
X579992Y254838D01*
X580302Y256399D01*
X579992Y257960D01*
X579108Y259283D01*
X577785Y260167D01*
X576224Y260477D01*
X574663Y260167D01*
X573602Y259458D01*
X531052D01*
X529991Y260167D01*
X528430Y260477D01*
X526869Y260167D01*
X525808Y259458D01*
X522618D01*
X445163Y336913D01*
X444170Y337576D01*
X443000Y337809D01*
X443000Y337809D01*
X178517D01*
X145663Y370663D01*
X144671Y371326D01*
X143500Y371559D01*
X143500Y371559D01*
X138122D01*
X137061Y372268D01*
X135500Y372578D01*
D02*
G37*
G36*
X379199Y262230D02*
X370750D01*
Y246260D01*
X372381Y246475D01*
X374599Y247394D01*
X376505Y248855D01*
X377966Y250761D01*
X378885Y252979D01*
X379199Y255360D01*
Y262230D01*
D02*
G37*
G36*
X369250D02*
X360801D01*
Y255360D01*
X361115Y252979D01*
X362034Y250761D01*
X363495Y248855D01*
X365401Y247394D01*
X367619Y246475D01*
X369250Y246260D01*
Y262230D01*
D02*
G37*
G36*
X395400Y279799D02*
X393019Y279485D01*
X390801Y278566D01*
X388895Y277104D01*
X387434Y275199D01*
X386515Y272981D01*
X386201Y270600D01*
Y255360D01*
X386515Y252979D01*
X387434Y250761D01*
X388895Y248855D01*
X390801Y247394D01*
X393019Y246475D01*
X395400Y246161D01*
X397781Y246475D01*
X399999Y247394D01*
X401904Y248855D01*
X403366Y250761D01*
X404285Y252979D01*
X404599Y255360D01*
Y270600D01*
X404285Y272981D01*
X403366Y275199D01*
X401904Y277104D01*
X399999Y278566D01*
X397781Y279485D01*
X395400Y279799D01*
D02*
G37*
G36*
X344600D02*
X342219Y279485D01*
X340001Y278566D01*
X338096Y277104D01*
X336634Y275199D01*
X335715Y272981D01*
X335401Y270600D01*
Y255360D01*
X335715Y252979D01*
X336634Y250761D01*
X338096Y248855D01*
X340001Y247394D01*
X342219Y246475D01*
X344600Y246161D01*
X346981Y246475D01*
X349199Y247394D01*
X351105Y248855D01*
X352566Y250761D01*
X353485Y252979D01*
X353799Y255360D01*
Y270600D01*
X353485Y272981D01*
X352566Y275199D01*
X351105Y277104D01*
X349199Y278566D01*
X346981Y279485D01*
X344600Y279799D01*
D02*
G37*
G36*
X319200D02*
X316819Y279485D01*
X314601Y278566D01*
X312696Y277104D01*
X311234Y275199D01*
X310315Y272981D01*
X310001Y270600D01*
Y255360D01*
X310315Y252979D01*
X311234Y250761D01*
X312696Y248855D01*
X314601Y247394D01*
X316819Y246475D01*
X319200Y246161D01*
X321581Y246475D01*
X323799Y247394D01*
X325704Y248855D01*
X327166Y250761D01*
X328085Y252979D01*
X328399Y255360D01*
Y270600D01*
X328085Y272981D01*
X327166Y275199D01*
X325704Y277104D01*
X323799Y278566D01*
X321581Y279485D01*
X319200Y279799D01*
D02*
G37*
G36*
X268400D02*
X266019Y279485D01*
X263801Y278566D01*
X261896Y277104D01*
X260434Y275199D01*
X259515Y272981D01*
X259201Y270600D01*
Y255360D01*
X259515Y252979D01*
X260434Y250761D01*
X261896Y248855D01*
X263801Y247394D01*
X266019Y246475D01*
X268400Y246161D01*
X270781Y246475D01*
X272999Y247394D01*
X274904Y248855D01*
X276366Y250761D01*
X277285Y252979D01*
X277599Y255360D01*
Y270600D01*
X277285Y272981D01*
X276366Y275199D01*
X274904Y277104D01*
X272999Y278566D01*
X270781Y279485D01*
X268400Y279799D01*
D02*
G37*
G36*
X243000D02*
X240619Y279485D01*
X238401Y278566D01*
X236495Y277104D01*
X235034Y275199D01*
X234115Y272981D01*
X233801Y270600D01*
Y255360D01*
X234115Y252979D01*
X235034Y250761D01*
X236495Y248855D01*
X238401Y247394D01*
X240619Y246475D01*
X243000Y246161D01*
X245381Y246475D01*
X247599Y247394D01*
X249505Y248855D01*
X250966Y250761D01*
X251885Y252979D01*
X252199Y255360D01*
Y270600D01*
X251885Y272981D01*
X250966Y275199D01*
X249505Y277104D01*
X247599Y278566D01*
X245381Y279485D01*
X243000Y279799D01*
D02*
G37*
G36*
X217600D02*
X215219Y279485D01*
X213001Y278566D01*
X211096Y277104D01*
X209634Y275199D01*
X208715Y272981D01*
X208401Y270600D01*
Y255360D01*
X208715Y252979D01*
X209634Y250761D01*
X211096Y248855D01*
X213001Y247394D01*
X215219Y246475D01*
X217600Y246161D01*
X219981Y246475D01*
X222199Y247394D01*
X224104Y248855D01*
X225566Y250761D01*
X226485Y252979D01*
X226799Y255360D01*
Y270600D01*
X226485Y272981D01*
X225566Y275199D01*
X224104Y277104D01*
X222199Y278566D01*
X219981Y279485D01*
X217600Y279799D01*
D02*
G37*
G36*
X141400D02*
X139019Y279485D01*
X136801Y278566D01*
X134895Y277104D01*
X133434Y275199D01*
X132515Y272981D01*
X132201Y270600D01*
Y255360D01*
X132515Y252979D01*
X133434Y250761D01*
X134895Y248855D01*
X136801Y247394D01*
X139019Y246475D01*
X141400Y246161D01*
X143781Y246475D01*
X145999Y247394D01*
X147905Y248855D01*
X149366Y250761D01*
X150285Y252979D01*
X150599Y255360D01*
Y270600D01*
X150285Y272981D01*
X149366Y275199D01*
X147905Y277104D01*
X145999Y278566D01*
X143781Y279485D01*
X141400Y279799D01*
D02*
G37*
G36*
X116000D02*
X113619Y279485D01*
X111401Y278566D01*
X109495Y277104D01*
X108034Y275199D01*
X107115Y272981D01*
X106801Y270600D01*
Y255360D01*
X107115Y252979D01*
X108034Y250761D01*
X109495Y248855D01*
X111401Y247394D01*
X113619Y246475D01*
X116000Y246161D01*
X118381Y246475D01*
X120599Y247394D01*
X122505Y248855D01*
X123966Y250761D01*
X124885Y252979D01*
X125199Y255360D01*
Y270600D01*
X124885Y272981D01*
X123966Y275199D01*
X122505Y277104D01*
X120599Y278566D01*
X118381Y279485D01*
X116000Y279799D01*
D02*
G37*
G36*
X90600D02*
X88219Y279485D01*
X86001Y278566D01*
X84095Y277104D01*
X82634Y275199D01*
X81715Y272981D01*
X81401Y270600D01*
Y255360D01*
X81715Y252979D01*
X82634Y250761D01*
X84095Y248855D01*
X86001Y247394D01*
X88219Y246475D01*
X90600Y246161D01*
X92981Y246475D01*
X95199Y247394D01*
X97105Y248855D01*
X98566Y250761D01*
X99485Y252979D01*
X99799Y255360D01*
Y270600D01*
X99485Y272981D01*
X98566Y275199D01*
X97105Y277104D01*
X95199Y278566D01*
X92981Y279485D01*
X90600Y279799D01*
D02*
G37*
G36*
X65200D02*
X62819Y279485D01*
X60601Y278566D01*
X58696Y277104D01*
X57234Y275199D01*
X56315Y272981D01*
X56001Y270600D01*
Y255360D01*
X56315Y252979D01*
X57234Y250761D01*
X58696Y248855D01*
X60601Y247394D01*
X62819Y246475D01*
X65200Y246161D01*
X67581Y246475D01*
X69799Y247394D01*
X71705Y248855D01*
X73166Y250761D01*
X74085Y252979D01*
X74399Y255360D01*
Y270600D01*
X74085Y272981D01*
X73166Y275199D01*
X71705Y277104D01*
X69799Y278566D01*
X67581Y279485D01*
X65200Y279799D01*
D02*
G37*
G36*
X184750Y217578D02*
X183189Y217268D01*
X182128Y216559D01*
X46250D01*
X45079Y216326D01*
X44087Y215663D01*
X43191Y214767D01*
X41939Y214518D01*
X40616Y213634D01*
X39732Y212311D01*
X39422Y210750D01*
X39732Y209189D01*
X40616Y207866D01*
X41939Y206982D01*
X43500Y206672D01*
X45061Y206982D01*
X46384Y207866D01*
X47268Y209189D01*
X47517Y210441D01*
X47517Y210441D01*
X182128D01*
X183189Y209732D01*
X184750Y209422D01*
X186311Y209732D01*
X187634Y210616D01*
X188518Y211939D01*
X188828Y213500D01*
X188518Y215061D01*
X187634Y216384D01*
X186311Y217268D01*
X184750Y217578D01*
D02*
G37*
G36*
X293800Y279799D02*
X291419Y279485D01*
X289201Y278566D01*
X287295Y277104D01*
X285834Y275199D01*
X284915Y272981D01*
X284601Y270600D01*
Y255360D01*
X284915Y252979D01*
X285834Y250761D01*
X287295Y248855D01*
X289201Y247394D01*
X290741Y246756D01*
Y240373D01*
X250893Y200525D01*
X130566D01*
X129505Y201234D01*
X127944Y201544D01*
X126383Y201234D01*
X125060Y200350D01*
X124176Y199027D01*
X123866Y197466D01*
X124176Y195905D01*
X125060Y194582D01*
X126383Y193698D01*
X127944Y193388D01*
X129505Y193698D01*
X130566Y194407D01*
X252160D01*
X252160Y194407D01*
X253330Y194640D01*
X254323Y195303D01*
X295963Y236943D01*
X295963Y236943D01*
X296626Y237936D01*
X296859Y239106D01*
X296859Y239106D01*
Y246756D01*
X298399Y247394D01*
X300305Y248855D01*
X301766Y250761D01*
X302685Y252979D01*
X302999Y255360D01*
Y270600D01*
X302685Y272981D01*
X301766Y275199D01*
X300305Y277104D01*
X298399Y278566D01*
X296181Y279485D01*
X293800Y279799D01*
D02*
G37*
G36*
X652750Y205373D02*
X648750D01*
X646531Y205081D01*
X644463Y204225D01*
X642688Y202862D01*
X641325Y201087D01*
X640469Y199019D01*
X640177Y196800D01*
X640469Y194581D01*
X641325Y192513D01*
X642688Y190738D01*
X644463Y189375D01*
X646531Y188519D01*
X648750Y188227D01*
X652750D01*
X654969Y188519D01*
X657037Y189375D01*
X658812Y190738D01*
X660175Y192513D01*
X661031Y194581D01*
X661323Y196800D01*
X661031Y199019D01*
X660175Y201087D01*
X658812Y202862D01*
X657037Y204225D01*
X654969Y205081D01*
X652750Y205373D01*
D02*
G37*
G36*
Y180373D02*
X648750D01*
X646531Y180081D01*
X644463Y179225D01*
X642688Y177862D01*
X641325Y176087D01*
X640469Y174019D01*
X640177Y171800D01*
X640469Y169581D01*
X641325Y167513D01*
X642688Y165738D01*
X644463Y164375D01*
X646531Y163519D01*
X648750Y163227D01*
X652750D01*
X654969Y163519D01*
X657037Y164375D01*
X658812Y165738D01*
X660175Y167513D01*
X661031Y169581D01*
X661323Y171800D01*
X661031Y174019D01*
X660175Y176087D01*
X658812Y177862D01*
X657037Y179225D01*
X654969Y180081D01*
X652750Y180373D01*
D02*
G37*
G36*
X620538Y218400D02*
X618977Y218090D01*
X617654Y217206D01*
X616770Y215883D01*
X616460Y214322D01*
X616770Y212761D01*
X617479Y211700D01*
Y183700D01*
X589434Y155655D01*
X588182Y155406D01*
X586859Y154522D01*
X585975Y153199D01*
X585664Y151638D01*
X585766Y151123D01*
X584596Y150498D01*
X571785Y163309D01*
X571536Y164561D01*
X570652Y165884D01*
X569329Y166768D01*
X567768Y167078D01*
X566207Y166768D01*
X564884Y165884D01*
X564000Y164561D01*
X563690Y163000D01*
X564000Y161439D01*
X564884Y160116D01*
X566207Y159232D01*
X567459Y158983D01*
X605441Y121001D01*
Y85050D01*
X605441Y85050D01*
X605674Y83879D01*
X606337Y82887D01*
X640977Y48247D01*
X640469Y47019D01*
X640177Y44800D01*
X640469Y42581D01*
X641325Y40513D01*
X642688Y38738D01*
X644463Y37375D01*
X646531Y36519D01*
X648750Y36227D01*
X652750D01*
X654969Y36519D01*
X657037Y37375D01*
X658812Y38738D01*
X660175Y40513D01*
X661031Y42581D01*
X661323Y44800D01*
X661031Y47019D01*
X660175Y49087D01*
X658812Y50862D01*
X657037Y52225D01*
X654969Y53081D01*
X652750Y53373D01*
X648750D01*
X646531Y53081D01*
X645303Y52573D01*
X611559Y86317D01*
Y122268D01*
X611326Y123439D01*
X610663Y124431D01*
X610663Y124431D01*
X588602Y146492D01*
X589228Y147662D01*
X589743Y147560D01*
X591303Y147870D01*
X592626Y148754D01*
X593510Y150077D01*
X593759Y151329D01*
X622701Y180271D01*
X622701Y180271D01*
X623364Y181263D01*
X623597Y182433D01*
X623597Y182434D01*
Y211700D01*
X624306Y212761D01*
X624616Y214322D01*
X624306Y215883D01*
X623422Y217206D01*
X622099Y218090D01*
X620538Y218400D01*
D02*
G37*
G36*
X652750Y154973D02*
X648750D01*
X646531Y154681D01*
X644463Y153825D01*
X642688Y152462D01*
X641325Y150687D01*
X640469Y148619D01*
X640177Y146400D01*
X640469Y144181D01*
X641325Y142113D01*
X642688Y140338D01*
X644463Y138975D01*
X646531Y138119D01*
X648750Y137827D01*
X652750D01*
X654969Y138119D01*
X657037Y138975D01*
X658812Y140338D01*
X660175Y142113D01*
X661031Y144181D01*
X661323Y146400D01*
X661031Y148619D01*
X660175Y150687D01*
X658812Y152462D01*
X657037Y153825D01*
X654969Y154681D01*
X652750Y154973D01*
D02*
G37*
G36*
X78490Y175878D02*
X76929Y175568D01*
X75606Y174684D01*
X53866Y152944D01*
X52982Y151621D01*
X52672Y150060D01*
X52672Y150060D01*
Y46867D01*
X51959Y46572D01*
X49975Y45050D01*
X48452Y43065D01*
X47495Y40754D01*
X47168Y38274D01*
Y28274D01*
X47495Y25794D01*
X48452Y23483D01*
X49975Y21498D01*
X51959Y19976D01*
X54270Y19018D01*
X56750Y18692D01*
X59230Y19018D01*
X61541Y19976D01*
X63526Y21498D01*
X65048Y23483D01*
X66006Y25794D01*
X66332Y28274D01*
Y38274D01*
X66006Y40754D01*
X65048Y43065D01*
X63526Y45050D01*
X61541Y46572D01*
X60828Y46867D01*
Y148371D01*
X80179Y167722D01*
X143117D01*
X143872Y166452D01*
X143643Y165300D01*
X143953Y163739D01*
X144837Y162416D01*
X146160Y161532D01*
X147619Y161242D01*
X169703Y139158D01*
X169703Y139158D01*
X170695Y138495D01*
X171866Y138262D01*
X171866Y138262D01*
X447628D01*
X448689Y137553D01*
X450250Y137243D01*
X451811Y137553D01*
X453134Y138437D01*
X454018Y139760D01*
X454328Y141321D01*
X454018Y142882D01*
X453134Y144205D01*
X451811Y145089D01*
X450250Y145400D01*
X448689Y145089D01*
X447628Y144380D01*
X173133D01*
X151697Y165816D01*
X151571Y166452D01*
X152325Y167722D01*
X387500D01*
X389061Y168032D01*
X390384Y168916D01*
X391268Y170239D01*
X391578Y171800D01*
X391268Y173361D01*
X390384Y174684D01*
X389061Y175568D01*
X387500Y175878D01*
X78490D01*
X78490Y175878D01*
D02*
G37*
G36*
X652750Y129573D02*
X648750D01*
X646531Y129281D01*
X644463Y128425D01*
X642688Y127062D01*
X641325Y125287D01*
X640469Y123219D01*
X640177Y121000D01*
X640469Y118781D01*
X641325Y116713D01*
X642688Y114938D01*
X644463Y113575D01*
X646531Y112719D01*
X648750Y112427D01*
X652750D01*
X654969Y112719D01*
X657037Y113575D01*
X658812Y114938D01*
X660175Y116713D01*
X661031Y118781D01*
X661323Y121000D01*
X661031Y123219D01*
X660175Y125287D01*
X658812Y127062D01*
X657037Y128425D01*
X654969Y129281D01*
X652750Y129573D01*
D02*
G37*
G36*
X107000Y127288D02*
Y96500D01*
X137788D01*
X137458Y100693D01*
X136301Y105514D01*
X134403Y110095D01*
X131813Y114323D01*
X128593Y118093D01*
X124823Y121313D01*
X120595Y123904D01*
X116014Y125801D01*
X111193Y126958D01*
X107000Y127288D01*
D02*
G37*
G36*
X105500D02*
X101307Y126958D01*
X96486Y125801D01*
X91905Y123904D01*
X87677Y121313D01*
X83907Y118093D01*
X80687Y114323D01*
X78096Y110095D01*
X76199Y105514D01*
X75042Y100693D01*
X74712Y96500D01*
X105500D01*
Y127288D01*
D02*
G37*
G36*
X652750Y104173D02*
X648750D01*
X646531Y103881D01*
X644463Y103025D01*
X642688Y101662D01*
X641325Y99887D01*
X640469Y97819D01*
X640177Y95600D01*
X640469Y93381D01*
X641325Y91313D01*
X642688Y89538D01*
X644463Y88175D01*
X646531Y87319D01*
X648750Y87027D01*
X652750D01*
X654969Y87319D01*
X657037Y88175D01*
X658812Y89538D01*
X660175Y91313D01*
X661031Y93381D01*
X661323Y95600D01*
X661031Y97819D01*
X660175Y99887D01*
X658812Y101662D01*
X657037Y103025D01*
X654969Y103881D01*
X652750Y104173D01*
D02*
G37*
G36*
Y78373D02*
X651500D01*
Y70550D01*
X661225D01*
X661031Y72019D01*
X660175Y74087D01*
X658812Y75862D01*
X657037Y77225D01*
X654969Y78081D01*
X652750Y78373D01*
D02*
G37*
G36*
X650000D02*
X648750D01*
X646531Y78081D01*
X644463Y77225D01*
X642688Y75862D01*
X641325Y74087D01*
X640469Y72019D01*
X640275Y70550D01*
X650000D01*
Y78373D01*
D02*
G37*
G36*
X137788Y95000D02*
X107000D01*
Y64212D01*
X111193Y64542D01*
X116014Y65699D01*
X120595Y67597D01*
X124823Y70187D01*
X128593Y73407D01*
X131813Y77178D01*
X134403Y81405D01*
X136301Y85986D01*
X137458Y90807D01*
X137788Y95000D01*
D02*
G37*
G36*
X105500D02*
X74712D01*
X75042Y90807D01*
X76199Y85986D01*
X78096Y81405D01*
X80687Y77178D01*
X83907Y73407D01*
X87677Y70187D01*
X91905Y67597D01*
X96486Y65699D01*
X101307Y64542D01*
X105500Y64212D01*
Y95000D01*
D02*
G37*
G36*
X661225Y69050D02*
X651500D01*
Y61227D01*
X652750D01*
X654969Y61519D01*
X657037Y62375D01*
X658812Y63738D01*
X660175Y65513D01*
X661031Y67581D01*
X661225Y69050D01*
D02*
G37*
G36*
X650000D02*
X640275D01*
X640469Y67581D01*
X641325Y65513D01*
X642688Y63738D01*
X644463Y62375D01*
X646531Y61519D01*
X648750Y61227D01*
X650000D01*
Y69050D01*
D02*
G37*
G36*
X32500Y47757D02*
Y34024D01*
X41332D01*
Y38274D01*
X41006Y40754D01*
X40048Y43065D01*
X38525Y45050D01*
X36541Y46572D01*
X34230Y47530D01*
X32500Y47757D01*
D02*
G37*
G36*
X31000D02*
X29270Y47530D01*
X26959Y46572D01*
X24975Y45050D01*
X23452Y43065D01*
X22494Y40754D01*
X22168Y38274D01*
Y34024D01*
X31000D01*
Y47757D01*
D02*
G37*
G36*
X152321Y46983D02*
Y33250D01*
X161153D01*
Y37500D01*
X160827Y39980D01*
X159869Y42291D01*
X158347Y44275D01*
X156362Y45798D01*
X154051Y46755D01*
X152321Y46983D01*
D02*
G37*
G36*
X150821D02*
X149091Y46755D01*
X146780Y45798D01*
X144796Y44275D01*
X143273Y42291D01*
X142316Y39980D01*
X141989Y37500D01*
Y33250D01*
X150821D01*
Y46983D01*
D02*
G37*
G36*
X264794Y46733D02*
Y33000D01*
X273626D01*
Y37250D01*
X273299Y39730D01*
X272342Y42041D01*
X270819Y44026D01*
X268835Y45548D01*
X266524Y46505D01*
X264794Y46733D01*
D02*
G37*
G36*
X263294D02*
X261564Y46505D01*
X259253Y45548D01*
X257269Y44026D01*
X255746Y42041D01*
X254788Y39730D01*
X254462Y37250D01*
Y33000D01*
X263294D01*
Y46733D01*
D02*
G37*
G36*
X537844Y46233D02*
Y32500D01*
X546676D01*
Y36750D01*
X546349Y39230D01*
X545392Y41541D01*
X543869Y43526D01*
X541885Y45048D01*
X539574Y46006D01*
X537844Y46233D01*
D02*
G37*
G36*
X454444D02*
Y32500D01*
X463276D01*
Y36750D01*
X462949Y39230D01*
X461992Y41541D01*
X460470Y43526D01*
X458485Y45048D01*
X456174Y46006D01*
X454444Y46233D01*
D02*
G37*
G36*
X536344D02*
X534614Y46006D01*
X532303Y45048D01*
X530318Y43526D01*
X528796Y41541D01*
X527839Y39230D01*
X527512Y36750D01*
Y32500D01*
X536344D01*
Y46233D01*
D02*
G37*
G36*
X452944D02*
X451214Y46006D01*
X448903Y45048D01*
X446919Y43526D01*
X445396Y41541D01*
X444439Y39230D01*
X444112Y36750D01*
Y32500D01*
X452944D01*
Y46233D01*
D02*
G37*
G36*
X41332Y32524D02*
X32500D01*
Y18791D01*
X34230Y19018D01*
X36541Y19976D01*
X38525Y21498D01*
X40048Y23483D01*
X41006Y25794D01*
X41332Y28274D01*
Y32524D01*
D02*
G37*
G36*
X31000D02*
X22168D01*
Y28274D01*
X22494Y25794D01*
X23452Y23483D01*
X24975Y21498D01*
X26959Y19976D01*
X29270Y19018D01*
X31000Y18791D01*
Y32524D01*
D02*
G37*
G36*
X161153Y31750D02*
X152321D01*
Y18017D01*
X154051Y18245D01*
X156362Y19202D01*
X158347Y20724D01*
X159869Y22709D01*
X160827Y25020D01*
X161153Y27500D01*
Y31750D01*
D02*
G37*
G36*
X150821D02*
X141989D01*
Y27500D01*
X142316Y25020D01*
X143273Y22709D01*
X144796Y20724D01*
X146780Y19202D01*
X149091Y18245D01*
X150821Y18017D01*
Y31750D01*
D02*
G37*
G36*
X201971Y47082D02*
X199491Y46755D01*
X197180Y45798D01*
X195196Y44275D01*
X193673Y42291D01*
X192716Y39980D01*
X192389Y37500D01*
Y27500D01*
X192716Y25020D01*
X193673Y22709D01*
X195196Y20724D01*
X197180Y19202D01*
X199491Y18245D01*
X201971Y17918D01*
X204451Y18245D01*
X206762Y19202D01*
X208747Y20724D01*
X210269Y22709D01*
X211227Y25020D01*
X211553Y27500D01*
Y37500D01*
X211227Y39980D01*
X210269Y42291D01*
X208747Y44275D01*
X206762Y45798D01*
X204451Y46755D01*
X201971Y47082D01*
D02*
G37*
G36*
X176971D02*
X174491Y46755D01*
X172180Y45798D01*
X170196Y44275D01*
X168673Y42291D01*
X167716Y39980D01*
X167389Y37500D01*
Y27500D01*
X167716Y25020D01*
X168673Y22709D01*
X170196Y20724D01*
X172180Y19202D01*
X174491Y18245D01*
X176971Y17918D01*
X179451Y18245D01*
X181762Y19202D01*
X183747Y20724D01*
X185269Y22709D01*
X186227Y25020D01*
X186553Y27500D01*
Y37500D01*
X186227Y39980D01*
X185269Y42291D01*
X183747Y44275D01*
X181762Y45798D01*
X179451Y46755D01*
X176971Y47082D01*
D02*
G37*
G36*
X263294Y31500D02*
X254462D01*
Y27250D01*
X254788Y24770D01*
X255746Y22459D01*
X257269Y20475D01*
X259253Y18952D01*
X261564Y17995D01*
X263294Y17767D01*
Y31500D01*
D02*
G37*
G36*
X273626D02*
X264794D01*
Y17767D01*
X266524Y17995D01*
X268835Y18952D01*
X270819Y20475D01*
X272342Y22459D01*
X273299Y24770D01*
X273626Y27250D01*
Y31500D01*
D02*
G37*
G36*
X314444Y46832D02*
X311964Y46505D01*
X309653Y45548D01*
X307668Y44026D01*
X306146Y42041D01*
X305189Y39730D01*
X304862Y37250D01*
Y27250D01*
X305189Y24770D01*
X306146Y22459D01*
X307668Y20475D01*
X309653Y18952D01*
X311964Y17995D01*
X314444Y17668D01*
X316924Y17995D01*
X319235Y18952D01*
X321219Y20475D01*
X322742Y22459D01*
X323699Y24770D01*
X324026Y27250D01*
Y37250D01*
X323699Y39730D01*
X322742Y42041D01*
X321219Y44026D01*
X319235Y45548D01*
X316924Y46505D01*
X314444Y46832D01*
D02*
G37*
G36*
X289444D02*
X286964Y46505D01*
X284653Y45548D01*
X282668Y44026D01*
X281146Y42041D01*
X280189Y39730D01*
X279862Y37250D01*
Y27250D01*
X280189Y24770D01*
X281146Y22459D01*
X282668Y20475D01*
X284653Y18952D01*
X286964Y17995D01*
X289444Y17668D01*
X291924Y17995D01*
X294235Y18952D01*
X296219Y20475D01*
X297742Y22459D01*
X298699Y24770D01*
X299026Y27250D01*
Y37250D01*
X298699Y39730D01*
X297742Y42041D01*
X296219Y44026D01*
X294235Y45548D01*
X291924Y46505D01*
X289444Y46832D01*
D02*
G37*
G36*
X546676Y31000D02*
X537844D01*
Y17267D01*
X539574Y17494D01*
X541885Y18452D01*
X543869Y19974D01*
X545392Y21959D01*
X546349Y24270D01*
X546676Y26750D01*
Y31000D01*
D02*
G37*
G36*
X463276D02*
X454444D01*
Y17267D01*
X456174Y17494D01*
X458485Y18452D01*
X460470Y19974D01*
X461992Y21959D01*
X462949Y24270D01*
X463276Y26750D01*
Y31000D01*
D02*
G37*
G36*
X452944D02*
X444112D01*
Y26750D01*
X444439Y24270D01*
X445396Y21959D01*
X446919Y19974D01*
X448903Y18452D01*
X451214Y17494D01*
X452944Y17267D01*
Y31000D01*
D02*
G37*
G36*
X536344D02*
X527512D01*
Y26750D01*
X527839Y24270D01*
X528796Y21959D01*
X530318Y19974D01*
X532303Y18452D01*
X534614Y17494D01*
X536344Y17267D01*
Y31000D01*
D02*
G37*
G36*
X562094Y46332D02*
X559614Y46006D01*
X557303Y45048D01*
X555318Y43526D01*
X553796Y41541D01*
X552839Y39230D01*
X552512Y36750D01*
Y26750D01*
X552839Y24270D01*
X553796Y21959D01*
X555318Y19974D01*
X557303Y18452D01*
X559614Y17494D01*
X562094Y17168D01*
X564574Y17494D01*
X566885Y18452D01*
X568869Y19974D01*
X570392Y21959D01*
X571349Y24270D01*
X571676Y26750D01*
Y36750D01*
X571349Y39230D01*
X570392Y41541D01*
X568869Y43526D01*
X566885Y45048D01*
X564574Y46006D01*
X562094Y46332D01*
D02*
G37*
G36*
X511694D02*
X509214Y46006D01*
X506903Y45048D01*
X504919Y43526D01*
X503396Y41541D01*
X502439Y39230D01*
X502112Y36750D01*
Y26750D01*
X502439Y24270D01*
X503396Y21959D01*
X504919Y19974D01*
X506903Y18452D01*
X509214Y17494D01*
X511694Y17168D01*
X514174Y17494D01*
X516485Y18452D01*
X518469Y19974D01*
X519992Y21959D01*
X520949Y24270D01*
X521276Y26750D01*
Y36750D01*
X520949Y39230D01*
X519992Y41541D01*
X518469Y43526D01*
X516485Y45048D01*
X514174Y46006D01*
X511694Y46332D01*
D02*
G37*
G36*
X428694D02*
X426214Y46006D01*
X423903Y45048D01*
X421919Y43526D01*
X420396Y41541D01*
X419439Y39230D01*
X419112Y36750D01*
Y26750D01*
X419439Y24270D01*
X420396Y21959D01*
X421919Y19974D01*
X423903Y18452D01*
X426214Y17494D01*
X428694Y17168D01*
X431174Y17494D01*
X433485Y18452D01*
X435470Y19974D01*
X436992Y21959D01*
X437949Y24270D01*
X438276Y26750D01*
Y36750D01*
X437949Y39230D01*
X436992Y41541D01*
X435470Y43526D01*
X433485Y45048D01*
X431174Y46006D01*
X428694Y46332D01*
D02*
G37*
G36*
X403294D02*
X400814Y46006D01*
X398503Y45048D01*
X396519Y43526D01*
X394996Y41541D01*
X394039Y39230D01*
X393712Y36750D01*
Y26750D01*
X394039Y24270D01*
X394996Y21959D01*
X396519Y19974D01*
X398503Y18452D01*
X400814Y17494D01*
X403294Y17168D01*
X405774Y17494D01*
X408085Y18452D01*
X410070Y19974D01*
X411592Y21959D01*
X412550Y24270D01*
X412876Y26750D01*
Y36750D01*
X412550Y39230D01*
X411592Y41541D01*
X410070Y43526D01*
X408085Y45048D01*
X405774Y46006D01*
X403294Y46332D01*
D02*
G37*
G36*
X377894D02*
X375414Y46006D01*
X373103Y45048D01*
X371119Y43526D01*
X369596Y41541D01*
X368639Y39230D01*
X368312Y36750D01*
Y26750D01*
X368639Y24270D01*
X369596Y21959D01*
X371119Y19974D01*
X373103Y18452D01*
X375414Y17494D01*
X377894Y17168D01*
X380374Y17494D01*
X382685Y18452D01*
X384669Y19974D01*
X386192Y21959D01*
X387150Y24270D01*
X387476Y26750D01*
Y36750D01*
X387150Y39230D01*
X386192Y41541D01*
X384669Y43526D01*
X382685Y45048D01*
X380374Y46006D01*
X377894Y46332D01*
D02*
G37*
%LPD*%
G36*
X548874Y211780D02*
X548428Y210430D01*
X548400Y210426D01*
X453430Y305396D01*
X453819Y306803D01*
X453845Y306809D01*
X548874Y211780D01*
D02*
G37*
G36*
X544380Y205794D02*
X544338Y205463D01*
X543001Y205005D01*
X448963Y299043D01*
X449381Y300421D01*
X449692Y300483D01*
X544380Y205794D01*
D02*
G37*
D40*
X469500Y417250D02*
D03*
X106250Y95750D02*
D03*
D41*
X528430Y256399D02*
X576224D01*
X521351D02*
X528430D01*
X43500Y210750D02*
X46250Y213500D01*
X184750D01*
X147887Y165300D02*
X171866Y141321D01*
X147721Y165300D02*
X147887D01*
X171866Y141321D02*
X450250D01*
X443000Y334750D02*
X521351Y256399D01*
X177250Y334750D02*
X443000D01*
X143500Y368500D02*
X177250Y334750D01*
X135500Y368500D02*
X143500D01*
X567768Y163000D02*
X608500Y122268D01*
Y85050D02*
Y122268D01*
X589743Y151638D02*
X620538Y182433D01*
Y214322D01*
X648750Y44800D02*
X650750D01*
X608500Y85050D02*
X648750Y44800D01*
X127944Y197466D02*
X252160D01*
X293800Y239106D01*
Y270600D01*
X176945Y292000D02*
X441910D01*
X448818Y285092D01*
X430709Y286750D02*
X436959Y280500D01*
X437500D01*
X208350Y286750D02*
X430709D01*
X192200Y270600D02*
X192200D01*
X208350Y286750D01*
X166800Y281855D02*
X176945Y292000D01*
X39800Y270600D02*
X67450Y298250D01*
X445430D02*
X549430Y194250D01*
X67450Y298250D02*
X445430D01*
X450250Y304250D02*
X549000Y205500D01*
X158550Y304250D02*
X450250D01*
X39800Y423000D02*
X158550Y304250D01*
X177450Y310750D02*
X454230D01*
X65200Y423000D02*
X177450Y310750D01*
X454230D02*
X573930Y191050D01*
X166800Y270600D02*
Y281855D01*
X549430Y194250D02*
X554430D01*
D42*
X78490Y171800D02*
X387500D01*
X56750Y33274D02*
Y150060D01*
X78490Y171800D01*
D43*
X650750D02*
D03*
Y196800D02*
D03*
Y95600D02*
D03*
Y69800D02*
D03*
Y44800D02*
D03*
Y121000D02*
D03*
Y146400D02*
D03*
D44*
X39800Y430620D02*
D03*
X65200D02*
D03*
X90600D02*
D03*
X116000D02*
D03*
X141400D02*
D03*
X166800D02*
D03*
X192200D02*
D03*
X217600D02*
D03*
X243000D02*
D03*
X268400D02*
D03*
X293800D02*
D03*
X319200D02*
D03*
X344600D02*
D03*
X370000D02*
D03*
X395400D02*
D03*
D03*
X39800Y262980D02*
D03*
X65200D02*
D03*
X90600D02*
D03*
X116000D02*
D03*
X141400D02*
D03*
X166800D02*
D03*
X192200D02*
D03*
X217600D02*
D03*
X243000D02*
D03*
X268400D02*
D03*
X293800D02*
D03*
X319200D02*
D03*
X344600D02*
D03*
X370000D02*
D03*
X395400D02*
D03*
D45*
X14400Y423000D02*
D03*
Y270600D02*
D03*
X420800D02*
D03*
Y423000D02*
D03*
D46*
X19480Y401410D02*
D03*
Y376010D02*
D03*
X394380Y321400D02*
D03*
X419780D02*
D03*
Y346800D02*
D03*
X394380Y372200D02*
D03*
X419780D02*
D03*
X394380Y346800D02*
D03*
D47*
X31750Y33274D02*
D03*
X56750D02*
D03*
X377894Y31750D02*
D03*
X403294D02*
D03*
X453694D02*
D03*
X428694D02*
D03*
X201971Y32500D02*
D03*
X176971D02*
D03*
X151571D02*
D03*
X314444Y32250D02*
D03*
X289444D02*
D03*
X264044D02*
D03*
X511694Y31750D02*
D03*
X537094D02*
D03*
X562094D02*
D03*
D48*
X528430Y256399D02*
D03*
X43500Y210750D02*
D03*
X184750Y213500D02*
D03*
X387500Y171800D02*
D03*
X147721Y165300D02*
D03*
X576224Y256399D02*
D03*
X135500Y368500D02*
D03*
X450250Y141321D02*
D03*
X567768Y163000D02*
D03*
X589743Y151638D02*
D03*
X620538Y214322D02*
D03*
X127944Y197466D02*
D03*
X437500Y280500D02*
D03*
X448818Y285092D02*
D03*
X549000Y205500D02*
D03*
X554430Y194250D02*
D03*
X573930Y191050D02*
D03*
M02*
