G04*
G04 #@! TF.GenerationSoftware,Altium Limited,Altium Designer,21.6.4 (81)*
G04*
G04 Layer_Color=65535*
%FSLAX44Y44*%
%MOMM*%
G71*
G04*
G04 #@! TF.SameCoordinates,26D0E7B3-AAE4-4812-B184-49AD84F33247*
G04*
G04*
G04 #@! TF.FilePolarity,Positive*
G04*
G01*
G75*
%ADD10C,0.6000*%
%ADD11C,0.2500*%
%ADD12C,0.2540*%
%ADD13C,0.2000*%
%ADD14C,0.1270*%
%ADD15C,0.1500*%
%ADD16C,0.1000*%
D10*
X569680Y218050D02*
G03*
X569680Y218050I-3000J0D01*
G01*
D11*
X582680Y238050D02*
G03*
X582680Y238050I-1250J0D01*
G01*
X83050Y146466D02*
G03*
X83050Y146466I-1250J0D01*
G01*
D12*
X-11000Y308700D02*
X1700D01*
X-11000D02*
Y384900D01*
X1700D01*
X408100Y435700D02*
X433500D01*
Y257900D02*
Y435700D01*
X408100Y257900D02*
X433500D01*
X1700Y435700D02*
X27100D01*
X1700Y257900D02*
Y435700D01*
Y257900D02*
X27100D01*
X16364Y64008D02*
X71990D01*
X16364Y2286D02*
X71990D01*
Y64008D01*
X16364Y2286D02*
Y64008D01*
X362254Y762D02*
Y62484D01*
X468934Y762D02*
Y62484D01*
X362254Y762D02*
X468934D01*
X362254Y62484D02*
X468934D01*
X536518Y365342D02*
Y381842D01*
X529018Y363342D02*
X536518Y344592D01*
Y324842D02*
Y344592D01*
X135931Y1512D02*
Y63234D01*
X217211Y1512D02*
Y63234D01*
X135931Y1512D02*
X217211D01*
X135931Y63234D02*
X217211D01*
X248404Y1262D02*
Y62984D01*
X329684Y1262D02*
Y62984D01*
X248404Y1262D02*
X329684D01*
X248404Y62984D02*
X329684D01*
X496054Y62484D02*
X577334D01*
X496054Y762D02*
X577334D01*
Y62484D01*
X496054Y762D02*
Y62484D01*
D13*
X525680Y191050D02*
Y228050D01*
X576680Y191050D02*
Y228050D01*
X525680Y191050D02*
X576680D01*
X525680Y228050D02*
X576680D01*
X190265Y195495D02*
Y181498D01*
Y195495D02*
X196264D01*
X198263Y194828D01*
X198930Y194162D01*
X199596Y192829D01*
Y191496D01*
X198930Y190163D01*
X198263Y189496D01*
X196264Y188830D01*
X190265D02*
X196264D01*
X198263Y188163D01*
X198930Y187497D01*
X199596Y186164D01*
Y184164D01*
X198930Y182831D01*
X198263Y182164D01*
X196264Y181498D01*
X190265D01*
X211394Y195495D02*
X202729D01*
Y181498D01*
X211394D01*
X202729Y188830D02*
X208061D01*
X222391Y195495D02*
X213727D01*
Y181498D01*
X222391D01*
X213727Y188830D02*
X219059D01*
X229390Y195495D02*
Y181498D01*
X224724Y195495D02*
X234056D01*
X244387D02*
X235722D01*
Y181498D01*
X244387D01*
X235722Y188830D02*
X241054D01*
X256717Y192162D02*
X256051Y193495D01*
X254718Y194828D01*
X253385Y195495D01*
X250719D01*
X249386Y194828D01*
X248053Y193495D01*
X247386Y192162D01*
X246719Y190163D01*
Y186830D01*
X247386Y184831D01*
X248053Y183498D01*
X249386Y182164D01*
X250719Y181498D01*
X253385D01*
X254718Y182164D01*
X256051Y183498D01*
X256717Y184831D01*
X260650Y195495D02*
Y181498D01*
X269981Y195495D02*
Y181498D01*
X260650Y188830D02*
X269981D01*
X190211Y169042D02*
Y159044D01*
X196876Y169042D02*
Y159044D01*
X190211Y164281D02*
X196876D01*
X199637Y169042D02*
X202018Y159044D01*
X204398Y169042D02*
X202018Y159044D01*
X204398Y169042D02*
X206779Y159044D01*
X209159Y169042D02*
X206779Y159044D01*
X223775Y169042D02*
X219014Y162377D01*
X226156D01*
X223775Y169042D02*
Y159044D01*
D14*
X25800Y197466D02*
X75800D01*
X25800Y147466D02*
X75800D01*
X25800Y165466D02*
Y179466D01*
X75800Y165466D02*
Y179466D01*
D15*
X162003Y223083D02*
X170000D01*
Y227082D01*
X168667Y228414D01*
X163335D01*
X162003Y227082D01*
Y223083D01*
X170000Y231080D02*
Y233746D01*
Y232413D01*
X162003D01*
X163335Y231080D01*
X162003Y243076D02*
X163335Y240411D01*
X166001Y237745D01*
X168667D01*
X170000Y239078D01*
Y241744D01*
X168667Y243076D01*
X167334D01*
X166001Y241744D01*
Y237745D01*
X238907Y221750D02*
X246904D01*
Y225749D01*
X245571Y227082D01*
X240239D01*
X238907Y225749D01*
Y221750D01*
X246904Y229747D02*
Y232413D01*
Y231080D01*
X238907D01*
X240239Y229747D01*
X245571Y236412D02*
X246904Y237745D01*
Y240411D01*
X245571Y241744D01*
X240239D01*
X238907Y240411D01*
Y237745D01*
X240239Y236412D01*
X241572D01*
X242905Y237745D01*
Y241744D01*
X373000Y450750D02*
X365003D01*
Y454749D01*
X366335Y456082D01*
X369001D01*
X370334Y454749D01*
Y450750D01*
Y453416D02*
X373000Y456082D01*
X365003Y458747D02*
X373000Y464079D01*
X365003D02*
X373000Y458747D01*
X620246Y73664D02*
X618913Y74997D01*
X616247D01*
X614915Y73664D01*
Y68333D01*
X616247Y67000D01*
X618913D01*
X620246Y68333D01*
Y70999D01*
X617580D01*
X622912Y67000D02*
Y74997D01*
X628243Y67000D01*
Y74997D01*
X630909D02*
Y67000D01*
X634908D01*
X636241Y68333D01*
Y73664D01*
X634908Y74997D01*
X630909D01*
X347750Y221750D02*
X339753D01*
Y225749D01*
X341086Y227082D01*
X343751D01*
X345084Y225749D01*
Y221750D01*
Y224416D02*
X347750Y227082D01*
X341086Y235079D02*
X339753Y233746D01*
Y231080D01*
X341086Y229747D01*
X342418D01*
X343751Y231080D01*
Y233746D01*
X345084Y235079D01*
X346417D01*
X347750Y233746D01*
Y231080D01*
X346417Y229747D01*
X339753Y237745D02*
Y243076D01*
Y240411D01*
X347750D01*
X616247Y200997D02*
X618913D01*
X617580D01*
Y193000D01*
X616247D01*
X618913D01*
X622912D02*
Y200997D01*
X628243Y193000D01*
Y200997D01*
X630909D02*
X636241D01*
X633575D01*
Y193000D01*
X137753Y223083D02*
X145750D01*
Y227082D01*
X144417Y228414D01*
X139086D01*
X137753Y227082D01*
Y223083D01*
X145750Y231080D02*
Y233746D01*
Y232413D01*
X137753D01*
X139086Y231080D01*
X137753Y243076D02*
Y237745D01*
X141751D01*
X140418Y240411D01*
Y241744D01*
X141751Y243076D01*
X144417D01*
X145750Y241744D01*
Y239078D01*
X144417Y237745D01*
X626572Y98914D02*
X625240Y100247D01*
X622574D01*
X621241Y98914D01*
Y93583D01*
X622574Y92250D01*
X625240D01*
X626572Y93583D01*
X634570Y98914D02*
X633237Y100247D01*
X630571D01*
X629238Y98914D01*
Y97582D01*
X630571Y96249D01*
X633237D01*
X634570Y94916D01*
Y93583D01*
X633237Y92250D01*
X630571D01*
X629238Y93583D01*
X187253Y450750D02*
X195250D01*
Y454749D01*
X193917Y456082D01*
X188585D01*
X187253Y454749D01*
Y450750D01*
Y464079D02*
X188585Y461413D01*
X191251Y458747D01*
X193917D01*
X195250Y460080D01*
Y462746D01*
X193917Y464079D01*
X192584D01*
X191251Y462746D01*
Y458747D01*
X608250Y116250D02*
Y124247D01*
X610916Y121582D01*
X613582Y124247D01*
Y116250D01*
X616247Y124247D02*
X618913D01*
X617580D01*
Y116250D01*
X616247D01*
X618913D01*
X628243Y122914D02*
X626911Y124247D01*
X624245D01*
X622912Y122914D01*
Y121582D01*
X624245Y120249D01*
X626911D01*
X628243Y118916D01*
Y117583D01*
X626911Y116250D01*
X624245D01*
X622912Y117583D01*
X634908Y124247D02*
X632242D01*
X630909Y122914D01*
Y117583D01*
X632242Y116250D01*
X634908D01*
X636241Y117583D01*
Y122914D01*
X634908Y124247D01*
X63825Y212585D02*
X62493Y213918D01*
Y216584D01*
X63825Y217917D01*
X65158D01*
X66491Y216584D01*
Y215251D01*
Y216584D01*
X67824Y217917D01*
X69157D01*
X70490Y216584D01*
Y213918D01*
X69157Y212585D01*
X70490Y220583D02*
X69157D01*
Y221916D01*
X70490D01*
Y220583D01*
X63825Y227247D02*
X62493Y228580D01*
Y231246D01*
X63825Y232579D01*
X65158D01*
X66491Y231246D01*
Y229913D01*
Y231246D01*
X67824Y232579D01*
X69157D01*
X70490Y231246D01*
Y228580D01*
X69157Y227247D01*
X62493Y235245D02*
X67824D01*
X70490Y237910D01*
X67824Y240576D01*
X62493D01*
X264003Y221750D02*
X272000D01*
Y225749D01*
X270667Y227082D01*
X265336D01*
X264003Y225749D01*
Y221750D01*
X272000Y235079D02*
Y229747D01*
X266668Y235079D01*
X265336D01*
X264003Y233746D01*
Y231080D01*
X265336Y229747D01*
Y237745D02*
X264003Y239078D01*
Y241744D01*
X265336Y243076D01*
X270667D01*
X272000Y241744D01*
Y239078D01*
X270667Y237745D01*
X265336D01*
X162003Y450750D02*
X170000D01*
Y454749D01*
X168667Y456082D01*
X163335D01*
X162003Y454749D01*
Y450750D01*
Y458747D02*
Y464079D01*
X163335D01*
X168667Y458747D01*
X170000D01*
X366335Y227082D02*
X365003Y225749D01*
Y223083D01*
X366335Y221750D01*
X371667D01*
X373000Y223083D01*
Y225749D01*
X371667Y227082D01*
X369001D01*
Y224416D01*
X373000Y229747D02*
X365003D01*
X373000Y235079D01*
X365003D01*
Y237745D02*
X373000D01*
Y241744D01*
X371667Y243076D01*
X366335D01*
X365003Y241744D01*
Y237745D01*
X215068Y223083D02*
X223065D01*
Y227082D01*
X221732Y228414D01*
X216401D01*
X215068Y227082D01*
Y223083D01*
X223065Y231080D02*
Y233746D01*
Y232413D01*
X215068D01*
X216401Y231080D01*
Y237745D02*
X215068Y239078D01*
Y241744D01*
X216401Y243076D01*
X217734D01*
X219067Y241744D01*
X220399Y243076D01*
X221732D01*
X223065Y241744D01*
Y239078D01*
X221732Y237745D01*
X220399D01*
X219067Y239078D01*
X217734Y237745D01*
X216401D01*
X219067Y239078D02*
Y241744D01*
X94500Y213753D02*
X89169D01*
X86503Y216418D01*
X89169Y219084D01*
X94500D01*
X90501D01*
Y213753D01*
X94500Y221750D02*
X86503D01*
Y225749D01*
X87836Y227082D01*
X90501D01*
X91834Y225749D01*
Y221750D01*
Y224416D02*
X94500Y227082D01*
X86503Y235079D02*
Y229747D01*
X94500D01*
Y235079D01*
X90501Y229747D02*
Y232413D01*
X86503Y243076D02*
Y237745D01*
X90501D01*
Y240411D01*
Y237745D01*
X94500D01*
X609583Y142821D02*
Y150819D01*
X612249Y148153D01*
X614915Y150819D01*
Y142821D01*
X621579Y150819D02*
X618913D01*
X617580Y149486D01*
Y144154D01*
X618913Y142821D01*
X621579D01*
X622912Y144154D01*
Y149486D01*
X621579Y150819D01*
X630909Y149486D02*
X629576Y150819D01*
X626911D01*
X625578Y149486D01*
Y148153D01*
X626911Y146820D01*
X629576D01*
X630909Y145487D01*
Y144154D01*
X629576Y142821D01*
X626911D01*
X625578Y144154D01*
X633575Y150819D02*
X636241D01*
X634908D01*
Y142821D01*
X633575D01*
X636241D01*
X627369Y48247D02*
X622038D01*
Y44249D01*
X624704Y45582D01*
X626037D01*
X627369Y44249D01*
Y41583D01*
X626037Y40250D01*
X623371D01*
X622038Y41583D01*
X630035Y48247D02*
Y42916D01*
X632701Y40250D01*
X635367Y42916D01*
Y48247D01*
X86503Y450750D02*
X94500D01*
Y454749D01*
X93167Y456082D01*
X87836D01*
X86503Y454749D01*
Y450750D01*
X94500Y458747D02*
Y461413D01*
Y460080D01*
X86503D01*
X87836Y458747D01*
Y465412D02*
X86503Y466745D01*
Y469411D01*
X87836Y470743D01*
X93167D01*
X94500Y469411D01*
Y466745D01*
X93167Y465412D01*
X87836D01*
X187253Y223083D02*
X195250D01*
Y227082D01*
X193917Y228414D01*
X188585D01*
X187253Y227082D01*
Y223083D01*
X195250Y231080D02*
Y233746D01*
Y232413D01*
X187253D01*
X188585Y231080D01*
X187253Y237745D02*
Y243076D01*
X188585D01*
X193917Y237745D01*
X195250D01*
X264003Y450750D02*
X272000D01*
Y454749D01*
X270667Y456082D01*
X265336D01*
X264003Y454749D01*
Y450750D01*
X265336Y458747D02*
X264003Y460080D01*
Y462746D01*
X265336Y464079D01*
X266668D01*
X268001Y462746D01*
Y461413D01*
Y462746D01*
X269334Y464079D01*
X270667D01*
X272000Y462746D01*
Y460080D01*
X270667Y458747D01*
X390003Y223083D02*
X395334D01*
X398000Y225749D01*
X395334Y228414D01*
X390003D01*
Y231080D02*
Y233746D01*
Y232413D01*
X398000D01*
Y231080D01*
Y233746D01*
Y237745D02*
X390003D01*
X398000Y243076D01*
X390003D01*
X238253Y450750D02*
X246250D01*
Y454749D01*
X244917Y456082D01*
X239585D01*
X238253Y454749D01*
Y450750D01*
X246250Y462746D02*
X238253D01*
X242251Y458747D01*
Y464079D01*
X34003Y450750D02*
X42000D01*
Y454749D01*
X40667Y456082D01*
X35336D01*
X34003Y454749D01*
Y450750D01*
X42000Y458747D02*
Y461413D01*
Y460080D01*
X34003D01*
X35336Y458747D01*
X42000Y470743D02*
Y465412D01*
X36668Y470743D01*
X35336D01*
X34003Y469411D01*
Y466745D01*
X35336Y465412D01*
X57953Y450750D02*
X65950D01*
Y454749D01*
X64617Y456082D01*
X59285D01*
X57953Y454749D01*
Y450750D01*
X65950Y458747D02*
Y461413D01*
Y460080D01*
X57953D01*
X59285Y458747D01*
X65950Y465412D02*
Y468078D01*
Y466745D01*
X57953D01*
X59285Y465412D01*
X620246Y174415D02*
X618913Y175747D01*
X616247D01*
X614915Y174415D01*
Y173082D01*
X616247Y171749D01*
X618913D01*
X620246Y170416D01*
Y169083D01*
X618913Y167750D01*
X616247D01*
X614915Y169083D01*
X628243Y174415D02*
X626911Y175747D01*
X624245D01*
X622912Y174415D01*
Y169083D01*
X624245Y167750D01*
X626911D01*
X628243Y169083D01*
X630909Y175747D02*
Y167750D01*
Y170416D01*
X636241Y175747D01*
X632242Y171749D01*
X636241Y167750D01*
X111753Y450750D02*
X119750D01*
Y454749D01*
X118417Y456082D01*
X113085D01*
X111753Y454749D01*
Y450750D01*
X118417Y458747D02*
X119750Y460080D01*
Y462746D01*
X118417Y464079D01*
X113085D01*
X111753Y462746D01*
Y460080D01*
X113085Y458747D01*
X114418D01*
X115751Y460080D01*
Y464079D01*
X288503Y450750D02*
X296500D01*
Y454749D01*
X295167Y456082D01*
X289835D01*
X288503Y454749D01*
Y450750D01*
X296500Y464079D02*
Y458747D01*
X291168Y464079D01*
X289835D01*
X288503Y462746D01*
Y460080D01*
X289835Y458747D01*
X320251Y221750D02*
Y227082D01*
X317586Y224416D02*
X322917D01*
X316253Y235079D02*
Y229747D01*
X320251D01*
X318918Y232413D01*
Y233746D01*
X320251Y235079D01*
X322917D01*
X324250Y233746D01*
Y231080D01*
X322917Y229747D01*
X316253Y237745D02*
X321584D01*
X324250Y240411D01*
X321584Y243076D01*
X316253D01*
X392753Y450750D02*
Y456082D01*
Y453416D01*
X400750D01*
X392753Y458747D02*
X400750Y464079D01*
X392753D02*
X400750Y458747D01*
X212753Y450750D02*
X220750D01*
Y454749D01*
X219417Y456082D01*
X214086D01*
X212753Y454749D01*
Y450750D01*
Y464079D02*
Y458747D01*
X216751D01*
X215418Y461413D01*
Y462746D01*
X216751Y464079D01*
X219417D01*
X220750Y462746D01*
Y460080D01*
X219417Y458747D01*
X313585Y456082D02*
X312253Y454749D01*
Y452083D01*
X313585Y450750D01*
X318917D01*
X320250Y452083D01*
Y454749D01*
X318917Y456082D01*
X316251D01*
Y453416D01*
X320250Y458747D02*
X312253D01*
X320250Y464079D01*
X312253D01*
Y466745D02*
X320250D01*
Y470743D01*
X318917Y472076D01*
X313585D01*
X312253Y470743D01*
Y466745D01*
X34003Y220876D02*
X42000D01*
Y224875D01*
X40667Y226208D01*
X35336D01*
X34003Y224875D01*
Y220876D01*
X42000Y228874D02*
Y231540D01*
Y230207D01*
X34003D01*
X35336Y228874D01*
Y235538D02*
X34003Y236871D01*
Y239537D01*
X35336Y240870D01*
X36668D01*
X38001Y239537D01*
Y238204D01*
Y239537D01*
X39334Y240870D01*
X40667D01*
X42000Y239537D01*
Y236871D01*
X40667Y235538D01*
X111753Y223083D02*
X119750D01*
Y227082D01*
X118417Y228414D01*
X113085D01*
X111753Y227082D01*
Y223083D01*
X119750Y231080D02*
Y233746D01*
Y232413D01*
X111753D01*
X113085Y231080D01*
X119750Y241744D02*
X111753D01*
X115751Y237745D01*
Y243076D01*
X290503Y221750D02*
X298500D01*
Y225749D01*
X297167Y227082D01*
X291835D01*
X290503Y225749D01*
Y221750D01*
X298500Y235079D02*
Y229747D01*
X293168Y235079D01*
X291835D01*
X290503Y233746D01*
Y231080D01*
X291835Y229747D01*
X298500Y237745D02*
Y240411D01*
Y239078D01*
X290503D01*
X291835Y237745D01*
X137753Y450750D02*
X145750D01*
Y454749D01*
X144417Y456082D01*
X139086D01*
X137753Y454749D01*
Y450750D01*
X139086Y458747D02*
X137753Y460080D01*
Y462746D01*
X139086Y464079D01*
X140418D01*
X141751Y462746D01*
X143084Y464079D01*
X144417D01*
X145750Y462746D01*
Y460080D01*
X144417Y458747D01*
X143084D01*
X141751Y460080D01*
X140418Y458747D01*
X139086D01*
X141751Y460080D02*
Y462746D01*
X347750Y450750D02*
X339753D01*
Y454749D01*
X341086Y456082D01*
X343751D01*
X345084Y454749D01*
Y450750D01*
Y453416D02*
X347750Y456082D01*
X341086Y464079D02*
X339753Y462746D01*
Y460080D01*
X341086Y458747D01*
X342418D01*
X343751Y460080D01*
Y462746D01*
X345084Y464079D01*
X346417D01*
X347750Y462746D01*
Y460080D01*
X346417Y458747D01*
X339753Y466745D02*
Y472076D01*
Y469411D01*
X347750D01*
D16*
X646085Y220383D02*
X644919Y221549D01*
X642586D01*
X641420Y220383D01*
Y215717D01*
X642586Y214551D01*
X644919D01*
X646085Y215717D01*
X648417Y214551D02*
Y219216D01*
X650750Y221549D01*
X653083Y219216D01*
Y214551D01*
Y218050D01*
X648417D01*
X655415Y214551D02*
Y221549D01*
X660080Y214551D01*
Y221549D01*
X3997Y251239D02*
Y245407D01*
X5163Y244241D01*
X7495D01*
X8662Y245407D01*
Y251239D01*
X15660Y244241D02*
X10994D01*
X15660Y248906D01*
Y250073D01*
X14493Y251239D01*
X12161D01*
X10994Y250073D01*
X584790Y215343D02*
Y210345D01*
X585789Y209345D01*
X587789D01*
X588788Y210345D01*
Y215343D01*
X594786D02*
X592787Y214343D01*
X590788Y212344D01*
Y210345D01*
X591787Y209345D01*
X593787D01*
X594786Y210345D01*
Y211344D01*
X593787Y212344D01*
X590788D01*
X19969Y209719D02*
Y203887D01*
X21135Y202721D01*
X23467D01*
X24634Y203887D01*
Y209719D01*
X30465Y202721D02*
Y209719D01*
X26966Y206220D01*
X31632D01*
X420946Y69720D02*
X428944D01*
X420946D02*
Y72386D01*
X421326Y73529D01*
X422088Y74290D01*
X422850Y74671D01*
X423993Y75052D01*
X425897D01*
X427040Y74671D01*
X427801Y74290D01*
X428563Y73529D01*
X428944Y72386D01*
Y69720D01*
Y82936D02*
X420946Y79889D01*
X428944Y76842D01*
X426278Y77985D02*
Y81794D01*
X420946Y87469D02*
X428944D01*
X420946Y84803D02*
Y90135D01*
X428944Y97181D02*
X420946Y94134D01*
X428944Y91087D01*
X426278Y92229D02*
Y96038D01*
X397838Y75052D02*
X397076Y74290D01*
X396696Y73148D01*
Y71624D01*
X397076Y70482D01*
X397838Y69720D01*
X398600D01*
X399362Y70101D01*
X399743Y70482D01*
X400123Y71244D01*
X400885Y73529D01*
X401266Y74290D01*
X401647Y74671D01*
X402409Y75052D01*
X403551D01*
X404313Y74290D01*
X404694Y73148D01*
Y71624D01*
X404313Y70482D01*
X403551Y69720D01*
X398600Y82555D02*
X397838Y82175D01*
X397076Y81413D01*
X396696Y80651D01*
Y79128D01*
X397076Y78366D01*
X397838Y77604D01*
X398600Y77223D01*
X399743Y76842D01*
X401647D01*
X402790Y77223D01*
X403551Y77604D01*
X404313Y78366D01*
X404694Y79128D01*
Y80651D01*
X404313Y81413D01*
X403551Y82175D01*
X402790Y82555D01*
X396696Y84803D02*
X404694D01*
X396696Y90135D02*
X402028Y84803D01*
X400123Y86707D02*
X404694Y90135D01*
X507002Y70000D02*
X515000D01*
X507002D02*
Y72666D01*
X507383Y73809D01*
X508144Y74570D01*
X508906Y74951D01*
X510049Y75332D01*
X511953D01*
X513096Y74951D01*
X513857Y74570D01*
X514619Y73809D01*
X515000Y72666D01*
Y70000D01*
Y83216D02*
X507002Y80169D01*
X515000Y77122D01*
X512334Y78265D02*
Y82074D01*
X507002Y87749D02*
X515000D01*
X507002Y85083D02*
Y90415D01*
X515000Y97461D02*
X507002Y94414D01*
X515000Y91367D01*
X512334Y92509D02*
Y96318D01*
X285494Y70470D02*
X293492D01*
X285494D02*
Y73136D01*
X285875Y74279D01*
X286636Y75040D01*
X287398Y75421D01*
X288541Y75802D01*
X290445D01*
X291588Y75421D01*
X292349Y75040D01*
X293111Y74279D01*
X293492Y73136D01*
Y70470D01*
Y83686D02*
X285494Y80639D01*
X293492Y77592D01*
X290826Y78735D02*
Y82544D01*
X285494Y88219D02*
X293492D01*
X285494Y85553D02*
Y90885D01*
X293492Y97931D02*
X285494Y94884D01*
X293492Y91837D01*
X290826Y92979D02*
Y96788D01*
X263850Y76183D02*
X263088Y75802D01*
X262327Y75040D01*
X261946Y74279D01*
Y72755D01*
X262327Y71993D01*
X263088Y71232D01*
X263850Y70851D01*
X264993Y70470D01*
X266897D01*
X268040Y70851D01*
X268801Y71232D01*
X269563Y71993D01*
X269944Y72755D01*
Y74279D01*
X269563Y75040D01*
X268801Y75802D01*
X268040Y76183D01*
X266897D01*
Y74279D02*
Y76183D01*
X261946Y78011D02*
X269944D01*
X261946D02*
X269944Y83343D01*
X261946D02*
X269944D01*
X261946Y85553D02*
X269944D01*
X261946D02*
Y88219D01*
X262327Y89361D01*
X263088Y90123D01*
X263850Y90504D01*
X264993Y90885D01*
X266897D01*
X268040Y90504D01*
X268801Y90123D01*
X269563Y89361D01*
X269944Y88219D01*
Y85553D01*
X534336Y75213D02*
X533574Y74832D01*
X532812Y74070D01*
X532432Y73309D01*
Y71785D01*
X532812Y71024D01*
X533574Y70262D01*
X534336Y69881D01*
X535479Y69500D01*
X537383D01*
X538526Y69881D01*
X539287Y70262D01*
X540049Y71024D01*
X540430Y71785D01*
Y73309D01*
X540049Y74070D01*
X539287Y74832D01*
X538526Y75213D01*
X537383D01*
Y73309D02*
Y75213D01*
X532432Y77041D02*
X540430D01*
X532432D02*
X540430Y82373D01*
X532432D02*
X540430D01*
X532432Y84583D02*
X540430D01*
X532432D02*
Y87249D01*
X532812Y88391D01*
X533574Y89153D01*
X534336Y89534D01*
X535479Y89915D01*
X537383D01*
X538526Y89534D01*
X539287Y89153D01*
X540049Y88391D01*
X540430Y87249D01*
Y84583D01*
X450100Y75433D02*
X449338Y75052D01*
X448577Y74290D01*
X448196Y73529D01*
Y72005D01*
X448577Y71244D01*
X449338Y70482D01*
X450100Y70101D01*
X451243Y69720D01*
X453147D01*
X454290Y70101D01*
X455051Y70482D01*
X455813Y71244D01*
X456194Y72005D01*
Y73529D01*
X455813Y74290D01*
X455051Y75052D01*
X454290Y75433D01*
X453147D01*
Y73529D02*
Y75433D01*
X448196Y77261D02*
X456194D01*
X448196D02*
X456194Y82593D01*
X448196D02*
X456194D01*
X448196Y84803D02*
X456194D01*
X448196D02*
Y87469D01*
X448577Y88611D01*
X449338Y89373D01*
X450100Y89754D01*
X451243Y90135D01*
X453147D01*
X454290Y89754D01*
X455051Y89373D01*
X455813Y88611D01*
X456194Y87469D01*
Y84803D01*
X370946Y69720D02*
X378944Y72767D01*
X370946Y75814D02*
X378944Y72767D01*
X372850Y82555D02*
X372088Y82175D01*
X371327Y81413D01*
X370946Y80651D01*
Y79127D01*
X371327Y78366D01*
X372088Y77604D01*
X372850Y77223D01*
X373993Y76842D01*
X375897D01*
X377040Y77223D01*
X377801Y77604D01*
X378563Y78366D01*
X378944Y79127D01*
Y80651D01*
X378563Y81413D01*
X377801Y82175D01*
X377040Y82555D01*
X372850Y90515D02*
X372088Y90135D01*
X371327Y89373D01*
X370946Y88611D01*
Y87088D01*
X371327Y86326D01*
X372088Y85564D01*
X372850Y85183D01*
X373993Y84803D01*
X375897D01*
X377040Y85183D01*
X377801Y85564D01*
X378563Y86326D01*
X378944Y87088D01*
Y88611D01*
X378563Y89373D01*
X377801Y90135D01*
X377040Y90515D01*
X560196Y69970D02*
X568194Y73017D01*
X560196Y76064D02*
X568194Y73017D01*
X562100Y82805D02*
X561338Y82424D01*
X560577Y81663D01*
X560196Y80901D01*
Y79377D01*
X560577Y78616D01*
X561338Y77854D01*
X562100Y77473D01*
X563243Y77092D01*
X565147D01*
X566290Y77473D01*
X567051Y77854D01*
X567813Y78616D01*
X568194Y79377D01*
Y80901D01*
X567813Y81663D01*
X567051Y82424D01*
X566290Y82805D01*
X562100Y90766D02*
X561338Y90385D01*
X560577Y89623D01*
X560196Y88861D01*
Y87338D01*
X560577Y86576D01*
X561338Y85814D01*
X562100Y85433D01*
X563243Y85052D01*
X565147D01*
X566290Y85433D01*
X567051Y85814D01*
X567813Y86576D01*
X568194Y87338D01*
Y88861D01*
X567813Y89623D01*
X567051Y90385D01*
X566290Y90766D01*
X311446Y70470D02*
X319444Y73517D01*
X311446Y76564D02*
X319444Y73517D01*
X313350Y83305D02*
X312588Y82924D01*
X311827Y82163D01*
X311446Y81401D01*
Y79878D01*
X311827Y79116D01*
X312588Y78354D01*
X313350Y77973D01*
X314493Y77592D01*
X316397D01*
X317540Y77973D01*
X318301Y78354D01*
X319063Y79116D01*
X319444Y79878D01*
Y81401D01*
X319063Y82163D01*
X318301Y82924D01*
X317540Y83305D01*
X313350Y91266D02*
X312588Y90885D01*
X311827Y90123D01*
X311446Y89361D01*
Y87838D01*
X311827Y87076D01*
X312588Y86314D01*
X313350Y85933D01*
X314493Y85553D01*
X316397D01*
X317540Y85933D01*
X318301Y86314D01*
X319063Y87076D01*
X319444Y87838D01*
Y89361D01*
X319063Y90123D01*
X318301Y90885D01*
X317540Y91266D01*
X199946Y71220D02*
X207944Y74267D01*
X199946Y77314D02*
X207944Y74267D01*
X201850Y84055D02*
X201088Y83674D01*
X200326Y82913D01*
X199946Y82151D01*
Y80627D01*
X200326Y79866D01*
X201088Y79104D01*
X201850Y78723D01*
X202993Y78342D01*
X204897D01*
X206040Y78723D01*
X206801Y79104D01*
X207563Y79866D01*
X207944Y80627D01*
Y82151D01*
X207563Y82913D01*
X206801Y83674D01*
X206040Y84055D01*
X201850Y92015D02*
X201088Y91635D01*
X200326Y90873D01*
X199946Y90111D01*
Y88588D01*
X200326Y87826D01*
X201088Y87064D01*
X201850Y86683D01*
X202993Y86302D01*
X204897D01*
X206040Y86683D01*
X206801Y87064D01*
X207563Y87826D01*
X207944Y88588D01*
Y90111D01*
X207563Y90873D01*
X206801Y91635D01*
X206040Y92015D01*
X173696Y71220D02*
X181694D01*
X173696D02*
Y73886D01*
X174077Y75029D01*
X174838Y75791D01*
X175600Y76171D01*
X176743Y76552D01*
X178647D01*
X179790Y76171D01*
X180551Y75791D01*
X181313Y75029D01*
X181694Y73886D01*
Y71220D01*
Y84436D02*
X173696Y81389D01*
X181694Y78342D01*
X179028Y79485D02*
Y83294D01*
X173696Y88969D02*
X181694D01*
X173696Y86302D02*
Y91635D01*
X181694Y98681D02*
X173696Y95634D01*
X181694Y92587D01*
X179028Y93729D02*
Y97538D01*
X151346Y76933D02*
X150584Y76552D01*
X149823Y75791D01*
X149442Y75029D01*
Y73505D01*
X149823Y72744D01*
X150584Y71982D01*
X151346Y71601D01*
X152489Y71220D01*
X154393D01*
X155536Y71601D01*
X156297Y71982D01*
X157059Y72744D01*
X157440Y73505D01*
Y75029D01*
X157059Y75791D01*
X156297Y76552D01*
X155536Y76933D01*
X154393D01*
Y75029D02*
Y76933D01*
X149442Y78761D02*
X157440D01*
X149442D02*
X157440Y84094D01*
X149442D02*
X157440D01*
X149442Y86302D02*
X157440D01*
X149442D02*
Y88969D01*
X149823Y90111D01*
X150584Y90873D01*
X151346Y91254D01*
X152489Y91635D01*
X154393D01*
X155536Y91254D01*
X156297Y90873D01*
X157059Y90111D01*
X157440Y88969D01*
Y86302D01*
X502386Y111356D02*
X501624Y112117D01*
X500482Y112498D01*
X498958D01*
X497816Y112117D01*
X497054Y111356D01*
Y110594D01*
X497435Y109832D01*
X497816Y109451D01*
X498577Y109070D01*
X500863Y108309D01*
X501624Y107928D01*
X502005Y107547D01*
X502386Y106785D01*
Y105643D01*
X501624Y104881D01*
X500482Y104500D01*
X498958D01*
X497816Y104881D01*
X497054Y105643D01*
X506461Y112498D02*
X505700Y112117D01*
X504938Y111356D01*
X504557Y110594D01*
X504176Y109451D01*
Y107547D01*
X504557Y106404D01*
X504938Y105643D01*
X505700Y104881D01*
X506461Y104500D01*
X507985D01*
X508747Y104881D01*
X509508Y105643D01*
X509889Y106404D01*
X510270Y107547D01*
Y109451D01*
X509889Y110594D01*
X509508Y111356D01*
X508747Y112117D01*
X507985Y112498D01*
X506461D01*
X512136D02*
Y106785D01*
X512517Y105643D01*
X513279Y104881D01*
X514422Y104500D01*
X515183D01*
X516326Y104881D01*
X517088Y105643D01*
X517469Y106785D01*
Y112498D01*
X519678D02*
Y104500D01*
Y112498D02*
X525010Y104500D01*
Y112498D02*
Y104500D01*
X527219Y112498D02*
Y104500D01*
Y112498D02*
X529885D01*
X531028Y112117D01*
X531789Y111356D01*
X532170Y110594D01*
X532551Y109451D01*
Y107547D01*
X532170Y106404D01*
X531789Y105643D01*
X531028Y104881D01*
X529885Y104500D01*
X527219D01*
X545958Y111356D02*
X545196Y112117D01*
X544053Y112498D01*
X542530D01*
X541387Y112117D01*
X540626Y111356D01*
Y110594D01*
X541007Y109832D01*
X541387Y109451D01*
X542149Y109070D01*
X544434Y108309D01*
X545196Y107928D01*
X545577Y107547D01*
X545958Y106785D01*
Y105643D01*
X545196Y104881D01*
X544053Y104500D01*
X542530D01*
X541387Y104881D01*
X540626Y105643D01*
X552699Y112498D02*
X547748D01*
Y104500D01*
X552699D01*
X547748Y108690D02*
X550795D01*
X554032Y112498D02*
Y104500D01*
Y112498D02*
X559365Y104500D01*
Y112498D02*
Y104500D01*
X566906Y111356D02*
X566144Y112117D01*
X565001Y112498D01*
X563478D01*
X562335Y112117D01*
X561573Y111356D01*
Y110594D01*
X561954Y109832D01*
X562335Y109451D01*
X563097Y109070D01*
X565382Y108309D01*
X566144Y107928D01*
X566525Y107547D01*
X566906Y106785D01*
Y105643D01*
X566144Y104881D01*
X565001Y104500D01*
X563478D01*
X562335Y104881D01*
X561573Y105643D01*
X570981Y112498D02*
X570219Y112117D01*
X569458Y111356D01*
X569077Y110594D01*
X568696Y109451D01*
Y107547D01*
X569077Y106404D01*
X569458Y105643D01*
X570219Y104881D01*
X570981Y104500D01*
X572505D01*
X573266Y104881D01*
X574028Y105643D01*
X574409Y106404D01*
X574790Y107547D01*
Y109451D01*
X574409Y110594D01*
X574028Y111356D01*
X573266Y112117D01*
X572505Y112498D01*
X570981D01*
X576656D02*
Y104500D01*
Y112498D02*
X580084D01*
X581227Y112117D01*
X581607Y111737D01*
X581988Y110975D01*
Y110213D01*
X581607Y109451D01*
X581227Y109070D01*
X580084Y108690D01*
X576656D01*
X579322D02*
X581988Y104500D01*
X364836Y109606D02*
X364074Y110367D01*
X362932Y110748D01*
X361408D01*
X360266Y110367D01*
X359504Y109606D01*
Y108844D01*
X359885Y108082D01*
X360266Y107701D01*
X361027Y107320D01*
X363313Y106559D01*
X364074Y106178D01*
X364455Y105797D01*
X364836Y105035D01*
Y103893D01*
X364074Y103131D01*
X362932Y102750D01*
X361408D01*
X360266Y103131D01*
X359504Y103893D01*
X372339Y108844D02*
X371959Y109606D01*
X371197Y110367D01*
X370435Y110748D01*
X368912D01*
X368150Y110367D01*
X367388Y109606D01*
X367007Y108844D01*
X366626Y107701D01*
Y105797D01*
X367007Y104654D01*
X367388Y103893D01*
X368150Y103131D01*
X368912Y102750D01*
X370435D01*
X371197Y103131D01*
X371959Y103893D01*
X372339Y104654D01*
X380680Y102750D02*
X377633Y110748D01*
X374586Y102750D01*
X375729Y105416D02*
X379538D01*
X382547Y110748D02*
Y102750D01*
X387117D01*
X392944Y110748D02*
X387993D01*
Y102750D01*
X392944D01*
X387993Y106940D02*
X391040D01*
X405894Y109606D02*
X405132Y110367D01*
X403990Y110748D01*
X402466D01*
X401324Y110367D01*
X400562Y109606D01*
Y108844D01*
X400943Y108082D01*
X401324Y107701D01*
X402085Y107320D01*
X404371Y106559D01*
X405132Y106178D01*
X405513Y105797D01*
X405894Y105035D01*
Y103893D01*
X405132Y103131D01*
X403990Y102750D01*
X402466D01*
X401324Y103131D01*
X400562Y103893D01*
X412635Y110748D02*
X407684D01*
Y102750D01*
X412635D01*
X407684Y106940D02*
X410731D01*
X413969Y110748D02*
Y102750D01*
Y110748D02*
X419301Y102750D01*
Y110748D02*
Y102750D01*
X426842Y109606D02*
X426080Y110367D01*
X424938Y110748D01*
X423414D01*
X422271Y110367D01*
X421510Y109606D01*
Y108844D01*
X421891Y108082D01*
X422271Y107701D01*
X423033Y107320D01*
X425318Y106559D01*
X426080Y106178D01*
X426461Y105797D01*
X426842Y105035D01*
Y103893D01*
X426080Y103131D01*
X424938Y102750D01*
X423414D01*
X422271Y103131D01*
X421510Y103893D01*
X430917Y110748D02*
X430156Y110367D01*
X429394Y109606D01*
X429013Y108844D01*
X428632Y107701D01*
Y105797D01*
X429013Y104654D01*
X429394Y103893D01*
X430156Y103131D01*
X430917Y102750D01*
X432441D01*
X433203Y103131D01*
X433964Y103893D01*
X434345Y104654D01*
X434726Y105797D01*
Y107701D01*
X434345Y108844D01*
X433964Y109606D01*
X433203Y110367D01*
X432441Y110748D01*
X430917D01*
X436592D02*
Y102750D01*
Y110748D02*
X440020D01*
X441163Y110367D01*
X441544Y109986D01*
X441925Y109225D01*
Y108463D01*
X441544Y107701D01*
X441163Y107320D01*
X440020Y106940D01*
X436592D01*
X439258D02*
X441925Y102750D01*
X258416Y111998D02*
Y104000D01*
X255750Y111998D02*
X261082D01*
X266986D02*
X262034D01*
Y104000D01*
X266986D01*
X262034Y108190D02*
X265081D01*
X268319Y111998D02*
Y104000D01*
Y111998D02*
X271366Y104000D01*
X274413Y111998D02*
X271366Y104000D01*
X274413Y111998D02*
Y104000D01*
X276698Y107809D02*
X280126D01*
X281268Y108190D01*
X281649Y108570D01*
X282030Y109332D01*
Y110475D01*
X281649Y111237D01*
X281268Y111617D01*
X280126Y111998D01*
X276698D01*
Y104000D01*
X295437Y110856D02*
X294675Y111617D01*
X293532Y111998D01*
X292009D01*
X290866Y111617D01*
X290105Y110856D01*
Y110094D01*
X290485Y109332D01*
X290866Y108951D01*
X291628Y108570D01*
X293913Y107809D01*
X294675Y107428D01*
X295056Y107047D01*
X295437Y106285D01*
Y105143D01*
X294675Y104381D01*
X293532Y104000D01*
X292009D01*
X290866Y104381D01*
X290105Y105143D01*
X302940Y110094D02*
X302559Y110856D01*
X301797Y111617D01*
X301035Y111998D01*
X299512D01*
X298750Y111617D01*
X297989Y110856D01*
X297608Y110094D01*
X297227Y108951D01*
Y107047D01*
X297608Y105904D01*
X297989Y105143D01*
X298750Y104381D01*
X299512Y104000D01*
X301035D01*
X301797Y104381D01*
X302559Y105143D01*
X302940Y105904D01*
X311281Y104000D02*
X308234Y111998D01*
X305187Y104000D01*
X306330Y106666D02*
X310138D01*
X313147Y111998D02*
Y104000D01*
X317718D01*
X323545Y111998D02*
X318594D01*
Y104000D01*
X323545D01*
X318594Y108190D02*
X321641D01*
X148416Y111748D02*
Y103750D01*
X145750Y111748D02*
X151082D01*
X156986D02*
X152034D01*
Y103750D01*
X156986D01*
X152034Y107940D02*
X155081D01*
X158319Y111748D02*
Y103750D01*
Y111748D02*
X161366Y103750D01*
X164413Y111748D02*
X161366Y103750D01*
X164413Y111748D02*
Y103750D01*
X166698Y107559D02*
X170126D01*
X171268Y107940D01*
X171649Y108321D01*
X172030Y109082D01*
Y110225D01*
X171649Y110987D01*
X171268Y111367D01*
X170126Y111748D01*
X166698D01*
Y103750D01*
X180105Y111748D02*
Y103750D01*
Y111748D02*
X183532D01*
X184675Y111367D01*
X185056Y110987D01*
X185437Y110225D01*
Y109463D01*
X185056Y108701D01*
X184675Y108321D01*
X183532Y107940D01*
X180105D02*
X183532D01*
X184675Y107559D01*
X185056Y107178D01*
X185437Y106416D01*
Y105274D01*
X185056Y104512D01*
X184675Y104131D01*
X183532Y103750D01*
X180105D01*
X192178Y111748D02*
X187227D01*
Y103750D01*
X192178D01*
X187227Y107940D02*
X190274D01*
X198463Y111748D02*
X193511D01*
Y103750D01*
X198463D01*
X193511Y107940D02*
X196558D01*
X199796Y111748D02*
Y103750D01*
X205128Y111748D02*
Y103750D01*
X199796Y107940D02*
X205128D01*
X207337Y111748D02*
Y103750D01*
X209013Y111748D02*
X212060Y103750D01*
X215107Y111748D02*
X212060Y103750D01*
X221086Y111748D02*
X216135D01*
Y103750D01*
X221086D01*
X216135Y107940D02*
X219182D01*
X55264Y71220D02*
X63262Y74267D01*
X55264Y77314D02*
X63262Y74267D01*
X55264Y78342D02*
X63262D01*
X55264Y80018D02*
X63262D01*
X55264D02*
X63262Y85350D01*
X55264D02*
X63262D01*
X27196Y75547D02*
X26434Y75166D01*
X25673Y74404D01*
X25292Y73643D01*
Y72119D01*
X25673Y71357D01*
X26434Y70596D01*
X27196Y70215D01*
X28339Y69834D01*
X30243D01*
X31386Y70215D01*
X32147Y70596D01*
X32909Y71357D01*
X33290Y72119D01*
Y73643D01*
X32909Y74404D01*
X32147Y75166D01*
X31386Y75547D01*
X30243D01*
Y73643D02*
Y75547D01*
X25292Y77375D02*
X33290D01*
X25292D02*
X33290Y82708D01*
X25292D02*
X33290D01*
X25292Y84916D02*
X33290D01*
X25292D02*
Y87583D01*
X25673Y88725D01*
X26434Y89487D01*
X27196Y89868D01*
X28339Y90249D01*
X30243D01*
X31386Y89868D01*
X32147Y89487D01*
X32909Y88725D01*
X33290Y87583D01*
Y84916D01*
X442986Y149663D02*
Y156661D01*
X446485D01*
X447652Y155495D01*
Y153162D01*
X446485Y151996D01*
X442986D01*
X445319D02*
X447652Y149663D01*
X454650Y156661D02*
X452317Y155495D01*
X449984Y153162D01*
Y150829D01*
X451151Y149663D01*
X453483D01*
X454650Y150829D01*
Y151996D01*
X453483Y153162D01*
X449984D01*
X447652Y135429D02*
X446485Y136595D01*
X444153D01*
X442986Y135429D01*
Y130763D01*
X444153Y129597D01*
X446485D01*
X447652Y130763D01*
X449984Y136595D02*
X454650D01*
Y135429D01*
X449984Y130763D01*
Y129597D01*
X358599Y5907D02*
X352601D01*
Y8906D01*
X353601Y9906D01*
X355600D01*
X356600Y8906D01*
Y5907D01*
X358599Y11905D02*
Y13905D01*
Y12905D01*
X352601D01*
X353601Y11905D01*
X508603Y280499D02*
X513268Y273501D01*
Y280499D02*
X508603Y273501D01*
X515601D02*
X517933D01*
X516767D01*
Y280499D01*
X515601Y279333D01*
X588576Y272081D02*
X587410Y273247D01*
X585077D01*
X583911Y272081D01*
Y267415D01*
X585077Y266249D01*
X587410D01*
X588576Y267415D01*
X595574Y273247D02*
X593241Y272081D01*
X590909Y269748D01*
Y267415D01*
X592075Y266249D01*
X594408D01*
X595574Y267415D01*
Y268582D01*
X594408Y269748D01*
X590909D01*
X133615Y184969D02*
Y191967D01*
X137113D01*
X138280Y190801D01*
Y188468D01*
X137113Y187302D01*
X133615D01*
X135947D02*
X138280Y184969D01*
X140612Y190801D02*
X141779Y191967D01*
X144111D01*
X145278Y190801D01*
Y189634D01*
X144111Y188468D01*
X142945D01*
X144111D01*
X145278Y187302D01*
Y186135D01*
X144111Y184969D01*
X141779D01*
X140612Y186135D01*
X488943Y4419D02*
X481945D01*
Y7917D01*
X483111Y9084D01*
X485444D01*
X486610Y7917D01*
Y4419D01*
X483111Y11416D02*
X481945Y12583D01*
Y14915D01*
X483111Y16082D01*
X484278D01*
X485444Y14915D01*
Y13749D01*
Y14915D01*
X486610Y16082D01*
X487776D01*
X488943Y14915D01*
Y12583D01*
X487776Y11416D01*
X12643Y6615D02*
X5645D01*
Y10113D01*
X6811Y11280D01*
X9144D01*
X10310Y10113D01*
Y6615D01*
X5645Y18277D02*
Y13612D01*
X9144D01*
X7978Y15945D01*
Y17111D01*
X9144Y18277D01*
X11477D01*
X12643Y17111D01*
Y14779D01*
X11477Y13612D01*
X206251Y141831D02*
X213249D01*
Y138333D01*
X212083Y137166D01*
X209750D01*
X208584Y138333D01*
Y141831D01*
Y139499D02*
X206251Y137166D01*
Y130169D02*
Y134834D01*
X210916Y130169D01*
X212083D01*
X213249Y131335D01*
Y133667D01*
X212083Y134834D01*
X319861Y141321D02*
X326859D01*
Y137822D01*
X325693Y136656D01*
X323360D01*
X322194Y137822D01*
Y141321D01*
Y138989D02*
X319861Y136656D01*
Y134323D02*
Y131991D01*
Y133157D01*
X326859D01*
X325693Y134323D01*
X131443Y5168D02*
X124445D01*
Y8667D01*
X125611Y9834D01*
X127944D01*
X129110Y8667D01*
Y5168D01*
X131443Y15665D02*
X124445D01*
X127944Y12166D01*
Y16832D01*
X243443Y3668D02*
X236445D01*
Y7167D01*
X237611Y8334D01*
X239944D01*
X241110Y7167D01*
Y3668D01*
X243443Y15331D02*
Y10666D01*
X238778Y15331D01*
X237611D01*
X236445Y14165D01*
Y11833D01*
X237611Y10666D01*
X358164Y139239D02*
X356998Y140405D01*
X354665D01*
X353499Y139239D01*
Y134573D01*
X354665Y133407D01*
X356998D01*
X358164Y134573D01*
X365162Y133407D02*
X360497D01*
X365162Y138072D01*
Y139239D01*
X363996Y140405D01*
X361663D01*
X360497Y139239D01*
M02*
