G04*
G04 #@! TF.GenerationSoftware,Altium Limited,Altium Designer,21.6.4 (81)*
G04*
G04 Layer_Color=8388736*
%FSLAX44Y44*%
%MOMM*%
G71*
G04*
G04 #@! TF.SameCoordinates,B6620421-005C-40FD-BBE8-42AC4C8AC442*
G04*
G04*
G04 #@! TF.FilePolarity,Negative*
G04*
G01*
G75*
%ADD29R,0.8032X1.1532*%
%ADD30R,1.1532X0.8032*%
%ADD31R,1.2032X0.7032*%
%ADD32O,0.6032X1.4032*%
%ADD33R,1.7032X1.5032*%
%ADD34R,1.7032X1.9032*%
%ADD35R,1.4032X1.6032*%
%ADD36R,1.9032X1.7032*%
%ADD37R,1.8032X1.7032*%
%ADD38R,1.0032X1.6032*%
%ADD39R,1.2032X1.7032*%
%ADD40R,1.7532X1.2032*%
%ADD41O,1.6032X2.0032*%
%ADD42O,2.8032X1.8032*%
%ADD43O,1.8032X2.8032*%
%ADD44O,1.7032X2.2032*%
%ADD45C,1.4032*%
%ADD46C,2.2032*%
%ADD47C,6.0000*%
D29*
X655514Y637540D02*
D03*
X671514D02*
D03*
X542670Y168910D02*
D03*
X526670D02*
D03*
X527178Y148590D02*
D03*
X543178D02*
D03*
X597788Y138938D02*
D03*
X581788D02*
D03*
X362156Y134366D02*
D03*
X378156D02*
D03*
X504826Y498348D02*
D03*
X520826D02*
D03*
X772416Y823976D02*
D03*
X788416D02*
D03*
X318134Y136144D02*
D03*
X302134D02*
D03*
X207390Y134366D02*
D03*
X191390D02*
D03*
D30*
X699262Y149480D02*
D03*
Y165480D02*
D03*
X764286Y238886D02*
D03*
Y222886D02*
D03*
X747268Y238632D02*
D03*
Y222632D02*
D03*
X271272Y670434D02*
D03*
Y686434D02*
D03*
X787400Y159764D02*
D03*
Y143764D02*
D03*
X474472Y475662D02*
D03*
Y459662D02*
D03*
X757686Y419266D02*
D03*
Y435266D02*
D03*
X777122Y418592D02*
D03*
Y434592D02*
D03*
X776165Y488648D02*
D03*
Y504648D02*
D03*
X758415Y504148D02*
D03*
Y488148D02*
D03*
X758081Y577144D02*
D03*
Y593144D02*
D03*
X774678Y592961D02*
D03*
Y576961D02*
D03*
D31*
X498636Y475618D02*
D03*
Y466118D02*
D03*
Y456618D02*
D03*
X525636D02*
D03*
Y466118D02*
D03*
Y475618D02*
D03*
D32*
X722994Y126948D02*
D03*
X729494D02*
D03*
X735994D02*
D03*
X742494D02*
D03*
X748994D02*
D03*
X755494D02*
D03*
X761994D02*
D03*
X768494D02*
D03*
X722994Y183948D02*
D03*
X729494D02*
D03*
X735994D02*
D03*
X742494D02*
D03*
X748994D02*
D03*
X755494D02*
D03*
X761994D02*
D03*
X768494D02*
D03*
D33*
X588518Y715432D02*
D03*
D34*
X723518Y847432D02*
D03*
X588518D02*
D03*
D35*
Y789432D02*
D03*
D36*
X721018Y698932D02*
D03*
D37*
X595018D02*
D03*
D38*
X687018Y697932D02*
D03*
X676018D02*
D03*
X665018D02*
D03*
X654018D02*
D03*
X643018D02*
D03*
X632018D02*
D03*
X621018D02*
D03*
X610018D02*
D03*
D39*
X853946Y827640D02*
D03*
X821946D02*
D03*
Y777640D02*
D03*
X853946D02*
D03*
D40*
X869732Y599200D02*
D03*
X810732D02*
D03*
Y569200D02*
D03*
X869732D02*
D03*
X869296Y476293D02*
D03*
X810296D02*
D03*
Y446293D02*
D03*
X869296D02*
D03*
D41*
X824992Y22352D02*
D03*
X849992D02*
D03*
X748792D02*
D03*
X722992D02*
D03*
X697992D02*
D03*
X774192D02*
D03*
X799592D02*
D03*
D42*
X672592Y400450D02*
D03*
Y375050D02*
D03*
Y298850D02*
D03*
Y323850D02*
D03*
Y349650D02*
D03*
Y476650D02*
D03*
Y450850D02*
D03*
Y425850D02*
D03*
Y502050D02*
D03*
D43*
X571746Y35590D02*
D03*
X546746D02*
D03*
X521346D02*
D03*
X165500Y334518D02*
D03*
X89300D02*
D03*
X114300D02*
D03*
X140100D02*
D03*
X52070Y35590D02*
D03*
X77070D02*
D03*
X211623D02*
D03*
X186623D02*
D03*
X161223D02*
D03*
X324096D02*
D03*
X299096D02*
D03*
X273696D02*
D03*
X434596D02*
D03*
X459596D02*
D03*
X409196D02*
D03*
X383796D02*
D03*
D44*
X499872Y637540D02*
D03*
X474472D02*
D03*
X449072D02*
D03*
X423672D02*
D03*
X398272D02*
D03*
X372872D02*
D03*
X347472D02*
D03*
X322072D02*
D03*
X296672D02*
D03*
X271272D02*
D03*
X245872D02*
D03*
X220472D02*
D03*
X195072D02*
D03*
D03*
X499872Y841040D02*
D03*
X474472D02*
D03*
X449072D02*
D03*
X423672D02*
D03*
X398272D02*
D03*
X372872D02*
D03*
X347472D02*
D03*
X322072D02*
D03*
X296672D02*
D03*
X271272D02*
D03*
X245872D02*
D03*
X220472D02*
D03*
X195072D02*
D03*
X169672D02*
D03*
Y637540D02*
D03*
D45*
X845246Y288168D02*
D03*
Y308168D02*
D03*
Y328168D02*
D03*
X825246Y288168D02*
D03*
Y308168D02*
D03*
Y328168D02*
D03*
D46*
X835246Y260168D02*
D03*
Y356168D02*
D03*
D47*
X849884Y702818D02*
D03*
Y154432D02*
D03*
X62992Y806196D02*
D03*
M02*
