G04*
G04 #@! TF.GenerationSoftware,Altium Limited,Altium Designer,21.6.4 (81)*
G04*
G04 Layer_Color=128*
%FSLAX44Y44*%
%MOMM*%
G71*
G04*
G04 #@! TF.SameCoordinates,B6620421-005C-40FD-BBE8-42AC4C8AC442*
G04*
G04*
G04 #@! TF.FilePolarity,Positive*
G04*
G01*
G75*
%ADD14C,0.1270*%
D14*
X820492Y22352D02*
X829492D01*
X824992Y17852D02*
Y26852D01*
X845492Y22352D02*
X854492D01*
X849992Y17852D02*
Y26852D01*
X744292Y22352D02*
X753292D01*
X748792Y17852D02*
Y26852D01*
X718492Y22352D02*
X727492D01*
X722992Y17852D02*
Y26852D01*
X693492Y22352D02*
X702492D01*
X697992Y17852D02*
Y26852D01*
X769692Y22352D02*
X778692D01*
X774192Y17852D02*
Y26852D01*
X795092Y22352D02*
X804092D01*
X799592Y17852D02*
Y26852D01*
X667592Y400450D02*
X677592D01*
X672592Y395450D02*
Y405450D01*
X667592Y375050D02*
X677592D01*
X672592Y370050D02*
Y380050D01*
X667592Y298850D02*
X677592D01*
X672592Y293850D02*
Y303850D01*
X667592Y323850D02*
X677592D01*
X672592Y318850D02*
Y328850D01*
X667592Y349650D02*
X677592D01*
X672592Y344650D02*
Y354650D01*
X667592Y476650D02*
X677592D01*
X672592Y471650D02*
Y481650D01*
X667592Y450850D02*
X677592D01*
X672592Y445850D02*
Y455850D01*
X667592Y425850D02*
X677592D01*
X672592Y420850D02*
Y430850D01*
X667592Y502050D02*
X677592D01*
X672592Y497050D02*
Y507050D01*
X566746Y35590D02*
X576746D01*
X571746Y30590D02*
Y40590D01*
X541746Y35590D02*
X551746D01*
X546746Y30590D02*
Y40590D01*
X516346Y35590D02*
X526346D01*
X521346Y30590D02*
Y40590D01*
X494792Y637540D02*
X504952D01*
X499872Y632460D02*
Y642620D01*
X469392Y637540D02*
X479552D01*
X474472Y632460D02*
Y642620D01*
X443992Y637540D02*
X454152D01*
X449072Y632460D02*
Y642620D01*
X418592Y637540D02*
X428752D01*
X423672Y632460D02*
Y642620D01*
X393192Y637540D02*
X403352D01*
X398272Y632460D02*
Y642620D01*
X367792Y637540D02*
X377952D01*
X372872Y632460D02*
Y642620D01*
X342392Y637540D02*
X352552D01*
X347472Y632460D02*
Y642620D01*
X316992Y637540D02*
X327152D01*
X322072Y632460D02*
Y642620D01*
X291592Y637540D02*
X301752D01*
X296672Y632460D02*
Y642620D01*
X266192Y637540D02*
X276352D01*
X271272Y632460D02*
Y642620D01*
X240792Y637540D02*
X250952D01*
X245872Y632460D02*
Y642620D01*
X215392Y637540D02*
X225552D01*
X220472Y632460D02*
Y642620D01*
X189992Y637540D02*
X200152D01*
X195072Y632460D02*
Y642620D01*
X189992Y637540D02*
X200152D01*
X195072Y632460D02*
Y642620D01*
X494792Y841040D02*
X504952D01*
X499872Y835960D02*
Y846120D01*
X469392Y841040D02*
X479552D01*
X474472Y835960D02*
Y846120D01*
X443992Y841040D02*
X454152D01*
X449072Y835960D02*
Y846120D01*
X418592Y841040D02*
X428752D01*
X423672Y835960D02*
Y846120D01*
X393192Y841040D02*
X403352D01*
X398272Y835960D02*
Y846120D01*
X367792Y841040D02*
X377952D01*
X372872Y835960D02*
Y846120D01*
X342392Y841040D02*
X352552D01*
X347472Y835960D02*
Y846120D01*
X316992Y841040D02*
X327152D01*
X322072Y835960D02*
Y846120D01*
X291592Y841040D02*
X301752D01*
X296672Y835960D02*
Y846120D01*
X266192Y841040D02*
X276352D01*
X271272Y835960D02*
Y846120D01*
X240792Y841040D02*
X250952D01*
X245872Y835960D02*
Y846120D01*
X215392Y841040D02*
X225552D01*
X220472Y835960D02*
Y846120D01*
X189992Y841040D02*
X200152D01*
X195072Y835960D02*
Y846120D01*
X164592Y841040D02*
X174752D01*
X169672Y835960D02*
Y846120D01*
X164592Y637540D02*
X174752D01*
X169672Y632460D02*
Y642620D01*
X160500Y334518D02*
X170500D01*
X165500Y329518D02*
Y339518D01*
X84300Y334518D02*
X94300D01*
X89300Y329518D02*
Y339518D01*
X109300Y334518D02*
X119300D01*
X114300Y329518D02*
Y339518D01*
X135100Y334518D02*
X145100D01*
X140100Y329518D02*
Y339518D01*
X841246Y288168D02*
X849246D01*
X845246Y284168D02*
Y292168D01*
X841246Y308168D02*
X849246D01*
X845246Y304168D02*
Y312168D01*
X841246Y328168D02*
X849246D01*
X845246Y324168D02*
Y332168D01*
X821246Y288168D02*
X829246D01*
X825246Y284168D02*
Y292168D01*
X821246Y308168D02*
X829246D01*
X825246Y304168D02*
Y312168D01*
X821246Y328168D02*
X829246D01*
X825246Y324168D02*
Y332168D01*
X829246Y260168D02*
X841246D01*
X835246Y254168D02*
Y266168D01*
X829246Y356168D02*
X841246D01*
X835246Y350168D02*
Y362168D01*
X47070Y35590D02*
X57070D01*
X52070Y30590D02*
Y40590D01*
X72070Y35590D02*
X82070D01*
X77070Y30590D02*
Y40590D01*
X206623Y35590D02*
X216623D01*
X211623Y30590D02*
Y40590D01*
X181623Y35590D02*
X191623D01*
X186623Y30590D02*
Y40590D01*
X156223Y35590D02*
X166223D01*
X161223Y30590D02*
Y40590D01*
X319096Y35590D02*
X329096D01*
X324096Y30590D02*
Y40590D01*
X294096Y35590D02*
X304096D01*
X299096Y30590D02*
Y40590D01*
X268696Y35590D02*
X278696D01*
X273696Y30590D02*
Y40590D01*
X429596Y35590D02*
X439596D01*
X434596Y30590D02*
Y40590D01*
X454596Y35590D02*
X464596D01*
X459596Y30590D02*
Y40590D01*
X404196Y35590D02*
X414196D01*
X409196Y30590D02*
Y40590D01*
X378796Y35590D02*
X388796D01*
X383796Y30590D02*
Y40590D01*
X765904Y418929D02*
X768904D01*
X767404Y417429D02*
Y420429D01*
X778538Y667108D02*
X781538D01*
X780038Y665608D02*
Y668608D01*
X795493Y777640D02*
X798493D01*
X796993Y776140D02*
Y779140D01*
X491305Y512119D02*
X494305D01*
X492805Y510620D02*
Y513619D01*
X563142Y179578D02*
X566142D01*
X564642Y178078D02*
Y181078D01*
X238276Y356616D02*
X241276D01*
X239776Y355116D02*
Y358116D01*
X432840Y353060D02*
X435840D01*
X434340Y351560D02*
Y354560D01*
X793971Y328168D02*
X796971D01*
X795471Y326668D02*
Y329668D01*
X638594Y621270D02*
X641594D01*
X640094Y619770D02*
Y622770D01*
X751516Y542958D02*
X754516D01*
X753016Y541458D02*
Y544458D01*
X653347Y648011D02*
X656347D01*
X654847Y646511D02*
Y649511D01*
X653347Y676418D02*
X656347D01*
X654847Y674918D02*
Y677918D01*
X676426Y712724D02*
X679426D01*
X677926Y711224D02*
Y714224D01*
X659154Y773684D02*
X662154D01*
X660654Y772184D02*
Y775184D01*
X383818Y473682D02*
X386818D01*
X385318Y472182D02*
Y475182D01*
X536726Y479190D02*
X539726D01*
X538226Y477690D02*
Y480690D01*
X386866Y719836D02*
X389866D01*
X388366Y718336D02*
Y721336D01*
X535964Y187452D02*
X538964D01*
X537464Y185952D02*
Y188952D01*
X405662Y704850D02*
X408662D01*
X407162Y703350D02*
Y706350D01*
X618260Y494284D02*
X621260D01*
X619760Y492784D02*
Y495784D01*
X641592Y227250D02*
X672592D01*
X657092Y211750D02*
Y242750D01*
X641592Y571950D02*
X672592D01*
X657092Y556450D02*
Y587450D01*
X27092Y571850D02*
X58092D01*
X42592Y556350D02*
Y587350D01*
X27592Y228850D02*
X58592D01*
X43092Y213350D02*
Y244350D01*
X834384Y702818D02*
X865384D01*
X849884Y687318D02*
Y718318D01*
X834384Y154432D02*
X865384D01*
X849884Y138932D02*
Y169932D01*
X47492Y806196D02*
X78492D01*
X62992Y790696D02*
Y821696D01*
M02*
