G04*
G04 #@! TF.GenerationSoftware,Altium Limited,Altium Designer,21.6.4 (81)*
G04*
G04 Layer_Color=65535*
%FSLAX44Y44*%
%MOMM*%
G71*
G04*
G04 #@! TF.SameCoordinates,B6620421-005C-40FD-BBE8-42AC4C8AC442*
G04*
G04*
G04 #@! TF.FilePolarity,Positive*
G04*
G01*
G75*
%ADD10C,0.2500*%
%ADD11C,0.6000*%
%ADD12C,0.2000*%
%ADD13C,0.2540*%
%ADD14C,0.1270*%
%ADD15C,0.1000*%
%ADD16C,0.1500*%
D10*
X499886Y484368D02*
G03*
X499886Y484368I-1250J0D01*
G01*
X777244Y183948D02*
G03*
X777244Y183948I-1250J0D01*
G01*
X865196Y833640D02*
G03*
X865196Y833640I-1250J0D01*
G01*
D11*
X764244Y163948D02*
G03*
X764244Y163948I-3000J0D01*
G01*
D12*
X507636Y481118D02*
X516636D01*
X507636Y451118D02*
X516636D01*
X507636D02*
Y481118D01*
X516636Y451118D02*
Y481118D01*
X720244Y136948D02*
Y173948D01*
X771244Y136948D02*
Y173948D01*
X720244Y136948D02*
X771244D01*
X720244Y173948D02*
X771244D01*
X728908Y89647D02*
X727242Y91313D01*
X723910D01*
X722244Y89647D01*
Y82982D01*
X723910Y81316D01*
X727242D01*
X728908Y82982D01*
X732241Y81316D02*
Y87980D01*
X735573Y91313D01*
X738905Y87980D01*
Y81316D01*
Y86314D01*
X732241D01*
X742238Y81316D02*
Y91313D01*
X748902Y81316D01*
Y91313D01*
X762231D02*
Y81316D01*
X767230D01*
X768896Y82982D01*
Y84648D01*
X767230Y86314D01*
X762231D01*
X767230D01*
X768896Y87980D01*
Y89647D01*
X767230Y91313D01*
X762231D01*
X772228D02*
Y82982D01*
X773894Y81316D01*
X777226D01*
X778892Y82982D01*
Y91313D01*
X788889Y89647D02*
X787223Y91313D01*
X783891D01*
X782225Y89647D01*
Y87980D01*
X783891Y86314D01*
X787223D01*
X788889Y84648D01*
Y82982D01*
X787223Y81316D01*
X783891D01*
X782225Y82982D01*
X28445Y116689D02*
X27969Y117642D01*
X27017Y118594D01*
X26065Y119070D01*
X24160D01*
X23208Y118594D01*
X22256Y117642D01*
X21780Y116689D01*
X21304Y115261D01*
Y112881D01*
X21780Y111452D01*
X22256Y110500D01*
X23208Y109548D01*
X24160Y109072D01*
X26065D01*
X27017Y109548D01*
X27969Y110500D01*
X28445Y111452D01*
X34111Y119070D02*
X33159Y118594D01*
X32206Y117642D01*
X31730Y116689D01*
X31254Y115261D01*
Y112881D01*
X31730Y111452D01*
X32206Y110500D01*
X33159Y109548D01*
X34111Y109072D01*
X36015D01*
X36967Y109548D01*
X37919Y110500D01*
X38396Y111452D01*
X38872Y112881D01*
Y115261D01*
X38396Y116689D01*
X37919Y117642D01*
X36967Y118594D01*
X36015Y119070D01*
X34111D01*
X41205D02*
Y109072D01*
Y119070D02*
X47870Y109072D01*
Y119070D02*
Y109072D01*
X50631Y119070D02*
Y109072D01*
Y119070D02*
X57296Y109072D01*
Y119070D02*
Y109072D01*
X66247Y119070D02*
X60058D01*
Y109072D01*
X66247D01*
X60058Y114309D02*
X63866D01*
X75054Y116689D02*
X74578Y117642D01*
X73626Y118594D01*
X72674Y119070D01*
X70770D01*
X69817Y118594D01*
X68865Y117642D01*
X68389Y116689D01*
X67913Y115261D01*
Y112881D01*
X68389Y111452D01*
X68865Y110500D01*
X69817Y109548D01*
X70770Y109072D01*
X72674D01*
X73626Y109548D01*
X74578Y110500D01*
X75054Y111452D01*
X81196Y119070D02*
Y109072D01*
X77863Y119070D02*
X84529D01*
X88575D02*
X87623Y118594D01*
X86671Y117642D01*
X86195Y116689D01*
X85719Y115261D01*
Y112881D01*
X86195Y111452D01*
X86671Y110500D01*
X87623Y109548D01*
X88575Y109072D01*
X90480D01*
X91432Y109548D01*
X92384Y110500D01*
X92860Y111452D01*
X93336Y112881D01*
Y115261D01*
X92860Y116689D01*
X92384Y117642D01*
X91432Y118594D01*
X90480Y119070D01*
X88575D01*
X95669D02*
Y109072D01*
Y119070D02*
X99954D01*
X101382Y118594D01*
X101858Y118118D01*
X102334Y117165D01*
Y116213D01*
X101858Y115261D01*
X101382Y114785D01*
X99954Y114309D01*
X95669D01*
X99002D02*
X102334Y109072D01*
X112427Y119070D02*
Y109072D01*
X114522Y119070D02*
Y109072D01*
Y119070D02*
X121187Y109072D01*
Y119070D02*
Y109072D01*
X514371Y118642D02*
X513419Y119594D01*
X511991Y120070D01*
X510086D01*
X508658Y119594D01*
X507706Y118642D01*
Y117689D01*
X508182Y116737D01*
X508658Y116261D01*
X509610Y115785D01*
X512467Y114833D01*
X513419Y114357D01*
X513895Y113881D01*
X514371Y112928D01*
Y111500D01*
X513419Y110548D01*
X511991Y110072D01*
X510086D01*
X508658Y110548D01*
X507706Y111500D01*
X519465Y120070D02*
X518513Y119594D01*
X517561Y118642D01*
X517085Y117689D01*
X516609Y116261D01*
Y113881D01*
X517085Y112452D01*
X517561Y111500D01*
X518513Y110548D01*
X519465Y110072D01*
X521370D01*
X522322Y110548D01*
X523274Y111500D01*
X523750Y112452D01*
X524226Y113881D01*
Y116261D01*
X523750Y117689D01*
X523274Y118642D01*
X522322Y119594D01*
X521370Y120070D01*
X519465D01*
X526559D02*
Y112928D01*
X527035Y111500D01*
X527987Y110548D01*
X529416Y110072D01*
X530368D01*
X531796Y110548D01*
X532748Y111500D01*
X533224Y112928D01*
Y120070D01*
X535986D02*
Y110072D01*
Y120070D02*
X542651Y110072D01*
Y120070D02*
Y110072D01*
X545412Y120070D02*
Y110072D01*
Y120070D02*
X548745D01*
X550173Y119594D01*
X551125Y118642D01*
X551601Y117689D01*
X552077Y116261D01*
Y113881D01*
X551601Y112452D01*
X551125Y111500D01*
X550173Y110548D01*
X548745Y110072D01*
X545412D01*
X568836Y118642D02*
X567883Y119594D01*
X566455Y120070D01*
X564551D01*
X563123Y119594D01*
X562170Y118642D01*
Y117689D01*
X562647Y116737D01*
X563123Y116261D01*
X564075Y115785D01*
X566931Y114833D01*
X567883Y114357D01*
X568360Y113881D01*
X568836Y112928D01*
Y111500D01*
X567883Y110548D01*
X566455Y110072D01*
X564551D01*
X563123Y110548D01*
X562170Y111500D01*
X577262Y120070D02*
X571073D01*
Y110072D01*
X577262D01*
X571073Y115309D02*
X574882D01*
X578929Y120070D02*
Y110072D01*
Y120070D02*
X585594Y110072D01*
Y120070D02*
Y110072D01*
X595021Y118642D02*
X594068Y119594D01*
X592640Y120070D01*
X590736D01*
X589308Y119594D01*
X588355Y118642D01*
Y117689D01*
X588831Y116737D01*
X589308Y116261D01*
X590260Y115785D01*
X593116Y114833D01*
X594068Y114357D01*
X594544Y113881D01*
X595021Y112928D01*
Y111500D01*
X594068Y110548D01*
X592640Y110072D01*
X590736D01*
X589308Y110548D01*
X588355Y111500D01*
X600115Y120070D02*
X599162Y119594D01*
X598210Y118642D01*
X597734Y117689D01*
X597258Y116261D01*
Y113881D01*
X597734Y112452D01*
X598210Y111500D01*
X599162Y110548D01*
X600115Y110072D01*
X602019D01*
X602971Y110548D01*
X603923Y111500D01*
X604399Y112452D01*
X604876Y113881D01*
Y116261D01*
X604399Y117689D01*
X603923Y118642D01*
X602971Y119594D01*
X602019Y120070D01*
X600115D01*
X607208D02*
Y110072D01*
Y120070D02*
X611493D01*
X612921Y119594D01*
X613398Y119118D01*
X613874Y118166D01*
Y117213D01*
X613398Y116261D01*
X612921Y115785D01*
X611493Y115309D01*
X607208D01*
X610541D02*
X613874Y110072D01*
X376821Y116892D02*
X375869Y117844D01*
X374441Y118320D01*
X372536D01*
X371108Y117844D01*
X370156Y116892D01*
Y115939D01*
X370632Y114987D01*
X371108Y114511D01*
X372060Y114035D01*
X374917Y113083D01*
X375869Y112607D01*
X376345Y112131D01*
X376821Y111179D01*
Y109750D01*
X375869Y108798D01*
X374441Y108322D01*
X372536D01*
X371108Y108798D01*
X370156Y109750D01*
X386200Y115939D02*
X385724Y116892D01*
X384772Y117844D01*
X383820Y118320D01*
X381915D01*
X380963Y117844D01*
X380011Y116892D01*
X379535Y115939D01*
X379059Y114511D01*
Y112131D01*
X379535Y110702D01*
X380011Y109750D01*
X380963Y108798D01*
X381915Y108322D01*
X383820D01*
X384772Y108798D01*
X385724Y109750D01*
X386200Y110702D01*
X396627Y108322D02*
X392818Y118320D01*
X389009Y108322D01*
X390437Y111655D02*
X395198D01*
X398959Y118320D02*
Y108322D01*
X404672D01*
X411956Y118320D02*
X405767D01*
Y108322D01*
X411956D01*
X405767Y113559D02*
X409576D01*
X428144Y116892D02*
X427191Y117844D01*
X425763Y118320D01*
X423859D01*
X422430Y117844D01*
X421478Y116892D01*
Y115939D01*
X421954Y114987D01*
X422430Y114511D01*
X423383Y114035D01*
X426239Y113083D01*
X427191Y112607D01*
X427667Y112131D01*
X428144Y111179D01*
Y109750D01*
X427191Y108798D01*
X425763Y108322D01*
X423859D01*
X422430Y108798D01*
X421478Y109750D01*
X436570Y118320D02*
X430381D01*
Y108322D01*
X436570D01*
X430381Y113559D02*
X434190D01*
X438237Y118320D02*
Y108322D01*
Y118320D02*
X444902Y108322D01*
Y118320D02*
Y108322D01*
X454328Y116892D02*
X453376Y117844D01*
X451948Y118320D01*
X450044D01*
X448615Y117844D01*
X447663Y116892D01*
Y115939D01*
X448139Y114987D01*
X448615Y114511D01*
X449567Y114035D01*
X452424Y113083D01*
X453376Y112607D01*
X453852Y112131D01*
X454328Y111179D01*
Y109750D01*
X453376Y108798D01*
X451948Y108322D01*
X450044D01*
X448615Y108798D01*
X447663Y109750D01*
X459423Y118320D02*
X458470Y117844D01*
X457518Y116892D01*
X457042Y115939D01*
X456566Y114511D01*
Y112131D01*
X457042Y110702D01*
X457518Y109750D01*
X458470Y108798D01*
X459423Y108322D01*
X461327D01*
X462279Y108798D01*
X463231Y109750D01*
X463707Y110702D01*
X464183Y112131D01*
Y114511D01*
X463707Y115939D01*
X463231Y116892D01*
X462279Y117844D01*
X461327Y118320D01*
X459423D01*
X466516D02*
Y108322D01*
Y118320D02*
X470801D01*
X472229Y117844D01*
X472705Y117368D01*
X473181Y116416D01*
Y115463D01*
X472705Y114511D01*
X472229Y114035D01*
X470801Y113559D01*
X466516D01*
X469849D02*
X473181Y108322D01*
X263389Y119070D02*
Y109072D01*
X260056Y119070D02*
X266721D01*
X274101D02*
X267911D01*
Y109072D01*
X274101D01*
X267911Y114309D02*
X271720D01*
X275767Y119070D02*
Y109072D01*
Y119070D02*
X279576Y109072D01*
X283384Y119070D02*
X279576Y109072D01*
X283384Y119070D02*
Y109072D01*
X286241Y113833D02*
X290526D01*
X291954Y114309D01*
X292430Y114785D01*
X292906Y115737D01*
Y117165D01*
X292430Y118118D01*
X291954Y118594D01*
X290526Y119070D01*
X286241D01*
Y109072D01*
X309664Y117642D02*
X308712Y118594D01*
X307284Y119070D01*
X305380D01*
X303951Y118594D01*
X302999Y117642D01*
Y116689D01*
X303475Y115737D01*
X303951Y115261D01*
X304904Y114785D01*
X307760Y113833D01*
X308712Y113357D01*
X309188Y112881D01*
X309664Y111929D01*
Y110500D01*
X308712Y109548D01*
X307284Y109072D01*
X305380D01*
X303951Y109548D01*
X302999Y110500D01*
X319043Y116689D02*
X318567Y117642D01*
X317615Y118594D01*
X316663Y119070D01*
X314758D01*
X313806Y118594D01*
X312854Y117642D01*
X312378Y116689D01*
X311902Y115261D01*
Y112881D01*
X312378Y111452D01*
X312854Y110500D01*
X313806Y109548D01*
X314758Y109072D01*
X316663D01*
X317615Y109548D01*
X318567Y110500D01*
X319043Y111452D01*
X329470Y109072D02*
X325661Y119070D01*
X321852Y109072D01*
X323280Y112405D02*
X328041D01*
X331802Y119070D02*
Y109072D01*
X337516D01*
X344800Y119070D02*
X338610D01*
Y109072D01*
X344800D01*
X338610Y114309D02*
X342419D01*
X150916Y119820D02*
Y109822D01*
X147583Y119820D02*
X154248D01*
X161628D02*
X155439D01*
Y109822D01*
X161628D01*
X155439Y115059D02*
X159247D01*
X163294Y119820D02*
Y109822D01*
Y119820D02*
X167103Y109822D01*
X170912Y119820D02*
X167103Y109822D01*
X170912Y119820D02*
Y109822D01*
X173768Y114583D02*
X178053D01*
X179481Y115059D01*
X179957Y115535D01*
X180433Y116487D01*
Y117915D01*
X179957Y118868D01*
X179481Y119344D01*
X178053Y119820D01*
X173768D01*
Y109822D01*
X190526Y119820D02*
Y109822D01*
Y119820D02*
X194811D01*
X196239Y119344D01*
X196716Y118868D01*
X197192Y117915D01*
Y116963D01*
X196716Y116011D01*
X196239Y115535D01*
X194811Y115059D01*
X190526D02*
X194811D01*
X196239Y114583D01*
X196716Y114107D01*
X197192Y113155D01*
Y111726D01*
X196716Y110774D01*
X196239Y110298D01*
X194811Y109822D01*
X190526D01*
X205618Y119820D02*
X199429D01*
Y109822D01*
X205618D01*
X199429Y115059D02*
X203238D01*
X213474Y119820D02*
X207285D01*
Y109822D01*
X213474D01*
X207285Y115059D02*
X211093D01*
X215140Y119820D02*
Y109822D01*
X221805Y119820D02*
Y109822D01*
X215140Y115059D02*
X221805D01*
X224567Y119820D02*
Y109822D01*
X226661Y119820D02*
X230470Y109822D01*
X234279Y119820D02*
X230470Y109822D01*
X241754Y119820D02*
X235564D01*
Y109822D01*
X241754D01*
X235564Y115059D02*
X239373D01*
D13*
X611768Y765682D02*
Y782182D01*
X604268Y763682D02*
X611768Y744932D01*
Y725182D02*
Y744932D01*
X505706Y4602D02*
Y66324D01*
X586986Y4602D02*
Y66324D01*
X505706Y4602D02*
X586986D01*
X505706Y66324D02*
X586986D01*
X76300Y313118D02*
X77300Y485518D01*
X177300Y313118D02*
Y486518D01*
X77315Y487094D02*
X176700Y486518D01*
X77315Y313095D02*
X176700Y312518D01*
X36684Y66324D02*
X92310D01*
X36684Y4602D02*
X92310D01*
Y66324D01*
X36684Y4602D02*
Y66324D01*
X145583Y4602D02*
Y66324D01*
X226863Y4602D02*
Y66324D01*
X145583Y4602D02*
X226863D01*
X145583Y66324D02*
X226863D01*
X258056Y4602D02*
Y66324D01*
X339336Y4602D02*
Y66324D01*
X258056Y4602D02*
X339336D01*
X258056Y66324D02*
X339336D01*
X368156D02*
X474836D01*
X368156Y4602D02*
X474836D01*
Y66324D01*
X368156Y4602D02*
Y66324D01*
D14*
X830946Y827640D02*
X844946D01*
X830946Y777640D02*
X844946D01*
X862946D02*
Y827640D01*
X812946Y777640D02*
Y827640D01*
D15*
X857246Y264848D02*
Y351848D01*
X814246Y264848D02*
Y351848D01*
X710692Y396992D02*
Y402990D01*
X707693D01*
X706693Y401990D01*
Y397992D01*
X707693Y396992D01*
X710692D01*
X700695Y397992D02*
X701695Y396992D01*
X703694D01*
X704694Y397992D01*
Y401990D01*
X703694Y402990D01*
X701695D01*
X700695Y401990D01*
X710692Y377590D02*
Y371592D01*
X707693D01*
X706693Y372592D01*
Y374591D01*
X707693Y375591D01*
X710692D01*
X708693D02*
X706693Y377590D01*
X700695Y372592D02*
X701695Y371592D01*
X703694D01*
X704694Y372592D01*
Y373591D01*
X703694Y374591D01*
X701695D01*
X700695Y375591D01*
Y376590D01*
X701695Y377590D01*
X703694D01*
X704694Y376590D01*
X698696Y371592D02*
X694697D01*
X696696D01*
Y377590D01*
X710692Y295392D02*
Y299391D01*
X708693Y301390D01*
X706693Y299391D01*
Y295392D01*
X700695Y296392D02*
X701695Y295392D01*
X703694D01*
X704694Y296392D01*
Y300390D01*
X703694Y301390D01*
X701695D01*
X700695Y300390D01*
X694697Y296392D02*
X695697Y295392D01*
X697696D01*
X698696Y296392D01*
Y300390D01*
X697696Y301390D01*
X695697D01*
X694697Y300390D01*
X706693Y321792D02*
X707693Y320792D01*
X709692D01*
X710692Y321792D01*
Y325790D01*
X709692Y326790D01*
X707693D01*
X706693Y325790D01*
Y323791D01*
X708693D01*
X704694Y326790D02*
Y320792D01*
X700695Y326790D01*
Y320792D01*
X698696D02*
Y326790D01*
X695697D01*
X694697Y325790D01*
Y321792D01*
X695697Y320792D01*
X698696D01*
X706693Y347192D02*
X707693Y346192D01*
X709692D01*
X710692Y347192D01*
Y351190D01*
X709692Y352190D01*
X707693D01*
X706693Y351190D01*
X700695Y347192D02*
X701695Y346192D01*
X703694D01*
X704694Y347192D01*
Y348191D01*
X703694Y349191D01*
X701695D01*
X700695Y350191D01*
Y351190D01*
X701695Y352190D01*
X703694D01*
X704694Y351190D01*
X710692Y473192D02*
Y479190D01*
X706693D01*
X700695Y473192D02*
X704694D01*
Y479190D01*
X700695D01*
X704694Y476191D02*
X702695D01*
X698696Y473192D02*
Y479190D01*
X695697D01*
X694697Y478190D01*
Y474192D01*
X695697Y473192D01*
X698696D01*
X706693Y448792D02*
X707693Y447792D01*
X709692D01*
X710692Y448792D01*
Y449791D01*
X709692Y450791D01*
X707693D01*
X706693Y451791D01*
Y452790D01*
X707693Y453790D01*
X709692D01*
X710692Y452790D01*
X700695Y448792D02*
X701695Y447792D01*
X703694D01*
X704694Y448792D01*
Y452790D01*
X703694Y453790D01*
X701695D01*
X700695Y452790D01*
X698696Y447792D02*
Y453790D01*
Y451791D01*
X694697Y447792D01*
X697696Y450791D01*
X694697Y453790D01*
X710692Y428390D02*
Y422392D01*
X708693Y424391D01*
X706693Y422392D01*
Y428390D01*
X701695Y422392D02*
X703694D01*
X704694Y423392D01*
Y427390D01*
X703694Y428390D01*
X701695D01*
X700695Y427390D01*
Y423392D01*
X701695Y422392D01*
X694697Y423392D02*
X695697Y422392D01*
X697696D01*
X698696Y423392D01*
Y424391D01*
X697696Y425391D01*
X695697D01*
X694697Y426391D01*
Y427390D01*
X695697Y428390D01*
X697696D01*
X698696Y427390D01*
X692698Y422392D02*
X690698D01*
X691698D01*
Y428390D01*
X692698D01*
X690698D01*
X710692Y504590D02*
Y498592D01*
X708693Y500591D01*
X706693Y498592D01*
Y504590D01*
X704694Y498592D02*
X702695D01*
X703694D01*
Y504590D01*
X704694D01*
X702695D01*
X695697Y499592D02*
X696696Y498592D01*
X698696D01*
X699696Y499592D01*
Y500591D01*
X698696Y501591D01*
X696696D01*
X695697Y502591D01*
Y503590D01*
X696696Y504590D01*
X698696D01*
X699696Y503590D01*
X690698Y498592D02*
X692698D01*
X693698Y499592D01*
Y503590D01*
X692698Y504590D01*
X690698D01*
X689699Y503590D01*
Y499592D01*
X690698Y498592D01*
X17764Y138506D02*
X21573Y128508D01*
X25381Y138506D02*
X21573Y128508D01*
X27619Y138506D02*
X28095Y138030D01*
X28571Y138506D01*
X28095Y138982D01*
X27619Y138506D01*
X28095Y135173D02*
Y128508D01*
X30333Y135173D02*
Y128508D01*
Y133269D02*
X31761Y134697D01*
X32713Y135173D01*
X34141D01*
X35094Y134697D01*
X35570Y133269D01*
Y128508D01*
X46520Y136125D02*
Y136601D01*
X46996Y137554D01*
X47472Y138030D01*
X48424Y138506D01*
X50328D01*
X51281Y138030D01*
X51757Y137554D01*
X52233Y136601D01*
Y135649D01*
X51757Y134697D01*
X50805Y133269D01*
X46044Y128508D01*
X52709D01*
X54946Y136601D02*
X55899Y137078D01*
X57327Y138506D01*
Y128508D01*
X62278Y138506D02*
X66087Y128508D01*
X69896Y138506D02*
X66087Y128508D01*
X79037Y138506D02*
Y128508D01*
Y138506D02*
X82369D01*
X83798Y138030D01*
X84750Y137078D01*
X85226Y136125D01*
X85702Y134697D01*
Y132317D01*
X85226Y130888D01*
X84750Y129936D01*
X83798Y128984D01*
X82369Y128508D01*
X79037D01*
X95081Y136125D02*
X94605Y137078D01*
X93652Y138030D01*
X92700Y138506D01*
X90796D01*
X89844Y138030D01*
X88892Y137078D01*
X88415Y136125D01*
X87939Y134697D01*
Y132317D01*
X88415Y130888D01*
X88892Y129936D01*
X89844Y128984D01*
X90796Y128508D01*
X92700D01*
X93652Y128984D01*
X94605Y129936D01*
X95081Y130888D01*
X105745Y135173D02*
Y128508D01*
Y133269D02*
X107173Y134697D01*
X108126Y135173D01*
X109554D01*
X110506Y134697D01*
X110982Y133269D01*
Y128508D01*
Y133269D02*
X112410Y134697D01*
X113363Y135173D01*
X114791D01*
X115743Y134697D01*
X116219Y133269D01*
Y128508D01*
X125074Y135173D02*
Y128508D01*
Y133745D02*
X124122Y134697D01*
X123170Y135173D01*
X121742D01*
X120789Y134697D01*
X119837Y133745D01*
X119361Y132317D01*
Y131364D01*
X119837Y129936D01*
X120789Y128984D01*
X121742Y128508D01*
X123170D01*
X124122Y128984D01*
X125074Y129936D01*
X127740Y135173D02*
X132977Y128508D01*
Y135173D02*
X127740Y128508D01*
X819446Y551956D02*
Y543958D01*
Y551956D02*
X822874D01*
X824016Y551575D01*
X824397Y551194D01*
X824778Y550433D01*
Y549671D01*
X824397Y548909D01*
X824016Y548528D01*
X822874Y548148D01*
X819446D02*
X822874D01*
X824016Y547767D01*
X824397Y547386D01*
X824778Y546624D01*
Y545481D01*
X824397Y544720D01*
X824016Y544339D01*
X822874Y543958D01*
X819446D01*
X826568Y551956D02*
Y546243D01*
X826949Y545101D01*
X827711Y544339D01*
X828854Y543958D01*
X829615D01*
X830758Y544339D01*
X831520Y545101D01*
X831900Y546243D01*
Y551956D01*
X836776D02*
Y543958D01*
X834109Y551956D02*
X839442D01*
X843060D02*
Y543958D01*
X840394Y551956D02*
X845726D01*
X848963D02*
X848202Y551575D01*
X847440Y550814D01*
X847059Y550052D01*
X846678Y548909D01*
Y547005D01*
X847059Y545862D01*
X847440Y545101D01*
X848202Y544339D01*
X848963Y543958D01*
X850487D01*
X851249Y544339D01*
X852010Y545101D01*
X852391Y545862D01*
X852772Y547005D01*
Y548909D01*
X852391Y550052D01*
X852010Y550814D01*
X851249Y551575D01*
X850487Y551956D01*
X848963D01*
X854639D02*
Y543958D01*
Y551956D02*
X859971Y543958D01*
Y551956D02*
Y543958D01*
X868464Y550433D02*
X869226Y550814D01*
X870368Y551956D01*
Y543958D01*
X819446Y430360D02*
Y422362D01*
Y430360D02*
X822874D01*
X824016Y429979D01*
X824397Y429599D01*
X824778Y428837D01*
Y428075D01*
X824397Y427313D01*
X824016Y426932D01*
X822874Y426552D01*
X819446D02*
X822874D01*
X824016Y426171D01*
X824397Y425790D01*
X824778Y425028D01*
Y423885D01*
X824397Y423124D01*
X824016Y422743D01*
X822874Y422362D01*
X819446D01*
X826568Y430360D02*
Y424647D01*
X826949Y423505D01*
X827711Y422743D01*
X828854Y422362D01*
X829615D01*
X830758Y422743D01*
X831520Y423505D01*
X831900Y424647D01*
Y430360D01*
X836776D02*
Y422362D01*
X834109Y430360D02*
X839442D01*
X843060D02*
Y422362D01*
X840394Y430360D02*
X845726D01*
X848963D02*
X848202Y429979D01*
X847440Y429218D01*
X847059Y428456D01*
X846678Y427313D01*
Y425409D01*
X847059Y424266D01*
X847440Y423505D01*
X848202Y422743D01*
X848963Y422362D01*
X850487D01*
X851249Y422743D01*
X852010Y423505D01*
X852391Y424266D01*
X852772Y425409D01*
Y427313D01*
X852391Y428456D01*
X852010Y429218D01*
X851249Y429979D01*
X850487Y430360D01*
X848963D01*
X854639D02*
Y422362D01*
Y430360D02*
X859971Y422362D01*
Y430360D02*
Y422362D01*
X868845Y428456D02*
Y428837D01*
X869226Y429599D01*
X869607Y429979D01*
X870368Y430360D01*
X871892D01*
X872654Y429979D01*
X873035Y429599D01*
X873415Y428837D01*
Y428075D01*
X873035Y427313D01*
X872273Y426171D01*
X868464Y422362D01*
X873796D01*
X71520Y78216D02*
X79518Y81263D01*
X71520Y84310D02*
X79518Y81263D01*
X71520Y85338D02*
X79518D01*
X71520Y87014D02*
X79518D01*
X71520D02*
X79518Y92346D01*
X71520D02*
X79518D01*
X50310Y83929D02*
X49548Y83548D01*
X48787Y82786D01*
X48406Y82025D01*
Y80501D01*
X48787Y79739D01*
X49548Y78978D01*
X50310Y78597D01*
X51453Y78216D01*
X53357D01*
X54500Y78597D01*
X55261Y78978D01*
X56023Y79739D01*
X56404Y80501D01*
Y82025D01*
X56023Y82786D01*
X55261Y83548D01*
X54500Y83929D01*
X53357D01*
Y82025D02*
Y83929D01*
X48406Y85757D02*
X56404D01*
X48406D02*
X56404Y91089D01*
X48406D02*
X56404D01*
X48406Y93299D02*
X56404D01*
X48406D02*
Y95965D01*
X48787Y97107D01*
X49548Y97869D01*
X50310Y98250D01*
X51453Y98631D01*
X53357D01*
X54500Y98250D01*
X55261Y97869D01*
X56023Y97107D01*
X56404Y95965D01*
Y93299D01*
X430598Y74292D02*
X438596D01*
X430598D02*
Y76958D01*
X430979Y78101D01*
X431740Y78863D01*
X432502Y79243D01*
X433645Y79624D01*
X435549D01*
X436692Y79243D01*
X437453Y78863D01*
X438215Y78101D01*
X438596Y76958D01*
Y74292D01*
Y87508D02*
X430598Y84461D01*
X438596Y81414D01*
X435930Y82557D02*
Y86366D01*
X430598Y92041D02*
X438596D01*
X430598Y89375D02*
Y94707D01*
X438596Y101753D02*
X430598Y98706D01*
X438596Y95659D01*
X435930Y96802D02*
Y100610D01*
X407490Y79624D02*
X406729Y78863D01*
X406348Y77720D01*
Y76196D01*
X406729Y75054D01*
X407490Y74292D01*
X408252D01*
X409014Y74673D01*
X409395Y75054D01*
X409776Y75816D01*
X410537Y78101D01*
X410918Y78863D01*
X411299Y79243D01*
X412061Y79624D01*
X413203D01*
X413965Y78863D01*
X414346Y77720D01*
Y76196D01*
X413965Y75054D01*
X413203Y74292D01*
X408252Y87127D02*
X407490Y86747D01*
X406729Y85985D01*
X406348Y85223D01*
Y83700D01*
X406729Y82938D01*
X407490Y82176D01*
X408252Y81795D01*
X409395Y81414D01*
X411299D01*
X412442Y81795D01*
X413203Y82176D01*
X413965Y82938D01*
X414346Y83700D01*
Y85223D01*
X413965Y85985D01*
X413203Y86747D01*
X412442Y87127D01*
X406348Y89375D02*
X414346D01*
X406348Y94707D02*
X411680Y89375D01*
X409776Y91279D02*
X414346Y94707D01*
X517973Y76292D02*
X525972D01*
X517973D02*
Y78958D01*
X518354Y80101D01*
X519116Y80862D01*
X519878Y81243D01*
X521020Y81624D01*
X522925D01*
X524067Y81243D01*
X524829Y80862D01*
X525591Y80101D01*
X525972Y78958D01*
Y76292D01*
Y89508D02*
X517973Y86461D01*
X525972Y83414D01*
X523306Y84557D02*
Y88366D01*
X517973Y94041D02*
X525972D01*
X517973Y91374D02*
Y96707D01*
X525972Y103753D02*
X517973Y100706D01*
X525972Y97659D01*
X523306Y98801D02*
Y102610D01*
X295146Y75042D02*
X303144D01*
X295146D02*
Y77708D01*
X295527Y78851D01*
X296288Y79612D01*
X297050Y79993D01*
X298193Y80374D01*
X300097D01*
X301240Y79993D01*
X302001Y79612D01*
X302763Y78851D01*
X303144Y77708D01*
Y75042D01*
Y88258D02*
X295146Y85211D01*
X303144Y82164D01*
X300478Y83307D02*
Y87116D01*
X295146Y92791D02*
X303144D01*
X295146Y90125D02*
Y95457D01*
X303144Y102503D02*
X295146Y99456D01*
X303144Y96409D01*
X300478Y97551D02*
Y101360D01*
X273502Y80755D02*
X272740Y80374D01*
X271979Y79612D01*
X271598Y78851D01*
Y77327D01*
X271979Y76565D01*
X272740Y75804D01*
X273502Y75423D01*
X274645Y75042D01*
X276549D01*
X277692Y75423D01*
X278453Y75804D01*
X279215Y76565D01*
X279596Y77327D01*
Y78851D01*
X279215Y79612D01*
X278453Y80374D01*
X277692Y80755D01*
X276549D01*
Y78851D02*
Y80755D01*
X271598Y82583D02*
X279596D01*
X271598D02*
X279596Y87915D01*
X271598D02*
X279596D01*
X271598Y90125D02*
X279596D01*
X271598D02*
Y92791D01*
X271979Y93933D01*
X272740Y94695D01*
X273502Y95076D01*
X274645Y95457D01*
X276549D01*
X277692Y95076D01*
X278453Y94695D01*
X279215Y93933D01*
X279596Y92791D01*
Y90125D01*
X544848Y81005D02*
X544086Y80624D01*
X543325Y79862D01*
X542944Y79101D01*
Y77577D01*
X543325Y76815D01*
X544086Y76054D01*
X544848Y75673D01*
X545991Y75292D01*
X547895D01*
X549038Y75673D01*
X549799Y76054D01*
X550561Y76815D01*
X550942Y77577D01*
Y79101D01*
X550561Y79862D01*
X549799Y80624D01*
X549038Y81005D01*
X547895D01*
Y79101D02*
Y81005D01*
X542944Y82833D02*
X550942D01*
X542944D02*
X550942Y88165D01*
X542944D02*
X550942D01*
X542944Y90374D02*
X550942D01*
X542944D02*
Y93041D01*
X543325Y94183D01*
X544086Y94945D01*
X544848Y95326D01*
X545991Y95707D01*
X547895D01*
X549038Y95326D01*
X549799Y94945D01*
X550561Y94183D01*
X550942Y93041D01*
Y90374D01*
X459752Y80005D02*
X458990Y79624D01*
X458229Y78863D01*
X457848Y78101D01*
Y76577D01*
X458229Y75816D01*
X458990Y75054D01*
X459752Y74673D01*
X460895Y74292D01*
X462799D01*
X463942Y74673D01*
X464703Y75054D01*
X465465Y75816D01*
X465846Y76577D01*
Y78101D01*
X465465Y78863D01*
X464703Y79624D01*
X463942Y80005D01*
X462799D01*
Y78101D02*
Y80005D01*
X457848Y81833D02*
X465846D01*
X457848D02*
X465846Y87165D01*
X457848D02*
X465846D01*
X457848Y89375D02*
X465846D01*
X457848D02*
Y92041D01*
X458229Y93183D01*
X458990Y93945D01*
X459752Y94326D01*
X460895Y94707D01*
X462799D01*
X463942Y94326D01*
X464703Y93945D01*
X465465Y93183D01*
X465846Y92041D01*
Y89375D01*
X380598Y74292D02*
X388596Y77339D01*
X380598Y80386D02*
X388596Y77339D01*
X382502Y87127D02*
X381740Y86747D01*
X380979Y85985D01*
X380598Y85223D01*
Y83700D01*
X380979Y82938D01*
X381740Y82176D01*
X382502Y81795D01*
X383645Y81414D01*
X385549D01*
X386692Y81795D01*
X387453Y82176D01*
X388215Y82938D01*
X388596Y83700D01*
Y85223D01*
X388215Y85985D01*
X387453Y86747D01*
X386692Y87127D01*
X382502Y95087D02*
X381740Y94707D01*
X380979Y93945D01*
X380598Y93183D01*
Y91660D01*
X380979Y90898D01*
X381740Y90136D01*
X382502Y89755D01*
X383645Y89375D01*
X385549D01*
X386692Y89755D01*
X387453Y90136D01*
X388215Y90898D01*
X388596Y91660D01*
Y93183D01*
X388215Y93945D01*
X387453Y94707D01*
X386692Y95087D01*
X569848Y74542D02*
X577846Y77589D01*
X569848Y80636D02*
X577846Y77589D01*
X571752Y87377D02*
X570990Y86996D01*
X570229Y86235D01*
X569848Y85473D01*
Y83949D01*
X570229Y83188D01*
X570990Y82426D01*
X571752Y82045D01*
X572895Y81664D01*
X574799D01*
X575942Y82045D01*
X576703Y82426D01*
X577465Y83188D01*
X577846Y83949D01*
Y85473D01*
X577465Y86235D01*
X576703Y86996D01*
X575942Y87377D01*
X571752Y95338D02*
X570990Y94957D01*
X570229Y94195D01*
X569848Y93433D01*
Y91910D01*
X570229Y91148D01*
X570990Y90386D01*
X571752Y90005D01*
X572895Y89625D01*
X574799D01*
X575942Y90005D01*
X576703Y90386D01*
X577465Y91148D01*
X577846Y91910D01*
Y93433D01*
X577465Y94195D01*
X576703Y94957D01*
X575942Y95338D01*
X321098Y75042D02*
X329096Y78089D01*
X321098Y81136D02*
X329096Y78089D01*
X323002Y87877D02*
X322240Y87497D01*
X321479Y86735D01*
X321098Y85973D01*
Y84450D01*
X321479Y83688D01*
X322240Y82926D01*
X323002Y82545D01*
X324145Y82164D01*
X326049D01*
X327192Y82545D01*
X327953Y82926D01*
X328715Y83688D01*
X329096Y84450D01*
Y85973D01*
X328715Y86735D01*
X327953Y87497D01*
X327192Y87877D01*
X323002Y95838D02*
X322240Y95457D01*
X321479Y94695D01*
X321098Y93933D01*
Y92410D01*
X321479Y91648D01*
X322240Y90886D01*
X323002Y90505D01*
X324145Y90125D01*
X326049D01*
X327192Y90505D01*
X327953Y90886D01*
X328715Y91648D01*
X329096Y92410D01*
Y93933D01*
X328715Y94695D01*
X327953Y95457D01*
X327192Y95838D01*
X209598Y75792D02*
X217596Y78839D01*
X209598Y81886D02*
X217596Y78839D01*
X211502Y88627D02*
X210740Y88246D01*
X209979Y87485D01*
X209598Y86723D01*
Y85199D01*
X209979Y84438D01*
X210740Y83676D01*
X211502Y83295D01*
X212645Y82914D01*
X214549D01*
X215692Y83295D01*
X216453Y83676D01*
X217215Y84438D01*
X217596Y85199D01*
Y86723D01*
X217215Y87485D01*
X216453Y88246D01*
X215692Y88627D01*
X211502Y96587D02*
X210740Y96207D01*
X209979Y95445D01*
X209598Y94683D01*
Y93160D01*
X209979Y92398D01*
X210740Y91636D01*
X211502Y91255D01*
X212645Y90875D01*
X214549D01*
X215692Y91255D01*
X216453Y91636D01*
X217215Y92398D01*
X217596Y93160D01*
Y94683D01*
X217215Y95445D01*
X216453Y96207D01*
X215692Y96587D01*
X183348Y75792D02*
X191346D01*
X183348D02*
Y78458D01*
X183729Y79601D01*
X184490Y80363D01*
X185252Y80743D01*
X186395Y81124D01*
X188299D01*
X189442Y80743D01*
X190203Y80363D01*
X190965Y79601D01*
X191346Y78458D01*
Y75792D01*
Y89008D02*
X183348Y85961D01*
X191346Y82914D01*
X188680Y84057D02*
Y87866D01*
X183348Y93541D02*
X191346D01*
X183348Y90875D02*
Y96207D01*
X191346Y103253D02*
X183348Y100206D01*
X191346Y97159D01*
X188680Y98301D02*
Y102110D01*
X160998Y81505D02*
X160236Y81124D01*
X159475Y80363D01*
X159094Y79601D01*
Y78077D01*
X159475Y77316D01*
X160236Y76554D01*
X160998Y76173D01*
X162141Y75792D01*
X164045D01*
X165188Y76173D01*
X165949Y76554D01*
X166711Y77316D01*
X167092Y78077D01*
Y79601D01*
X166711Y80363D01*
X165949Y81124D01*
X165188Y81505D01*
X164045D01*
Y79601D02*
Y81505D01*
X159094Y83333D02*
X167092D01*
X159094D02*
X167092Y88666D01*
X159094D02*
X167092D01*
X159094Y90875D02*
X167092D01*
X159094D02*
Y93541D01*
X159475Y94683D01*
X160236Y95445D01*
X160998Y95826D01*
X162141Y96207D01*
X164045D01*
X165188Y95826D01*
X165949Y95445D01*
X166711Y94683D01*
X167092Y93541D01*
Y90875D01*
X659512Y653843D02*
X658346Y655009D01*
X656013D01*
X654847Y653843D01*
Y649177D01*
X656013Y648011D01*
X658346D01*
X659512Y649177D01*
X661845Y648011D02*
X664177D01*
X663011D01*
Y655009D01*
X661845Y653843D01*
X667676D02*
X668842Y655009D01*
X671175D01*
X672341Y653843D01*
Y649177D01*
X671175Y648011D01*
X668842D01*
X667676Y649177D01*
Y653843D01*
X697932Y178809D02*
X696765Y179975D01*
X694433D01*
X693267Y178809D01*
Y174144D01*
X694433Y172977D01*
X696765D01*
X697932Y174144D01*
X700264D02*
X701431Y172977D01*
X703763D01*
X704930Y174144D01*
Y178809D01*
X703763Y179975D01*
X701431D01*
X700264Y178809D01*
Y177642D01*
X701431Y176476D01*
X704930D01*
X731409Y247453D02*
Y254451D01*
X734908D01*
X736074Y253285D01*
Y250952D01*
X734908Y249786D01*
X731409D01*
X733741D02*
X736074Y247453D01*
X738407D02*
X740739D01*
X739573D01*
Y254451D01*
X738407Y253285D01*
X748903Y247453D02*
X744238D01*
X748903Y252118D01*
Y253285D01*
X747737Y254451D01*
X745404D01*
X744238Y253285D01*
X761531Y246183D02*
Y253181D01*
X765030D01*
X766196Y252015D01*
Y249682D01*
X765030Y248516D01*
X761531D01*
X763864D02*
X766196Y246183D01*
X768529D02*
X770862D01*
X769695D01*
Y253181D01*
X768529Y252015D01*
X774360Y246183D02*
X776693D01*
X775527D01*
Y253181D01*
X774360Y252015D01*
X264600Y699773D02*
Y706771D01*
X268099D01*
X269265Y705605D01*
Y703272D01*
X268099Y702106D01*
X264600D01*
X266933D02*
X269265Y699773D01*
X271598D02*
X273931D01*
X272764D01*
Y706771D01*
X271598Y705605D01*
X277430D02*
X278596Y706771D01*
X280928D01*
X282095Y705605D01*
Y700939D01*
X280928Y699773D01*
X278596D01*
X277430Y700939D01*
Y705605D01*
X665237Y16313D02*
Y23311D01*
X668735D01*
X669902Y22145D01*
Y19812D01*
X668735Y18646D01*
X665237D01*
X672234Y22145D02*
X673401Y23311D01*
X675733D01*
X676899Y22145D01*
Y20978D01*
X675733Y19812D01*
X674567D01*
X675733D01*
X676899Y18646D01*
Y17479D01*
X675733Y16313D01*
X673401D01*
X672234Y17479D01*
X566778Y140763D02*
X565611Y141929D01*
X563279D01*
X562113Y140763D01*
Y136097D01*
X563279Y134931D01*
X565611D01*
X566778Y136097D01*
X573775Y134931D02*
X569110D01*
X573775Y139596D01*
Y140763D01*
X572609Y141929D01*
X570277D01*
X569110Y140763D01*
X371094Y150161D02*
X369928Y151327D01*
X367595D01*
X366429Y150161D01*
Y145495D01*
X367595Y144329D01*
X369928D01*
X371094Y145495D01*
X373427Y144329D02*
X375759D01*
X374593D01*
Y151327D01*
X373427Y150161D01*
X720022Y204359D02*
Y198528D01*
X721189Y197361D01*
X723521D01*
X724688Y198528D01*
Y204359D01*
X727020D02*
X731685D01*
Y203193D01*
X727020Y198528D01*
Y197361D01*
X785394Y178809D02*
X784227Y179975D01*
X781895D01*
X780728Y178809D01*
Y174144D01*
X781895Y172977D01*
X784227D01*
X785394Y174144D01*
X787726Y178809D02*
X788892Y179975D01*
X791225D01*
X792391Y178809D01*
Y177642D01*
X791225Y176476D01*
X792391Y175310D01*
Y174144D01*
X791225Y172977D01*
X788892D01*
X787726Y174144D01*
Y175310D01*
X788892Y176476D01*
X787726Y177642D01*
Y178809D01*
X788892Y176476D02*
X791225D01*
X467800Y488953D02*
Y495951D01*
X471299D01*
X472466Y494785D01*
Y492452D01*
X471299Y491286D01*
X467800D01*
X470133D02*
X472466Y488953D01*
X474798Y490120D02*
X475964Y488953D01*
X478297D01*
X479463Y490120D01*
Y494785D01*
X478297Y495951D01*
X475964D01*
X474798Y494785D01*
Y493618D01*
X475964Y492452D01*
X479463D01*
X511262Y517159D02*
X510095Y518325D01*
X507763D01*
X506596Y517159D01*
Y512493D01*
X507763Y511327D01*
X510095D01*
X511262Y512493D01*
X518259Y518325D02*
X515927Y517159D01*
X513594Y514826D01*
Y512493D01*
X514761Y511327D01*
X517093D01*
X518259Y512493D01*
Y513660D01*
X517093Y514826D01*
X513594D01*
X505345Y144976D02*
Y151974D01*
X508843D01*
X510010Y150808D01*
Y148475D01*
X508843Y147309D01*
X505345D01*
X507677D02*
X510010Y144976D01*
X512342Y150808D02*
X513509Y151974D01*
X515841D01*
X517007Y150808D01*
Y149641D01*
X515841Y148475D01*
X517007Y147309D01*
Y146142D01*
X515841Y144976D01*
X513509D01*
X512342Y146142D01*
Y147309D01*
X513509Y148475D01*
X512342Y149641D01*
Y150808D01*
X513509Y148475D02*
X515841D01*
X510010Y171140D02*
X508843Y172306D01*
X506511D01*
X505345Y171140D01*
Y166474D01*
X506511Y165308D01*
X508843D01*
X510010Y166474D01*
X512342Y172306D02*
X517007D01*
Y171140D01*
X512342Y166474D01*
Y165308D01*
X492805Y445097D02*
Y439265D01*
X493971Y438099D01*
X496303D01*
X497470Y439265D01*
Y445097D01*
X504468D02*
X499802D01*
Y441598D01*
X502135Y442764D01*
X503301D01*
X504468Y441598D01*
Y439265D01*
X503301Y438099D01*
X500969D01*
X499802Y439265D01*
X559417Y850181D02*
X564082Y843183D01*
Y850181D02*
X559417Y843183D01*
X566415D02*
X568747D01*
X567581D01*
Y850181D01*
X566415Y849015D01*
X870998Y616563D02*
X869832Y617729D01*
X867499D01*
X866333Y616563D01*
Y615396D01*
X867499Y614230D01*
X869832D01*
X870998Y613064D01*
Y611897D01*
X869832Y610731D01*
X867499D01*
X866333Y611897D01*
X876829Y610731D02*
Y617729D01*
X873331Y614230D01*
X877996D01*
X868784Y494331D02*
X867617Y495497D01*
X865285D01*
X864118Y494331D01*
Y493164D01*
X865285Y491998D01*
X867617D01*
X868784Y490832D01*
Y489665D01*
X867617Y488499D01*
X865285D01*
X864118Y489665D01*
X871116Y494331D02*
X872283Y495497D01*
X874615D01*
X875781Y494331D01*
Y493164D01*
X874615Y491998D01*
X873449D01*
X874615D01*
X875781Y490832D01*
Y489665D01*
X874615Y488499D01*
X872283D01*
X871116Y489665D01*
X752250Y601945D02*
Y608943D01*
X755749D01*
X756915Y607777D01*
Y605444D01*
X755749Y604278D01*
X752250D01*
X754582D02*
X756915Y601945D01*
X763913Y608943D02*
X761580Y607777D01*
X759248Y605444D01*
Y603111D01*
X760414Y601945D01*
X762746D01*
X763913Y603111D01*
Y604278D01*
X762746Y605444D01*
X759248D01*
X770590Y513949D02*
Y520947D01*
X774089D01*
X775255Y519781D01*
Y517448D01*
X774089Y516282D01*
X770590D01*
X772923D02*
X775255Y513949D01*
X782253Y520947D02*
X777588D01*
Y517448D01*
X779921Y518614D01*
X781087D01*
X782253Y517448D01*
Y515115D01*
X781087Y513949D01*
X778754D01*
X777588Y515115D01*
X772921Y607777D02*
X771755Y608943D01*
X769423D01*
X768256Y607777D01*
Y603111D01*
X769423Y601945D01*
X771755D01*
X772921Y603111D01*
X779919Y608943D02*
X775254D01*
Y605444D01*
X777587Y606610D01*
X778753D01*
X779919Y605444D01*
Y603111D01*
X778753Y601945D01*
X776420D01*
X775254Y603111D01*
X757681Y519255D02*
X756515Y520421D01*
X754182D01*
X753016Y519255D01*
Y514589D01*
X754182Y513423D01*
X756515D01*
X757681Y514589D01*
X763512Y513423D02*
Y520421D01*
X760014Y516922D01*
X764679D01*
X835080Y380001D02*
X833913Y381167D01*
X831581D01*
X830415Y380001D01*
Y378834D01*
X831581Y377668D01*
X833913D01*
X835080Y376502D01*
Y375335D01*
X833913Y374169D01*
X831581D01*
X830415Y375335D01*
X842077Y374169D02*
X837412D01*
X842077Y378834D01*
Y380001D01*
X840911Y381167D01*
X838579D01*
X837412Y380001D01*
X752325Y442925D02*
Y449923D01*
X755824D01*
X756990Y448757D01*
Y446424D01*
X755824Y445258D01*
X752325D01*
X754658D02*
X756990Y442925D01*
X762822D02*
Y449923D01*
X759323Y446424D01*
X763988D01*
X778872Y448757D02*
X777705Y449923D01*
X775373D01*
X774207Y448757D01*
Y444091D01*
X775373Y442925D01*
X777705D01*
X778872Y444091D01*
X781204Y448757D02*
X782371Y449923D01*
X784703D01*
X785870Y448757D01*
Y447590D01*
X784703Y446424D01*
X783537D01*
X784703D01*
X785870Y445258D01*
Y444091D01*
X784703Y442925D01*
X782371D01*
X781204Y444091D01*
X498595Y8258D02*
X491597D01*
Y11757D01*
X492763Y12924D01*
X495096D01*
X496262Y11757D01*
Y8258D01*
X491597Y19921D02*
X492763Y17589D01*
X495096Y15256D01*
X497429D01*
X498595Y16422D01*
Y18755D01*
X497429Y19921D01*
X496262D01*
X495096Y18755D01*
Y15256D01*
X362845Y7008D02*
X355847D01*
Y10507D01*
X357013Y11674D01*
X359346D01*
X360512Y10507D01*
Y7008D01*
X355847Y18671D02*
Y14006D01*
X359346D01*
X358180Y16339D01*
Y17505D01*
X359346Y18671D01*
X361679D01*
X362845Y17505D01*
Y15172D01*
X361679Y14006D01*
X29561Y8684D02*
X22563D01*
Y12183D01*
X23729Y13349D01*
X26062D01*
X27228Y12183D01*
Y8684D01*
X29561Y19181D02*
X22563D01*
X26062Y15682D01*
Y20347D01*
X216891Y140197D02*
X223889D01*
Y136699D01*
X222723Y135532D01*
X220390D01*
X219224Y136699D01*
Y140197D01*
Y137865D02*
X216891Y135532D01*
X222723Y133200D02*
X223889Y132033D01*
Y129701D01*
X222723Y128534D01*
X221556D01*
X220390Y129701D01*
Y130867D01*
Y129701D01*
X219224Y128534D01*
X218057D01*
X216891Y129701D01*
Y132033D01*
X218057Y133200D01*
X327385Y141725D02*
X334383D01*
Y138226D01*
X333217Y137060D01*
X330884D01*
X329718Y138226D01*
Y141725D01*
Y139393D02*
X327385Y137060D01*
Y130063D02*
Y134728D01*
X332050Y130063D01*
X333217D01*
X334383Y131229D01*
Y133561D01*
X333217Y134728D01*
X141095Y8258D02*
X134097D01*
Y11757D01*
X135263Y12924D01*
X137596D01*
X138762Y11757D01*
Y8258D01*
X141095Y19921D02*
Y15256D01*
X136430Y19921D01*
X135263D01*
X134097Y18755D01*
Y16422D01*
X135263Y15256D01*
X253095Y8175D02*
X246097D01*
Y11674D01*
X247263Y12840D01*
X249596D01*
X250762Y11674D01*
Y8175D01*
X253095Y15172D02*
Y17505D01*
Y16339D01*
X246097D01*
X247263Y15172D01*
X774897Y130447D02*
Y124615D01*
X776063Y123449D01*
X778396D01*
X779562Y124615D01*
Y130447D01*
X786560Y123449D02*
X781895D01*
X786560Y128114D01*
Y129281D01*
X785394Y130447D01*
X783061D01*
X781895Y129281D01*
X533561Y639307D02*
Y633475D01*
X534727Y632309D01*
X537060D01*
X538226Y633475D01*
Y639307D01*
X540559Y632309D02*
X542891D01*
X541725D01*
Y639307D01*
X540559Y638141D01*
D16*
X754510Y399880D02*
Y391883D01*
X758509D01*
X759842Y393216D01*
Y394549D01*
X758509Y395882D01*
X754510D01*
X758509D01*
X759842Y397214D01*
Y398547D01*
X758509Y399880D01*
X754510D01*
X767839D02*
X762507D01*
Y391883D01*
X767839D01*
X762507Y395882D02*
X765173D01*
X775836Y399880D02*
X770505D01*
Y391883D01*
X775836D01*
X770505Y395882D02*
X773171D01*
X778502Y399880D02*
X783834D01*
X781168D01*
Y391883D01*
X791831Y399880D02*
X786500D01*
Y391883D01*
X791831D01*
X786500Y395882D02*
X789166D01*
X799829Y398547D02*
X798496Y399880D01*
X795830D01*
X794497Y398547D01*
Y393216D01*
X795830Y391883D01*
X798496D01*
X799829Y393216D01*
X802495Y399880D02*
Y391883D01*
Y395882D01*
X807826D01*
Y399880D01*
Y391883D01*
X754510Y386683D02*
Y378686D01*
Y382685D01*
X759842D01*
Y386683D01*
Y378686D01*
X762507Y386683D02*
Y378686D01*
X765173Y381352D01*
X767839Y378686D01*
Y386683D01*
X778502Y385350D02*
X779835Y386683D01*
X782501D01*
X783834Y385350D01*
Y384018D01*
X782501Y382685D01*
X781168D01*
X782501D01*
X783834Y381352D01*
Y380019D01*
X782501Y378686D01*
X779835D01*
X778502Y380019D01*
X847749Y37822D02*
Y40488D01*
Y39155D01*
X855746D01*
Y37822D01*
Y40488D01*
Y44486D02*
X847749D01*
X855746Y49818D01*
X847749D01*
Y52484D02*
Y57815D01*
Y55150D01*
X855746D01*
X821654Y44170D02*
X820321Y42837D01*
Y40171D01*
X821654Y38838D01*
X822986D01*
X824319Y40171D01*
Y42837D01*
X825652Y44170D01*
X826985D01*
X828318Y42837D01*
Y40171D01*
X826985Y38838D01*
X821654Y52167D02*
X820321Y50834D01*
Y48168D01*
X821654Y46835D01*
X826985D01*
X828318Y48168D01*
Y50834D01*
X826985Y52167D01*
X820321Y54833D02*
X828318D01*
X825652D01*
X820321Y60164D01*
X824319Y56166D01*
X828318Y60164D01*
X802156Y38330D02*
X794159D01*
X796824Y40996D01*
X794159Y43662D01*
X802156D01*
X794159Y50326D02*
Y47660D01*
X795491Y46327D01*
X800823D01*
X802156Y47660D01*
Y50326D01*
X800823Y51659D01*
X795491D01*
X794159Y50326D01*
X795491Y59656D02*
X794159Y58323D01*
Y55658D01*
X795491Y54325D01*
X796824D01*
X798157Y55658D01*
Y58323D01*
X799490Y59656D01*
X800823D01*
X802156Y58323D01*
Y55658D01*
X800823Y54325D01*
X794159Y62322D02*
Y64988D01*
Y63655D01*
X802156D01*
Y62322D01*
Y64988D01*
X775744Y37822D02*
X767747D01*
X770412Y40488D01*
X767747Y43154D01*
X775744D01*
X767747Y45819D02*
Y48485D01*
Y47152D01*
X775744D01*
Y45819D01*
Y48485D01*
X769080Y57815D02*
X767747Y56483D01*
Y53817D01*
X769080Y52484D01*
X770412D01*
X771745Y53817D01*
Y56483D01*
X773078Y57815D01*
X774411D01*
X775744Y56483D01*
Y53817D01*
X774411Y52484D01*
X767747Y64480D02*
Y61814D01*
X769080Y60481D01*
X774411D01*
X775744Y61814D01*
Y64480D01*
X774411Y65813D01*
X769080D01*
X767747Y64480D01*
X744846Y46964D02*
X743513Y45631D01*
Y42965D01*
X744846Y41632D01*
X750177D01*
X751510Y42965D01*
Y45631D01*
X750177Y46964D01*
X744846Y54961D02*
X743513Y53628D01*
Y50962D01*
X744846Y49629D01*
X746179D01*
X747511Y50962D01*
Y53628D01*
X748844Y54961D01*
X750177D01*
X751510Y53628D01*
Y50962D01*
X750177Y49629D01*
X721329Y45946D02*
X719997Y44613D01*
Y41947D01*
X721329Y40614D01*
X726661D01*
X727994Y41947D01*
Y44613D01*
X726661Y45946D01*
X723995D01*
Y43280D01*
X727994Y48611D02*
X719997D01*
X727994Y53943D01*
X719997D01*
Y56609D02*
X727994D01*
Y60608D01*
X726661Y61940D01*
X721329D01*
X719997Y60608D01*
Y56609D01*
X693829Y46964D02*
Y41632D01*
X697827D01*
X696494Y44298D01*
Y45631D01*
X697827Y46964D01*
X700493D01*
X701826Y45631D01*
Y42965D01*
X700493Y41632D01*
X693829Y49629D02*
X699160D01*
X701826Y52295D01*
X699160Y54961D01*
X693829D01*
X161302Y297183D02*
Y292518D01*
X168300D01*
Y297183D01*
X164801Y292518D02*
Y294851D01*
X168300Y299516D02*
X161302D01*
X168300Y304181D01*
X161302D01*
X86468Y293183D02*
X85302Y292017D01*
Y289684D01*
X86468Y288518D01*
X91134D01*
X92300Y289684D01*
Y292017D01*
X91134Y293183D01*
X88801D01*
Y290851D01*
X92300Y295516D02*
X85302D01*
X92300Y300181D01*
X85302D01*
Y302514D02*
X92300D01*
Y306012D01*
X91134Y307179D01*
X86468D01*
X85302Y306012D01*
Y302514D01*
X109302Y296183D02*
Y291518D01*
X112801D01*
X111635Y293851D01*
Y295017D01*
X112801Y296183D01*
X115134D01*
X116300Y295017D01*
Y292684D01*
X115134Y291518D01*
X109302Y298516D02*
X113967D01*
X116300Y300848D01*
X113967Y303181D01*
X109302D01*
X135302Y288518D02*
X139967D01*
X142300Y290851D01*
X139967Y293183D01*
X135302D01*
X142300Y295516D02*
Y297848D01*
Y296682D01*
X137635D01*
Y295516D01*
X142300Y301347D02*
X137635D01*
Y304846D01*
X138801Y306012D01*
X142300D01*
X76640Y502047D02*
Y496216D01*
X77807Y495049D01*
X80139D01*
X81306Y496216D01*
Y502047D01*
X88303D02*
X85971Y500881D01*
X83638Y498548D01*
Y496216D01*
X84804Y495049D01*
X87137D01*
X88303Y496216D01*
Y497382D01*
X87137Y498548D01*
X83638D01*
X813748Y849773D02*
Y843941D01*
X814915Y842775D01*
X817247D01*
X818413Y843941D01*
Y849773D01*
X824245Y842775D02*
Y849773D01*
X820746Y846274D01*
X825411D01*
X766758Y838203D02*
Y845201D01*
X770257D01*
X771423Y844035D01*
Y841702D01*
X770257Y840536D01*
X766758D01*
X769091D02*
X771423Y838203D01*
X773756D02*
X776089D01*
X774922D01*
Y845201D01*
X773756Y844035D01*
M02*
