G04*
G04 #@! TF.GenerationSoftware,Altium Limited,Altium Designer,21.6.4 (81)*
G04*
G04 Layer_Physical_Order=2*
G04 Layer_Color=16711680*
%FSLAX44Y44*%
%MOMM*%
G71*
G04*
G04 #@! TF.SameCoordinates,B6620421-005C-40FD-BBE8-42AC4C8AC442*
G04*
G04*
G04 #@! TF.FilePolarity,Positive*
G04*
G01*
G75*
%ADD18R,0.9500X0.6000*%
%ADD47C,6.0000*%
%ADD48C,0.3000*%
%ADD49O,1.4000X1.8000*%
%ADD50O,2.6000X1.6000*%
%ADD51O,1.6000X2.6000*%
%ADD52O,1.5000X2.0000*%
%ADD53C,1.2000*%
%ADD54C,2.0000*%
%ADD55C,0.5000*%
%ADD56C,5.0000*%
%ADD57C,0.5000*%
G36*
X898441Y878441D02*
X898441Y1558D01*
X1558Y1558D01*
X1558Y878441D01*
X898441Y878441D01*
D02*
G37*
%LPC*%
G36*
X499872Y852618D02*
X497523Y852308D01*
X495333Y851402D01*
X493453Y849959D01*
X492010Y848079D01*
X491104Y845890D01*
X490794Y843540D01*
Y838540D01*
X491104Y836190D01*
X492010Y834001D01*
X493453Y832121D01*
X495333Y830678D01*
X497523Y829772D01*
X499872Y829462D01*
X502221Y829772D01*
X504411Y830678D01*
X506291Y832121D01*
X507733Y834001D01*
X508640Y836190D01*
X508950Y838540D01*
Y843540D01*
X508640Y845890D01*
X507733Y848079D01*
X506291Y849959D01*
X504411Y851402D01*
X502221Y852308D01*
X499872Y852618D01*
D02*
G37*
G36*
X449072D02*
X446722Y852308D01*
X444533Y851402D01*
X442653Y849959D01*
X441211Y848079D01*
X440304Y845890D01*
X439994Y843540D01*
Y838540D01*
X440304Y836190D01*
X441211Y834001D01*
X442653Y832121D01*
X444533Y830678D01*
X446722Y829772D01*
X449072Y829462D01*
X451422Y829772D01*
X453611Y830678D01*
X455491Y832121D01*
X456934Y834001D01*
X457840Y836190D01*
X458150Y838540D01*
Y843540D01*
X457840Y845890D01*
X456934Y848079D01*
X455491Y849959D01*
X453611Y851402D01*
X451422Y852308D01*
X449072Y852618D01*
D02*
G37*
G36*
X423672D02*
X421323Y852308D01*
X419133Y851402D01*
X417253Y849959D01*
X415811Y848079D01*
X414904Y845890D01*
X414594Y843540D01*
Y838540D01*
X414904Y836190D01*
X415811Y834001D01*
X417253Y832121D01*
X419133Y830678D01*
X421323Y829772D01*
X423672Y829462D01*
X426021Y829772D01*
X428211Y830678D01*
X430091Y832121D01*
X431534Y834001D01*
X432440Y836190D01*
X432750Y838540D01*
Y843540D01*
X432440Y845890D01*
X431534Y848079D01*
X430091Y849959D01*
X428211Y851402D01*
X426021Y852308D01*
X423672Y852618D01*
D02*
G37*
G36*
X322072D02*
X319722Y852308D01*
X317533Y851402D01*
X315653Y849959D01*
X314210Y848079D01*
X313304Y845890D01*
X312994Y843540D01*
Y838540D01*
X313304Y836190D01*
X314210Y834001D01*
X315653Y832121D01*
X317533Y830678D01*
X319722Y829772D01*
X322072Y829462D01*
X324422Y829772D01*
X326611Y830678D01*
X328491Y832121D01*
X329934Y834001D01*
X330840Y836190D01*
X331150Y838540D01*
Y843540D01*
X330840Y845890D01*
X329934Y848079D01*
X328491Y849959D01*
X326611Y851402D01*
X324422Y852308D01*
X322072Y852618D01*
D02*
G37*
G36*
X296672D02*
X294322Y852308D01*
X292133Y851402D01*
X290253Y849959D01*
X288811Y848079D01*
X287904Y845890D01*
X287594Y843540D01*
Y838540D01*
X287904Y836190D01*
X288811Y834001D01*
X290253Y832121D01*
X292133Y830678D01*
X294322Y829772D01*
X296672Y829462D01*
X299021Y829772D01*
X301211Y830678D01*
X303091Y832121D01*
X304534Y834001D01*
X305440Y836190D01*
X305750Y838540D01*
Y843540D01*
X305440Y845890D01*
X304534Y848079D01*
X303091Y849959D01*
X301211Y851402D01*
X299021Y852308D01*
X296672Y852618D01*
D02*
G37*
G36*
X220472D02*
X218123Y852308D01*
X215933Y851402D01*
X214053Y849959D01*
X212610Y848079D01*
X211704Y845890D01*
X211394Y843540D01*
Y838540D01*
X211704Y836190D01*
X212610Y834001D01*
X214053Y832121D01*
X215933Y830678D01*
X218123Y829772D01*
X220472Y829462D01*
X222822Y829772D01*
X225011Y830678D01*
X226891Y832121D01*
X228333Y834001D01*
X229240Y836190D01*
X229550Y838540D01*
Y843540D01*
X229240Y845890D01*
X228333Y848079D01*
X226891Y849959D01*
X225011Y851402D01*
X222822Y852308D01*
X220472Y852618D01*
D02*
G37*
G36*
X195072D02*
X192722Y852308D01*
X190533Y851402D01*
X188653Y849959D01*
X187211Y848079D01*
X186304Y845890D01*
X185994Y843540D01*
Y838540D01*
X186304Y836190D01*
X187211Y834001D01*
X188653Y832121D01*
X190533Y830678D01*
X192722Y829772D01*
X195072Y829462D01*
X197421Y829772D01*
X199611Y830678D01*
X201491Y832121D01*
X202934Y834001D01*
X203840Y836190D01*
X204150Y838540D01*
Y843540D01*
X203840Y845890D01*
X202934Y848079D01*
X201491Y849959D01*
X199611Y851402D01*
X197421Y852308D01*
X195072Y852618D01*
D02*
G37*
G36*
X169672D02*
X167323Y852308D01*
X165133Y851402D01*
X163253Y849959D01*
X161810Y848079D01*
X160904Y845890D01*
X160594Y843540D01*
Y838540D01*
X160904Y836190D01*
X161810Y834001D01*
X163253Y832121D01*
X165133Y830678D01*
X167323Y829772D01*
X169672Y829462D01*
X172022Y829772D01*
X174211Y830678D01*
X176091Y832121D01*
X177533Y834001D01*
X178440Y836190D01*
X178750Y838540D01*
Y843540D01*
X178440Y845890D01*
X177533Y848079D01*
X176091Y849959D01*
X174211Y851402D01*
X172022Y852308D01*
X169672Y852618D01*
D02*
G37*
G36*
X63742Y837734D02*
Y806946D01*
X94530D01*
X94200Y811139D01*
X93043Y815960D01*
X91145Y820541D01*
X88555Y824769D01*
X85335Y828539D01*
X81565Y831759D01*
X77337Y834350D01*
X72756Y836247D01*
X67935Y837404D01*
X63742Y837734D01*
D02*
G37*
G36*
X62242D02*
X58049Y837404D01*
X53228Y836247D01*
X48647Y834350D01*
X44419Y831759D01*
X40649Y828539D01*
X37429Y824769D01*
X34839Y820541D01*
X32941Y815960D01*
X31784Y811139D01*
X31454Y806946D01*
X62242D01*
Y837734D01*
D02*
G37*
G36*
X695198Y791729D02*
X695198Y791729D01*
X538988D01*
X538988Y791729D01*
X537817Y791496D01*
X536825Y790833D01*
X536825Y790833D01*
X434209Y688217D01*
X433546Y687225D01*
X433313Y686054D01*
X433313Y686054D01*
Y643601D01*
X432043Y643348D01*
X431534Y644579D01*
X430091Y646459D01*
X428211Y647902D01*
X426021Y648808D01*
X424422Y649019D01*
Y637540D01*
Y626061D01*
X426021Y626272D01*
X428211Y627178D01*
X430091Y628621D01*
X431534Y630501D01*
X432043Y631732D01*
X433313Y631479D01*
Y583438D01*
X433313Y583438D01*
X433546Y582267D01*
X434209Y581275D01*
X446909Y568575D01*
X446909Y568575D01*
X447901Y567912D01*
X449072Y567679D01*
X449072Y567679D01*
X469972D01*
Y567450D01*
X473163D01*
Y543243D01*
X432177Y502257D01*
X431514Y501264D01*
X431281Y500094D01*
X431281Y500094D01*
Y355682D01*
X430572Y354621D01*
X430262Y353060D01*
X430572Y351499D01*
X431456Y350176D01*
X432779Y349292D01*
X434340Y348982D01*
X435901Y349292D01*
X437224Y350176D01*
X438108Y351499D01*
X438418Y353060D01*
X438108Y354621D01*
X437399Y355682D01*
Y498827D01*
X478385Y539813D01*
X479048Y540805D01*
X479281Y541976D01*
X479281Y541976D01*
Y567450D01*
X482472D01*
Y576450D01*
X469972D01*
Y573797D01*
X450339D01*
X439431Y584705D01*
Y631479D01*
X440701Y631732D01*
X441211Y630501D01*
X442653Y628621D01*
X444533Y627178D01*
X446722Y626272D01*
X449072Y625962D01*
X451422Y626272D01*
X453611Y627178D01*
X455491Y628621D01*
X456934Y630501D01*
X457840Y632691D01*
X458150Y635040D01*
Y640040D01*
X457840Y642390D01*
X456934Y644579D01*
X455491Y646459D01*
X453611Y647902D01*
X452131Y648514D01*
Y652135D01*
X455305Y655309D01*
X601729D01*
X636077Y620961D01*
X636326Y619709D01*
X637210Y618386D01*
X638533Y617502D01*
X640094Y617192D01*
X641655Y617502D01*
X642716Y618211D01*
X673437D01*
X748999Y542649D01*
X749248Y541397D01*
X750132Y540074D01*
X751455Y539190D01*
X753016Y538880D01*
X754577Y539190D01*
X755900Y540074D01*
X756784Y541397D01*
X757094Y542958D01*
X756784Y544519D01*
X755900Y545842D01*
X754577Y546726D01*
X753325Y546975D01*
X676867Y623433D01*
X675874Y624096D01*
X674704Y624329D01*
X674704Y624329D01*
X642716D01*
X641655Y625038D01*
X640403Y625287D01*
X605159Y660531D01*
X604166Y661194D01*
X602996Y661427D01*
X602996Y661427D01*
X454038D01*
X454038Y661427D01*
X452868Y661194D01*
X451875Y660531D01*
X451875Y660531D01*
X446909Y655565D01*
X446246Y654572D01*
X446013Y653402D01*
X446013Y653402D01*
Y648514D01*
X444533Y647902D01*
X442653Y646459D01*
X441211Y644579D01*
X440701Y643348D01*
X439431Y643601D01*
Y684787D01*
X540255Y785611D01*
X693931D01*
X704065Y775477D01*
X705058Y774814D01*
X706228Y774581D01*
X794371D01*
X795432Y773872D01*
X796993Y773562D01*
X798554Y773872D01*
X799877Y774756D01*
X800761Y776079D01*
X801071Y777640D01*
X800761Y779201D01*
X799877Y780524D01*
X798554Y781408D01*
X796993Y781718D01*
X795432Y781408D01*
X794371Y780699D01*
X707495D01*
X697361Y790833D01*
X696368Y791496D01*
X695198Y791729D01*
D02*
G37*
G36*
X94530Y805446D02*
X63742D01*
Y774658D01*
X67935Y774988D01*
X72756Y776145D01*
X77337Y778043D01*
X81565Y780633D01*
X85335Y783853D01*
X88555Y787624D01*
X91145Y791851D01*
X93043Y796432D01*
X94200Y801253D01*
X94530Y805446D01*
D02*
G37*
G36*
X62242D02*
X31454D01*
X31784Y801253D01*
X32941Y796432D01*
X34839Y791851D01*
X37429Y787624D01*
X40649Y783853D01*
X44419Y780633D01*
X48647Y778043D01*
X53228Y776145D01*
X58049Y774988D01*
X62242Y774658D01*
Y805446D01*
D02*
G37*
G36*
X347472Y852618D02*
X345122Y852308D01*
X342933Y851402D01*
X341053Y849959D01*
X339610Y848079D01*
X338704Y845890D01*
X338394Y843540D01*
Y838540D01*
X338704Y836190D01*
X339610Y834001D01*
X341053Y832121D01*
X342933Y830678D01*
X344413Y830066D01*
Y762762D01*
X344413Y762762D01*
X344646Y761591D01*
X345309Y760599D01*
X362955Y742953D01*
Y738415D01*
X361685Y737888D01*
X274331Y825243D01*
Y830066D01*
X275811Y830678D01*
X277691Y832121D01*
X279133Y834001D01*
X280040Y836190D01*
X280350Y838540D01*
Y843540D01*
X280040Y845890D01*
X279133Y848079D01*
X277691Y849959D01*
X275811Y851402D01*
X273622Y852308D01*
X271272Y852618D01*
X268923Y852308D01*
X266733Y851402D01*
X264853Y849959D01*
X263410Y848079D01*
X262504Y845890D01*
X262194Y843540D01*
Y838540D01*
X262504Y836190D01*
X263410Y834001D01*
X264853Y832121D01*
X266733Y830678D01*
X268213Y830066D01*
Y823976D01*
X268213Y823976D01*
X268446Y822805D01*
X269109Y821813D01*
X357113Y733809D01*
Y643601D01*
X355843Y643348D01*
X355334Y644579D01*
X353891Y646459D01*
X352011Y647902D01*
X349822Y648808D01*
X347472Y649118D01*
X345122Y648808D01*
X342933Y647902D01*
X341053Y646459D01*
X339610Y644579D01*
X339609Y644575D01*
X338339Y644827D01*
Y749132D01*
X338339Y749132D01*
X338106Y750303D01*
X337443Y751295D01*
X337443Y751295D01*
X254027Y834710D01*
X254640Y836190D01*
X254950Y838540D01*
Y843540D01*
X254640Y845890D01*
X253734Y848079D01*
X252291Y849959D01*
X250411Y851402D01*
X248221Y852308D01*
X245872Y852618D01*
X243522Y852308D01*
X241333Y851402D01*
X239453Y849959D01*
X238011Y848079D01*
X237104Y845890D01*
X236794Y843540D01*
Y838540D01*
X237104Y836190D01*
X238011Y834001D01*
X239453Y832121D01*
X241333Y830678D01*
X243522Y829772D01*
X245872Y829462D01*
X248221Y829772D01*
X249701Y830385D01*
X332221Y747865D01*
Y641630D01*
X330951Y641547D01*
X330840Y642390D01*
X329934Y644579D01*
X328491Y646459D01*
X326611Y647902D01*
X324422Y648808D01*
X322072Y649118D01*
X319722Y648808D01*
X317533Y647902D01*
X315653Y646459D01*
X314210Y644579D01*
X313304Y642390D01*
X312994Y640040D01*
Y635040D01*
X313304Y632691D01*
X314210Y630501D01*
X315653Y628621D01*
X317533Y627178D01*
X319722Y626272D01*
X322072Y625962D01*
X324422Y626272D01*
X326611Y627178D01*
X328491Y628621D01*
X329934Y630501D01*
X330840Y632691D01*
X330951Y633533D01*
X332221Y633450D01*
Y278130D01*
X332221Y278130D01*
X332454Y276959D01*
X333117Y275967D01*
X406137Y202947D01*
Y49605D01*
X404405Y48888D01*
X402421Y47365D01*
X400898Y45381D01*
X399940Y43070D01*
X399614Y40590D01*
Y30590D01*
X399940Y28110D01*
X400898Y25799D01*
X402421Y23814D01*
X404405Y22292D01*
X406716Y21334D01*
X409196Y21008D01*
X411676Y21334D01*
X413987Y22292D01*
X415971Y23814D01*
X417494Y25799D01*
X418451Y28110D01*
X418778Y30590D01*
Y40590D01*
X418451Y43070D01*
X417494Y45381D01*
X415971Y47365D01*
X413987Y48888D01*
X412255Y49605D01*
Y204214D01*
X412255Y204214D01*
X412022Y205385D01*
X411359Y206377D01*
X411359Y206377D01*
X338339Y279397D01*
Y630253D01*
X339609Y630505D01*
X339610Y630501D01*
X341053Y628621D01*
X342933Y627178D01*
X345122Y626272D01*
X347472Y625962D01*
X349822Y626272D01*
X352011Y627178D01*
X353891Y628621D01*
X355334Y630501D01*
X355843Y631732D01*
X357113Y631479D01*
Y274828D01*
X357113Y274828D01*
X357346Y273657D01*
X358009Y272665D01*
X422137Y208537D01*
Y50472D01*
X422137Y50472D01*
X422370Y49301D01*
X423033Y48309D01*
X426199Y45143D01*
X425340Y43070D01*
X425014Y40590D01*
Y30590D01*
X425340Y28110D01*
X426298Y25799D01*
X427821Y23814D01*
X429805Y22292D01*
X432116Y21334D01*
X434596Y21008D01*
X437076Y21334D01*
X439387Y22292D01*
X441371Y23814D01*
X442894Y25799D01*
X443851Y28110D01*
X444178Y30590D01*
Y40590D01*
X443851Y43070D01*
X442894Y45381D01*
X441371Y47365D01*
X439387Y48888D01*
X437076Y49845D01*
X434596Y50172D01*
X432116Y49845D01*
X430725Y49269D01*
X428255Y51739D01*
Y209804D01*
X428255Y209804D01*
X428022Y210975D01*
X427359Y211967D01*
X427359Y211967D01*
X363231Y276095D01*
Y631479D01*
X364501Y631732D01*
X365010Y630501D01*
X366453Y628621D01*
X368333Y627178D01*
X370522Y626272D01*
X372872Y625962D01*
X375221Y626272D01*
X377411Y627178D01*
X379291Y628621D01*
X380733Y630501D01*
X380989Y631119D01*
X382259Y630866D01*
Y476304D01*
X381550Y475243D01*
X381240Y473682D01*
X381550Y472121D01*
X382434Y470798D01*
X383757Y469914D01*
X385318Y469604D01*
X386879Y469914D01*
X388202Y470798D01*
X389086Y472121D01*
X389396Y473682D01*
X389086Y475243D01*
X388377Y476304D01*
Y632093D01*
X389647Y632345D01*
X390410Y630501D01*
X391853Y628621D01*
X393733Y627178D01*
X395923Y626272D01*
X398272Y625962D01*
X400621Y626272D01*
X402811Y627178D01*
X404691Y628621D01*
X406133Y630501D01*
X407040Y632691D01*
X407350Y635040D01*
Y640040D01*
X407040Y642390D01*
X406133Y644579D01*
X404691Y646459D01*
X402811Y647902D01*
X400621Y648808D01*
X398272Y649118D01*
X395923Y648808D01*
X393733Y647902D01*
X391853Y646459D01*
X390410Y644579D01*
X389647Y642735D01*
X388377Y642988D01*
Y669036D01*
X388377Y669036D01*
X388144Y670207D01*
X387481Y671199D01*
X369073Y689607D01*
Y744220D01*
X368840Y745390D01*
X368177Y746383D01*
X368177Y746383D01*
X350531Y764029D01*
Y830066D01*
X352011Y830678D01*
X353891Y832121D01*
X355334Y834001D01*
X356240Y836190D01*
X356550Y838540D01*
Y843540D01*
X356240Y845890D01*
X355334Y848079D01*
X353891Y849959D01*
X352011Y851402D01*
X349822Y852308D01*
X347472Y852618D01*
D02*
G37*
G36*
X372872D02*
X370522Y852308D01*
X368333Y851402D01*
X366453Y849959D01*
X365010Y848079D01*
X364104Y845890D01*
X363794Y843540D01*
Y838540D01*
X364104Y836190D01*
X365010Y834001D01*
X366453Y832121D01*
X368333Y830678D01*
X370522Y829772D01*
X372872Y829462D01*
X375221Y829772D01*
X377411Y830678D01*
X378258Y831328D01*
X383783Y825803D01*
Y721901D01*
X383783Y721901D01*
X384016Y720731D01*
X384362Y720212D01*
X384288Y719836D01*
X384598Y718275D01*
X385482Y716952D01*
X386805Y716068D01*
X388366Y715758D01*
X389927Y716068D01*
X391250Y716952D01*
X392134Y718275D01*
X392444Y719836D01*
X392134Y721397D01*
X391250Y722720D01*
X389927Y723604D01*
X389901Y723609D01*
Y827070D01*
X389668Y828241D01*
X389005Y829233D01*
X389005Y829233D01*
X381688Y836550D01*
X381950Y838540D01*
Y843540D01*
X381640Y845890D01*
X380733Y848079D01*
X379291Y849959D01*
X377411Y851402D01*
X375221Y852308D01*
X372872Y852618D01*
D02*
G37*
G36*
X660654Y777762D02*
X659093Y777452D01*
X657770Y776568D01*
X656886Y775245D01*
X656576Y773684D01*
X656886Y772123D01*
X657770Y770800D01*
X659093Y769916D01*
X660345Y769667D01*
X674867Y755145D01*
Y715346D01*
X674158Y714285D01*
X673848Y712724D01*
X674158Y711163D01*
X675042Y709840D01*
X676365Y708956D01*
X677926Y708646D01*
X679487Y708956D01*
X680810Y709840D01*
X681694Y711163D01*
X682004Y712724D01*
X681694Y714285D01*
X680985Y715346D01*
Y756412D01*
X680752Y757582D01*
X680089Y758575D01*
X680089Y758575D01*
X664671Y773993D01*
X664422Y775245D01*
X663538Y776568D01*
X662215Y777452D01*
X660654Y777762D01*
D02*
G37*
G36*
X850634Y734356D02*
Y703568D01*
X881422D01*
X881092Y707761D01*
X879935Y712582D01*
X878037Y717163D01*
X875447Y721391D01*
X872227Y725161D01*
X868456Y728381D01*
X864229Y730972D01*
X859648Y732869D01*
X854827Y734026D01*
X850634Y734356D01*
D02*
G37*
G36*
X849134D02*
X844941Y734026D01*
X840120Y732869D01*
X835539Y730972D01*
X831311Y728381D01*
X827541Y725161D01*
X824321Y721391D01*
X821730Y717163D01*
X819833Y712582D01*
X818676Y707761D01*
X818346Y703568D01*
X849134D01*
Y734356D01*
D02*
G37*
G36*
X398272Y852618D02*
X395923Y852308D01*
X393733Y851402D01*
X391853Y849959D01*
X390410Y848079D01*
X389504Y845890D01*
X389194Y843540D01*
Y838540D01*
X389504Y836190D01*
X390410Y834001D01*
X391853Y832121D01*
X393733Y830678D01*
X395213Y830066D01*
Y713740D01*
X395213Y713740D01*
X395446Y712570D01*
X396109Y711577D01*
X403145Y704541D01*
X403394Y703289D01*
X404278Y701966D01*
X405601Y701082D01*
X407162Y700772D01*
X408723Y701082D01*
X410046Y701966D01*
X410930Y703289D01*
X411240Y704850D01*
X410930Y706411D01*
X410046Y707734D01*
X408723Y708618D01*
X407471Y708867D01*
X401331Y715007D01*
Y830066D01*
X402811Y830678D01*
X404691Y832121D01*
X406133Y834001D01*
X407040Y836190D01*
X407350Y838540D01*
Y843540D01*
X407040Y845890D01*
X406133Y848079D01*
X404691Y849959D01*
X402811Y851402D01*
X400621Y852308D01*
X398272Y852618D01*
D02*
G37*
G36*
X881422Y702068D02*
X850634D01*
Y671280D01*
X854827Y671610D01*
X859648Y672767D01*
X864229Y674665D01*
X868456Y677255D01*
X872227Y680475D01*
X875447Y684246D01*
X878037Y688473D01*
X879935Y693054D01*
X881092Y697875D01*
X881422Y702068D01*
D02*
G37*
G36*
X849134D02*
X818346D01*
X818676Y697875D01*
X819833Y693054D01*
X821730Y688473D01*
X824321Y684246D01*
X827541Y680475D01*
X831311Y677255D01*
X835539Y674665D01*
X840120Y672767D01*
X844941Y671610D01*
X849134Y671280D01*
Y702068D01*
D02*
G37*
G36*
X654847Y680496D02*
X653286Y680186D01*
X651963Y679302D01*
X651079Y677979D01*
X650769Y676418D01*
X651079Y674857D01*
X651788Y673796D01*
Y650633D01*
X651079Y649572D01*
X650769Y648011D01*
X651079Y646450D01*
X651963Y645127D01*
X653286Y644243D01*
X654847Y643933D01*
X656408Y644243D01*
X657731Y645127D01*
X658615Y646450D01*
X658925Y648011D01*
X658615Y649572D01*
X657906Y650633D01*
Y673796D01*
X658615Y674857D01*
X658925Y676418D01*
X658615Y677979D01*
X657731Y679302D01*
X656408Y680186D01*
X654847Y680496D01*
D02*
G37*
G36*
X474472Y852618D02*
X472122Y852308D01*
X469933Y851402D01*
X468053Y849959D01*
X466610Y848079D01*
X465704Y845890D01*
X465394Y843540D01*
Y838540D01*
X465704Y836190D01*
X466610Y834001D01*
X468053Y832121D01*
X469933Y830678D01*
X471413Y830066D01*
Y792985D01*
X421509Y743081D01*
X420846Y742088D01*
X420613Y740918D01*
X420613Y740918D01*
Y689099D01*
X410095Y678581D01*
X409432Y677589D01*
X409199Y676418D01*
X409199Y676418D01*
Y627631D01*
X397887Y616319D01*
X397224Y615326D01*
X396991Y614156D01*
X396991Y614156D01*
Y324866D01*
X396991Y324866D01*
X397224Y323695D01*
X397887Y322703D01*
X533447Y187143D01*
X533696Y185891D01*
X534580Y184568D01*
X535903Y183684D01*
X537464Y183374D01*
X539025Y183684D01*
X540348Y184568D01*
X541232Y185891D01*
X541542Y187452D01*
X541232Y189013D01*
X540348Y190336D01*
X539025Y191220D01*
X537773Y191469D01*
X403109Y326133D01*
Y612889D01*
X414421Y624201D01*
X414421Y624201D01*
X415084Y625193D01*
X415317Y626364D01*
Y629058D01*
X416587Y629490D01*
X417253Y628621D01*
X419133Y627178D01*
X421323Y626272D01*
X422922Y626061D01*
Y637540D01*
Y649019D01*
X421323Y648808D01*
X419133Y647902D01*
X417253Y646459D01*
X416587Y645591D01*
X415317Y646021D01*
Y675151D01*
X425835Y685669D01*
X426498Y686662D01*
X426731Y687832D01*
Y739651D01*
X476635Y789555D01*
X477298Y790547D01*
X477531Y791718D01*
Y830066D01*
X479011Y830678D01*
X480891Y832121D01*
X482333Y834001D01*
X483240Y836190D01*
X483550Y838540D01*
Y843540D01*
X483240Y845890D01*
X482333Y848079D01*
X480891Y849959D01*
X479011Y851402D01*
X476822Y852308D01*
X474472Y852618D01*
D02*
G37*
G36*
X499872Y649118D02*
X497523Y648808D01*
X495333Y647902D01*
X493453Y646459D01*
X492010Y644579D01*
X491104Y642390D01*
X490794Y640040D01*
Y635040D01*
X491104Y632691D01*
X492010Y630501D01*
X493453Y628621D01*
X495333Y627178D01*
X497523Y626272D01*
X499872Y625962D01*
X502221Y626272D01*
X504411Y627178D01*
X506291Y628621D01*
X507733Y630501D01*
X508640Y632691D01*
X508950Y635040D01*
Y640040D01*
X508640Y642390D01*
X507733Y644579D01*
X506291Y646459D01*
X504411Y647902D01*
X502221Y648808D01*
X499872Y649118D01*
D02*
G37*
G36*
X296672D02*
X294322Y648808D01*
X292133Y647902D01*
X290253Y646459D01*
X288811Y644579D01*
X287904Y642390D01*
X287594Y640040D01*
Y635040D01*
X287904Y632691D01*
X288811Y630501D01*
X290253Y628621D01*
X292133Y627178D01*
X294322Y626272D01*
X296672Y625962D01*
X299021Y626272D01*
X301211Y627178D01*
X303091Y628621D01*
X304534Y630501D01*
X305440Y632691D01*
X305750Y635040D01*
Y640040D01*
X305440Y642390D01*
X304534Y644579D01*
X303091Y646459D01*
X301211Y647902D01*
X299021Y648808D01*
X296672Y649118D01*
D02*
G37*
G36*
X271272D02*
X268923Y648808D01*
X266733Y647902D01*
X264853Y646459D01*
X263410Y644579D01*
X262504Y642390D01*
X262194Y640040D01*
Y635040D01*
X262504Y632691D01*
X263410Y630501D01*
X264853Y628621D01*
X266733Y627178D01*
X268923Y626272D01*
X271272Y625962D01*
X273622Y626272D01*
X275811Y627178D01*
X277691Y628621D01*
X279133Y630501D01*
X280040Y632691D01*
X280350Y635040D01*
Y640040D01*
X280040Y642390D01*
X279133Y644579D01*
X277691Y646459D01*
X275811Y647902D01*
X273622Y648808D01*
X271272Y649118D01*
D02*
G37*
G36*
X245872D02*
X243522Y648808D01*
X241333Y647902D01*
X239453Y646459D01*
X238011Y644579D01*
X237104Y642390D01*
X236794Y640040D01*
Y635040D01*
X237104Y632691D01*
X238011Y630501D01*
X239453Y628621D01*
X241333Y627178D01*
X243522Y626272D01*
X245872Y625962D01*
X248221Y626272D01*
X250411Y627178D01*
X252291Y628621D01*
X253734Y630501D01*
X254640Y632691D01*
X254950Y635040D01*
Y640040D01*
X254640Y642390D01*
X253734Y644579D01*
X252291Y646459D01*
X250411Y647902D01*
X248221Y648808D01*
X245872Y649118D01*
D02*
G37*
G36*
X220472D02*
X218123Y648808D01*
X215933Y647902D01*
X214053Y646459D01*
X212610Y644579D01*
X211704Y642390D01*
X211394Y640040D01*
Y635040D01*
X211704Y632691D01*
X212610Y630501D01*
X214053Y628621D01*
X215933Y627178D01*
X218123Y626272D01*
X220472Y625962D01*
X222822Y626272D01*
X225011Y627178D01*
X226891Y628621D01*
X228333Y630501D01*
X229240Y632691D01*
X229550Y635040D01*
Y640040D01*
X229240Y642390D01*
X228333Y644579D01*
X226891Y646459D01*
X225011Y647902D01*
X222822Y648808D01*
X220472Y649118D01*
D02*
G37*
G36*
X195072D02*
X192722Y648808D01*
X190533Y647902D01*
X188653Y646459D01*
X187211Y644579D01*
X186304Y642390D01*
X185994Y640040D01*
Y635040D01*
X186304Y632691D01*
X187211Y630501D01*
X188653Y628621D01*
X190533Y627178D01*
X192722Y626272D01*
X195072Y625962D01*
X197421Y626272D01*
X199611Y627178D01*
X201491Y628621D01*
X202934Y630501D01*
X203840Y632691D01*
X204150Y635040D01*
Y640040D01*
X203840Y642390D01*
X202934Y644579D01*
X201491Y646459D01*
X199611Y647902D01*
X197421Y648808D01*
X195072Y649118D01*
D02*
G37*
G36*
X169672D02*
X167323Y648808D01*
X165133Y647902D01*
X163253Y646459D01*
X161810Y644579D01*
X160904Y642390D01*
X160594Y640040D01*
Y635040D01*
X160904Y632691D01*
X161810Y630501D01*
X163253Y628621D01*
X165133Y627178D01*
X167323Y626272D01*
X169672Y625962D01*
X172022Y626272D01*
X174211Y627178D01*
X176091Y628621D01*
X177533Y630501D01*
X178440Y632691D01*
X178750Y635040D01*
Y640040D01*
X178440Y642390D01*
X177533Y644579D01*
X176091Y646459D01*
X174211Y647902D01*
X172022Y648808D01*
X169672Y649118D01*
D02*
G37*
G36*
X474472D02*
X472122Y648808D01*
X469933Y647902D01*
X468053Y646459D01*
X466610Y644579D01*
X465704Y642390D01*
X465394Y640040D01*
Y635040D01*
X465704Y632691D01*
X466610Y630501D01*
X468053Y628621D01*
X469933Y627178D01*
X470394Y626988D01*
Y592450D01*
X469972D01*
Y583450D01*
X482472D01*
Y592450D01*
X478550D01*
Y626988D01*
X479011Y627178D01*
X480891Y628621D01*
X482333Y630501D01*
X483240Y632691D01*
X483550Y635040D01*
Y640040D01*
X483240Y642390D01*
X482333Y644579D01*
X480891Y646459D01*
X479011Y647902D01*
X476822Y648808D01*
X474472Y649118D01*
D02*
G37*
G36*
X657092Y598532D02*
X652934Y598205D01*
X648878Y597231D01*
X645024Y595635D01*
X641468Y593455D01*
X638296Y590746D01*
X635587Y587575D01*
X633407Y584018D01*
X631811Y580164D01*
X630837Y576108D01*
X630510Y571950D01*
X630837Y567792D01*
X631811Y563736D01*
X633407Y559882D01*
X635587Y556325D01*
X638296Y553154D01*
X641468Y550445D01*
X645024Y548265D01*
X648878Y546669D01*
X652934Y545695D01*
X657092Y545368D01*
X661250Y545695D01*
X665306Y546669D01*
X669160Y548265D01*
X672717Y550445D01*
X675888Y553154D01*
X678597Y556325D01*
X680777Y559882D01*
X682373Y563736D01*
X683347Y567792D01*
X683674Y571950D01*
X683347Y576108D01*
X682373Y580164D01*
X680777Y584018D01*
X678597Y587575D01*
X675888Y590746D01*
X672717Y593455D01*
X669160Y595635D01*
X665306Y597231D01*
X661250Y598205D01*
X657092Y598532D01*
D02*
G37*
G36*
X42592Y598432D02*
X38434Y598105D01*
X34378Y597131D01*
X30524Y595535D01*
X26967Y593355D01*
X23796Y590646D01*
X21087Y587475D01*
X18907Y583918D01*
X17311Y580064D01*
X16337Y576008D01*
X16010Y571850D01*
X16337Y567692D01*
X17311Y563636D01*
X18907Y559782D01*
X21087Y556226D01*
X23796Y553054D01*
X26967Y550345D01*
X30524Y548165D01*
X34378Y546569D01*
X38434Y545595D01*
X42592Y545268D01*
X46750Y545595D01*
X50806Y546569D01*
X54660Y548165D01*
X58217Y550345D01*
X61388Y553054D01*
X64097Y556226D01*
X66277Y559782D01*
X67873Y563636D01*
X68847Y567692D01*
X69174Y571850D01*
X68847Y576008D01*
X67873Y580064D01*
X66277Y583918D01*
X64097Y587475D01*
X61388Y590646D01*
X58217Y593355D01*
X54660Y595535D01*
X50806Y597131D01*
X46750Y598105D01*
X42592Y598432D01*
D02*
G37*
G36*
X677592Y511632D02*
X667592D01*
X665112Y511306D01*
X662801Y510348D01*
X660816Y508825D01*
X659294Y506841D01*
X658336Y504530D01*
X658010Y502050D01*
X658336Y499570D01*
X659294Y497259D01*
X660816Y495275D01*
X662801Y493752D01*
X665112Y492794D01*
X667592Y492468D01*
X677592D01*
X680072Y492794D01*
X682383Y493752D01*
X684368Y495275D01*
X685890Y497259D01*
X686848Y499570D01*
X687174Y502050D01*
X686848Y504530D01*
X685890Y506841D01*
X684368Y508825D01*
X682383Y510348D01*
X680072Y511306D01*
X677592Y511632D01*
D02*
G37*
G36*
X640094Y507207D02*
X640094Y507207D01*
X566232D01*
X565061Y506974D01*
X564069Y506311D01*
X564069Y506311D01*
X540344Y482586D01*
X539787Y482958D01*
X538226Y483268D01*
X536665Y482958D01*
X535342Y482074D01*
X534458Y480751D01*
X534148Y479190D01*
X534458Y477629D01*
X535342Y476306D01*
X536665Y475422D01*
X538226Y475112D01*
X539787Y475422D01*
X540848Y476131D01*
X541274D01*
X541274Y476131D01*
X542444Y476364D01*
X543437Y477027D01*
X567499Y501089D01*
X638827D01*
X659054Y480862D01*
X658336Y479130D01*
X658010Y476650D01*
X658336Y474170D01*
X659294Y471859D01*
X660816Y469874D01*
X662801Y468352D01*
X665112Y467394D01*
X667592Y467068D01*
X677592D01*
X680072Y467394D01*
X682383Y468352D01*
X684368Y469874D01*
X685890Y471859D01*
X686848Y474170D01*
X687174Y476650D01*
X686848Y479130D01*
X685890Y481441D01*
X684368Y483425D01*
X682383Y484948D01*
X680072Y485905D01*
X677592Y486232D01*
X667592D01*
X665112Y485905D01*
X663380Y485188D01*
X642257Y506311D01*
X641264Y506974D01*
X640094Y507207D01*
D02*
G37*
G36*
X677592Y460432D02*
X667592D01*
X665112Y460106D01*
X662801Y459148D01*
X660816Y457625D01*
X659294Y455641D01*
X658336Y453330D01*
X658010Y450850D01*
X658336Y448370D01*
X659294Y446059D01*
X660816Y444075D01*
X662801Y442552D01*
X665112Y441595D01*
X667592Y441268D01*
X677592D01*
X680072Y441595D01*
X682383Y442552D01*
X684368Y444075D01*
X685890Y446059D01*
X686848Y448370D01*
X687174Y450850D01*
X686848Y453330D01*
X685890Y455641D01*
X684368Y457625D01*
X682383Y459148D01*
X680072Y460106D01*
X677592Y460432D01*
D02*
G37*
G36*
X619760Y498362D02*
X618199Y498052D01*
X616876Y497168D01*
X615992Y495845D01*
X615682Y494284D01*
X615992Y492723D01*
X616701Y491662D01*
Y473682D01*
X616701Y473682D01*
X616934Y472511D01*
X617597Y471519D01*
X659054Y430062D01*
X658336Y428330D01*
X658010Y425850D01*
X658336Y423370D01*
X659294Y421059D01*
X660816Y419075D01*
X662801Y417552D01*
X665112Y416595D01*
X667592Y416268D01*
X677592D01*
X680072Y416595D01*
X682383Y417552D01*
X684368Y419075D01*
X685890Y421059D01*
X686848Y423370D01*
X687174Y425850D01*
X686848Y428330D01*
X685890Y430641D01*
X684368Y432625D01*
X682383Y434148D01*
X680072Y435106D01*
X677592Y435432D01*
X667592D01*
X665112Y435106D01*
X663380Y434388D01*
X622819Y474949D01*
Y491662D01*
X623528Y492723D01*
X623838Y494284D01*
X623528Y495845D01*
X622644Y497168D01*
X621321Y498052D01*
X619760Y498362D01*
D02*
G37*
G36*
X780038Y671186D02*
X778477Y670876D01*
X777154Y669992D01*
X776270Y668669D01*
X775960Y667108D01*
X776270Y665547D01*
X776979Y664486D01*
Y432830D01*
X767095Y422946D01*
X765843Y422697D01*
X764520Y421813D01*
X763636Y420490D01*
X763326Y418929D01*
X763636Y417368D01*
X764520Y416045D01*
X765843Y415161D01*
X767404Y414851D01*
X768965Y415161D01*
X770288Y416045D01*
X771172Y417368D01*
X771421Y418620D01*
X782201Y429400D01*
X782201Y429400D01*
X782864Y430392D01*
X783097Y431563D01*
X783097Y431563D01*
Y664486D01*
X783806Y665547D01*
X784116Y667108D01*
X783806Y668669D01*
X782922Y669992D01*
X781599Y670876D01*
X780038Y671186D01*
D02*
G37*
G36*
X677592Y410032D02*
X667592D01*
X665112Y409706D01*
X662801Y408748D01*
X660816Y407225D01*
X659294Y405241D01*
X658336Y402930D01*
X658010Y400450D01*
X658336Y397970D01*
X659294Y395659D01*
X660816Y393675D01*
X662801Y392152D01*
X665112Y391194D01*
X667592Y390868D01*
X677592D01*
X680072Y391194D01*
X682383Y392152D01*
X684368Y393675D01*
X685890Y395659D01*
X686848Y397970D01*
X687174Y400450D01*
X686848Y402930D01*
X685890Y405241D01*
X684368Y407225D01*
X682383Y408748D01*
X680072Y409706D01*
X677592Y410032D01*
D02*
G37*
G36*
Y384632D02*
X667592D01*
X665112Y384305D01*
X662801Y383348D01*
X660816Y381825D01*
X659294Y379841D01*
X658336Y377530D01*
X658010Y375050D01*
X658336Y372570D01*
X659294Y370259D01*
X660816Y368274D01*
X662801Y366752D01*
X665112Y365794D01*
X667592Y365468D01*
X677592D01*
X680072Y365794D01*
X682383Y366752D01*
X684368Y368274D01*
X685890Y370259D01*
X686848Y372570D01*
X687174Y375050D01*
X686848Y377530D01*
X685890Y379841D01*
X684368Y381825D01*
X682383Y383348D01*
X680072Y384305D01*
X677592Y384632D01*
D02*
G37*
G36*
X239776Y360694D02*
X238215Y360384D01*
X236892Y359500D01*
X236839Y359421D01*
X134662D01*
X134662Y359421D01*
X133491Y359188D01*
X132499Y358525D01*
X132499Y358525D01*
X120618Y346644D01*
X119091Y347816D01*
X116780Y348773D01*
X114300Y349100D01*
X111820Y348773D01*
X109509Y347816D01*
X107524Y346293D01*
X106002Y344309D01*
X105044Y341998D01*
X104718Y339518D01*
Y329518D01*
X105044Y327038D01*
X106002Y324727D01*
X107524Y322743D01*
X109509Y321220D01*
X111820Y320262D01*
X114300Y319936D01*
X116780Y320262D01*
X119091Y321220D01*
X121075Y322743D01*
X122598Y324727D01*
X123555Y327038D01*
X123882Y329518D01*
Y339518D01*
X123680Y341054D01*
X135929Y353303D01*
X237534D01*
X238215Y352848D01*
X239776Y352538D01*
X241337Y352848D01*
X242660Y353732D01*
X243544Y355055D01*
X243854Y356616D01*
X243544Y358177D01*
X242660Y359500D01*
X241337Y360384D01*
X239776Y360694D01*
D02*
G37*
G36*
X835246Y367767D02*
X832244Y367372D01*
X829446Y366213D01*
X827044Y364370D01*
X825201Y361968D01*
X824042Y359170D01*
X823647Y356168D01*
X824042Y353166D01*
X825201Y350368D01*
X827044Y347966D01*
X829446Y346123D01*
X832244Y344964D01*
X835246Y344569D01*
X838248Y344964D01*
X841046Y346123D01*
X843448Y347966D01*
X845291Y350368D01*
X846450Y353166D01*
X846845Y356168D01*
X846450Y359170D01*
X845291Y361968D01*
X843448Y364370D01*
X841046Y366213D01*
X838248Y367372D01*
X835246Y367767D01*
D02*
G37*
G36*
X677592Y359232D02*
X667592D01*
X665112Y358905D01*
X662801Y357948D01*
X660816Y356425D01*
X659294Y354441D01*
X658336Y352130D01*
X658010Y349650D01*
X658336Y347170D01*
X659294Y344859D01*
X660816Y342874D01*
X662801Y341352D01*
X665112Y340395D01*
X667592Y340068D01*
X677592D01*
X680072Y340395D01*
X682383Y341352D01*
X684368Y342874D01*
X685890Y344859D01*
X686848Y347170D01*
X687174Y349650D01*
X686848Y352130D01*
X685890Y354441D01*
X684368Y356425D01*
X682383Y357948D01*
X680072Y358905D01*
X677592Y359232D01*
D02*
G37*
G36*
X90050Y349001D02*
Y335268D01*
X98882D01*
Y339518D01*
X98555Y341998D01*
X97598Y344309D01*
X96075Y346293D01*
X94091Y347816D01*
X91780Y348773D01*
X90050Y349001D01*
D02*
G37*
G36*
X88550D02*
X86820Y348773D01*
X84509Y347816D01*
X82524Y346293D01*
X81002Y344309D01*
X80044Y341998D01*
X79718Y339518D01*
Y335268D01*
X88550D01*
Y349001D01*
D02*
G37*
G36*
X825246Y335733D02*
X823288Y335475D01*
X821464Y334719D01*
X819897Y333517D01*
X818695Y331950D01*
X818395Y331227D01*
X798093D01*
X797032Y331936D01*
X795471Y332246D01*
X793910Y331936D01*
X792587Y331052D01*
X791703Y329729D01*
X791454Y328477D01*
X764886Y301909D01*
X686608D01*
X685890Y303641D01*
X684368Y305625D01*
X682383Y307148D01*
X680072Y308106D01*
X677592Y308432D01*
X667592D01*
X665112Y308106D01*
X662801Y307148D01*
X660816Y305625D01*
X659294Y303641D01*
X658336Y301330D01*
X658010Y298850D01*
X658336Y296370D01*
X659294Y294059D01*
X660816Y292075D01*
X662801Y290552D01*
X665112Y289594D01*
X667592Y289268D01*
X677592D01*
X680072Y289594D01*
X682383Y290552D01*
X684368Y292075D01*
X685890Y294059D01*
X686608Y295791D01*
X766153D01*
X766153Y295791D01*
X767324Y296024D01*
X768316Y296687D01*
X795780Y324151D01*
X797032Y324400D01*
X798093Y325109D01*
X818395D01*
X818695Y324386D01*
X819897Y322819D01*
X821464Y321617D01*
X823288Y320861D01*
X825246Y320603D01*
X827204Y320861D01*
X829028Y321617D01*
X830595Y322819D01*
X831797Y324386D01*
X832553Y326210D01*
X832811Y328168D01*
X832553Y330126D01*
X831797Y331950D01*
X830595Y333517D01*
X829028Y334719D01*
X827204Y335475D01*
X825246Y335733D01*
D02*
G37*
G36*
X677592Y333432D02*
X673342D01*
Y324600D01*
X687075D01*
X686848Y326330D01*
X685890Y328641D01*
X684368Y330625D01*
X682383Y332148D01*
X680072Y333106D01*
X677592Y333432D01*
D02*
G37*
G36*
X671842D02*
X667592D01*
X665112Y333106D01*
X662801Y332148D01*
X660816Y330625D01*
X659294Y328641D01*
X658336Y326330D01*
X658109Y324600D01*
X671842D01*
Y333432D01*
D02*
G37*
G36*
X845246Y335733D02*
X843288Y335475D01*
X841464Y334719D01*
X839897Y333517D01*
X838695Y331950D01*
X837939Y330126D01*
X837681Y328168D01*
X837939Y326210D01*
X838695Y324386D01*
X839897Y322819D01*
X841464Y321617D01*
X843288Y320861D01*
X845246Y320603D01*
X847204Y320861D01*
X849028Y321617D01*
X850595Y322819D01*
X851797Y324386D01*
X852553Y326210D01*
X852811Y328168D01*
X852553Y330126D01*
X851797Y331950D01*
X850595Y333517D01*
X849028Y334719D01*
X847204Y335475D01*
X845246Y335733D01*
D02*
G37*
G36*
X98882Y333768D02*
X90050D01*
Y320035D01*
X91780Y320262D01*
X94091Y321220D01*
X96075Y322743D01*
X97598Y324727D01*
X98555Y327038D01*
X98882Y329518D01*
Y333768D01*
D02*
G37*
G36*
X88550D02*
X79718D01*
Y329518D01*
X80044Y327038D01*
X81002Y324727D01*
X82524Y322743D01*
X84509Y321220D01*
X86820Y320262D01*
X88550Y320035D01*
Y333768D01*
D02*
G37*
G36*
X165500Y349100D02*
X163020Y348773D01*
X160709Y347816D01*
X158724Y346293D01*
X157202Y344309D01*
X156244Y341998D01*
X155918Y339518D01*
Y329518D01*
X156244Y327038D01*
X157202Y324727D01*
X158724Y322743D01*
X160709Y321220D01*
X163020Y320262D01*
X165500Y319936D01*
X167980Y320262D01*
X170291Y321220D01*
X172275Y322743D01*
X173798Y324727D01*
X174755Y327038D01*
X175082Y329518D01*
Y339518D01*
X174755Y341998D01*
X173798Y344309D01*
X172275Y346293D01*
X170291Y347816D01*
X167980Y348773D01*
X165500Y349100D01*
D02*
G37*
G36*
X687075Y323100D02*
X673342D01*
Y314268D01*
X677592D01*
X680072Y314594D01*
X682383Y315552D01*
X684368Y317075D01*
X685890Y319059D01*
X686848Y321370D01*
X687075Y323100D01*
D02*
G37*
G36*
X671842D02*
X658109D01*
X658336Y321370D01*
X659294Y319059D01*
X660816Y317075D01*
X662801Y315552D01*
X665112Y314594D01*
X667592Y314268D01*
X671842D01*
Y323100D01*
D02*
G37*
G36*
X845246Y315733D02*
X843288Y315475D01*
X841464Y314719D01*
X839897Y313517D01*
X838695Y311950D01*
X837939Y310126D01*
X837681Y308168D01*
X837939Y306210D01*
X838695Y304386D01*
X839897Y302819D01*
X841464Y301617D01*
X843288Y300861D01*
X845246Y300603D01*
X847204Y300861D01*
X849028Y301617D01*
X850595Y302819D01*
X851797Y304386D01*
X852553Y306210D01*
X852811Y308168D01*
X852553Y310126D01*
X851797Y311950D01*
X850595Y313517D01*
X849028Y314719D01*
X847204Y315475D01*
X845246Y315733D01*
D02*
G37*
G36*
X825246D02*
X823288Y315475D01*
X821464Y314719D01*
X819897Y313517D01*
X818695Y311950D01*
X817939Y310126D01*
X817681Y308168D01*
X817939Y306210D01*
X818695Y304386D01*
X819897Y302819D01*
X821464Y301617D01*
X823288Y300861D01*
X825246Y300603D01*
X827204Y300861D01*
X829028Y301617D01*
X830595Y302819D01*
X831797Y304386D01*
X832553Y306210D01*
X832811Y308168D01*
X832553Y310126D01*
X831797Y311950D01*
X830595Y313517D01*
X829028Y314719D01*
X827204Y315475D01*
X825246Y315733D01*
D02*
G37*
G36*
X825996Y295634D02*
Y288918D01*
X832712D01*
X832553Y290126D01*
X831797Y291950D01*
X830595Y293517D01*
X829028Y294719D01*
X827204Y295475D01*
X825996Y295634D01*
D02*
G37*
G36*
X824496D02*
X823288Y295475D01*
X821464Y294719D01*
X819897Y293517D01*
X818695Y291950D01*
X817939Y290126D01*
X817780Y288918D01*
X824496D01*
Y295634D01*
D02*
G37*
G36*
X832712Y287418D02*
X825996D01*
Y280702D01*
X827204Y280861D01*
X829028Y281617D01*
X830595Y282819D01*
X831797Y284386D01*
X832553Y286210D01*
X832712Y287418D01*
D02*
G37*
G36*
X824496D02*
X817780D01*
X817939Y286210D01*
X818695Y284386D01*
X819897Y282819D01*
X821464Y281617D01*
X823288Y280861D01*
X824496Y280702D01*
Y287418D01*
D02*
G37*
G36*
X845246Y295733D02*
X843288Y295475D01*
X841464Y294719D01*
X839897Y293517D01*
X838695Y291950D01*
X837939Y290126D01*
X837681Y288168D01*
X837939Y286210D01*
X838695Y284386D01*
X839897Y282819D01*
X841464Y281617D01*
X843288Y280861D01*
X845246Y280603D01*
X847204Y280861D01*
X849028Y281617D01*
X850595Y282819D01*
X851797Y284386D01*
X852553Y286210D01*
X852811Y288168D01*
X852553Y290126D01*
X851797Y291950D01*
X850595Y293517D01*
X849028Y294719D01*
X847204Y295475D01*
X845246Y295733D01*
D02*
G37*
G36*
X835246Y271767D02*
X832244Y271372D01*
X829446Y270213D01*
X827044Y268370D01*
X825201Y265968D01*
X824042Y263170D01*
X823647Y260168D01*
X824042Y257166D01*
X825201Y254368D01*
X827044Y251966D01*
X829446Y250123D01*
X832244Y248964D01*
X835246Y248569D01*
X838248Y248964D01*
X841046Y250123D01*
X843448Y251966D01*
X845291Y254368D01*
X846450Y257166D01*
X846845Y260168D01*
X846450Y263170D01*
X845291Y265968D01*
X843448Y268370D01*
X841046Y270213D01*
X838248Y271372D01*
X835246Y271767D01*
D02*
G37*
G36*
X43092Y255432D02*
X38934Y255105D01*
X34878Y254131D01*
X31024Y252535D01*
X27468Y250355D01*
X24296Y247646D01*
X21587Y244475D01*
X19407Y240918D01*
X17811Y237064D01*
X16837Y233008D01*
X16510Y228850D01*
X16837Y224692D01*
X17811Y220636D01*
X19407Y216782D01*
X21587Y213225D01*
X24296Y210054D01*
X27468Y207345D01*
X31024Y205165D01*
X34878Y203569D01*
X38934Y202595D01*
X43092Y202268D01*
X47250Y202595D01*
X51306Y203569D01*
X55160Y205165D01*
X58717Y207345D01*
X61888Y210054D01*
X64597Y213225D01*
X66777Y216782D01*
X68373Y220636D01*
X69347Y224692D01*
X69674Y228850D01*
X69347Y233008D01*
X68373Y237064D01*
X66777Y240918D01*
X64597Y244475D01*
X61888Y247646D01*
X58717Y250355D01*
X55160Y252535D01*
X51306Y254131D01*
X47250Y255105D01*
X43092Y255432D01*
D02*
G37*
G36*
X657092Y253832D02*
X652934Y253505D01*
X648878Y252531D01*
X645024Y250935D01*
X641468Y248755D01*
X638296Y246046D01*
X635587Y242875D01*
X633407Y239318D01*
X631811Y235464D01*
X630837Y231408D01*
X630510Y227250D01*
X630837Y223092D01*
X631811Y219036D01*
X633407Y215182D01*
X635587Y211625D01*
X638296Y208454D01*
X641468Y205745D01*
X645024Y203565D01*
X648878Y201969D01*
X652934Y200995D01*
X657092Y200668D01*
X661250Y200995D01*
X665306Y201969D01*
X669160Y203565D01*
X672717Y205745D01*
X675888Y208454D01*
X678597Y211625D01*
X680777Y215182D01*
X682373Y219036D01*
X683347Y223092D01*
X683674Y227250D01*
X683347Y231408D01*
X682373Y235464D01*
X680777Y239318D01*
X678597Y242875D01*
X675888Y246046D01*
X672717Y248755D01*
X669160Y250935D01*
X665306Y252531D01*
X661250Y253505D01*
X657092Y253832D01*
D02*
G37*
G36*
X492805Y516198D02*
X491244Y515887D01*
X489921Y515003D01*
X489037Y513680D01*
X488726Y512119D01*
X489037Y510559D01*
X489746Y509497D01*
Y251416D01*
X489746Y251415D01*
X489979Y250245D01*
X490642Y249253D01*
X560625Y179269D01*
X560874Y178017D01*
X561758Y176694D01*
X563081Y175810D01*
X564642Y175500D01*
X566203Y175810D01*
X567526Y176694D01*
X568410Y178017D01*
X568720Y179578D01*
X568410Y181139D01*
X567526Y182462D01*
X566203Y183346D01*
X564951Y183595D01*
X495863Y252682D01*
Y509497D01*
X496572Y510559D01*
X496883Y512119D01*
X496572Y513680D01*
X495688Y515003D01*
X494365Y515887D01*
X492805Y516198D01*
D02*
G37*
G36*
X850634Y185970D02*
Y155182D01*
X881422D01*
X881092Y159375D01*
X879935Y164196D01*
X878037Y168777D01*
X875447Y173004D01*
X872227Y176775D01*
X868456Y179995D01*
X864229Y182586D01*
X859648Y184483D01*
X854827Y185640D01*
X850634Y185970D01*
D02*
G37*
G36*
X849134D02*
X844941Y185640D01*
X840120Y184483D01*
X835539Y182586D01*
X831311Y179995D01*
X827541Y176775D01*
X824321Y173004D01*
X821730Y168777D01*
X819833Y164196D01*
X818676Y159375D01*
X818346Y155182D01*
X849134D01*
Y185970D01*
D02*
G37*
G36*
X881422Y153682D02*
X850634D01*
Y122894D01*
X854827Y123224D01*
X859648Y124381D01*
X864229Y126278D01*
X868456Y128869D01*
X872227Y132089D01*
X875447Y135859D01*
X878037Y140087D01*
X879935Y144668D01*
X881092Y149489D01*
X881422Y153682D01*
D02*
G37*
G36*
X849134D02*
X818346D01*
X818676Y149489D01*
X819833Y144668D01*
X821730Y140087D01*
X824321Y135859D01*
X827541Y132089D01*
X831311Y128869D01*
X835539Y126278D01*
X840120Y124381D01*
X844941Y123224D01*
X849134Y122894D01*
Y153682D01*
D02*
G37*
G36*
X460346Y50073D02*
Y36340D01*
X469178D01*
Y40590D01*
X468851Y43070D01*
X467894Y45381D01*
X466371Y47365D01*
X464387Y48888D01*
X462076Y49845D01*
X460346Y50073D01*
D02*
G37*
G36*
X161973D02*
Y36340D01*
X170805D01*
Y40590D01*
X170479Y43070D01*
X169521Y45381D01*
X167999Y47365D01*
X166014Y48888D01*
X163703Y49845D01*
X161973Y50073D01*
D02*
G37*
G36*
X458846D02*
X457116Y49845D01*
X454805Y48888D01*
X452821Y47365D01*
X451298Y45381D01*
X450340Y43070D01*
X450014Y40590D01*
Y36340D01*
X458846D01*
Y50073D01*
D02*
G37*
G36*
X160473D02*
X158743Y49845D01*
X156432Y48888D01*
X154448Y47365D01*
X152925Y45381D01*
X151968Y43070D01*
X151641Y40590D01*
Y36340D01*
X160473D01*
Y50073D01*
D02*
G37*
G36*
X547496D02*
Y36340D01*
X556328D01*
Y40590D01*
X556001Y43070D01*
X555044Y45381D01*
X553521Y47365D01*
X551537Y48888D01*
X549226Y49845D01*
X547496Y50073D01*
D02*
G37*
G36*
X545996D02*
X544266Y49845D01*
X541955Y48888D01*
X539971Y47365D01*
X538448Y45381D01*
X537491Y43070D01*
X537164Y40590D01*
Y36340D01*
X545996D01*
Y50073D01*
D02*
G37*
G36*
X274446D02*
Y36340D01*
X283278D01*
Y40590D01*
X282951Y43070D01*
X281994Y45381D01*
X280471Y47365D01*
X278487Y48888D01*
X276176Y49845D01*
X274446Y50073D01*
D02*
G37*
G36*
X52820D02*
Y36340D01*
X61652D01*
Y40590D01*
X61325Y43070D01*
X60368Y45381D01*
X58846Y47365D01*
X56861Y48888D01*
X54550Y49845D01*
X52820Y50073D01*
D02*
G37*
G36*
X272946D02*
X271216Y49845D01*
X268905Y48888D01*
X266921Y47365D01*
X265398Y45381D01*
X264440Y43070D01*
X264114Y40590D01*
Y36340D01*
X272946D01*
Y50073D01*
D02*
G37*
G36*
X51320D02*
X49590Y49845D01*
X47279Y48888D01*
X45294Y47365D01*
X43772Y45381D01*
X42814Y43070D01*
X42488Y40590D01*
Y36340D01*
X51320D01*
Y50073D01*
D02*
G37*
G36*
X723742Y32827D02*
Y23102D01*
X731565D01*
Y24352D01*
X731273Y26571D01*
X730417Y28639D01*
X729054Y30414D01*
X727279Y31777D01*
X725211Y32633D01*
X723742Y32827D01*
D02*
G37*
G36*
X722242D02*
X720773Y32633D01*
X718705Y31777D01*
X716930Y30414D01*
X715567Y28639D01*
X714711Y26571D01*
X714419Y24352D01*
Y23102D01*
X722242D01*
Y32827D01*
D02*
G37*
G36*
X469178Y34840D02*
X460346D01*
Y21107D01*
X462076Y21334D01*
X464387Y22292D01*
X466371Y23814D01*
X467894Y25799D01*
X468851Y28110D01*
X469178Y30590D01*
Y34840D01*
D02*
G37*
G36*
X170805D02*
X161973D01*
Y21107D01*
X163703Y21334D01*
X166014Y22292D01*
X167999Y23814D01*
X169521Y25799D01*
X170479Y28110D01*
X170805Y30590D01*
Y34840D01*
D02*
G37*
G36*
X272946Y34840D02*
X264114D01*
Y30590D01*
X264440Y28110D01*
X265398Y25799D01*
X266921Y23814D01*
X268905Y22292D01*
X271216Y21334D01*
X272946Y21107D01*
Y34840D01*
D02*
G37*
G36*
X51320D02*
X42488D01*
Y30590D01*
X42814Y28110D01*
X43772Y25799D01*
X45294Y23814D01*
X47279Y22292D01*
X49590Y21334D01*
X51320Y21107D01*
Y34840D01*
D02*
G37*
G36*
X556328Y34840D02*
X547496D01*
Y21107D01*
X549226Y21334D01*
X551537Y22292D01*
X553521Y23814D01*
X555044Y25799D01*
X556001Y28110D01*
X556328Y30590D01*
Y34840D01*
D02*
G37*
G36*
X545996D02*
X537164D01*
Y30590D01*
X537491Y28110D01*
X538448Y25799D01*
X539971Y23814D01*
X541955Y22292D01*
X544266Y21334D01*
X545996Y21107D01*
Y34840D01*
D02*
G37*
G36*
X61652Y34840D02*
X52820D01*
Y21107D01*
X54550Y21334D01*
X56861Y22292D01*
X58846Y23814D01*
X60368Y25799D01*
X61325Y28110D01*
X61652Y30590D01*
Y34840D01*
D02*
G37*
G36*
X283278D02*
X274446D01*
Y21107D01*
X276176Y21334D01*
X278487Y22292D01*
X280471Y23814D01*
X281994Y25799D01*
X282951Y28110D01*
X283278Y30590D01*
Y34840D01*
D02*
G37*
G36*
X458846Y34840D02*
X450014D01*
Y30590D01*
X450340Y28110D01*
X451298Y25799D01*
X452821Y23814D01*
X454805Y22292D01*
X457116Y21334D01*
X458846Y21107D01*
Y34840D01*
D02*
G37*
G36*
X160473D02*
X151641D01*
Y30590D01*
X151968Y28110D01*
X152925Y25799D01*
X154448Y23814D01*
X156432Y22292D01*
X158743Y21334D01*
X160473Y21107D01*
Y34840D01*
D02*
G37*
G36*
X571746Y50172D02*
X569266Y49845D01*
X566955Y48888D01*
X564971Y47365D01*
X563448Y45381D01*
X562491Y43070D01*
X562164Y40590D01*
Y30590D01*
X562491Y28110D01*
X563448Y25799D01*
X564971Y23814D01*
X566955Y22292D01*
X569266Y21334D01*
X571746Y21008D01*
X574226Y21334D01*
X576537Y22292D01*
X578521Y23814D01*
X580044Y25799D01*
X581001Y28110D01*
X581328Y30590D01*
Y40590D01*
X581001Y43070D01*
X580044Y45381D01*
X578521Y47365D01*
X576537Y48888D01*
X574226Y49845D01*
X571746Y50172D01*
D02*
G37*
G36*
X521346D02*
X518866Y49845D01*
X516555Y48888D01*
X514571Y47365D01*
X513048Y45381D01*
X512090Y43070D01*
X511764Y40590D01*
Y30590D01*
X512090Y28110D01*
X513048Y25799D01*
X514571Y23814D01*
X516555Y22292D01*
X518866Y21334D01*
X521346Y21008D01*
X523826Y21334D01*
X526137Y22292D01*
X528121Y23814D01*
X529644Y25799D01*
X530601Y28110D01*
X530928Y30590D01*
Y40590D01*
X530601Y43070D01*
X529644Y45381D01*
X528121Y47365D01*
X526137Y48888D01*
X523826Y49845D01*
X521346Y50172D01*
D02*
G37*
G36*
X383796D02*
X381316Y49845D01*
X379005Y48888D01*
X377020Y47365D01*
X375498Y45381D01*
X374540Y43070D01*
X374214Y40590D01*
Y30590D01*
X374540Y28110D01*
X375498Y25799D01*
X377020Y23814D01*
X379005Y22292D01*
X381316Y21334D01*
X383796Y21008D01*
X386276Y21334D01*
X388587Y22292D01*
X390571Y23814D01*
X392094Y25799D01*
X393051Y28110D01*
X393378Y30590D01*
Y40590D01*
X393051Y43070D01*
X392094Y45381D01*
X390571Y47365D01*
X388587Y48888D01*
X386276Y49845D01*
X383796Y50172D01*
D02*
G37*
G36*
X324096D02*
X321616Y49845D01*
X319305Y48888D01*
X317320Y47365D01*
X315798Y45381D01*
X314841Y43070D01*
X314514Y40590D01*
Y30590D01*
X314841Y28110D01*
X315798Y25799D01*
X317320Y23814D01*
X319305Y22292D01*
X321616Y21334D01*
X324096Y21008D01*
X326576Y21334D01*
X328887Y22292D01*
X330871Y23814D01*
X332394Y25799D01*
X333351Y28110D01*
X333678Y30590D01*
Y40590D01*
X333351Y43070D01*
X332394Y45381D01*
X330871Y47365D01*
X328887Y48888D01*
X326576Y49845D01*
X324096Y50172D01*
D02*
G37*
G36*
X299096D02*
X296616Y49845D01*
X294305Y48888D01*
X292320Y47365D01*
X290798Y45381D01*
X289841Y43070D01*
X289514Y40590D01*
Y30590D01*
X289841Y28110D01*
X290798Y25799D01*
X292320Y23814D01*
X294305Y22292D01*
X296616Y21334D01*
X299096Y21008D01*
X301576Y21334D01*
X303887Y22292D01*
X305871Y23814D01*
X307394Y25799D01*
X308351Y28110D01*
X308678Y30590D01*
Y40590D01*
X308351Y43070D01*
X307394Y45381D01*
X305871Y47365D01*
X303887Y48888D01*
X301576Y49845D01*
X299096Y50172D01*
D02*
G37*
G36*
X211623D02*
X209143Y49845D01*
X206832Y48888D01*
X204848Y47365D01*
X203325Y45381D01*
X202368Y43070D01*
X202041Y40590D01*
Y30590D01*
X202368Y28110D01*
X203325Y25799D01*
X204848Y23814D01*
X206832Y22292D01*
X209143Y21334D01*
X211623Y21008D01*
X214103Y21334D01*
X216414Y22292D01*
X218399Y23814D01*
X219921Y25799D01*
X220879Y28110D01*
X221205Y30590D01*
Y40590D01*
X220879Y43070D01*
X219921Y45381D01*
X218399Y47365D01*
X216414Y48888D01*
X214103Y49845D01*
X211623Y50172D01*
D02*
G37*
G36*
X186623D02*
X184143Y49845D01*
X181832Y48888D01*
X179848Y47365D01*
X178325Y45381D01*
X177368Y43070D01*
X177041Y40590D01*
Y30590D01*
X177368Y28110D01*
X178325Y25799D01*
X179848Y23814D01*
X181832Y22292D01*
X184143Y21334D01*
X186623Y21008D01*
X189103Y21334D01*
X191414Y22292D01*
X193399Y23814D01*
X194921Y25799D01*
X195879Y28110D01*
X196205Y30590D01*
Y40590D01*
X195879Y43070D01*
X194921Y45381D01*
X193399Y47365D01*
X191414Y48888D01*
X189103Y49845D01*
X186623Y50172D01*
D02*
G37*
G36*
X140100Y349100D02*
X137620Y348773D01*
X135309Y347816D01*
X133324Y346293D01*
X131802Y344309D01*
X130844Y341998D01*
X130518Y339518D01*
Y329518D01*
X130844Y327038D01*
X131802Y324727D01*
X133324Y322743D01*
X135309Y321220D01*
X136022Y320925D01*
Y217989D01*
X74186Y156154D01*
X73302Y154831D01*
X72992Y153270D01*
X72992Y153270D01*
Y49183D01*
X72279Y48888D01*
X70295Y47365D01*
X68772Y45381D01*
X67814Y43070D01*
X67488Y40590D01*
Y30590D01*
X67814Y28110D01*
X68772Y25799D01*
X70295Y23814D01*
X72279Y22292D01*
X74590Y21334D01*
X77070Y21008D01*
X79550Y21334D01*
X81861Y22292D01*
X83846Y23814D01*
X85368Y25799D01*
X86326Y28110D01*
X86652Y30590D01*
Y40590D01*
X86326Y43070D01*
X85368Y45381D01*
X83846Y47365D01*
X81861Y48888D01*
X81148Y49183D01*
Y151581D01*
X142984Y213416D01*
X142984Y213416D01*
X143868Y214739D01*
X144178Y216300D01*
Y320925D01*
X144891Y321220D01*
X146875Y322743D01*
X148398Y324727D01*
X149355Y327038D01*
X149682Y329518D01*
Y339518D01*
X149355Y341998D01*
X148398Y344309D01*
X146875Y346293D01*
X144891Y347816D01*
X142580Y348773D01*
X140100Y349100D01*
D02*
G37*
G36*
X722242Y21602D02*
X714419D01*
Y20352D01*
X714711Y18133D01*
X715567Y16065D01*
X716930Y14290D01*
X718705Y12927D01*
X720773Y12071D01*
X722242Y11877D01*
Y21602D01*
D02*
G37*
G36*
X731565D02*
X723742D01*
Y11877D01*
X725211Y12071D01*
X727279Y12927D01*
X729054Y14290D01*
X730417Y16065D01*
X731273Y18133D01*
X731565Y20352D01*
Y21602D01*
D02*
G37*
G36*
X849992Y32925D02*
X847773Y32633D01*
X845705Y31777D01*
X843930Y30414D01*
X842567Y28639D01*
X841711Y26571D01*
X841419Y24352D01*
Y20352D01*
X841711Y18133D01*
X842567Y16065D01*
X843930Y14290D01*
X845705Y12927D01*
X847773Y12071D01*
X849992Y11779D01*
X852211Y12071D01*
X854279Y12927D01*
X856054Y14290D01*
X857417Y16065D01*
X858273Y18133D01*
X858565Y20352D01*
Y24352D01*
X858273Y26571D01*
X857417Y28639D01*
X856054Y30414D01*
X854279Y31777D01*
X852211Y32633D01*
X849992Y32925D01*
D02*
G37*
G36*
X824992D02*
X822773Y32633D01*
X820705Y31777D01*
X818930Y30414D01*
X817567Y28639D01*
X816711Y26571D01*
X816419Y24352D01*
Y20352D01*
X816711Y18133D01*
X817567Y16065D01*
X818930Y14290D01*
X820705Y12927D01*
X822773Y12071D01*
X824992Y11779D01*
X827211Y12071D01*
X829279Y12927D01*
X831054Y14290D01*
X832417Y16065D01*
X833273Y18133D01*
X833565Y20352D01*
Y24352D01*
X833273Y26571D01*
X832417Y28639D01*
X831054Y30414D01*
X829279Y31777D01*
X827211Y32633D01*
X824992Y32925D01*
D02*
G37*
G36*
X799592D02*
X797373Y32633D01*
X795305Y31777D01*
X793530Y30414D01*
X792167Y28639D01*
X791311Y26571D01*
X791019Y24352D01*
Y20352D01*
X791311Y18133D01*
X792167Y16065D01*
X793530Y14290D01*
X795305Y12927D01*
X797373Y12071D01*
X799592Y11779D01*
X801811Y12071D01*
X803879Y12927D01*
X805654Y14290D01*
X807017Y16065D01*
X807873Y18133D01*
X808165Y20352D01*
Y24352D01*
X807873Y26571D01*
X807017Y28639D01*
X805654Y30414D01*
X803879Y31777D01*
X801811Y32633D01*
X799592Y32925D01*
D02*
G37*
G36*
X774192D02*
X771973Y32633D01*
X769905Y31777D01*
X768130Y30414D01*
X766767Y28639D01*
X765911Y26571D01*
X765619Y24352D01*
Y20352D01*
X765911Y18133D01*
X766767Y16065D01*
X768130Y14290D01*
X769905Y12927D01*
X771973Y12071D01*
X774192Y11779D01*
X776411Y12071D01*
X778479Y12927D01*
X780254Y14290D01*
X781617Y16065D01*
X782473Y18133D01*
X782765Y20352D01*
Y24352D01*
X782473Y26571D01*
X781617Y28639D01*
X780254Y30414D01*
X778479Y31777D01*
X776411Y32633D01*
X774192Y32925D01*
D02*
G37*
G36*
X748792D02*
X746573Y32633D01*
X744505Y31777D01*
X742730Y30414D01*
X741367Y28639D01*
X740511Y26571D01*
X740219Y24352D01*
Y20352D01*
X740511Y18133D01*
X741367Y16065D01*
X742730Y14290D01*
X744505Y12927D01*
X746573Y12071D01*
X748792Y11779D01*
X751011Y12071D01*
X753079Y12927D01*
X754854Y14290D01*
X756217Y16065D01*
X757073Y18133D01*
X757365Y20352D01*
Y24352D01*
X757073Y26571D01*
X756217Y28639D01*
X754854Y30414D01*
X753079Y31777D01*
X751011Y32633D01*
X748792Y32925D01*
D02*
G37*
G36*
X697992D02*
X695773Y32633D01*
X693705Y31777D01*
X691930Y30414D01*
X690567Y28639D01*
X689711Y26571D01*
X689419Y24352D01*
Y20352D01*
X689711Y18133D01*
X690567Y16065D01*
X691930Y14290D01*
X693705Y12927D01*
X695773Y12071D01*
X697992Y11779D01*
X700211Y12071D01*
X702279Y12927D01*
X704054Y14290D01*
X705417Y16065D01*
X706273Y18133D01*
X706565Y20352D01*
Y24352D01*
X706273Y26571D01*
X705417Y28639D01*
X704054Y30414D01*
X702279Y31777D01*
X700211Y32633D01*
X697992Y32925D01*
D02*
G37*
%LPD*%
G36*
X382259Y667769D02*
Y644214D01*
X380989Y643961D01*
X380733Y644579D01*
X379291Y646459D01*
X377411Y647902D01*
X375221Y648808D01*
X372872Y649118D01*
X370522Y648808D01*
X368333Y647902D01*
X366453Y646459D01*
X365010Y644579D01*
X364501Y643348D01*
X363231Y643601D01*
Y685001D01*
X364501Y685527D01*
X382259Y667769D01*
D02*
G37*
D18*
X476222Y587950D02*
D03*
Y571950D02*
D03*
D47*
X849884Y702818D02*
D03*
Y154432D02*
D03*
X62992Y806196D02*
D03*
D48*
X767404Y418929D02*
X780038Y431563D01*
Y667108D01*
X449072Y570738D02*
X475010D01*
X476222Y571950D01*
X436372Y583438D02*
X449072Y570738D01*
X436372Y583438D02*
Y686054D01*
X538988Y788670D01*
X695198D01*
X706228Y777640D01*
X796993D01*
X492805Y251415D02*
Y512119D01*
Y251415D02*
X564642Y179578D01*
X114300Y336000D02*
X134662Y356362D01*
X239522D01*
X239776Y356616D01*
X114300Y334518D02*
Y336000D01*
X434340Y353060D02*
Y500094D01*
X476222Y541976D01*
Y571950D01*
X674704Y621270D02*
X753016Y542958D01*
X640094Y621270D02*
X674704D01*
X602996Y658368D02*
X640094Y621270D01*
X454038Y658368D02*
X602996D01*
X449072Y653402D02*
X454038Y658368D01*
X449072Y637540D02*
Y653402D01*
X654847Y648011D02*
Y676418D01*
X766153Y298850D02*
X795471Y328168D01*
X825246D01*
X672592Y298850D02*
X766153D01*
X677926Y712724D02*
Y756412D01*
X660654Y773684D02*
X677926Y756412D01*
X385318Y473682D02*
Y669036D01*
X400050Y324866D02*
Y614156D01*
X412258Y626364D01*
X366014Y688340D02*
X385318Y669036D01*
X400050Y324866D02*
X537464Y187452D01*
X538226Y479190D02*
X541274D01*
X566232Y504148D01*
X640094D01*
X667592Y476650D01*
X672592D01*
X347472Y762762D02*
X366014Y744220D01*
Y688340D02*
Y744220D01*
X360172Y274828D02*
Y735076D01*
Y274828D02*
X425196Y209804D01*
X271272Y823976D02*
X360172Y735076D01*
X335280Y278130D02*
X409196Y204214D01*
X335280Y278130D02*
Y749132D01*
X245872Y838540D02*
X335280Y749132D01*
X386842Y721901D02*
Y827070D01*
X388366Y719836D02*
Y720377D01*
X372872Y841040D02*
X386842Y827070D01*
Y721901D02*
X388366Y720377D01*
X347472Y762762D02*
Y841040D01*
X474472Y791718D02*
Y841040D01*
X423672Y740918D02*
X474472Y791718D01*
X423672Y687832D02*
Y740918D01*
X412258Y676418D02*
X423672Y687832D01*
X412258Y626364D02*
Y676418D01*
X245872Y838540D02*
Y841040D01*
X409196Y36072D02*
Y204214D01*
X425196Y50472D02*
X434596Y41072D01*
X425196Y50472D02*
Y209804D01*
X434596Y36072D02*
Y41072D01*
X271272Y823976D02*
Y841040D01*
X398272Y713740D02*
Y841040D01*
Y713740D02*
X407162Y704850D01*
X619760Y473682D02*
X667592Y425850D01*
X619760Y473682D02*
Y494284D01*
X667592Y425850D02*
X672592D01*
D49*
X824992Y22352D02*
D03*
X849992D02*
D03*
X748792D02*
D03*
X722992D02*
D03*
X697992D02*
D03*
X774192D02*
D03*
X799592D02*
D03*
D50*
X672592Y400450D02*
D03*
Y375050D02*
D03*
Y298850D02*
D03*
Y323850D02*
D03*
Y349650D02*
D03*
Y476650D02*
D03*
Y450850D02*
D03*
Y425850D02*
D03*
Y502050D02*
D03*
D51*
X571746Y35590D02*
D03*
X546746D02*
D03*
X521346D02*
D03*
X165500Y334518D02*
D03*
X89300D02*
D03*
X114300D02*
D03*
X140100D02*
D03*
X52070Y35590D02*
D03*
X77070D02*
D03*
X211623D02*
D03*
X186623D02*
D03*
X161223D02*
D03*
X324096D02*
D03*
X299096D02*
D03*
X273696D02*
D03*
X434596D02*
D03*
X459596D02*
D03*
X409196D02*
D03*
X383796D02*
D03*
D52*
X499872Y637540D02*
D03*
X474472D02*
D03*
X449072D02*
D03*
X423672D02*
D03*
X398272D02*
D03*
X372872D02*
D03*
X347472D02*
D03*
X322072D02*
D03*
X296672D02*
D03*
X271272D02*
D03*
X245872D02*
D03*
X220472D02*
D03*
X195072D02*
D03*
D03*
X499872Y841040D02*
D03*
X474472D02*
D03*
X449072D02*
D03*
X423672D02*
D03*
X398272D02*
D03*
X372872D02*
D03*
X347472D02*
D03*
X322072D02*
D03*
X296672D02*
D03*
X271272D02*
D03*
X245872D02*
D03*
X220472D02*
D03*
X195072D02*
D03*
X169672D02*
D03*
Y637540D02*
D03*
D53*
X845246Y288168D02*
D03*
Y308168D02*
D03*
Y328168D02*
D03*
X825246Y288168D02*
D03*
Y308168D02*
D03*
Y328168D02*
D03*
D54*
X835246Y260168D02*
D03*
Y356168D02*
D03*
D55*
X767404Y418929D02*
D03*
X780038Y667108D02*
D03*
X796993Y777640D02*
D03*
X492805Y512119D02*
D03*
X564642Y179578D02*
D03*
X239776Y356616D02*
D03*
X434340Y353060D02*
D03*
X795471Y328168D02*
D03*
X640094Y621270D02*
D03*
X753016Y542958D02*
D03*
X654847Y648011D02*
D03*
Y676418D02*
D03*
X677926Y712724D02*
D03*
X660654Y773684D02*
D03*
X385318Y473682D02*
D03*
X538226Y479190D02*
D03*
X388366Y719836D02*
D03*
X537464Y187452D02*
D03*
X407162Y704850D02*
D03*
X619760Y494284D02*
D03*
D56*
X657092Y227250D02*
D03*
Y571950D02*
D03*
X42592Y571850D02*
D03*
X43092Y228850D02*
D03*
D57*
X140100Y216300D02*
Y334518D01*
X77070Y153270D02*
X140100Y216300D01*
X77070Y37846D02*
Y153270D01*
X474472Y588450D02*
X474972Y587950D01*
X476222D01*
X474472Y588450D02*
Y637540D01*
M02*
