G04*
G04 #@! TF.GenerationSoftware,Altium Limited,Altium Designer,21.6.4 (81)*
G04*
G04 Layer_Color=2752767*
%FSLAX44Y44*%
%MOMM*%
G71*
G04*
G04 #@! TF.SameCoordinates,B6620421-005C-40FD-BBE8-42AC4C8AC442*
G04*
G04*
G04 #@! TF.FilePolarity,Positive*
G04*
G01*
G75*
%ADD14C,0.1270*%
%ADD58C,0.1693*%
D14*
X819912Y17272D02*
Y27432D01*
X830072D01*
Y17272D01*
X819912D01*
X844912D02*
Y27432D01*
X855072D01*
Y17272D01*
X844912D01*
X743712D02*
Y27432D01*
X753872D01*
Y17272D01*
X743712D01*
X717912D02*
Y27432D01*
X728072D01*
Y17272D01*
X717912D01*
X692912D02*
Y27432D01*
X703072D01*
Y17272D01*
X692912D01*
X769112D02*
Y27432D01*
X779272D01*
Y17272D01*
X769112D01*
X794512D02*
Y27432D01*
X804672D01*
Y17272D01*
X794512D01*
X499872Y632460D02*
X494792Y642620D01*
X504952D01*
X499872Y632460D01*
X474472D02*
X469392Y642620D01*
X479552D01*
X474472Y632460D01*
X449072D02*
X443992Y642620D01*
X454152D01*
X449072Y632460D01*
X423672D02*
X418592Y642620D01*
X428752D01*
X423672Y632460D01*
X398272D02*
X393192Y642620D01*
X403352D01*
X398272Y632460D01*
X372872D02*
X367792Y642620D01*
X377952D01*
X372872Y632460D01*
X347472D02*
X342392Y642620D01*
X352552D01*
X347472Y632460D01*
X322072D02*
X316992Y642620D01*
X327152D01*
X322072Y632460D01*
X296672D02*
X291592Y642620D01*
X301752D01*
X296672Y632460D01*
X271272D02*
X266192Y642620D01*
X276352D01*
X271272Y632460D01*
X245872D02*
X240792Y642620D01*
X250952D01*
X245872Y632460D01*
X220472D02*
X215392Y642620D01*
X225552D01*
X220472Y632460D01*
X195072D02*
X189992Y642620D01*
X200152D01*
X195072Y632460D01*
X189992Y642620D01*
X200152D01*
X195072Y632460D01*
X499872Y835960D02*
X494792Y846120D01*
X504952D01*
X499872Y835960D01*
X474472D02*
X469392Y846120D01*
X479552D01*
X474472Y835960D01*
X449072D02*
X443992Y846120D01*
X454152D01*
X449072Y835960D01*
X423672D02*
X418592Y846120D01*
X428752D01*
X423672Y835960D01*
X398272D02*
X393192Y846120D01*
X403352D01*
X398272Y835960D01*
X372872D02*
X367792Y846120D01*
X377952D01*
X372872Y835960D01*
X347472D02*
X342392Y846120D01*
X352552D01*
X347472Y835960D01*
X322072D02*
X316992Y846120D01*
X327152D01*
X322072Y835960D01*
X296672D02*
X291592Y846120D01*
X301752D01*
X296672Y835960D01*
X271272D02*
X266192Y846120D01*
X276352D01*
X271272Y835960D01*
X245872D02*
X240792Y846120D01*
X250952D01*
X245872Y835960D01*
X220472D02*
X215392Y846120D01*
X225552D01*
X220472Y835960D01*
X195072D02*
X189992Y846120D01*
X200152D01*
X195072Y835960D01*
X169672D02*
X164592Y846120D01*
X174752D01*
X169672Y835960D01*
Y632460D02*
X164592Y642620D01*
X174752D01*
X169672Y632460D01*
X845246Y283088D02*
X847786Y285628D01*
X850326D01*
X847786Y288168D01*
X850326Y290708D01*
X847786D01*
X845246Y293248D01*
X842706Y290708D01*
X840166D01*
X842706Y288168D01*
X840166Y285628D01*
X842706D01*
X845246Y283088D01*
Y303088D02*
X847786Y305628D01*
X850326D01*
X847786Y308168D01*
X850326Y310708D01*
X847786D01*
X845246Y313248D01*
X842706Y310708D01*
X840166D01*
X842706Y308168D01*
X840166Y305628D01*
X842706D01*
X845246Y303088D01*
Y323088D02*
X847786Y325628D01*
X850326D01*
X847786Y328168D01*
X850326Y330708D01*
X847786D01*
X845246Y333248D01*
X842706Y330708D01*
X840166D01*
X842706Y328168D01*
X840166Y325628D01*
X842706D01*
X845246Y323088D01*
X825246Y283088D02*
X827786Y285628D01*
X830326D01*
X827786Y288168D01*
X830326Y290708D01*
X827786D01*
X825246Y293248D01*
X822706Y290708D01*
X820166D01*
X822706Y288168D01*
X820166Y285628D01*
X822706D01*
X825246Y283088D01*
Y303088D02*
X827786Y305628D01*
X830326D01*
X827786Y308168D01*
X830326Y310708D01*
X827786D01*
X825246Y313248D01*
X822706Y310708D01*
X820166D01*
X822706Y308168D01*
X820166Y305628D01*
X822706D01*
X825246Y303088D01*
Y323088D02*
X827786Y325628D01*
X830326D01*
X827786Y328168D01*
X830326Y330708D01*
X827786D01*
X825246Y333248D01*
X822706Y330708D01*
X820166D01*
X822706Y328168D01*
X820166Y325628D01*
X822706D01*
X825246Y323088D01*
X830166Y255088D02*
X832706Y260168D01*
X830166Y265248D01*
X835246Y262708D01*
X840326Y265248D01*
X837786Y260168D01*
X840326Y255088D01*
X835246Y257628D01*
X830166Y255088D01*
Y351088D02*
X832706Y356168D01*
X830166Y361248D01*
X835246Y358708D01*
X840326Y361248D01*
X837786Y356168D01*
X840326Y351088D01*
X835246Y353628D01*
X830166Y351088D01*
X764864Y416389D02*
Y413849D01*
X769944D01*
Y416389D01*
X772484D01*
Y421469D01*
X769944D01*
Y424009D01*
X764864D01*
Y421469D01*
X762324D01*
Y416389D01*
X764864D01*
X777498Y664568D02*
Y662028D01*
X782578D01*
Y664568D01*
X785118D01*
Y669648D01*
X782578D01*
Y672188D01*
X777498D01*
Y669648D01*
X774958D01*
Y664568D01*
X777498D01*
X794453Y775100D02*
Y772560D01*
X799533D01*
Y775100D01*
X802073D01*
Y780180D01*
X799533D01*
Y782720D01*
X794453D01*
Y780180D01*
X791913D01*
Y775100D01*
X794453D01*
X490265Y509579D02*
Y507039D01*
X495345D01*
Y509579D01*
X497885D01*
Y514659D01*
X495345D01*
Y517199D01*
X490265D01*
Y514659D01*
X487725D01*
Y509579D01*
X490265D01*
X562102Y177038D02*
Y174498D01*
X567182D01*
Y177038D01*
X569722D01*
Y182118D01*
X567182D01*
Y184658D01*
X562102D01*
Y182118D01*
X559562D01*
Y177038D01*
X562102D01*
X237236Y354076D02*
Y351536D01*
X242316D01*
Y354076D01*
X244856D01*
Y359156D01*
X242316D01*
Y361696D01*
X237236D01*
Y359156D01*
X234696D01*
Y354076D01*
X237236D01*
X431800Y350520D02*
Y347980D01*
X436880D01*
Y350520D01*
X439420D01*
Y355600D01*
X436880D01*
Y358140D01*
X431800D01*
Y355600D01*
X429260D01*
Y350520D01*
X431800D01*
X792931Y325628D02*
Y323088D01*
X798011D01*
Y325628D01*
X800551D01*
Y330708D01*
X798011D01*
Y333248D01*
X792931D01*
Y330708D01*
X790391D01*
Y325628D01*
X792931D01*
X637554Y618730D02*
Y616190D01*
X642634D01*
Y618730D01*
X645174D01*
Y623810D01*
X642634D01*
Y626350D01*
X637554D01*
Y623810D01*
X635014D01*
Y618730D01*
X637554D01*
X750476Y540418D02*
Y537878D01*
X755556D01*
Y540418D01*
X758096D01*
Y545498D01*
X755556D01*
Y548038D01*
X750476D01*
Y545498D01*
X747936D01*
Y540418D01*
X750476D01*
X652307Y645471D02*
Y642931D01*
X657387D01*
Y645471D01*
X659927D01*
Y650551D01*
X657387D01*
Y653091D01*
X652307D01*
Y650551D01*
X649767D01*
Y645471D01*
X652307D01*
Y673878D02*
Y671338D01*
X657387D01*
Y673878D01*
X659927D01*
Y678958D01*
X657387D01*
Y681498D01*
X652307D01*
Y678958D01*
X649767D01*
Y673878D01*
X652307D01*
X675386Y710184D02*
Y707644D01*
X680466D01*
Y710184D01*
X683006D01*
Y715264D01*
X680466D01*
Y717804D01*
X675386D01*
Y715264D01*
X672846D01*
Y710184D01*
X675386D01*
X658114Y771144D02*
Y768604D01*
X663194D01*
Y771144D01*
X665734D01*
Y776224D01*
X663194D01*
Y778764D01*
X658114D01*
Y776224D01*
X655574D01*
Y771144D01*
X658114D01*
X382778Y471142D02*
Y468602D01*
X387858D01*
Y471142D01*
X390398D01*
Y476222D01*
X387858D01*
Y478762D01*
X382778D01*
Y476222D01*
X380238D01*
Y471142D01*
X382778D01*
X535686Y476650D02*
Y474110D01*
X540766D01*
Y476650D01*
X543306D01*
Y481730D01*
X540766D01*
Y484270D01*
X535686D01*
Y481730D01*
X533146D01*
Y476650D01*
X535686D01*
X385826Y717296D02*
Y714756D01*
X390906D01*
Y717296D01*
X393446D01*
Y722376D01*
X390906D01*
Y724916D01*
X385826D01*
Y722376D01*
X383286D01*
Y717296D01*
X385826D01*
X534924Y184912D02*
Y182372D01*
X540004D01*
Y184912D01*
X542544D01*
Y189992D01*
X540004D01*
Y192532D01*
X534924D01*
Y189992D01*
X532384D01*
Y184912D01*
X534924D01*
X404622Y702310D02*
Y699770D01*
X409702D01*
Y702310D01*
X412242D01*
Y707390D01*
X409702D01*
Y709930D01*
X404622D01*
Y707390D01*
X402082D01*
Y702310D01*
X404622D01*
X617220Y491744D02*
Y489204D01*
X622300D01*
Y491744D01*
X624840D01*
Y496824D01*
X622300D01*
Y499364D01*
X617220D01*
Y496824D01*
X614680D01*
Y491744D01*
X617220D01*
X652012Y222170D02*
X654552D01*
X657092Y224710D01*
X659632Y222170D01*
X662172D01*
Y224710D01*
X659632Y227250D01*
X662172Y229790D01*
Y232330D01*
X659632D01*
X657092Y229790D01*
X654552Y232330D01*
X652012D01*
Y229790D01*
X654552Y227250D01*
X652012Y224710D01*
Y222170D01*
Y566870D02*
X654552D01*
X657092Y569410D01*
X659632Y566870D01*
X662172D01*
Y569410D01*
X659632Y571950D01*
X662172Y574490D01*
Y577030D01*
X659632D01*
X657092Y574490D01*
X654552Y577030D01*
X652012D01*
Y574490D01*
X654552Y571950D01*
X652012Y569410D01*
Y566870D01*
X37512Y566770D02*
X40052D01*
X42592Y569310D01*
X45132Y566770D01*
X47672D01*
Y569310D01*
X45132Y571850D01*
X47672Y574390D01*
Y576930D01*
X45132D01*
X42592Y574390D01*
X40052Y576930D01*
X37512D01*
Y574390D01*
X40052Y571850D01*
X37512Y569310D01*
Y566770D01*
X38012Y223770D02*
X40552D01*
X43092Y226310D01*
X45632Y223770D01*
X48172D01*
Y226310D01*
X45632Y228850D01*
X48172Y231390D01*
Y233930D01*
X45632D01*
X43092Y231390D01*
X40552Y233930D01*
X38012D01*
Y231390D01*
X40552Y228850D01*
X38012Y226310D01*
Y223770D01*
X844804Y697738D02*
X847344D01*
X849884Y700278D01*
X852424Y697738D01*
X854964D01*
Y700278D01*
X852424Y702818D01*
X854964Y705358D01*
Y707898D01*
X852424D01*
X849884Y705358D01*
X847344Y707898D01*
X844804D01*
Y705358D01*
X847344Y702818D01*
X844804Y700278D01*
Y697738D01*
Y149352D02*
X847344D01*
X849884Y151892D01*
X852424Y149352D01*
X854964D01*
Y151892D01*
X852424Y154432D01*
X854964Y156972D01*
Y159512D01*
X852424D01*
X849884Y156972D01*
X847344Y159512D01*
X844804D01*
Y156972D01*
X847344Y154432D01*
X844804Y151892D01*
Y149352D01*
X57912Y801116D02*
X60452D01*
X62992Y803656D01*
X65532Y801116D01*
X68072D01*
Y803656D01*
X65532Y806196D01*
X68072Y808736D01*
Y811276D01*
X65532D01*
X62992Y808736D01*
X60452Y811276D01*
X57912D01*
Y808736D01*
X60452Y806196D01*
X57912Y803656D01*
Y801116D01*
D58*
X677672Y400450D02*
G03*
X677672Y400450I-5080J0D01*
G01*
Y375050D02*
G03*
X677672Y375050I-5080J0D01*
G01*
Y298850D02*
G03*
X677672Y298850I-5080J0D01*
G01*
Y323850D02*
G03*
X677672Y323850I-5080J0D01*
G01*
Y349650D02*
G03*
X677672Y349650I-5080J0D01*
G01*
Y476650D02*
G03*
X677672Y476650I-5080J0D01*
G01*
Y450850D02*
G03*
X677672Y450850I-5080J0D01*
G01*
Y425850D02*
G03*
X677672Y425850I-5080J0D01*
G01*
Y502050D02*
G03*
X677672Y502050I-5080J0D01*
G01*
X576826Y35590D02*
G03*
X576826Y35590I-5080J0D01*
G01*
X551826D02*
G03*
X551826Y35590I-5080J0D01*
G01*
X526426D02*
G03*
X526426Y35590I-5080J0D01*
G01*
X170580Y334518D02*
G03*
X170580Y334518I-5080J0D01*
G01*
X94380D02*
G03*
X94380Y334518I-5080J0D01*
G01*
X119380D02*
G03*
X119380Y334518I-5080J0D01*
G01*
X145180D02*
G03*
X145180Y334518I-5080J0D01*
G01*
X57150Y35590D02*
G03*
X57150Y35590I-5080J0D01*
G01*
X82150D02*
G03*
X82150Y35590I-5080J0D01*
G01*
X216703D02*
G03*
X216703Y35590I-5080J0D01*
G01*
X191703D02*
G03*
X191703Y35590I-5080J0D01*
G01*
X166303D02*
G03*
X166303Y35590I-5080J0D01*
G01*
X329176D02*
G03*
X329176Y35590I-5080J0D01*
G01*
X304176D02*
G03*
X304176Y35590I-5080J0D01*
G01*
X278776D02*
G03*
X278776Y35590I-5080J0D01*
G01*
X439676D02*
G03*
X439676Y35590I-5080J0D01*
G01*
X464676D02*
G03*
X464676Y35590I-5080J0D01*
G01*
X414276D02*
G03*
X414276Y35590I-5080J0D01*
G01*
X388876D02*
G03*
X388876Y35590I-5080J0D01*
G01*
M02*
