G04*
G04 #@! TF.GenerationSoftware,Altium Limited,Altium Designer,21.6.4 (81)*
G04*
G04 Layer_Color=16711935*
%FSLAX44Y44*%
%MOMM*%
G71*
G04*
G04 #@! TF.SameCoordinates,B6620421-005C-40FD-BBE8-42AC4C8AC442*
G04*
G04*
G04 #@! TF.FilePolarity,Negative*
G04*
G01*
G75*
%ADD30R,1.1532X0.8032*%
%ADD41O,1.6032X2.0032*%
%ADD42O,2.8032X1.8032*%
%ADD43O,1.8032X2.8032*%
%ADD44O,1.7032X2.2032*%
%ADD45C,1.4032*%
%ADD46C,2.2032*%
%ADD47C,6.0000*%
D30*
X476222Y587950D02*
D03*
Y571950D02*
D03*
D41*
X824992Y22352D02*
D03*
X849992D02*
D03*
X748792D02*
D03*
X722992D02*
D03*
X697992D02*
D03*
X774192D02*
D03*
X799592D02*
D03*
D42*
X672592Y400450D02*
D03*
Y375050D02*
D03*
Y298850D02*
D03*
Y323850D02*
D03*
Y349650D02*
D03*
Y476650D02*
D03*
Y450850D02*
D03*
Y425850D02*
D03*
Y502050D02*
D03*
D43*
X571746Y35590D02*
D03*
X546746D02*
D03*
X521346D02*
D03*
X165500Y334518D02*
D03*
X89300D02*
D03*
X114300D02*
D03*
X140100D02*
D03*
X52070Y35590D02*
D03*
X77070D02*
D03*
X211623D02*
D03*
X186623D02*
D03*
X161223D02*
D03*
X324096D02*
D03*
X299096D02*
D03*
X273696D02*
D03*
X434596D02*
D03*
X459596D02*
D03*
X409196D02*
D03*
X383796D02*
D03*
D44*
X499872Y637540D02*
D03*
X474472D02*
D03*
X449072D02*
D03*
X423672D02*
D03*
X398272D02*
D03*
X372872D02*
D03*
X347472D02*
D03*
X322072D02*
D03*
X296672D02*
D03*
X271272D02*
D03*
X245872D02*
D03*
X220472D02*
D03*
X195072D02*
D03*
D03*
X499872Y841040D02*
D03*
X474472D02*
D03*
X449072D02*
D03*
X423672D02*
D03*
X398272D02*
D03*
X372872D02*
D03*
X347472D02*
D03*
X322072D02*
D03*
X296672D02*
D03*
X271272D02*
D03*
X245872D02*
D03*
X220472D02*
D03*
X195072D02*
D03*
X169672D02*
D03*
Y637540D02*
D03*
D45*
X845246Y288168D02*
D03*
Y308168D02*
D03*
Y328168D02*
D03*
X825246Y288168D02*
D03*
Y308168D02*
D03*
Y328168D02*
D03*
D46*
X835246Y260168D02*
D03*
Y356168D02*
D03*
D47*
X849884Y702818D02*
D03*
Y154432D02*
D03*
X62992Y806196D02*
D03*
M02*
