M48
;Layer_Color=9474304
;FILE_FORMAT=4:4
METRIC,LZ
;TYPE=PLATED
T1F00S00C0.3000
T2F00S00C0.8000
T3F00S00C0.9000
T4F00S00C1.0000
T5F00S00C1.0160
T6F00S00C1.2000
T7F00S00C3.1000
%
T01
X00537464Y00187452
X00564642Y00179578
X0043434Y0035306
X00795471Y00328168
X00767404Y00418929
X00239776Y00356616
X00385318Y00473682
X00388366Y00719836
X00407162Y0070485
X00654847Y00676418
Y00648011
X00640094Y0062127
X00677926Y00712724
X00660654Y00773684
X00796993Y0077764
X00780038Y00667108
X00753016Y00542958
X0061976Y00494284
X00538226Y0047919
X00492805Y00512119
T02
X00825246Y00288168
X00845246
Y00308168
Y00328168
X00825246
Y00308168
T03
X00697992Y00022352
X00722992
X00748792
X00774192
X00799592
X00824992
X00849992
T04
X00434596Y0003559
X00459596
X00521346
X00546746
X00571746
X00672592Y0029885
Y0032385
Y0034965
Y0037505
Y0040045
X001655Y00334518
X001401
X001143
X000893
X0007707Y0003559
X0005207
X00161223
X00186623
X00211623
X00273696
X00299096
X00324096
X00383796
X00409196
X00672592Y0042585
Y0045085
Y0047665
Y0050205
T05
X00169672Y0063754
X00195072
X00220472
X00245872
X00271272
X00296672
X00322072
X00347472
X00372872
X00398272
X00423672
X00449072
X00474472
X00499872
Y0084104
X00474472
X00449072
X00423672
X00398272
X00372872
X00347472
X00322072
X00296672
X00271272
X00245872
X00220472
X00195072
X00169672
T06
X00835246Y00260168
Y00356168
T07
X00849884Y00154432
X00657092Y0022725
X00043092Y0022885
X00042592Y0057185
X00062992Y00806196
X00657092Y0057195
X00849884Y00702818
M30
