G04*
G04 #@! TF.GenerationSoftware,Altium Limited,Altium Designer,22.7.1 (60)*
G04*
G04 Layer_Color=65535*
%FSLAX44Y44*%
%MOMM*%
G71*
G04*
G04 #@! TF.SameCoordinates,7FD8A325-ED4A-4E6D-A823-A032D3294E47*
G04*
G04*
G04 #@! TF.FilePolarity,Positive*
G04*
G01*
G75*
%ADD10C,0.1000*%
%ADD11C,0.2540*%
%ADD12C,0.2000*%
D10*
X24000Y206500D02*
G03*
X24000Y206500I-500J0D01*
G01*
X154000Y302998D02*
Y295000D01*
Y302998D02*
X156666D01*
X157809Y302617D01*
X158570Y301856D01*
X158951Y301094D01*
X159332Y299951D01*
Y298047D01*
X158951Y296904D01*
X158570Y296143D01*
X157809Y295381D01*
X156666Y295000D01*
X154000D01*
X166455Y301856D02*
X165693Y302617D01*
X164550Y302998D01*
X163027D01*
X161884Y302617D01*
X161122Y301856D01*
Y301094D01*
X161503Y300332D01*
X161884Y299951D01*
X162646Y299570D01*
X164931Y298809D01*
X165693Y298428D01*
X166074Y298047D01*
X166455Y297285D01*
Y296143D01*
X165693Y295381D01*
X164550Y295000D01*
X163027D01*
X161884Y295381D01*
X161122Y296143D01*
X168245Y301475D02*
X169006Y301856D01*
X170149Y302998D01*
Y295000D01*
X176014Y302998D02*
X174872Y302617D01*
X174491Y301856D01*
Y301094D01*
X174872Y300332D01*
X175634Y299951D01*
X177157Y299570D01*
X178300Y299190D01*
X179061Y298428D01*
X179442Y297666D01*
Y296523D01*
X179061Y295762D01*
X178680Y295381D01*
X177538Y295000D01*
X176014D01*
X174872Y295381D01*
X174491Y295762D01*
X174110Y296523D01*
Y297666D01*
X174491Y298428D01*
X175253Y299190D01*
X176395Y299570D01*
X177919Y299951D01*
X178680Y300332D01*
X179061Y301094D01*
Y301856D01*
X178680Y302617D01*
X177538Y302998D01*
X176014D01*
X181232D02*
Y295000D01*
Y302998D02*
X184660D01*
X185803Y302617D01*
X186184Y302237D01*
X186565Y301475D01*
Y300713D01*
X186184Y299951D01*
X185803Y299570D01*
X184660Y299190D01*
X181232D02*
X184660D01*
X185803Y298809D01*
X186184Y298428D01*
X186565Y297666D01*
Y296523D01*
X186184Y295762D01*
X185803Y295381D01*
X184660Y295000D01*
X181232D01*
X188735Y301094D02*
Y301475D01*
X189116Y302237D01*
X189497Y302617D01*
X190259Y302998D01*
X191782D01*
X192544Y302617D01*
X192925Y302237D01*
X193306Y301475D01*
Y300713D01*
X192925Y299951D01*
X192163Y298809D01*
X188355Y295000D01*
X193687D01*
X197762Y302998D02*
X196619Y302617D01*
X195858Y301475D01*
X195477Y299570D01*
Y298428D01*
X195858Y296523D01*
X196619Y295381D01*
X197762Y295000D01*
X198524D01*
X199666Y295381D01*
X200428Y296523D01*
X200809Y298428D01*
Y299570D01*
X200428Y301475D01*
X199666Y302617D01*
X198524Y302998D01*
X197762D01*
X206027Y301856D02*
Y295000D01*
X202599Y298428D02*
X209455D01*
X228169Y51665D02*
X227002Y50499D01*
Y48166D01*
X228169Y47000D01*
X232834D01*
X234000Y48166D01*
Y50499D01*
X232834Y51665D01*
X230501D01*
Y49333D01*
X234000Y53998D02*
X227002D01*
X234000Y58663D01*
X227002D01*
Y60995D02*
X234000D01*
Y64494D01*
X232834Y65661D01*
X228169D01*
X227002Y64494D01*
Y60995D01*
X201002Y45598D02*
X208000D01*
Y49097D01*
X206834Y50263D01*
X202169D01*
X201002Y49097D01*
Y45598D01*
X208000Y52596D02*
X203335D01*
X201002Y54928D01*
X203335Y57261D01*
X208000D01*
X204501D01*
Y52596D01*
X201002Y59594D02*
Y64259D01*
Y61926D01*
X208000D01*
X209166Y66591D02*
Y71256D01*
X201002Y73589D02*
Y78254D01*
Y75922D01*
X208000D01*
X201002Y85252D02*
Y80587D01*
X208000D01*
Y85252D01*
X204501Y80587D02*
Y82919D01*
X208000Y87585D02*
X201002D01*
X203335Y89917D01*
X201002Y92250D01*
X208000D01*
Y94582D02*
X201002D01*
Y98081D01*
X202169Y99248D01*
X204501D01*
X205667Y98081D01*
Y94582D01*
X126002Y47000D02*
X130667D01*
X133000Y49333D01*
X130667Y51665D01*
X126002D01*
X127169Y58663D02*
X126002Y57497D01*
Y55164D01*
X127169Y53998D01*
X131834D01*
X133000Y55164D01*
Y57497D01*
X131834Y58663D01*
X127169Y65661D02*
X126002Y64494D01*
Y62162D01*
X127169Y60995D01*
X131834D01*
X133000Y62162D01*
Y64494D01*
X131834Y65661D01*
X152169Y51665D02*
X151002Y50499D01*
Y48166D01*
X152169Y47000D01*
X153335D01*
X154501Y48166D01*
Y50499D01*
X155667Y51665D01*
X156834D01*
X158000Y50499D01*
Y48166D01*
X156834Y47000D01*
X152169Y58663D02*
X151002Y57497D01*
Y55164D01*
X152169Y53998D01*
X156834D01*
X158000Y55164D01*
Y57497D01*
X156834Y58663D01*
X151002Y60995D02*
X158000D01*
X155667D01*
X151002Y65661D01*
X154501Y62162D01*
X158000Y65661D01*
X159166Y67993D02*
Y72658D01*
X152169Y79656D02*
X151002Y78490D01*
Y76157D01*
X152169Y74991D01*
X153335D01*
X154501Y76157D01*
Y78490D01*
X155667Y79656D01*
X156834D01*
X158000Y78490D01*
Y76157D01*
X156834Y74991D01*
X152169Y86654D02*
X151002Y85488D01*
Y83155D01*
X152169Y81989D01*
X156834D01*
X158000Y83155D01*
Y85488D01*
X156834Y86654D01*
X158000Y88987D02*
X153335D01*
X151002Y91319D01*
X153335Y93652D01*
X158000D01*
X154501D01*
Y88987D01*
X151002Y95984D02*
X158000D01*
Y100649D01*
X151002Y107647D02*
Y102982D01*
X158000D01*
Y107647D01*
X154501Y102982D02*
Y105315D01*
X177002Y45598D02*
X184000D01*
Y49097D01*
X182834Y50263D01*
X178169D01*
X177002Y49097D01*
Y45598D01*
X184000Y52596D02*
X179335D01*
X177002Y54928D01*
X179335Y57261D01*
X184000D01*
X180501D01*
Y52596D01*
X177002Y59594D02*
Y64259D01*
Y61926D01*
X184000D01*
X185166Y66591D02*
Y71256D01*
X178169Y78254D02*
X177002Y77088D01*
Y74755D01*
X178169Y73589D01*
X179335D01*
X180501Y74755D01*
Y77088D01*
X181667Y78254D01*
X182834D01*
X184000Y77088D01*
Y74755D01*
X182834Y73589D01*
X178169Y85252D02*
X177002Y84086D01*
Y81753D01*
X178169Y80587D01*
X182834D01*
X184000Y81753D01*
Y84086D01*
X182834Y85252D01*
X184000Y87585D02*
X179335D01*
X177002Y89917D01*
X179335Y92250D01*
X184000D01*
X180501D01*
Y87585D01*
X177002Y94582D02*
X184000D01*
Y99248D01*
X177002Y106245D02*
Y101580D01*
X184000D01*
Y106245D01*
X180501Y101580D02*
Y103913D01*
X295000Y314000D02*
X301998D01*
Y310501D01*
X300832Y309335D01*
X298499D01*
X297333Y310501D01*
Y314000D01*
X301998Y307002D02*
X295000D01*
Y302337D01*
X301998Y300005D02*
X296166D01*
X295000Y298838D01*
Y296506D01*
X296166Y295339D01*
X301998D01*
X300832Y288342D02*
X301998Y289508D01*
Y291840D01*
X300832Y293007D01*
X299665D01*
X298499Y291840D01*
Y289508D01*
X297333Y288342D01*
X296166D01*
X295000Y289508D01*
Y291840D01*
X296166Y293007D01*
X320444Y314000D02*
X327442D01*
X325109Y311667D01*
X327442Y309335D01*
X320444D01*
X327442Y307002D02*
Y304670D01*
Y305836D01*
X320444D01*
Y307002D01*
Y304670D01*
Y301171D02*
X327442D01*
X320444Y296506D01*
X327442D01*
Y294173D02*
X321610D01*
X320444Y293007D01*
Y290674D01*
X321610Y289508D01*
X327442D01*
X326275Y282510D02*
X327442Y283676D01*
Y286009D01*
X326275Y287175D01*
X325109D01*
X323943Y286009D01*
Y283676D01*
X322777Y282510D01*
X321610D01*
X320444Y283676D01*
Y286009D01*
X321610Y287175D01*
X353998Y314000D02*
X347000D01*
Y310501D01*
X348166Y309335D01*
X352831D01*
X353998Y310501D01*
Y314000D01*
X347000Y307002D02*
X351665D01*
X353998Y304670D01*
X351665Y302337D01*
X347000D01*
X350499D01*
Y307002D01*
X353998Y300005D02*
Y295339D01*
Y297672D01*
X347000D01*
Y293007D02*
X351665D01*
X353998Y290674D01*
X351665Y288342D01*
X347000D01*
X350499D01*
Y293007D01*
X18444Y316000D02*
X25442D01*
Y312501D01*
X24275Y311335D01*
X21943D01*
X20777Y312501D01*
Y316000D01*
X25442Y309002D02*
X18444D01*
Y304337D01*
X25442Y302005D02*
X19610D01*
X18444Y300838D01*
Y298506D01*
X19610Y297339D01*
X25442D01*
X24275Y290342D02*
X25442Y291508D01*
Y293841D01*
X24275Y295007D01*
X23109D01*
X21943Y293841D01*
Y291508D01*
X20777Y290342D01*
X19610D01*
X18444Y291508D01*
Y293841D01*
X19610Y295007D01*
X44750Y316000D02*
X51748D01*
X49415Y313667D01*
X51748Y311335D01*
X44750D01*
X51748Y309002D02*
Y306670D01*
Y307836D01*
X44750D01*
Y309002D01*
Y306670D01*
Y303171D02*
X51748D01*
X44750Y298506D01*
X51748D01*
Y296173D02*
X45916D01*
X44750Y295007D01*
Y292674D01*
X45916Y291508D01*
X51748D01*
X50581Y284510D02*
X51748Y285676D01*
Y288009D01*
X50581Y289175D01*
X49415D01*
X48249Y288009D01*
Y285676D01*
X47083Y284510D01*
X45916D01*
X44750Y285676D01*
Y288009D01*
X45916Y289175D01*
X76748Y316000D02*
X69750D01*
Y312501D01*
X70916Y311335D01*
X75581D01*
X76748Y312501D01*
Y316000D01*
X69750Y309002D02*
X74415D01*
X76748Y306670D01*
X74415Y304337D01*
X69750D01*
X73249D01*
Y309002D01*
X76748Y302005D02*
Y297339D01*
Y299672D01*
X69750D01*
Y295007D02*
X74415D01*
X76748Y292674D01*
X74415Y290342D01*
X69750D01*
X73249D01*
Y295007D01*
X77000Y47000D02*
X70002D01*
Y50499D01*
X71168Y51665D01*
X73501D01*
X74667Y50499D01*
Y47000D01*
X70002Y53998D02*
X77000D01*
Y58663D01*
X70002Y60995D02*
X75834D01*
X77000Y62162D01*
Y64494D01*
X75834Y65661D01*
X70002D01*
X71168Y72658D02*
X70002Y71492D01*
Y69160D01*
X71168Y67993D01*
X72335D01*
X73501Y69160D01*
Y71492D01*
X74667Y72658D01*
X75834D01*
X77000Y71492D01*
Y69160D01*
X75834Y67993D01*
X51000Y47000D02*
X44002D01*
X46335Y49333D01*
X44002Y51665D01*
X51000D01*
X44002Y53998D02*
Y56330D01*
Y55164D01*
X51000D01*
Y53998D01*
Y56330D01*
Y59829D02*
X44002D01*
X51000Y64494D01*
X44002D01*
Y66827D02*
X49834D01*
X51000Y67993D01*
Y70326D01*
X49834Y71492D01*
X44002D01*
X45168Y78490D02*
X44002Y77324D01*
Y74991D01*
X45168Y73825D01*
X46335D01*
X47501Y74991D01*
Y77324D01*
X48667Y78490D01*
X49834D01*
X51000Y77324D01*
Y74991D01*
X49834Y73825D01*
X17002Y48000D02*
X24000D01*
Y51499D01*
X22834Y52665D01*
X18168D01*
X17002Y51499D01*
Y48000D01*
X24000Y54998D02*
X19335D01*
X17002Y57330D01*
X19335Y59663D01*
X24000D01*
X20501D01*
Y54998D01*
X17002Y61996D02*
Y66661D01*
Y64328D01*
X24000D01*
Y68993D02*
X19335D01*
X17002Y71326D01*
X19335Y73658D01*
X24000D01*
X20501D01*
Y68993D01*
X351000Y47000D02*
X344002D01*
Y50499D01*
X345169Y51665D01*
X347501D01*
X348667Y50499D01*
Y47000D01*
X344002Y53998D02*
X351000D01*
Y58663D01*
X344002Y60995D02*
X349834D01*
X351000Y62162D01*
Y64494D01*
X349834Y65661D01*
X344002D01*
X345169Y72658D02*
X344002Y71492D01*
Y69160D01*
X345169Y67993D01*
X346335D01*
X347501Y69160D01*
Y71492D01*
X348667Y72658D01*
X349834D01*
X351000Y71492D01*
Y69160D01*
X349834Y67993D01*
X326000Y47000D02*
X319002D01*
X321335Y49333D01*
X319002Y51665D01*
X326000D01*
X319002Y53998D02*
Y56330D01*
Y55164D01*
X326000D01*
Y53998D01*
Y56330D01*
Y59829D02*
X319002D01*
X326000Y64494D01*
X319002D01*
Y66827D02*
X324834D01*
X326000Y67993D01*
Y70326D01*
X324834Y71492D01*
X319002D01*
X320168Y78490D02*
X319002Y77324D01*
Y74991D01*
X320168Y73825D01*
X321335D01*
X322501Y74991D01*
Y77324D01*
X323667Y78490D01*
X324834D01*
X326000Y77324D01*
Y74991D01*
X324834Y73825D01*
X294002Y48000D02*
X301000D01*
Y51499D01*
X299834Y52665D01*
X295168D01*
X294002Y51499D01*
Y48000D01*
X301000Y54998D02*
X296335D01*
X294002Y57330D01*
X296335Y59663D01*
X301000D01*
X297501D01*
Y54998D01*
X294002Y61996D02*
Y66661D01*
Y64328D01*
X301000D01*
Y68993D02*
X296335D01*
X294002Y71326D01*
X296335Y73658D01*
X301000D01*
X297501D01*
Y68993D01*
X24918Y214665D02*
X23752Y213499D01*
Y211166D01*
X24918Y210000D01*
X29584D01*
X30750Y211166D01*
Y213499D01*
X29584Y214665D01*
X30224Y172950D02*
X25559D01*
X23226Y175283D01*
X25559Y177615D01*
X30224D01*
X26725D01*
Y172950D01*
X56232Y266119D02*
X51900D01*
Y259120D01*
X56232D01*
X51900Y262786D02*
X54566D01*
X60398Y265119D02*
Y259120D01*
X57399Y262119D02*
X63397D01*
X56232Y243258D02*
X51900D01*
Y236260D01*
X56232D01*
X51900Y239926D02*
X54566D01*
X57399Y239259D02*
X63397D01*
X57232Y208320D02*
X54566Y215319D01*
X51900Y208320D01*
X52900Y210653D02*
X56232D01*
X58865Y211319D02*
X64864D01*
X57232Y182920D02*
X54566Y189918D01*
X51900Y182920D01*
X52900Y185253D02*
X56232D01*
X61865Y188919D02*
Y182920D01*
X58865Y185919D02*
X64864D01*
X51900Y164519D02*
Y157520D01*
Y164519D02*
X54899D01*
X55899Y164185D01*
X56232Y163852D01*
X56566Y163186D01*
Y162519D01*
X56232Y161852D01*
X55899Y161519D01*
X54899Y161186D01*
X51900D02*
X54899D01*
X55899Y160853D01*
X56232Y160519D01*
X56566Y159853D01*
Y158853D01*
X56232Y158187D01*
X55899Y157853D01*
X54899Y157520D01*
X51900D01*
X58132Y160519D02*
X64131D01*
X51900Y139118D02*
Y132120D01*
Y139118D02*
X54899D01*
X55899Y138785D01*
X56232Y138452D01*
X56566Y137786D01*
Y137119D01*
X56232Y136452D01*
X55899Y136119D01*
X54899Y135786D01*
X51900D02*
X54899D01*
X55899Y135453D01*
X56232Y135119D01*
X56566Y134453D01*
Y133453D01*
X56232Y132787D01*
X55899Y132453D01*
X54899Y132120D01*
X51900D01*
X61131Y138119D02*
Y132120D01*
X58132Y135119D02*
X64131D01*
X323599Y239052D02*
X323266Y239719D01*
X322599Y240385D01*
X321933Y240718D01*
X320600D01*
X319933Y240385D01*
X319266Y239719D01*
X318933Y239052D01*
X318600Y238052D01*
Y236386D01*
X318933Y235386D01*
X319266Y234720D01*
X319933Y234053D01*
X320600Y233720D01*
X321933D01*
X322599Y234053D01*
X323266Y234720D01*
X323599Y235386D01*
Y236386D01*
X321933D02*
X323599D01*
X325199Y240718D02*
Y233720D01*
Y240718D02*
X329864Y233720D01*
Y240718D02*
Y233720D01*
X331797Y240718D02*
Y233720D01*
Y240718D02*
X334130D01*
X335130Y240385D01*
X335796Y239719D01*
X336130Y239052D01*
X336463Y238052D01*
Y236386D01*
X336130Y235386D01*
X335796Y234720D01*
X335130Y234053D01*
X334130Y233720D01*
X331797D01*
X318600Y215319D02*
Y208320D01*
Y215319D02*
X320933D01*
X321933Y214985D01*
X322599Y214319D01*
X322932Y213652D01*
X323266Y212652D01*
Y210986D01*
X322932Y209986D01*
X322599Y209320D01*
X321933Y208653D01*
X320933Y208320D01*
X318600D01*
X327165Y215319D02*
Y208320D01*
X324832Y215319D02*
X329498D01*
X323266Y188919D02*
X322599Y189585D01*
X321599Y189918D01*
X320266D01*
X319266Y189585D01*
X318600Y188919D01*
Y188252D01*
X318933Y187586D01*
X319266Y187252D01*
X319933Y186919D01*
X321933Y186253D01*
X322599Y185919D01*
X322932Y185586D01*
X323266Y184920D01*
Y183920D01*
X322599Y183253D01*
X321599Y182920D01*
X320266D01*
X319266Y183253D01*
X318600Y183920D01*
X329831Y188252D02*
X329498Y188919D01*
X328831Y189585D01*
X328165Y189918D01*
X326832D01*
X326165Y189585D01*
X325499Y188919D01*
X325165Y188252D01*
X324832Y187252D01*
Y185586D01*
X325165Y184586D01*
X325499Y183920D01*
X326165Y183253D01*
X326832Y182920D01*
X328165D01*
X328831Y183253D01*
X329498Y183920D01*
X329831Y184586D01*
X331797Y189918D02*
Y182920D01*
X336463Y189918D02*
X331797Y185253D01*
X333464Y186919D02*
X336463Y182920D01*
X318600Y164519D02*
X321266Y157520D01*
X323932Y164519D02*
X321266Y157520D01*
X329831Y162852D02*
X329498Y163519D01*
X328831Y164185D01*
X328165Y164519D01*
X326832D01*
X326165Y164185D01*
X325499Y163519D01*
X325165Y162852D01*
X324832Y161852D01*
Y160186D01*
X325165Y159186D01*
X325499Y158520D01*
X326165Y157853D01*
X326832Y157520D01*
X328165D01*
X328831Y157853D01*
X329498Y158520D01*
X329831Y159186D01*
X336796Y162852D02*
X336463Y163519D01*
X335796Y164185D01*
X335130Y164519D01*
X333797D01*
X333130Y164185D01*
X332464Y163519D01*
X332131Y162852D01*
X331797Y161852D01*
Y160186D01*
X332131Y159186D01*
X332464Y158520D01*
X333130Y157853D01*
X333797Y157520D01*
X335130D01*
X335796Y157853D01*
X336463Y158520D01*
X336796Y159186D01*
X192665Y341831D02*
X191499Y342998D01*
X189166D01*
X188000Y341831D01*
Y337166D01*
X189166Y336000D01*
X191499D01*
X192665Y337166D01*
Y339499D01*
X190333D01*
X194998Y336000D02*
Y342998D01*
X199663Y336000D01*
Y342998D01*
X201996D02*
Y336000D01*
X205494D01*
X206661Y337166D01*
Y341831D01*
X205494Y342998D01*
X201996D01*
X146000Y329998D02*
Y323000D01*
X149499D01*
X150665Y324166D01*
Y328831D01*
X149499Y329998D01*
X146000D01*
X152998Y323000D02*
Y327665D01*
X155330Y329998D01*
X157663Y327665D01*
Y323000D01*
Y326499D01*
X152998D01*
X159995Y329998D02*
X164661D01*
X162328D01*
Y323000D01*
X166993D02*
Y327665D01*
X169326Y329998D01*
X171658Y327665D01*
Y323000D01*
Y326499D01*
X166993D01*
X173991Y321834D02*
X178656D01*
X180989Y329998D02*
X185654D01*
X183321D01*
Y323000D01*
X192652Y329998D02*
X187987D01*
Y323000D01*
X192652D01*
X187987Y326499D02*
X190319D01*
X194984Y323000D02*
Y329998D01*
X197317Y327665D01*
X199649Y329998D01*
Y323000D01*
X201982D02*
Y329998D01*
X205481D01*
X206647Y328831D01*
Y326499D01*
X205481Y325333D01*
X201982D01*
X188000Y315998D02*
Y311333D01*
X190333Y309000D01*
X192665Y311333D01*
Y315998D01*
X199663Y314832D02*
X198497Y315998D01*
X196164D01*
X194998Y314832D01*
Y310166D01*
X196164Y309000D01*
X198497D01*
X199663Y310166D01*
X206661Y314832D02*
X205494Y315998D01*
X203162D01*
X201996Y314832D01*
Y310166D01*
X203162Y309000D01*
X205494D01*
X206661Y310166D01*
X239168Y303499D02*
Y297667D01*
X240335Y296501D01*
X242667D01*
X243834Y297667D01*
Y303499D01*
X250832Y296501D02*
X246166D01*
X250832Y301166D01*
Y302333D01*
X249665Y303499D01*
X247333D01*
X246166Y302333D01*
X70491Y116899D02*
Y111067D01*
X71657Y109901D01*
X73990D01*
X75156Y111067D01*
Y116899D01*
X77489Y109901D02*
X79821D01*
X78655D01*
Y116899D01*
X77489Y115733D01*
X12379Y154501D02*
Y161499D01*
X15878D01*
X17044Y160333D01*
Y158000D01*
X15878Y156834D01*
X12379D01*
X14711D02*
X17044Y154501D01*
X19377D02*
X21709D01*
X20543D01*
Y161499D01*
X19377Y160333D01*
X241168Y42099D02*
Y49097D01*
X244667D01*
X245834Y47931D01*
Y45598D01*
X244667Y44432D01*
X241168D01*
X252831Y49097D02*
X248166D01*
Y45598D01*
X250499Y46764D01*
X251665D01*
X252831Y45598D01*
Y43266D01*
X251665Y42099D01*
X249333D01*
X248166Y43266D01*
X262337Y10021D02*
Y17019D01*
X265836D01*
X267002Y15853D01*
Y13520D01*
X265836Y12354D01*
X262337D01*
X272834Y10021D02*
Y17019D01*
X269335Y13520D01*
X274000D01*
X90648Y6726D02*
Y13723D01*
X94147D01*
X95314Y12557D01*
Y10224D01*
X94147Y9058D01*
X90648D01*
X97646Y12557D02*
X98813Y13723D01*
X101145D01*
X102311Y12557D01*
Y11391D01*
X101145Y10224D01*
X99979D01*
X101145D01*
X102311Y9058D01*
Y7892D01*
X101145Y6726D01*
X98813D01*
X97646Y7892D01*
X267169Y344292D02*
Y351290D01*
X270667D01*
X271834Y350124D01*
Y347791D01*
X270667Y346625D01*
X267169D01*
X278831Y344292D02*
X274166D01*
X278831Y348957D01*
Y350124D01*
X277665Y351290D01*
X275333D01*
X274166Y350124D01*
X94126Y346501D02*
Y353499D01*
X97625D01*
X98791Y352333D01*
Y350000D01*
X97625Y348834D01*
X94126D01*
X101124Y346501D02*
X103456D01*
X102290D01*
Y353499D01*
X101124Y352333D01*
X10029Y218428D02*
Y211430D01*
X13528D01*
X14694Y212597D01*
Y217262D01*
X13528Y218428D01*
X10029D01*
X17027Y211430D02*
X19359D01*
X18193D01*
Y218428D01*
X17027Y217262D01*
X258750Y348657D02*
X257584Y349823D01*
X255251D01*
X254085Y348657D01*
Y343992D01*
X255251Y342826D01*
X257584D01*
X258750Y343992D01*
X261083Y342826D02*
X263415D01*
X262249D01*
Y349823D01*
X261083Y348657D01*
D11*
X214398Y306075D02*
G03*
X214398Y346325I10062J20125D01*
G01*
X244300Y34700D02*
Y106000D01*
X234359Y115941D02*
X244300Y106000D01*
X129482Y115941D02*
X234359D01*
X117300Y103759D02*
X129482Y115941D01*
X117300Y34700D02*
Y103759D01*
X244300Y9300D02*
Y34700D01*
X117300Y9300D02*
Y34700D01*
X283600Y320474D02*
X363495D01*
X363600Y378000D01*
X283600Y320474D02*
X283705Y378000D01*
X7150Y321474D02*
X87045D01*
X87150Y379000D01*
X7150Y321474D02*
X7255Y379000D01*
X7895Y39526D02*
X87790D01*
X7790Y-18000D02*
X7895Y39526D01*
X87685Y-18000D02*
X87790Y39526D01*
X283505Y38526D02*
X363400D01*
X283400Y-19000D02*
X283505Y38526D01*
X363295Y-19000D02*
X363400Y38526D01*
X309980Y120960D02*
Y278440D01*
X68680Y120960D02*
Y278440D01*
X309980D01*
X68680Y120960D02*
X309980D01*
X214300Y305880D02*
Y346520D01*
D12*
X12250Y191500D02*
Y192500D01*
X19750Y191500D02*
Y192500D01*
X270168Y55596D02*
Y47598D01*
X274739D01*
X275615Y55596D02*
Y47598D01*
Y55596D02*
X279043D01*
X280185Y55216D01*
X280566Y54835D01*
X280947Y54073D01*
Y53311D01*
X280566Y52549D01*
X280185Y52168D01*
X279043Y51788D01*
X275615D01*
X278281D02*
X280947Y47598D01*
X91000Y56998D02*
Y49000D01*
X95570D01*
X96446Y56998D02*
Y49000D01*
X101017D01*
X271168Y315878D02*
Y310165D01*
X271549Y309023D01*
X272311Y308261D01*
X273454Y307880D01*
X274216D01*
X275358Y308261D01*
X276120Y309023D01*
X276501Y310165D01*
Y315878D01*
X278710D02*
Y307880D01*
Y315878D02*
X282138D01*
X283280Y315497D01*
X283661Y315117D01*
X284042Y314355D01*
Y313593D01*
X283661Y312831D01*
X283280Y312450D01*
X282138Y312070D01*
X278710D01*
X281376D02*
X284042Y307880D01*
X91168Y315878D02*
Y310165D01*
X91549Y309023D01*
X92311Y308261D01*
X93454Y307880D01*
X94215D01*
X95358Y308261D01*
X96120Y309023D01*
X96501Y310165D01*
Y315878D01*
X98710D02*
Y307880D01*
X103280D01*
M02*
