G04*
G04 #@! TF.GenerationSoftware,Altium Limited,Altium Designer,22.7.1 (60)*
G04*
G04 Layer_Color=128*
%FSLAX44Y44*%
%MOMM*%
G71*
G04*
G04 #@! TF.SameCoordinates,7FD8A325-ED4A-4E6D-A823-A032D3294E47*
G04*
G04*
G04 #@! TF.FilePolarity,Positive*
G04*
G01*
G75*
%ADD25C,0.1270*%
D25*
X226600Y22000D02*
X236600D01*
X231600Y17000D02*
Y27000D01*
X175800Y22000D02*
X185800D01*
X180800Y17000D02*
Y27000D01*
X150000Y22000D02*
X160000D01*
X155000Y17000D02*
Y27000D01*
X125000Y22000D02*
X135000D01*
X130000Y17000D02*
Y27000D01*
X201200Y22000D02*
X211200D01*
X206200Y17000D02*
Y27000D01*
X293600Y338000D02*
X303600D01*
X298600Y333000D02*
Y343000D01*
X319000Y338000D02*
X329000D01*
X324000Y333000D02*
Y343000D01*
X344400Y338000D02*
X354400D01*
X349400Y333000D02*
Y343000D01*
X17150Y339000D02*
X27150D01*
X22150Y334000D02*
Y344000D01*
X42550Y339000D02*
X52550D01*
X47550Y334000D02*
Y344000D01*
X67950Y339000D02*
X77950D01*
X72950Y334000D02*
Y344000D01*
X67790Y22000D02*
X77790D01*
X72790Y17000D02*
Y27000D01*
X42390Y22000D02*
X52390D01*
X47390Y17000D02*
Y27000D01*
X16990Y22000D02*
X26990D01*
X21990Y17000D02*
Y27000D01*
X343400Y21000D02*
X353400D01*
X348400Y16000D02*
Y26000D01*
X318000Y21000D02*
X328000D01*
X323000Y16000D02*
Y26000D01*
X292600Y21000D02*
X302600D01*
X297600Y16000D02*
Y26000D01*
X287200Y161600D02*
X297200D01*
X292200Y156600D02*
Y166600D01*
X287200Y187000D02*
X297200D01*
X292200Y182000D02*
Y192000D01*
X287200Y212400D02*
X297200D01*
X292200Y207400D02*
Y217400D01*
X287200Y237800D02*
X297200D01*
X292200Y232800D02*
Y242800D01*
X84000Y136200D02*
X94000D01*
X89000Y131200D02*
Y141200D01*
X84000Y160200D02*
X94000D01*
X89000Y155200D02*
Y165200D01*
X84000Y187000D02*
X94000D01*
X89000Y182000D02*
Y192000D01*
X84000Y263200D02*
X94000D01*
X89000Y258200D02*
Y268200D01*
X84000Y238200D02*
X94000D01*
X89000Y233200D02*
Y243200D01*
X84000Y212400D02*
X94000D01*
X89000Y207400D02*
Y217400D01*
X224000Y338900D02*
X230000D01*
X227000Y335900D02*
Y341900D01*
X224000Y326200D02*
X230000D01*
X227000Y323200D02*
Y329200D01*
X224000Y313500D02*
X230000D01*
X227000Y310500D02*
Y316500D01*
X16944Y132120D02*
X19944D01*
X18444Y130620D02*
Y133620D01*
X227500Y160200D02*
X230500D01*
X229000Y158700D02*
Y161700D01*
X346900Y225000D02*
X349900D01*
X348400Y223500D02*
Y226500D01*
X299500Y263200D02*
X302500D01*
X301000Y261700D02*
Y264700D01*
X30500Y188000D02*
X33500D01*
X32000Y186500D02*
Y189500D01*
X186500Y212400D02*
X189500D01*
X188000Y210900D02*
Y213900D01*
X164500Y184000D02*
X167500D01*
X166000Y182500D02*
Y185500D01*
M02*
