G04*
G04 #@! TF.GenerationSoftware,Altium Limited,Altium Designer,22.7.1 (60)*
G04*
G04 Layer_Color=255*
%FSLAX44Y44*%
%MOMM*%
G71*
G04*
G04 #@! TF.SameCoordinates,7FD8A325-ED4A-4E6D-A823-A032D3294E47*
G04*
G04*
G04 #@! TF.FilePolarity,Positive*
G04*
G01*
G75*
%ADD13R,0.9500X0.6000*%
%ADD14R,0.9500X0.7000*%
%ADD21O,1.6000X2.6000*%
%ADD22O,2.6000X1.6000*%
%ADD23O,1.0000X0.8000*%
D13*
X16000Y148000D02*
D03*
Y132000D02*
D03*
X258750Y318200D02*
D03*
Y334200D02*
D03*
D14*
X16000Y184000D02*
D03*
Y200000D02*
D03*
D21*
X231600Y22000D02*
D03*
X180800D02*
D03*
X155000D02*
D03*
X130000D02*
D03*
X206200D02*
D03*
X298600Y338000D02*
D03*
X324000D02*
D03*
X349400D02*
D03*
X22150Y339000D02*
D03*
X47550D02*
D03*
X72950D02*
D03*
X72790Y22000D02*
D03*
X47390D02*
D03*
X21990D02*
D03*
X348400Y21000D02*
D03*
X323000D02*
D03*
X297600D02*
D03*
D22*
X292200Y161600D02*
D03*
Y187000D02*
D03*
Y212400D02*
D03*
Y237800D02*
D03*
X89000Y136200D02*
D03*
Y160200D02*
D03*
Y187000D02*
D03*
Y263200D02*
D03*
Y238200D02*
D03*
Y212400D02*
D03*
D23*
X227000Y338900D02*
D03*
Y326200D02*
D03*
Y313500D02*
D03*
M02*
