G04*
G04 #@! TF.GenerationSoftware,Altium Limited,Altium Designer,22.7.1 (60)*
G04*
G04 Layer_Physical_Order=1*
G04 Layer_Color=255*
%FSLAX44Y44*%
%MOMM*%
G71*
G04*
G04 #@! TF.SameCoordinates,7FD8A325-ED4A-4E6D-A823-A032D3294E47*
G04*
G04*
G04 #@! TF.FilePolarity,Positive*
G04*
G01*
G75*
%ADD13R,0.9500X0.6000*%
%ADD14R,0.9500X0.7000*%
%ADD20C,0.3000*%
%ADD21O,1.6000X2.6000*%
%ADD22O,2.6000X1.6000*%
%ADD23O,1.0000X0.8000*%
%ADD24C,0.5000*%
G36*
X368441Y358441D02*
X368442Y1558D01*
X1558Y1558D01*
X1558Y358442D01*
X368441Y358441D01*
D02*
G37*
%LPC*%
G36*
X228000Y344508D02*
X227750D01*
Y339650D01*
X233459D01*
X233181Y341046D01*
X231965Y342865D01*
X230146Y344081D01*
X228000Y344508D01*
D02*
G37*
G36*
X226250D02*
X226000D01*
X223854Y344081D01*
X222035Y342865D01*
X220819Y341046D01*
X220541Y339650D01*
X226250D01*
Y344508D01*
D02*
G37*
G36*
X265000Y338700D02*
X259500D01*
Y334950D01*
X265000D01*
Y338700D01*
D02*
G37*
G36*
X258000D02*
X252500D01*
Y334950D01*
X258000D01*
Y338700D01*
D02*
G37*
G36*
X233459Y338150D02*
X227750D01*
Y333292D01*
X228000D01*
X230146Y333719D01*
X231965Y334935D01*
X233181Y336754D01*
X233459Y338150D01*
D02*
G37*
G36*
X226250D02*
X220541D01*
X220819Y336754D01*
X222035Y334935D01*
X223854Y333719D01*
X226000Y333292D01*
X226250D01*
Y338150D01*
D02*
G37*
G36*
X265000Y333450D02*
X259500D01*
Y329700D01*
X265000D01*
Y333450D01*
D02*
G37*
G36*
X258000D02*
X252500D01*
Y329700D01*
X258000D01*
Y333450D01*
D02*
G37*
G36*
X228000Y331808D02*
X226000D01*
X223854Y331381D01*
X222035Y330165D01*
X221429Y329259D01*
X221000D01*
X221000Y329259D01*
X219830Y329026D01*
X218837Y328363D01*
X218837Y328363D01*
X204037Y313563D01*
X203374Y312570D01*
X203141Y311400D01*
X203141Y311400D01*
Y36016D01*
X201409Y35298D01*
X199424Y33775D01*
X197902Y31791D01*
X196945Y29480D01*
X196618Y27000D01*
Y17000D01*
X196945Y14520D01*
X197902Y12209D01*
X199424Y10224D01*
X201409Y8702D01*
X203720Y7745D01*
X206200Y7418D01*
X208680Y7745D01*
X210991Y8702D01*
X212975Y10224D01*
X214498Y12209D01*
X215455Y14520D01*
X215782Y17000D01*
Y27000D01*
X215455Y29480D01*
X214498Y31791D01*
X212975Y33775D01*
X210991Y35298D01*
X209259Y36016D01*
Y310133D01*
X221421Y322295D01*
X222035Y322235D01*
X223854Y321019D01*
X226000Y320592D01*
X228000D01*
X230146Y321019D01*
X231965Y322235D01*
X233181Y324054D01*
X233608Y326200D01*
X233181Y328346D01*
X231965Y330165D01*
X230146Y331381D01*
X228000Y331808D01*
D02*
G37*
G36*
X22150Y353582D02*
X19670Y353256D01*
X17359Y352298D01*
X15374Y350775D01*
X13852Y348791D01*
X12895Y346480D01*
X12568Y344000D01*
Y334000D01*
X12895Y331520D01*
X13852Y329209D01*
X15374Y327225D01*
X17359Y325702D01*
X19670Y324744D01*
X22150Y324418D01*
X24630Y324744D01*
X26941Y325702D01*
X28925Y327225D01*
X30448Y329209D01*
X31405Y331520D01*
X31732Y334000D01*
Y344000D01*
X31405Y346480D01*
X30448Y348791D01*
X28925Y350775D01*
X26941Y352298D01*
X24630Y353256D01*
X22150Y353582D01*
D02*
G37*
G36*
X298600Y352582D02*
X296120Y352256D01*
X293809Y351298D01*
X291825Y349776D01*
X290302Y347791D01*
X289345Y345480D01*
X289018Y343000D01*
Y333000D01*
X289345Y330520D01*
X290302Y328209D01*
X291825Y326225D01*
X293809Y324702D01*
X296120Y323745D01*
X298600Y323418D01*
X301080Y323745D01*
X303391Y324702D01*
X305375Y326225D01*
X306898Y328209D01*
X307855Y330520D01*
X308182Y333000D01*
Y343000D01*
X307855Y345480D01*
X306898Y347791D01*
X305375Y349776D01*
X303391Y351298D01*
X301080Y352256D01*
X298600Y352582D01*
D02*
G37*
G36*
X265000Y322700D02*
X252500D01*
Y316996D01*
X252441Y316700D01*
X251217Y316559D01*
X232571D01*
X231965Y317465D01*
X230146Y318681D01*
X228000Y319108D01*
X226000D01*
X223854Y318681D01*
X222035Y317465D01*
X220819Y315646D01*
X220392Y313500D01*
X220819Y311354D01*
X222035Y309535D01*
X223854Y308319D01*
X225941Y307904D01*
Y162822D01*
X225232Y161761D01*
X224922Y160200D01*
X225232Y158639D01*
X226116Y157316D01*
X227439Y156432D01*
X229000Y156122D01*
X230561Y156432D01*
X231884Y157316D01*
X232768Y158639D01*
X233078Y160200D01*
X232768Y161761D01*
X232059Y162822D01*
Y309242D01*
X232059Y309243D01*
X232028Y309396D01*
X232771Y310441D01*
X253743D01*
X253743Y310441D01*
X254913Y310674D01*
X255905Y311337D01*
X257663Y313094D01*
X257663Y313095D01*
X258067Y313700D01*
X265000D01*
Y322700D01*
D02*
G37*
G36*
X94000Y272782D02*
X84000D01*
X81520Y272456D01*
X79209Y271498D01*
X77224Y269975D01*
X75702Y267991D01*
X74745Y265680D01*
X74418Y263200D01*
X74745Y260720D01*
X75702Y258409D01*
X77224Y256425D01*
X79209Y254902D01*
X81520Y253945D01*
X84000Y253618D01*
X94000D01*
X96480Y253945D01*
X98791Y254902D01*
X100775Y256425D01*
X102298Y258409D01*
X103256Y260720D01*
X103582Y263200D01*
X103256Y265680D01*
X102298Y267991D01*
X100775Y269975D01*
X98791Y271498D01*
X96480Y272456D01*
X94000Y272782D01*
D02*
G37*
G36*
X324000Y352582D02*
X321520Y352256D01*
X319209Y351298D01*
X317225Y349776D01*
X315702Y347791D01*
X314745Y345480D01*
X314418Y343000D01*
Y333000D01*
X314745Y330520D01*
X315702Y328209D01*
X317225Y326225D01*
X319209Y324702D01*
X319941Y324398D01*
Y250381D01*
X318671Y249855D01*
X305017Y263509D01*
X304768Y264761D01*
X303884Y266084D01*
X302561Y266968D01*
X301000Y267278D01*
X299439Y266968D01*
X298116Y266084D01*
X297232Y264761D01*
X296922Y263200D01*
X297232Y261639D01*
X298116Y260316D01*
X299439Y259432D01*
X300691Y259183D01*
X314541Y245333D01*
Y42267D01*
X305008Y32734D01*
X304375Y32775D01*
X302391Y34298D01*
X300080Y35255D01*
X297600Y35582D01*
X295120Y35255D01*
X292809Y34298D01*
X290825Y32775D01*
X289302Y30791D01*
X288344Y28480D01*
X288018Y26000D01*
Y16000D01*
X288344Y13520D01*
X289302Y11209D01*
X290825Y9225D01*
X292809Y7702D01*
X295120Y6744D01*
X297600Y6418D01*
X300080Y6744D01*
X302391Y7702D01*
X304375Y9225D01*
X305898Y11209D01*
X306855Y13520D01*
X307182Y16000D01*
Y26000D01*
X307148Y26256D01*
X307250Y26325D01*
X318671Y37745D01*
X319941Y37219D01*
Y35016D01*
X318209Y34298D01*
X316224Y32775D01*
X314702Y30791D01*
X313745Y28480D01*
X313418Y26000D01*
Y16000D01*
X313745Y13520D01*
X314702Y11209D01*
X316224Y9225D01*
X318209Y7702D01*
X320520Y6744D01*
X323000Y6418D01*
X325480Y6744D01*
X327791Y7702D01*
X329775Y9225D01*
X331298Y11209D01*
X332255Y13520D01*
X332582Y16000D01*
Y26000D01*
X332255Y28480D01*
X331298Y30791D01*
X329775Y32775D01*
X327791Y34298D01*
X326059Y35016D01*
Y323689D01*
X326480Y323745D01*
X328791Y324702D01*
X330775Y326225D01*
X332298Y328209D01*
X333256Y330520D01*
X333582Y333000D01*
Y343000D01*
X333256Y345480D01*
X332298Y347791D01*
X330775Y349776D01*
X328791Y351298D01*
X326480Y352256D01*
X324000Y352582D01*
D02*
G37*
G36*
X297200Y247382D02*
X292950D01*
Y238550D01*
X306683D01*
X306455Y240280D01*
X305498Y242591D01*
X303976Y244576D01*
X301991Y246098D01*
X299680Y247055D01*
X297200Y247382D01*
D02*
G37*
G36*
X291450D02*
X287200D01*
X284720Y247055D01*
X282409Y246098D01*
X280424Y244576D01*
X278902Y242591D01*
X277945Y240280D01*
X277717Y238550D01*
X291450D01*
Y247382D01*
D02*
G37*
G36*
X72950Y353582D02*
X70470Y353256D01*
X68159Y352298D01*
X66175Y350775D01*
X64652Y348791D01*
X63695Y346480D01*
X63368Y344000D01*
Y334000D01*
X63695Y331520D01*
X64652Y329209D01*
X66175Y327225D01*
X68159Y325702D01*
X69891Y324984D01*
Y323737D01*
X60837Y314683D01*
X60174Y313690D01*
X59941Y312520D01*
X59941Y312520D01*
Y253000D01*
X59941Y253000D01*
X60174Y251829D01*
X60837Y250837D01*
X73150Y238525D01*
X73150Y238524D01*
X74142Y237861D01*
X74471Y237796D01*
X74745Y235720D01*
X75702Y233409D01*
X77224Y231425D01*
X79209Y229902D01*
X81520Y228945D01*
X84000Y228618D01*
X94000D01*
X96480Y228945D01*
X98791Y229902D01*
X100775Y231425D01*
X102298Y233409D01*
X103256Y235720D01*
X103582Y238200D01*
X103256Y240680D01*
X102298Y242991D01*
X100775Y244975D01*
X98791Y246498D01*
X96480Y247456D01*
X94000Y247782D01*
X84000D01*
X81520Y247456D01*
X79209Y246498D01*
X77224Y244975D01*
X76997Y244679D01*
X75730Y244596D01*
X66059Y254267D01*
Y311253D01*
X75113Y320307D01*
X75113Y320307D01*
X75776Y321299D01*
X76009Y322470D01*
X76009Y322470D01*
Y324984D01*
X77741Y325702D01*
X79725Y327225D01*
X81248Y329209D01*
X82205Y331520D01*
X82532Y334000D01*
Y344000D01*
X82205Y346480D01*
X81248Y348791D01*
X79725Y350775D01*
X77741Y352298D01*
X75430Y353256D01*
X72950Y353582D01*
D02*
G37*
G36*
X306683Y237050D02*
X292950D01*
Y228218D01*
X297200D01*
X299680Y228545D01*
X301991Y229502D01*
X303976Y231025D01*
X305498Y233009D01*
X306455Y235320D01*
X306683Y237050D01*
D02*
G37*
G36*
X291450D02*
X277717D01*
X277945Y235320D01*
X278902Y233009D01*
X280424Y231025D01*
X282409Y229502D01*
X284720Y228545D01*
X287200Y228218D01*
X291450D01*
Y237050D01*
D02*
G37*
G36*
X349400Y352582D02*
X346920Y352256D01*
X344609Y351298D01*
X342625Y349776D01*
X341102Y347791D01*
X340145Y345480D01*
X339818Y343000D01*
Y333000D01*
X340145Y330520D01*
X341102Y328209D01*
X342625Y326225D01*
X344609Y324702D01*
X345341Y324398D01*
Y227622D01*
X344632Y226561D01*
X344322Y225000D01*
X344632Y223439D01*
X345516Y222116D01*
X346839Y221232D01*
X348400Y220922D01*
X349961Y221232D01*
X351284Y222116D01*
X352168Y223439D01*
X352478Y225000D01*
X352168Y226561D01*
X351459Y227622D01*
Y323689D01*
X351880Y323745D01*
X354191Y324702D01*
X356175Y326225D01*
X357698Y328209D01*
X358656Y330520D01*
X358982Y333000D01*
Y343000D01*
X358656Y345480D01*
X357698Y347791D01*
X356175Y349776D01*
X354191Y351298D01*
X351880Y352256D01*
X349400Y352582D01*
D02*
G37*
G36*
X297200Y221982D02*
X287200D01*
X284720Y221656D01*
X282409Y220698D01*
X280424Y219175D01*
X278902Y217191D01*
X277945Y214880D01*
X277618Y212400D01*
X277945Y209920D01*
X278902Y207609D01*
X280424Y205625D01*
X282409Y204102D01*
X284720Y203145D01*
X287200Y202818D01*
X297200D01*
X299680Y203145D01*
X301991Y204102D01*
X303976Y205625D01*
X305498Y207609D01*
X306455Y209920D01*
X306782Y212400D01*
X306455Y214880D01*
X305498Y217191D01*
X303976Y219175D01*
X301991Y220698D01*
X299680Y221656D01*
X297200Y221982D01*
D02*
G37*
G36*
X94000D02*
X84000D01*
X81520Y221656D01*
X79209Y220698D01*
X77224Y219175D01*
X75702Y217191D01*
X74745Y214880D01*
X74418Y212400D01*
X74745Y209920D01*
X75702Y207609D01*
X77224Y205625D01*
X79209Y204102D01*
X81520Y203145D01*
X84000Y202818D01*
X94000D01*
X96480Y203145D01*
X98791Y204102D01*
X100775Y205625D01*
X102298Y207609D01*
X103256Y209920D01*
X103582Y212400D01*
X103256Y214880D01*
X102298Y217191D01*
X100775Y219175D01*
X98791Y220698D01*
X96480Y221656D01*
X94000Y221982D01*
D02*
G37*
G36*
X22250Y205000D02*
X16750D01*
Y200750D01*
X22250D01*
Y205000D01*
D02*
G37*
G36*
X15250D02*
X9750D01*
Y200750D01*
X15250D01*
Y205000D01*
D02*
G37*
G36*
X22250Y199250D02*
X16750D01*
Y195000D01*
X22250D01*
Y199250D01*
D02*
G37*
G36*
X15250D02*
X9750D01*
Y195000D01*
X15250D01*
Y199250D01*
D02*
G37*
G36*
X297200Y196582D02*
X287200D01*
X284720Y196255D01*
X282409Y195298D01*
X280424Y193776D01*
X278902Y191791D01*
X277945Y189480D01*
X277618Y187000D01*
X277945Y184520D01*
X278902Y182209D01*
X280424Y180225D01*
X282409Y178702D01*
X284720Y177745D01*
X287200Y177418D01*
X297200D01*
X299680Y177745D01*
X301991Y178702D01*
X303976Y180225D01*
X305498Y182209D01*
X306455Y184520D01*
X306782Y187000D01*
X306455Y189480D01*
X305498Y191791D01*
X303976Y193776D01*
X301991Y195298D01*
X299680Y196255D01*
X297200Y196582D01*
D02*
G37*
G36*
X94000D02*
X84000D01*
X81520Y196255D01*
X79209Y195298D01*
X77224Y193776D01*
X75702Y191791D01*
X74745Y189480D01*
X74418Y187000D01*
X74745Y184520D01*
X75702Y182209D01*
X77224Y180225D01*
X79209Y178702D01*
X81520Y177745D01*
X84000Y177418D01*
X94000D01*
X96480Y177745D01*
X98791Y178702D01*
X100775Y180225D01*
X102298Y182209D01*
X103256Y184520D01*
X103582Y187000D01*
X103256Y189480D01*
X102298Y191791D01*
X100775Y193776D01*
X98791Y195298D01*
X96480Y196255D01*
X94000Y196582D01*
D02*
G37*
G36*
X297200Y171182D02*
X287200D01*
X284720Y170856D01*
X282409Y169898D01*
X280424Y168375D01*
X278902Y166391D01*
X277945Y164080D01*
X277618Y161600D01*
X277945Y159120D01*
X278902Y156809D01*
X280424Y154825D01*
X282409Y153302D01*
X284720Y152345D01*
X287200Y152018D01*
X297200D01*
X299680Y152345D01*
X301991Y153302D01*
X303976Y154825D01*
X305498Y156809D01*
X306455Y159120D01*
X306782Y161600D01*
X306455Y164080D01*
X305498Y166391D01*
X303976Y168375D01*
X301991Y169898D01*
X299680Y170856D01*
X297200Y171182D01*
D02*
G37*
G36*
X94000Y169782D02*
X84000D01*
X81520Y169456D01*
X79209Y168498D01*
X77224Y166975D01*
X75702Y164991D01*
X74745Y162680D01*
X74418Y160200D01*
X74745Y157720D01*
X75702Y155409D01*
X77224Y153425D01*
X79209Y151902D01*
X81520Y150945D01*
X84000Y150618D01*
X94000D01*
X96480Y150945D01*
X98791Y151902D01*
X100775Y153425D01*
X102298Y155409D01*
X103256Y157720D01*
X103582Y160200D01*
X103256Y162680D01*
X102298Y164991D01*
X100775Y166975D01*
X98791Y168498D01*
X96480Y169456D01*
X94000Y169782D01*
D02*
G37*
G36*
X22250Y189000D02*
X9750D01*
Y179000D01*
X12941D01*
Y152500D01*
X9750D01*
Y143500D01*
X22250D01*
Y152500D01*
X19059D01*
Y179000D01*
X22250D01*
Y189000D01*
D02*
G37*
G36*
Y136500D02*
X9750D01*
Y127500D01*
X22250D01*
Y130751D01*
X22522Y132120D01*
X22250Y133489D01*
Y136500D01*
D02*
G37*
G36*
X94000Y145782D02*
X84000D01*
X81520Y145456D01*
X79209Y144498D01*
X77224Y142976D01*
X75702Y140991D01*
X74745Y138680D01*
X74418Y136200D01*
X74745Y133720D01*
X75702Y131409D01*
X77224Y129425D01*
X79209Y127902D01*
X81520Y126945D01*
X84000Y126618D01*
X94000D01*
X96480Y126945D01*
X98791Y127902D01*
X100775Y129425D01*
X102298Y131409D01*
X103256Y133720D01*
X103582Y136200D01*
X103256Y138680D01*
X102298Y140991D01*
X100775Y142976D01*
X98791Y144498D01*
X96480Y145456D01*
X94000Y145782D01*
D02*
G37*
G36*
X232350Y36483D02*
Y22750D01*
X241182D01*
Y27000D01*
X240855Y29480D01*
X239898Y31791D01*
X238375Y33775D01*
X236391Y35298D01*
X234080Y36256D01*
X232350Y36483D01*
D02*
G37*
G36*
X230850D02*
X229120Y36256D01*
X226809Y35298D01*
X224825Y33775D01*
X223302Y31791D01*
X222344Y29480D01*
X222018Y27000D01*
Y22750D01*
X230850D01*
Y36483D01*
D02*
G37*
G36*
X241182Y21250D02*
X232350D01*
Y7517D01*
X234080Y7745D01*
X236391Y8702D01*
X238375Y10224D01*
X239898Y12209D01*
X240855Y14520D01*
X241182Y17000D01*
Y21250D01*
D02*
G37*
G36*
X230850D02*
X222018D01*
Y17000D01*
X222344Y14520D01*
X223302Y12209D01*
X224825Y10224D01*
X226809Y8702D01*
X229120Y7745D01*
X230850Y7517D01*
Y21250D01*
D02*
G37*
G36*
X188000Y216478D02*
X186439Y216168D01*
X185116Y215284D01*
X184232Y213961D01*
X183983Y212709D01*
X178637Y207363D01*
X177974Y206371D01*
X177741Y205200D01*
X177741Y205200D01*
Y36016D01*
X176009Y35298D01*
X174025Y33775D01*
X172502Y31791D01*
X171544Y29480D01*
X171218Y27000D01*
Y17000D01*
X171544Y14520D01*
X172502Y12209D01*
X174025Y10224D01*
X176009Y8702D01*
X178320Y7745D01*
X180800Y7418D01*
X183280Y7745D01*
X185591Y8702D01*
X187575Y10224D01*
X189098Y12209D01*
X190055Y14520D01*
X190382Y17000D01*
Y27000D01*
X190055Y29480D01*
X189098Y31791D01*
X187575Y33775D01*
X185591Y35298D01*
X183859Y36016D01*
Y203933D01*
X188309Y208383D01*
X189561Y208632D01*
X190884Y209516D01*
X191768Y210839D01*
X192078Y212400D01*
X191768Y213961D01*
X190884Y215284D01*
X189561Y216168D01*
X188000Y216478D01*
D02*
G37*
G36*
X166000Y188078D02*
X164439Y187768D01*
X163116Y186884D01*
X162232Y185561D01*
X161983Y184309D01*
X152837Y175163D01*
X152174Y174170D01*
X151941Y173000D01*
X151941Y173000D01*
Y36016D01*
X150209Y35298D01*
X148224Y33775D01*
X146702Y31791D01*
X145744Y29480D01*
X145418Y27000D01*
Y17000D01*
X145744Y14520D01*
X146702Y12209D01*
X148224Y10224D01*
X150209Y8702D01*
X152520Y7745D01*
X155000Y7418D01*
X157480Y7745D01*
X159791Y8702D01*
X161775Y10224D01*
X163298Y12209D01*
X164255Y14520D01*
X164582Y17000D01*
Y27000D01*
X164255Y29480D01*
X163298Y31791D01*
X161775Y33775D01*
X159791Y35298D01*
X158059Y36016D01*
Y171733D01*
X166309Y179983D01*
X167561Y180232D01*
X168884Y181116D01*
X169768Y182439D01*
X170078Y184000D01*
X169768Y185561D01*
X168884Y186884D01*
X167561Y187768D01*
X166000Y188078D01*
D02*
G37*
G36*
X130000Y36582D02*
X127520Y36256D01*
X125209Y35298D01*
X123224Y33775D01*
X121702Y31791D01*
X120744Y29480D01*
X120418Y27000D01*
Y17000D01*
X120744Y14520D01*
X121702Y12209D01*
X123224Y10224D01*
X125209Y8702D01*
X127520Y7745D01*
X130000Y7418D01*
X132480Y7745D01*
X134791Y8702D01*
X136775Y10224D01*
X138298Y12209D01*
X139255Y14520D01*
X139582Y17000D01*
Y27000D01*
X139255Y29480D01*
X138298Y31791D01*
X136775Y33775D01*
X134791Y35298D01*
X132480Y36256D01*
X130000Y36582D01*
D02*
G37*
G36*
X72790D02*
X70310Y36256D01*
X67999Y35298D01*
X66015Y33775D01*
X64492Y31791D01*
X63535Y29480D01*
X63208Y27000D01*
Y17000D01*
X63535Y14520D01*
X64492Y12209D01*
X66015Y10224D01*
X67999Y8702D01*
X70310Y7745D01*
X72790Y7418D01*
X75270Y7745D01*
X77581Y8702D01*
X79566Y10224D01*
X81088Y12209D01*
X82046Y14520D01*
X82372Y17000D01*
Y27000D01*
X82046Y29480D01*
X81088Y31791D01*
X79566Y33775D01*
X77581Y35298D01*
X75270Y36256D01*
X72790Y36582D01*
D02*
G37*
G36*
X47550Y353582D02*
X45070Y353256D01*
X42759Y352298D01*
X40774Y350775D01*
X39252Y348791D01*
X38294Y346480D01*
X37968Y344000D01*
Y334000D01*
X38294Y331520D01*
X39252Y329209D01*
X40774Y327225D01*
X42759Y325702D01*
X44331Y325050D01*
Y36016D01*
X42599Y35298D01*
X40615Y33775D01*
X39092Y31791D01*
X38135Y29480D01*
X37808Y27000D01*
Y17000D01*
X38135Y14520D01*
X39092Y12209D01*
X40615Y10224D01*
X42599Y8702D01*
X44910Y7745D01*
X47390Y7418D01*
X49870Y7745D01*
X52181Y8702D01*
X54166Y10224D01*
X55689Y12209D01*
X56646Y14520D01*
X56972Y17000D01*
Y27000D01*
X56646Y29480D01*
X55689Y31791D01*
X54166Y33775D01*
X52181Y35298D01*
X50449Y36016D01*
Y324918D01*
X52341Y325702D01*
X54325Y327225D01*
X55848Y329209D01*
X56805Y331520D01*
X57132Y334000D01*
Y344000D01*
X56805Y346480D01*
X55848Y348791D01*
X54325Y350775D01*
X52341Y352298D01*
X50030Y353256D01*
X47550Y353582D01*
D02*
G37*
G36*
X32000Y192078D02*
X30439Y191768D01*
X29116Y190884D01*
X28232Y189561D01*
X27922Y188000D01*
X28232Y186439D01*
X28941Y185378D01*
Y78267D01*
X21837Y71163D01*
X21174Y70170D01*
X20941Y69000D01*
X20941Y69000D01*
Y36444D01*
X19510Y36256D01*
X17199Y35298D01*
X15215Y33775D01*
X13692Y31791D01*
X12735Y29480D01*
X12408Y27000D01*
Y17000D01*
X12735Y14520D01*
X13692Y12209D01*
X15215Y10224D01*
X17199Y8702D01*
X19510Y7745D01*
X21990Y7418D01*
X24470Y7745D01*
X26781Y8702D01*
X28766Y10224D01*
X30289Y12209D01*
X31246Y14520D01*
X31572Y17000D01*
Y27000D01*
X31246Y29480D01*
X30289Y31791D01*
X28766Y33775D01*
X27059Y35085D01*
Y67733D01*
X34163Y74837D01*
X34826Y75830D01*
X35059Y77000D01*
Y185378D01*
X35768Y186439D01*
X36078Y188000D01*
X35768Y189561D01*
X34884Y190884D01*
X33561Y191768D01*
X32000Y192078D01*
D02*
G37*
G36*
X348400Y35582D02*
X345920Y35255D01*
X343609Y34298D01*
X341624Y32775D01*
X340102Y30791D01*
X339145Y28480D01*
X338818Y26000D01*
Y16000D01*
X339145Y13520D01*
X340102Y11209D01*
X341624Y9225D01*
X343609Y7702D01*
X345920Y6744D01*
X348400Y6418D01*
X350880Y6744D01*
X353191Y7702D01*
X355175Y9225D01*
X356698Y11209D01*
X357655Y13520D01*
X357982Y16000D01*
Y26000D01*
X357655Y28480D01*
X356698Y30791D01*
X355175Y32775D01*
X353191Y34298D01*
X350880Y35255D01*
X348400Y35582D01*
D02*
G37*
%LPD*%
D13*
X16000Y148000D02*
D03*
Y132000D02*
D03*
X258750Y318200D02*
D03*
Y334200D02*
D03*
D14*
X16000Y184000D02*
D03*
Y200000D02*
D03*
D20*
Y148000D02*
Y184000D01*
X227000Y313500D02*
X228957Y311543D01*
Y309286D02*
Y311543D01*
Y309286D02*
X229000Y309243D01*
Y160200D02*
Y309243D01*
X227000Y313500D02*
X253743D01*
X255500Y315257D01*
Y316700D01*
X257000Y318200D01*
X258750D01*
X348400Y337000D02*
X349400Y338000D01*
X348400Y225000D02*
Y337000D01*
X317600Y41000D02*
Y246600D01*
X301000Y263200D02*
X317600Y246600D01*
X297600Y21000D02*
Y22482D01*
X303605Y28487D01*
X305087D01*
X317600Y41000D01*
X72950Y322470D02*
Y339000D01*
X63000Y312520D02*
X72950Y322470D01*
X63000Y253000D02*
Y312520D01*
Y253000D02*
X75313Y240687D01*
X86513D02*
X89000Y238200D01*
X75313Y240687D02*
X86513D01*
X323000Y337000D02*
X324000Y338000D01*
X323000Y21000D02*
Y337000D01*
X47390Y22000D02*
Y338840D01*
X47550Y339000D01*
X21990Y22000D02*
X24000Y24010D01*
Y69000D01*
X32000Y77000D02*
Y188000D01*
X24000Y69000D02*
X32000Y77000D01*
X221000Y326200D02*
X227000D01*
X206200Y22000D02*
Y311400D01*
X221000Y326200D01*
X180800Y22000D02*
Y205200D01*
X188000Y212400D01*
X155000Y22000D02*
Y173000D01*
X166000Y184000D01*
D21*
X231600Y22000D02*
D03*
X180800D02*
D03*
X155000D02*
D03*
X130000D02*
D03*
X206200D02*
D03*
X298600Y338000D02*
D03*
X324000D02*
D03*
X349400D02*
D03*
X22150Y339000D02*
D03*
X47550D02*
D03*
X72950D02*
D03*
X72790Y22000D02*
D03*
X47390D02*
D03*
X21990D02*
D03*
X348400Y21000D02*
D03*
X323000D02*
D03*
X297600D02*
D03*
D22*
X292200Y161600D02*
D03*
Y187000D02*
D03*
Y212400D02*
D03*
Y237800D02*
D03*
X89000Y136200D02*
D03*
Y160200D02*
D03*
Y187000D02*
D03*
Y263200D02*
D03*
Y238200D02*
D03*
Y212400D02*
D03*
D23*
X227000Y338900D02*
D03*
Y326200D02*
D03*
Y313500D02*
D03*
D24*
X18444Y132120D02*
D03*
X229000Y160200D02*
D03*
X348400Y225000D02*
D03*
X301000Y263200D02*
D03*
X32000Y188000D02*
D03*
X188000Y212400D02*
D03*
X166000Y184000D02*
D03*
M02*
