G04*
G04 #@! TF.GenerationSoftware,Altium Limited,Altium Designer,22.7.1 (60)*
G04*
G04 Layer_Physical_Order=2*
G04 Layer_Color=16711680*
%FSLAX44Y44*%
%MOMM*%
G71*
G04*
G04 #@! TF.SameCoordinates,7FD8A325-ED4A-4E6D-A823-A032D3294E47*
G04*
G04*
G04 #@! TF.FilePolarity,Positive*
G04*
G01*
G75*
%ADD20C,0.3000*%
%ADD21O,1.6000X2.6000*%
%ADD22O,2.6000X1.6000*%
%ADD23O,1.0000X0.8000*%
%ADD24C,0.5000*%
G36*
X368441Y358441D02*
X368442Y1558D01*
X346535D01*
X346150Y2828D01*
X346163Y2837D01*
X348163Y4837D01*
X348826Y5829D01*
X348958Y6492D01*
X350880Y6744D01*
X353191Y7702D01*
X355175Y9225D01*
X356698Y11209D01*
X357655Y13520D01*
X357982Y16000D01*
Y26000D01*
X357655Y28480D01*
X356698Y30791D01*
X355175Y32775D01*
X353191Y34298D01*
X350880Y35255D01*
X348400Y35582D01*
X345920Y35255D01*
X343609Y34298D01*
X341624Y32775D01*
X340102Y30791D01*
X339145Y28480D01*
X338818Y26000D01*
Y16000D01*
X339145Y13520D01*
X340102Y11209D01*
X341545Y9329D01*
X341457Y8880D01*
X341058Y8059D01*
X330171D01*
X330011Y8531D01*
X329855Y9329D01*
X331298Y11209D01*
X332255Y13520D01*
X332582Y16000D01*
Y26000D01*
X332255Y28480D01*
X331298Y30791D01*
X329775Y32775D01*
X327791Y34298D01*
X325480Y35255D01*
X323000Y35582D01*
X320520Y35255D01*
X318209Y34298D01*
X316224Y32775D01*
X314702Y30791D01*
X313745Y28480D01*
X313418Y26000D01*
Y16000D01*
X313745Y13520D01*
X314702Y11209D01*
X316145Y9329D01*
X315989Y8531D01*
X315829Y8059D01*
X304771D01*
X304611Y8531D01*
X304455Y9329D01*
X305898Y11209D01*
X306855Y13520D01*
X307182Y16000D01*
Y26000D01*
X306855Y28480D01*
X305898Y30791D01*
X304375Y32775D01*
X302391Y34298D01*
X300080Y35255D01*
X297600Y35582D01*
X295120Y35255D01*
X292809Y34298D01*
X290825Y32775D01*
X289302Y30791D01*
X288344Y28480D01*
X288018Y26000D01*
Y16000D01*
X288344Y13520D01*
X289302Y11209D01*
X290745Y9329D01*
X290589Y8531D01*
X290429Y8059D01*
X237639D01*
X237208Y9329D01*
X238375Y10224D01*
X239898Y12209D01*
X240855Y14520D01*
X241182Y17000D01*
Y21250D01*
X231600D01*
X222018D01*
Y17000D01*
X222344Y14520D01*
X223302Y12209D01*
X224825Y10224D01*
X225992Y9329D01*
X225561Y8059D01*
X212239D01*
X211808Y9329D01*
X212975Y10224D01*
X214498Y12209D01*
X215455Y14520D01*
X215782Y17000D01*
Y27000D01*
X215455Y29480D01*
X214498Y31791D01*
X212975Y33775D01*
X210991Y35298D01*
X208680Y36256D01*
X206200Y36582D01*
X203720Y36256D01*
X201409Y35298D01*
X199424Y33775D01*
X197902Y31791D01*
X196945Y29480D01*
X196618Y27000D01*
Y17000D01*
X196945Y14520D01*
X197902Y12209D01*
X199424Y10224D01*
X200592Y9329D01*
X200161Y8059D01*
X186839D01*
X186408Y9329D01*
X187575Y10224D01*
X189098Y12209D01*
X190055Y14520D01*
X190382Y17000D01*
Y27000D01*
X190055Y29480D01*
X189098Y31791D01*
X187575Y33775D01*
X185591Y35298D01*
X183280Y36256D01*
X180800Y36582D01*
X178320Y36256D01*
X176009Y35298D01*
X174025Y33775D01*
X172502Y31791D01*
X171544Y29480D01*
X171218Y27000D01*
Y17000D01*
X171544Y14520D01*
X172502Y12209D01*
X174025Y10224D01*
X175192Y9329D01*
X174761Y8059D01*
X161039D01*
X160608Y9329D01*
X161775Y10224D01*
X163298Y12209D01*
X164255Y14520D01*
X164582Y17000D01*
Y27000D01*
X164255Y29480D01*
X163298Y31791D01*
X161775Y33775D01*
X159791Y35298D01*
X157480Y36256D01*
X155000Y36582D01*
X152520Y36256D01*
X150209Y35298D01*
X148224Y33775D01*
X146702Y31791D01*
X145744Y29480D01*
X145418Y27000D01*
Y17000D01*
X145744Y14520D01*
X146702Y12209D01*
X148224Y10224D01*
X149392Y9329D01*
X148961Y8059D01*
X136039D01*
X135608Y9329D01*
X136775Y10224D01*
X138298Y12209D01*
X139255Y14520D01*
X139582Y17000D01*
Y27000D01*
X139255Y29480D01*
X138298Y31791D01*
X136775Y33775D01*
X134791Y35298D01*
X133059Y36016D01*
Y119000D01*
Y157333D01*
X134267Y158541D01*
X225298D01*
X226116Y157316D01*
X227439Y156432D01*
X229000Y156122D01*
X230561Y156432D01*
X231884Y157316D01*
X232702Y158541D01*
X278184D01*
X278902Y156809D01*
X280424Y154825D01*
X282409Y153302D01*
X284720Y152345D01*
X287200Y152018D01*
X297200D01*
X299680Y152345D01*
X301991Y153302D01*
X303976Y154825D01*
X305498Y156809D01*
X306455Y159120D01*
X306782Y161600D01*
X306455Y164080D01*
X305498Y166391D01*
X303976Y168375D01*
X301991Y169898D01*
X299680Y170856D01*
X297200Y171182D01*
X287200D01*
X284720Y170856D01*
X282409Y169898D01*
X280424Y168375D01*
X278902Y166391D01*
X278184Y164659D01*
X230400D01*
X230400Y164659D01*
X229230Y164426D01*
X229007Y164277D01*
X229000Y164278D01*
X228576Y164194D01*
X228229Y164426D01*
X227059Y164659D01*
X227059Y164659D01*
X133000D01*
X131830Y164426D01*
X130837Y163763D01*
X127837Y160763D01*
X127174Y159770D01*
X126941Y158600D01*
X126941Y158600D01*
Y122059D01*
X32831D01*
X22461Y132429D01*
X22212Y133681D01*
X21328Y135004D01*
X20005Y135888D01*
X18444Y136198D01*
X16883Y135888D01*
X15560Y135004D01*
X14676Y133681D01*
X14366Y132120D01*
X14676Y130559D01*
X15560Y129236D01*
X16883Y128352D01*
X18135Y128103D01*
X29401Y116837D01*
X29401Y116837D01*
X30393Y116174D01*
X31564Y115941D01*
X126941D01*
Y36016D01*
X125209Y35298D01*
X123224Y33775D01*
X121702Y31791D01*
X120744Y29480D01*
X120418Y27000D01*
Y17000D01*
X120744Y14520D01*
X121702Y12209D01*
X123224Y10224D01*
X124392Y9329D01*
X123961Y8059D01*
X85768D01*
X81243Y12583D01*
X82046Y14520D01*
X82372Y17000D01*
Y27000D01*
X82046Y29480D01*
X81088Y31791D01*
X79566Y33775D01*
X77581Y35298D01*
X75270Y36256D01*
X72790Y36582D01*
X70310Y36256D01*
X67999Y35298D01*
X66015Y33775D01*
X64492Y31791D01*
X63535Y29480D01*
X63208Y27000D01*
Y17000D01*
X63535Y14520D01*
X64492Y12209D01*
X66015Y10224D01*
X67999Y8702D01*
X70310Y7745D01*
X72790Y7418D01*
X75270Y7745D01*
X76798Y8377D01*
X82338Y2837D01*
X82338Y2837D01*
X82351Y2828D01*
X81966Y1558D01*
X1558Y1558D01*
X1558Y358442D01*
X368441Y358441D01*
D02*
G37*
%LPC*%
G36*
X228000Y344508D02*
X227750D01*
Y339650D01*
X233459D01*
X233181Y341046D01*
X231965Y342865D01*
X230146Y344081D01*
X228000Y344508D01*
D02*
G37*
G36*
X226250D02*
X226000D01*
X223854Y344081D01*
X222035Y342865D01*
X220819Y341046D01*
X220541Y339650D01*
X226250D01*
Y344508D01*
D02*
G37*
G36*
X233459Y338150D02*
X227750D01*
Y333292D01*
X228000D01*
X230146Y333719D01*
X231965Y334935D01*
X233181Y336754D01*
X233459Y338150D01*
D02*
G37*
G36*
X226250D02*
X220541D01*
X220819Y336754D01*
X222035Y334935D01*
X223854Y333719D01*
X226000Y333292D01*
X226250D01*
Y338150D01*
D02*
G37*
G36*
X72950Y353582D02*
X70470Y353256D01*
X68159Y352298D01*
X66175Y350775D01*
X64652Y348791D01*
X63695Y346480D01*
X63368Y344000D01*
Y334000D01*
X63695Y331520D01*
X64652Y329209D01*
X66175Y327225D01*
X68159Y325702D01*
X70470Y324744D01*
X72950Y324418D01*
X75430Y324744D01*
X77741Y325702D01*
X79725Y327225D01*
X81248Y329209D01*
X82205Y331520D01*
X82532Y334000D01*
Y344000D01*
X82205Y346480D01*
X81248Y348791D01*
X79725Y350775D01*
X77741Y352298D01*
X75430Y353256D01*
X72950Y353582D01*
D02*
G37*
G36*
X47550D02*
X45070Y353256D01*
X42759Y352298D01*
X40774Y350775D01*
X39252Y348791D01*
X38294Y346480D01*
X37968Y344000D01*
Y334000D01*
X38294Y331520D01*
X39252Y329209D01*
X40774Y327225D01*
X42759Y325702D01*
X45070Y324744D01*
X47550Y324418D01*
X50030Y324744D01*
X52341Y325702D01*
X54325Y327225D01*
X55848Y329209D01*
X56805Y331520D01*
X57132Y334000D01*
Y344000D01*
X56805Y346480D01*
X55848Y348791D01*
X54325Y350775D01*
X52341Y352298D01*
X50030Y353256D01*
X47550Y353582D01*
D02*
G37*
G36*
X349400Y352582D02*
X346920Y352256D01*
X344609Y351298D01*
X342625Y349776D01*
X341102Y347791D01*
X340145Y345480D01*
X339818Y343000D01*
Y333000D01*
X340145Y330520D01*
X341102Y328209D01*
X342625Y326225D01*
X344609Y324702D01*
X346920Y323745D01*
X349400Y323418D01*
X351880Y323745D01*
X354191Y324702D01*
X356175Y326225D01*
X357698Y328209D01*
X358656Y330520D01*
X358982Y333000D01*
Y343000D01*
X358656Y345480D01*
X357698Y347791D01*
X356175Y349776D01*
X354191Y351298D01*
X351880Y352256D01*
X349400Y352582D01*
D02*
G37*
G36*
X324000D02*
X321520Y352256D01*
X319209Y351298D01*
X317225Y349776D01*
X315702Y347791D01*
X314745Y345480D01*
X314418Y343000D01*
Y333000D01*
X314745Y330520D01*
X315702Y328209D01*
X317225Y326225D01*
X319209Y324702D01*
X321520Y323745D01*
X324000Y323418D01*
X326480Y323745D01*
X328791Y324702D01*
X330775Y326225D01*
X332298Y328209D01*
X333256Y330520D01*
X333582Y333000D01*
Y343000D01*
X333256Y345480D01*
X332298Y347791D01*
X330775Y349776D01*
X328791Y351298D01*
X326480Y352256D01*
X324000Y352582D01*
D02*
G37*
G36*
X22150Y353582D02*
X19670Y353256D01*
X17359Y352298D01*
X15374Y350775D01*
X13852Y348791D01*
X12895Y346480D01*
X12568Y344000D01*
Y334000D01*
X12895Y331520D01*
X13852Y329209D01*
X15374Y327225D01*
X17359Y325702D01*
X19091Y324984D01*
Y321474D01*
X19091Y321474D01*
X19324Y320303D01*
X19987Y319311D01*
X27461Y311837D01*
X28454Y311174D01*
X29624Y310941D01*
X144800D01*
X144800Y310941D01*
X145970Y311174D01*
X146963Y311837D01*
X182067Y346941D01*
X285333D01*
X288950Y343325D01*
X288950Y343325D01*
X289052Y343256D01*
X289018Y343000D01*
Y333000D01*
X289345Y330520D01*
X290302Y328209D01*
X291825Y326225D01*
X293809Y324702D01*
X296120Y323745D01*
X298600Y323418D01*
X301080Y323745D01*
X303391Y324702D01*
X305375Y326225D01*
X306898Y328209D01*
X307855Y330520D01*
X308182Y333000D01*
Y343000D01*
X307855Y345480D01*
X306898Y347791D01*
X305375Y349776D01*
X303391Y351298D01*
X301080Y352256D01*
X298600Y352582D01*
X296120Y352256D01*
X293809Y351298D01*
X291825Y349776D01*
X291192Y349734D01*
X288763Y352163D01*
X287771Y352826D01*
X286600Y353059D01*
X286600Y353059D01*
X180800D01*
X180800Y353059D01*
X179629Y352826D01*
X178637Y352163D01*
X143533Y317059D01*
X30891D01*
X25209Y322741D01*
Y324984D01*
X26941Y325702D01*
X28925Y327225D01*
X30448Y329209D01*
X31405Y331520D01*
X31732Y334000D01*
Y344000D01*
X31405Y346480D01*
X30448Y348791D01*
X28925Y350775D01*
X26941Y352298D01*
X24630Y353256D01*
X22150Y353582D01*
D02*
G37*
G36*
X228000Y331808D02*
X226000D01*
X223854Y331381D01*
X222035Y330165D01*
X220819Y328346D01*
X220392Y326200D01*
X220819Y324054D01*
X222035Y322235D01*
X223854Y321019D01*
X226000Y320592D01*
X228000D01*
X230146Y321019D01*
X231965Y322235D01*
X233181Y324054D01*
X233608Y326200D01*
X233181Y328346D01*
X231965Y330165D01*
X230146Y331381D01*
X228000Y331808D01*
D02*
G37*
G36*
Y319108D02*
X226000D01*
X223854Y318681D01*
X222035Y317465D01*
X220819Y315646D01*
X220392Y313500D01*
X220819Y311354D01*
X222035Y309535D01*
X223854Y308319D01*
X226000Y307892D01*
X228000D01*
X230146Y308319D01*
X231965Y309535D01*
X233181Y311354D01*
X233608Y313500D01*
X233181Y315646D01*
X231965Y317465D01*
X230146Y318681D01*
X228000Y319108D01*
D02*
G37*
G36*
X94000Y272782D02*
X84000D01*
X81520Y272456D01*
X79209Y271498D01*
X77224Y269975D01*
X75702Y267991D01*
X74745Y265680D01*
X74418Y263200D01*
X74745Y260720D01*
X75702Y258409D01*
X77224Y256425D01*
X79209Y254902D01*
X81520Y253945D01*
X84000Y253618D01*
X94000D01*
X96480Y253945D01*
X98791Y254902D01*
X100775Y256425D01*
X102298Y258409D01*
X103016Y260141D01*
X298378D01*
X299439Y259432D01*
X301000Y259122D01*
X302561Y259432D01*
X303884Y260316D01*
X304768Y261639D01*
X305078Y263200D01*
X304768Y264761D01*
X303884Y266084D01*
X302561Y266968D01*
X301000Y267278D01*
X299439Y266968D01*
X298378Y266259D01*
X103016D01*
X102298Y267991D01*
X100775Y269975D01*
X98791Y271498D01*
X96480Y272456D01*
X94000Y272782D01*
D02*
G37*
G36*
X297200Y247382D02*
X292950D01*
Y238550D01*
X306683D01*
X306455Y240280D01*
X305498Y242591D01*
X303976Y244576D01*
X301991Y246098D01*
X299680Y247055D01*
X297200Y247382D01*
D02*
G37*
G36*
X291450D02*
X287200D01*
X284720Y247055D01*
X282409Y246098D01*
X280424Y244576D01*
X278902Y242591D01*
X277945Y240280D01*
X277717Y238550D01*
X291450D01*
Y247382D01*
D02*
G37*
G36*
X94000Y247782D02*
X84000D01*
X81520Y247456D01*
X79209Y246498D01*
X77224Y244975D01*
X75702Y242991D01*
X74745Y240680D01*
X74418Y238200D01*
X74745Y235720D01*
X75702Y233409D01*
X77224Y231425D01*
X79209Y229902D01*
X81520Y228945D01*
X84000Y228618D01*
X94000D01*
X96480Y228945D01*
X98791Y229902D01*
X100775Y231425D01*
X102298Y233409D01*
X103256Y235720D01*
X103582Y238200D01*
X103256Y240680D01*
X102298Y242991D01*
X100775Y244975D01*
X98791Y246498D01*
X96480Y247456D01*
X94000Y247782D01*
D02*
G37*
G36*
X306683Y237050D02*
X277717D01*
X277945Y235320D01*
X278902Y233009D01*
X280424Y231025D01*
X282409Y229502D01*
X282827Y229329D01*
X282574Y228059D01*
X133000D01*
X133000Y228059D01*
X131830Y227826D01*
X130837Y227163D01*
X119133Y215459D01*
X103016D01*
X102298Y217191D01*
X100775Y219175D01*
X98791Y220698D01*
X96480Y221656D01*
X94000Y221982D01*
X84000D01*
X81520Y221656D01*
X79209Y220698D01*
X77224Y219175D01*
X75702Y217191D01*
X74745Y214880D01*
X74418Y212400D01*
X74745Y209920D01*
X75702Y207609D01*
X77224Y205625D01*
X79209Y204102D01*
X81520Y203145D01*
X84000Y202818D01*
X94000D01*
X96480Y203145D01*
X98791Y204102D01*
X100775Y205625D01*
X102298Y207609D01*
X103016Y209341D01*
X120400D01*
X120400Y209341D01*
X121571Y209574D01*
X122563Y210237D01*
X134267Y221941D01*
X282091D01*
X282387Y220786D01*
X282374Y220671D01*
X280424Y219175D01*
X278902Y217191D01*
X278184Y215459D01*
X190622D01*
X189561Y216168D01*
X188000Y216478D01*
X186439Y216168D01*
X185116Y215284D01*
X184232Y213961D01*
X183922Y212400D01*
X184232Y210839D01*
X185116Y209516D01*
X186439Y208632D01*
X188000Y208322D01*
X189561Y208632D01*
X190622Y209341D01*
X278184D01*
X278902Y207609D01*
X280424Y205625D01*
X282409Y204102D01*
X284720Y203145D01*
X287200Y202818D01*
X297200D01*
X299680Y203145D01*
X301991Y204102D01*
X303976Y205625D01*
X305498Y207609D01*
X306455Y209920D01*
X306782Y212400D01*
X306455Y214880D01*
X305498Y217191D01*
X303976Y219175D01*
X302026Y220671D01*
X302013Y220786D01*
X302309Y221941D01*
X345778D01*
X346839Y221232D01*
X348400Y220922D01*
X349961Y221232D01*
X351284Y222116D01*
X352168Y223439D01*
X352478Y225000D01*
X352168Y226561D01*
X351284Y227884D01*
X349961Y228768D01*
X348400Y229078D01*
X346839Y228768D01*
X345778Y228059D01*
X301826D01*
X301573Y229329D01*
X301991Y229502D01*
X303976Y231025D01*
X305498Y233009D01*
X306455Y235320D01*
X306683Y237050D01*
D02*
G37*
G36*
X94000Y196582D02*
X84000D01*
X81520Y196255D01*
X79209Y195298D01*
X77224Y193776D01*
X75702Y191791D01*
X74984Y190059D01*
X35435D01*
X34884Y190884D01*
X33561Y191768D01*
X32000Y192078D01*
X30439Y191768D01*
X29116Y190884D01*
X28232Y189561D01*
X27922Y188000D01*
X28232Y186439D01*
X29116Y185116D01*
X30439Y184232D01*
X32000Y183922D01*
X32549Y184031D01*
X33000Y183941D01*
X33000Y183941D01*
X74984D01*
X75702Y182209D01*
X77224Y180225D01*
X79209Y178702D01*
X81520Y177745D01*
X84000Y177418D01*
X94000D01*
X96480Y177745D01*
X98791Y178702D01*
X100775Y180225D01*
X102298Y182209D01*
X103256Y184520D01*
X103582Y187000D01*
X103256Y189480D01*
X102298Y191791D01*
X100775Y193776D01*
X98791Y195298D01*
X96480Y196255D01*
X94000Y196582D01*
D02*
G37*
G36*
X297200D02*
X287200D01*
X284720Y196255D01*
X282409Y195298D01*
X280424Y193776D01*
X278902Y191791D01*
X277945Y189480D01*
X277626Y187059D01*
X168622D01*
X167561Y187768D01*
X166000Y188078D01*
X164439Y187768D01*
X163116Y186884D01*
X162232Y185561D01*
X161922Y184000D01*
X162232Y182439D01*
X163116Y181116D01*
X164439Y180232D01*
X166000Y179922D01*
X167561Y180232D01*
X168622Y180941D01*
X278943D01*
X278943Y180941D01*
X279751Y181102D01*
X280424Y180225D01*
X282409Y178702D01*
X284720Y177745D01*
X287200Y177418D01*
X297200D01*
X299680Y177745D01*
X301991Y178702D01*
X303976Y180225D01*
X305498Y182209D01*
X306455Y184520D01*
X306782Y187000D01*
X306455Y189480D01*
X305498Y191791D01*
X303976Y193776D01*
X301991Y195298D01*
X299680Y196255D01*
X297200Y196582D01*
D02*
G37*
G36*
X94000Y169782D02*
X84000D01*
X81520Y169456D01*
X79209Y168498D01*
X77224Y166975D01*
X75702Y164991D01*
X74745Y162680D01*
X74418Y160200D01*
X74745Y157720D01*
X75702Y155409D01*
X77224Y153425D01*
X79209Y151902D01*
X81520Y150945D01*
X84000Y150618D01*
X94000D01*
X96480Y150945D01*
X98791Y151902D01*
X100775Y153425D01*
X102298Y155409D01*
X103256Y157720D01*
X103582Y160200D01*
X103256Y162680D01*
X102298Y164991D01*
X100775Y166975D01*
X98791Y168498D01*
X96480Y169456D01*
X94000Y169782D01*
D02*
G37*
G36*
Y145782D02*
X84000D01*
X81520Y145456D01*
X79209Y144498D01*
X77224Y142976D01*
X75702Y140991D01*
X74745Y138680D01*
X74418Y136200D01*
X74745Y133720D01*
X75702Y131409D01*
X77224Y129425D01*
X79209Y127902D01*
X81520Y126945D01*
X84000Y126618D01*
X94000D01*
X96480Y126945D01*
X98791Y127902D01*
X100775Y129425D01*
X102298Y131409D01*
X103256Y133720D01*
X103582Y136200D01*
X103256Y138680D01*
X102298Y140991D01*
X100775Y142976D01*
X98791Y144498D01*
X96480Y145456D01*
X94000Y145782D01*
D02*
G37*
G36*
X232350Y36483D02*
Y22750D01*
X241182D01*
Y27000D01*
X240855Y29480D01*
X239898Y31791D01*
X238375Y33775D01*
X236391Y35298D01*
X234080Y36256D01*
X232350Y36483D01*
D02*
G37*
G36*
X230850D02*
X229120Y36256D01*
X226809Y35298D01*
X224825Y33775D01*
X223302Y31791D01*
X222344Y29480D01*
X222018Y27000D01*
Y22750D01*
X230850D01*
Y36483D01*
D02*
G37*
G36*
X47390Y36582D02*
X44910Y36256D01*
X42599Y35298D01*
X40615Y33775D01*
X39092Y31791D01*
X38135Y29480D01*
X37808Y27000D01*
Y17000D01*
X38135Y14520D01*
X39092Y12209D01*
X40615Y10224D01*
X42599Y8702D01*
X44910Y7745D01*
X47390Y7418D01*
X49870Y7745D01*
X52181Y8702D01*
X54166Y10224D01*
X55689Y12209D01*
X56646Y14520D01*
X56972Y17000D01*
Y27000D01*
X56646Y29480D01*
X55689Y31791D01*
X54166Y33775D01*
X52181Y35298D01*
X49870Y36256D01*
X47390Y36582D01*
D02*
G37*
G36*
X21990D02*
X19510Y36256D01*
X17199Y35298D01*
X15215Y33775D01*
X13692Y31791D01*
X12735Y29480D01*
X12408Y27000D01*
Y17000D01*
X12735Y14520D01*
X13692Y12209D01*
X15215Y10224D01*
X17199Y8702D01*
X19510Y7745D01*
X21990Y7418D01*
X24470Y7745D01*
X26781Y8702D01*
X28766Y10224D01*
X30289Y12209D01*
X31246Y14520D01*
X31572Y17000D01*
Y27000D01*
X31246Y29480D01*
X30289Y31791D01*
X28766Y33775D01*
X26781Y35298D01*
X24470Y36256D01*
X21990Y36582D01*
D02*
G37*
%LPD*%
D20*
X130000Y119000D02*
Y158600D01*
Y22000D02*
Y119000D01*
X31564D02*
X130000D01*
X18444Y132120D02*
X31564Y119000D01*
X228459Y160200D02*
X229000D01*
X227059Y161600D02*
X228459Y160200D01*
X133000Y161600D02*
X227059D01*
X130000Y158600D02*
X133000Y161600D01*
X29624Y314000D02*
X144800D01*
X22150Y321474D02*
Y339000D01*
Y321474D02*
X29624Y314000D01*
X298600Y338000D02*
Y339482D01*
X292595Y345487D02*
X298600Y339482D01*
X291113Y345487D02*
X292595D01*
X286600Y350000D02*
X291113Y345487D01*
X180800Y350000D02*
X286600D01*
X144800Y314000D02*
X180800Y350000D01*
X230400Y161600D02*
X292200D01*
X229000Y160200D02*
X230400Y161600D01*
X133000Y225000D02*
X348400D01*
X120400Y212400D02*
X133000Y225000D01*
X89000Y212400D02*
X120400D01*
X72790Y16711D02*
Y22000D01*
Y16711D02*
X84501Y5000D01*
X346000Y7000D02*
Y18600D01*
X348400Y21000D01*
X84501Y5000D02*
X344000D01*
X346000Y7000D01*
X89000Y263200D02*
X301000D01*
X33000Y187000D02*
X89000D01*
X32000Y188000D02*
X33000Y187000D01*
X188000Y212400D02*
X292200D01*
X289713Y184513D02*
X292200Y187000D01*
X279455Y184513D02*
X289713D01*
X278943Y184000D02*
X279455Y184513D01*
X166000Y184000D02*
X278943D01*
D21*
X231600Y22000D02*
D03*
X180800D02*
D03*
X155000D02*
D03*
X130000D02*
D03*
X206200D02*
D03*
X298600Y338000D02*
D03*
X324000D02*
D03*
X349400D02*
D03*
X22150Y339000D02*
D03*
X47550D02*
D03*
X72950D02*
D03*
X72790Y22000D02*
D03*
X47390D02*
D03*
X21990D02*
D03*
X348400Y21000D02*
D03*
X323000D02*
D03*
X297600D02*
D03*
D22*
X292200Y161600D02*
D03*
Y187000D02*
D03*
Y212400D02*
D03*
Y237800D02*
D03*
X89000Y136200D02*
D03*
Y160200D02*
D03*
Y187000D02*
D03*
Y263200D02*
D03*
Y238200D02*
D03*
Y212400D02*
D03*
D23*
X227000Y338900D02*
D03*
Y326200D02*
D03*
Y313500D02*
D03*
D24*
X18444Y132120D02*
D03*
X229000Y160200D02*
D03*
X348400Y225000D02*
D03*
X301000Y263200D02*
D03*
X32000Y188000D02*
D03*
X188000Y212400D02*
D03*
X166000Y184000D02*
D03*
M02*
