M48
;Layer_Color=9474304
;FILE_FORMAT=4:4
METRIC,LZ
;TYPE=PLATED
T01F00S00C0.3000
T02F00S00C0.9000
T03F00S00C1.0000
%
T01
X00060452Y00060198
X00061468Y00104962
X00188468Y00104394
X00351282Y00101092
X00524256Y00094742
X0053975Y00080518
X0054737Y00110844
X00544544Y00143642
X00602035Y00080518
X00655066Y00066548
X00661266Y00114674
X00659982Y00166624
X00636625Y0027562
X0063627Y00435356
X00566166Y00462724
X004822Y00458724
X00508361Y00413004
X00510163Y00386128
X0041582Y00408004
X00385826Y00395643
X003477Y00382016
X00343966Y00337642
X00344187Y00307594
X0033382Y00286894
X0030842Y0028379
X00303276Y00305308
X00289052Y0029718
X00301434Y00260909
X00324851Y00266342
X003582Y00254722
X00366798Y0022479
X0034947Y0022221
X00382819Y00231712
X00392176Y0019691
X00449893Y0020904
X00423926Y00244856
X00424688Y00286258
X00386813Y00274297
X00385826Y00317348
X00382819Y00336142
X00419926Y00354048
X00385826Y0045073
X003632Y00452996
X003582Y00458724
X00335003Y00457881
X00340688Y00481147
X00388881Y00477347
X00275336Y00469637
X00271961Y0043856
X00268639Y00407473
X00266449Y00358548
Y00325342
X002387
X00255642Y00259342
X00555018Y00274297
X00586158
X00602035Y00163766
X00503428Y00159766
X00513Y0018375
X00210681Y00253072
X00192582Y00282085
X00194848Y00319072
X00138938Y00319024
X00112268Y00325342
X00062549Y00319342
X00053801Y00305816
X00049198Y0029464
X00048046Y00273092
X00058674Y00254612
X00100838Y00261828
X00127508Y00255016
X00159766Y00252476
X00061468Y00154726
T02
X002794Y00025323
X003044
X003302
X003556
X00381
X004064
X004314
X004572
X00508
X00533
X005588
X005842
X006096
X00635
Y00507923
X006092
X005842
X005588
X005334
X00508
X004822
X004572
X004165
X003911
X003657
X003399
X003149
X002895
X002641
X002387
X002129
X001879
T03
X00646684Y0019939
Y0022479
Y0024979
X00647446Y00307848
Y00333248
Y00358648
Y00383648
X00487934Y00309734
Y00284334
Y00258934
Y00233934
M30
