M48
;Layer_Color=9474304
;FILE_FORMAT=4:4
METRIC,LZ
;TYPE=PLATED
T1F00S00C0.3000
T2F00S00C0.6000
T3F00S00C1.0000
%
T01
X00018444Y0013212
X00032Y00188
X00166Y00184
X00188Y002124
X00229Y001602
X00301Y002632
X003484Y00225
T02
X00227Y003135
Y003262
Y003389
T03
X0002199Y00022
X0004739
X0007279
X0013
X00155
X001808
X002062
X002316
X002976Y00021
X00323
X003484
X002922Y001616
Y00187
Y002124
Y002378
X002986Y00338
X00324
X003494
X0007295Y00339
X0004755
X0002215
X00089Y002632
Y002382
Y002124
Y00187
Y001602
Y001362
M30
