G04*
G04 #@! TF.GenerationSoftware,Altium Limited,Altium Designer,25.8.1 (18)*
G04*
G04 Layer_Color=128*
%FSLAX44Y44*%
%MOMM*%
G71*
G04*
G04 #@! TF.SameCoordinates,8940569E-AFD4-47AF-A39F-6C324D602B42*
G04*
G04*
G04 #@! TF.FilePolarity,Positive*
G04*
G01*
G75*
%ADD51C,0.1270*%
D51*
X482934Y284334D02*
X492934D01*
X487934Y279334D02*
Y289334D01*
X473616Y413004D02*
X493616D01*
X483616Y403004D02*
Y423004D01*
X201836Y412242D02*
X221836D01*
X211836Y402242D02*
Y422242D01*
X201582Y132842D02*
X221582D01*
X211582Y122842D02*
Y142842D01*
X473616Y132842D02*
X493616D01*
X483616Y122842D02*
Y142842D01*
X482934Y309734D02*
X492934D01*
X487934Y304734D02*
Y314734D01*
X482934Y233934D02*
X492934D01*
X487934Y228934D02*
Y238934D01*
X482934Y258934D02*
X492934D01*
X487934Y253934D02*
Y263934D01*
X259600Y507923D02*
X268600D01*
X264100Y503423D02*
Y512423D01*
X401900Y25323D02*
X410900D01*
X406400Y20823D02*
Y29823D01*
X426900Y25323D02*
X435900D01*
X431400Y20823D02*
Y29823D01*
X641684Y249790D02*
X651684D01*
X646684Y244790D02*
Y254790D01*
X642446Y307848D02*
X652446D01*
X647446Y302848D02*
Y312848D01*
X642446Y358648D02*
X652446D01*
X647446Y353648D02*
Y363648D01*
X642446Y383648D02*
X652446D01*
X647446Y378648D02*
Y388648D01*
X642446Y333248D02*
X652446D01*
X647446Y328248D02*
Y338248D01*
X641684Y199390D02*
X651684D01*
X646684Y194390D02*
Y204390D01*
X641684Y224790D02*
X651684D01*
X646684Y219790D02*
Y229790D01*
X376500Y25323D02*
X385500D01*
X381000Y20823D02*
Y29823D01*
X351100Y25323D02*
X360100D01*
X355600Y20823D02*
Y29823D01*
X274900Y25323D02*
X283900D01*
X279400Y20823D02*
Y29823D01*
X299900Y25323D02*
X308900D01*
X304400Y20823D02*
Y29823D01*
X325700Y25323D02*
X334700D01*
X330200Y20823D02*
Y29823D01*
X452700Y25323D02*
X461700D01*
X457200Y20823D02*
Y29823D01*
X605100Y25323D02*
X614100D01*
X609600Y20823D02*
Y29823D01*
X579700Y25323D02*
X588700D01*
X584200Y20823D02*
Y29823D01*
X503500Y25323D02*
X512500D01*
X508000Y20823D02*
Y29823D01*
X528500Y25323D02*
X537500D01*
X533000Y20823D02*
Y29823D01*
X554300Y25323D02*
X563300D01*
X558800Y20823D02*
Y29823D01*
X630500Y25323D02*
X639500D01*
X635000Y20823D02*
Y29823D01*
X285000Y507923D02*
X294000D01*
X289500Y503423D02*
Y512423D01*
X183400Y507923D02*
X192400D01*
X187900Y503423D02*
Y512423D01*
X208400Y507923D02*
X217400D01*
X212900Y503423D02*
Y512423D01*
X234200Y507923D02*
X243200D01*
X238700Y503423D02*
Y512423D01*
X361200Y507923D02*
X370200D01*
X365700Y503423D02*
Y512423D01*
X335400Y507923D02*
X344400D01*
X339900Y503423D02*
Y512423D01*
X310400Y507923D02*
X319400D01*
X314900Y503423D02*
Y512423D01*
X386600Y507923D02*
X395600D01*
X391100Y503423D02*
Y512423D01*
X412000Y507923D02*
X421000D01*
X416500Y503423D02*
Y512423D01*
X554300Y507923D02*
X563300D01*
X558800Y503423D02*
Y512423D01*
X528900Y507923D02*
X537900D01*
X533400Y503423D02*
Y512423D01*
X452700Y507923D02*
X461700D01*
X457200Y503423D02*
Y512423D01*
X477700Y507923D02*
X486700D01*
X482200Y503423D02*
Y512423D01*
X503500Y507923D02*
X512500D01*
X508000Y503423D02*
Y512423D01*
X630500Y507923D02*
X639500D01*
X635000Y503423D02*
Y512423D01*
X604700Y507923D02*
X613700D01*
X609200Y503423D02*
Y512423D01*
X579700Y507923D02*
X588700D01*
X584200Y503423D02*
Y512423D01*
X545870Y110844D02*
X548870D01*
X547370Y109344D02*
Y112344D01*
X600535Y163766D02*
X603535D01*
X602035Y162266D02*
Y165266D01*
X658482Y166624D02*
X661482D01*
X659982Y165124D02*
Y168124D01*
X659766Y114674D02*
X662766D01*
X661266Y113174D02*
Y116173D01*
X653566Y66548D02*
X656566D01*
X655066Y65048D02*
Y68048D01*
X600535Y80518D02*
X603535D01*
X602035Y79018D02*
Y82018D01*
X634770Y435356D02*
X637770D01*
X636270Y433856D02*
Y436856D01*
X564666Y462724D02*
X567666D01*
X566166Y461224D02*
Y464224D01*
X480700Y458724D02*
X483700D01*
X482200Y457224D02*
Y460224D01*
X506861Y413004D02*
X509861D01*
X508361Y411504D02*
Y414504D01*
X508663Y386128D02*
X511663D01*
X510163Y384628D02*
Y387628D01*
X635125Y275620D02*
X638125D01*
X636625Y274120D02*
Y277120D01*
X584658Y274297D02*
X587658D01*
X586158Y272797D02*
Y275797D01*
X553518Y274297D02*
X556518D01*
X555018Y272797D02*
Y275797D01*
X543044Y143642D02*
X546044D01*
X544544Y142142D02*
Y145142D01*
X511500Y183750D02*
X514500D01*
X513000Y182250D02*
Y185250D01*
X448393Y209040D02*
X451393D01*
X449893Y207540D02*
Y210540D01*
X390676Y196910D02*
X393676D01*
X392176Y195410D02*
Y198410D01*
X381319Y231712D02*
X384319D01*
X382819Y230212D02*
Y233212D01*
X347970Y222210D02*
X350970D01*
X349470Y220710D02*
Y223710D01*
X385313Y274297D02*
X388313D01*
X386813Y272797D02*
Y275797D01*
X384326Y317348D02*
X387326D01*
X385826Y315848D02*
Y318848D01*
X381319Y336142D02*
X384319D01*
X382819Y334642D02*
Y337642D01*
X384326Y395643D02*
X387326D01*
X385826Y394143D02*
Y397143D01*
X384326Y450730D02*
X387326D01*
X385826Y449230D02*
Y452230D01*
X418426Y354048D02*
X421426D01*
X419926Y352548D02*
Y355548D01*
X414320Y408004D02*
X417320D01*
X415820Y406504D02*
Y409504D01*
X387381Y477347D02*
X390381D01*
X388881Y475848D02*
Y478848D01*
X339188Y481147D02*
X342188D01*
X340688Y479647D02*
Y482647D01*
X333503Y457881D02*
X336503D01*
X335003Y456381D02*
Y459381D01*
X346200Y382016D02*
X349200D01*
X347700Y380516D02*
Y383516D01*
X342466Y337642D02*
X345466D01*
X343966Y336142D02*
Y339142D01*
X342687Y307594D02*
X345687D01*
X344187Y306094D02*
Y309094D01*
X323351Y266342D02*
X326351D01*
X324851Y264842D02*
Y267842D01*
X299935Y260909D02*
X302934D01*
X301434Y259409D02*
Y262409D01*
X254142Y259342D02*
X257142D01*
X255642Y257842D02*
Y260842D01*
X209181Y253072D02*
X212181D01*
X210681Y251572D02*
Y254572D01*
X158266Y252476D02*
X161266D01*
X159766Y250976D02*
Y253976D01*
X126008Y255016D02*
X129008D01*
X127508Y253516D02*
Y256516D01*
X99338Y261828D02*
X102338D01*
X100838Y260328D02*
Y263328D01*
X57174Y254612D02*
X60174D01*
X58674Y253112D02*
Y256112D01*
X61049Y319342D02*
X64049D01*
X62549Y317842D02*
Y320842D01*
X110768Y325342D02*
X113768D01*
X112268Y323842D02*
Y326842D01*
X137438Y319024D02*
X140438D01*
X138938Y317524D02*
Y320524D01*
X193348Y319072D02*
X196348D01*
X194848Y317572D02*
Y320572D01*
X237200Y325342D02*
X240200D01*
X238700Y323842D02*
Y326842D01*
X273836Y469637D02*
X276836D01*
X275336Y468137D02*
Y471137D01*
X270461Y438560D02*
X273461D01*
X271961Y437060D02*
Y440060D01*
X267139Y407473D02*
X270139D01*
X268639Y405973D02*
Y408973D01*
X264949Y358548D02*
X267949D01*
X266449Y357048D02*
Y360048D01*
X264949Y325342D02*
X267949D01*
X266449Y323842D02*
Y326842D01*
X365298Y224790D02*
X368298D01*
X366798Y223290D02*
Y226290D01*
X361700Y452996D02*
X364700D01*
X363200Y451496D02*
Y454496D01*
X356700Y254722D02*
X359700D01*
X358200Y253222D02*
Y256222D01*
X356700Y458724D02*
X359700D01*
X358200Y457224D02*
Y460224D01*
X332320Y286894D02*
X335320D01*
X333820Y285394D02*
Y288394D01*
X423188Y286258D02*
X426188D01*
X424688Y284758D02*
Y287758D01*
X422426Y244856D02*
X425426D01*
X423926Y243356D02*
Y246356D01*
X59968Y104962D02*
X62968D01*
X61468Y103462D02*
Y106462D01*
X522756Y94742D02*
X525756D01*
X524256Y93242D02*
Y96242D01*
X58952Y60198D02*
X61952D01*
X60452Y58698D02*
Y61698D01*
X538250Y80518D02*
X541250D01*
X539750Y79018D02*
Y82018D01*
X501928Y159766D02*
X504928D01*
X503428Y158266D02*
Y161266D01*
X59968Y154726D02*
X62968D01*
X61468Y153226D02*
Y156226D01*
X287552Y297180D02*
X290552D01*
X289052Y295680D02*
Y298680D01*
X47698Y294640D02*
X50697D01*
X49198Y293140D02*
Y296140D01*
X46547Y273092D02*
X49546D01*
X48046Y271592D02*
Y274592D01*
X306920Y283790D02*
X309920D01*
X308420Y282290D02*
Y285290D01*
X52302Y305816D02*
X55301D01*
X53801Y304316D02*
Y307316D01*
X301776Y305308D02*
X304776D01*
X303276Y303808D02*
Y306808D01*
X186968Y104394D02*
X189968D01*
X188468Y102894D02*
Y105894D01*
X349782Y101092D02*
X352782D01*
X351282Y99592D02*
Y102592D01*
X191082Y282085D02*
X194082D01*
X192582Y280585D02*
Y283585D01*
M02*
