G04*
G04 #@! TF.GenerationSoftware,Altium Limited,Altium Designer,25.8.1 (18)*
G04*
G04 Layer_Physical_Order=2*
G04 Layer_Color=16711680*
%FSLAX44Y44*%
%MOMM*%
G71*
G04*
G04 #@! TF.SameCoordinates,8940569E-AFD4-47AF-A39F-6C324D602B42*
G04*
G04*
G04 #@! TF.FilePolarity,Positive*
G04*
G01*
G75*
%ADD11C,0.2000*%
%ADD45C,0.3000*%
%ADD46O,2.6000X1.6000*%
G04:AMPARAMS|DCode=47|XSize=1mm|YSize=1mm|CornerRadius=0.25mm|HoleSize=0mm|Usage=FLASHONLY|Rotation=270.000|XOffset=0mm|YOffset=0mm|HoleType=Round|Shape=RoundedRectangle|*
%AMROUNDEDRECTD47*
21,1,1.0000,0.5000,0,0,270.0*
21,1,0.5000,1.0000,0,0,270.0*
1,1,0.5000,-0.2500,-0.2500*
1,1,0.5000,-0.2500,0.2500*
1,1,0.5000,0.2500,0.2500*
1,1,0.5000,0.2500,-0.2500*
%
%ADD47ROUNDEDRECTD47*%
%ADD48O,1.4000X1.8000*%
%ADD49O,1.2000X1.6000*%
%ADD50C,0.5000*%
G36*
X669833Y533531D02*
X670000Y533462D01*
X671070Y533494D01*
X671784Y533339D01*
Y533339D01*
X672962Y533054D01*
X673056Y533020D01*
X673057Y533020D01*
X673644Y532760D01*
X674198Y532498D01*
X674451Y532354D01*
X674477Y532224D01*
X674785Y532096D01*
X675441Y531610D01*
X675612Y531447D01*
X675757Y531270D01*
X675757Y531216D01*
X675757Y531216D01*
X675826Y531049D01*
X676407Y530554D01*
X676557Y530400D01*
X676567Y530388D01*
X676999Y529704D01*
X677001Y529700D01*
X677588Y528738D01*
X677797Y528280D01*
X677797Y528279D01*
X677954Y527767D01*
X678116Y527007D01*
X678116D01*
X678255Y525768D01*
X678239Y525223D01*
X678308Y525056D01*
X678456Y524922D01*
Y11341D01*
X678308Y10090D01*
X678239Y9923D01*
X678271Y8853D01*
X678116Y8139D01*
X678116D01*
X677861Y6945D01*
X677841Y6885D01*
X677797Y6867D01*
X677674Y6571D01*
X677459Y6115D01*
X677107Y5467D01*
X677001Y5446D01*
X676567Y4759D01*
X676489Y4662D01*
X675826Y4097D01*
X675757Y3930D01*
X675091Y3317D01*
X674477Y2923D01*
X674477Y2923D01*
X673441Y2297D01*
X673057Y2126D01*
X673056Y2126D01*
X672962Y2092D01*
X671784Y1807D01*
D01*
X670522Y1668D01*
X670000Y1684D01*
X669833Y1615D01*
X669699Y1467D01*
X11418D01*
X10167Y1615D01*
X10000Y1684D01*
X8930Y1652D01*
X8216Y1807D01*
Y1807D01*
X7038Y2092D01*
X6944Y2126D01*
X6943Y2126D01*
X6356Y2387D01*
X5802Y2648D01*
X5549Y2792D01*
X5523Y2923D01*
X5215Y3050D01*
X4461Y3609D01*
X4243Y3877D01*
X4243Y3930D01*
X4243Y3930D01*
X4174Y4097D01*
X4007Y4166D01*
X3394Y4832D01*
X3000Y5446D01*
X2999Y5446D01*
X2373Y6482D01*
X2203Y6866D01*
X2203Y6867D01*
X2169Y6961D01*
X1884Y8139D01*
D01*
X1745Y9401D01*
X1761Y9923D01*
X1692Y10090D01*
X1544Y10224D01*
Y523805D01*
X1692Y525056D01*
X1761Y525223D01*
X1729Y526293D01*
X1884Y527007D01*
X1884D01*
X2169Y528185D01*
X2203Y528279D01*
X2203Y528280D01*
X2472Y528886D01*
X2716Y529405D01*
X2869Y529674D01*
X2999Y529700D01*
X3127Y530008D01*
X3686Y530762D01*
X3954Y530980D01*
X4007Y530980D01*
X4007Y530980D01*
X4174Y531049D01*
X4243Y531216D01*
X4909Y531829D01*
X5523Y532224D01*
X5523Y532224D01*
X6559Y532850D01*
X6943Y533020D01*
X6944Y533020D01*
X7038Y533054D01*
X8216Y533339D01*
D01*
X9478Y533478D01*
X10000Y533462D01*
X10167Y533531D01*
X10301Y533679D01*
X668582D01*
X669833Y533531D01*
D02*
G37*
%LPC*%
G36*
X265370Y518834D02*
Y509193D01*
X273178D01*
Y509923D01*
X272868Y512273D01*
X271961Y514462D01*
X270519Y516342D01*
X268639Y517785D01*
X266449Y518691D01*
X265370Y518834D01*
D02*
G37*
G36*
X262830D02*
X261751Y518691D01*
X259561Y517785D01*
X257681Y516342D01*
X256238Y514462D01*
X255332Y512273D01*
X255022Y509923D01*
Y509193D01*
X262830D01*
Y518834D01*
D02*
G37*
G36*
X635000Y517488D02*
X633042Y517230D01*
X631218Y516474D01*
X629651Y515272D01*
X628449Y513705D01*
X627693Y511881D01*
X627435Y509923D01*
Y505923D01*
X627693Y503965D01*
X628449Y502141D01*
X629651Y500574D01*
X631218Y499372D01*
X633042Y498616D01*
X635000Y498358D01*
X636958Y498616D01*
X638782Y499372D01*
X640349Y500574D01*
X641551Y502141D01*
X642307Y503965D01*
X642565Y505923D01*
Y509923D01*
X642307Y511881D01*
X641551Y513705D01*
X640349Y515272D01*
X638782Y516474D01*
X636958Y517230D01*
X635000Y517488D01*
D02*
G37*
G36*
X609200D02*
X607242Y517230D01*
X605418Y516474D01*
X603851Y515272D01*
X602649Y513705D01*
X601893Y511881D01*
X601635Y509923D01*
Y505923D01*
X601893Y503965D01*
X602649Y502141D01*
X603851Y500574D01*
X605418Y499372D01*
X607242Y498616D01*
X609200Y498358D01*
X611158Y498616D01*
X612982Y499372D01*
X614549Y500574D01*
X615751Y502141D01*
X616507Y503965D01*
X616765Y505923D01*
Y509923D01*
X616507Y511881D01*
X615751Y513705D01*
X614549Y515272D01*
X612982Y516474D01*
X611158Y517230D01*
X609200Y517488D01*
D02*
G37*
G36*
X584200D02*
X582242Y517230D01*
X580418Y516474D01*
X578851Y515272D01*
X577649Y513705D01*
X576893Y511881D01*
X576635Y509923D01*
Y505923D01*
X576893Y503965D01*
X577649Y502141D01*
X578851Y500574D01*
X580418Y499372D01*
X582242Y498616D01*
X584200Y498358D01*
X586158Y498616D01*
X587982Y499372D01*
X589549Y500574D01*
X590751Y502141D01*
X591507Y503965D01*
X591765Y505923D01*
Y509923D01*
X591507Y511881D01*
X590751Y513705D01*
X589549Y515272D01*
X587982Y516474D01*
X586158Y517230D01*
X584200Y517488D01*
D02*
G37*
G36*
X558800D02*
X556842Y517230D01*
X555018Y516474D01*
X553451Y515272D01*
X552249Y513705D01*
X551493Y511881D01*
X551235Y509923D01*
Y505923D01*
X551493Y503965D01*
X552249Y502141D01*
X553451Y500574D01*
X555018Y499372D01*
X556842Y498616D01*
X558800Y498358D01*
X560758Y498616D01*
X562582Y499372D01*
X564149Y500574D01*
X565351Y502141D01*
X566107Y503965D01*
X566365Y505923D01*
Y509923D01*
X566107Y511881D01*
X565351Y513705D01*
X564149Y515272D01*
X562582Y516474D01*
X560758Y517230D01*
X558800Y517488D01*
D02*
G37*
G36*
X533400D02*
X531442Y517230D01*
X529618Y516474D01*
X528051Y515272D01*
X526849Y513705D01*
X526093Y511881D01*
X525835Y509923D01*
Y505923D01*
X526093Y503965D01*
X526849Y502141D01*
X528051Y500574D01*
X529618Y499372D01*
X531442Y498616D01*
X533400Y498358D01*
X535358Y498616D01*
X537182Y499372D01*
X538749Y500574D01*
X539951Y502141D01*
X540707Y503965D01*
X540965Y505923D01*
Y509923D01*
X540707Y511881D01*
X539951Y513705D01*
X538749Y515272D01*
X537182Y516474D01*
X535358Y517230D01*
X533400Y517488D01*
D02*
G37*
G36*
X508000D02*
X506042Y517230D01*
X504218Y516474D01*
X502651Y515272D01*
X501449Y513705D01*
X500693Y511881D01*
X500435Y509923D01*
Y505923D01*
X500693Y503965D01*
X501449Y502141D01*
X502651Y500574D01*
X504218Y499372D01*
X506042Y498616D01*
X508000Y498358D01*
X509958Y498616D01*
X511782Y499372D01*
X513349Y500574D01*
X514551Y502141D01*
X515307Y503965D01*
X515565Y505923D01*
Y509923D01*
X515307Y511881D01*
X514551Y513705D01*
X513349Y515272D01*
X511782Y516474D01*
X509958Y517230D01*
X508000Y517488D01*
D02*
G37*
G36*
X482200D02*
X480242Y517230D01*
X478418Y516474D01*
X476851Y515272D01*
X475649Y513705D01*
X474893Y511881D01*
X474635Y509923D01*
Y505923D01*
X474893Y503965D01*
X475649Y502141D01*
X476851Y500574D01*
X478418Y499372D01*
X480242Y498616D01*
X482200Y498358D01*
X484158Y498616D01*
X485982Y499372D01*
X487549Y500574D01*
X488751Y502141D01*
X489507Y503965D01*
X489765Y505923D01*
Y509923D01*
X489507Y511881D01*
X488751Y513705D01*
X487549Y515272D01*
X485982Y516474D01*
X484158Y517230D01*
X482200Y517488D01*
D02*
G37*
G36*
X457200D02*
X455242Y517230D01*
X453418Y516474D01*
X451851Y515272D01*
X450649Y513705D01*
X449893Y511881D01*
X449635Y509923D01*
Y505923D01*
X449893Y503965D01*
X450649Y502141D01*
X451851Y500574D01*
X453418Y499372D01*
X455242Y498616D01*
X457200Y498358D01*
X459158Y498616D01*
X460982Y499372D01*
X462549Y500574D01*
X463751Y502141D01*
X464507Y503965D01*
X464765Y505923D01*
Y509923D01*
X464507Y511881D01*
X463751Y513705D01*
X462549Y515272D01*
X460982Y516474D01*
X459158Y517230D01*
X457200Y517488D01*
D02*
G37*
G36*
X416500Y518497D02*
X414281Y518204D01*
X412213Y517348D01*
X410438Y515985D01*
X409075Y514210D01*
X408219Y512142D01*
X407927Y509923D01*
Y505923D01*
X408219Y503704D01*
X409075Y501637D01*
X410438Y499861D01*
X412213Y498498D01*
X414281Y497642D01*
X416500Y497350D01*
X418719Y497642D01*
X420787Y498498D01*
X422562Y499861D01*
X423925Y501637D01*
X424781Y503704D01*
X425073Y505923D01*
Y509923D01*
X424781Y512142D01*
X423925Y514210D01*
X422562Y515985D01*
X420787Y517348D01*
X418719Y518204D01*
X416500Y518497D01*
D02*
G37*
G36*
X391100D02*
X388881Y518204D01*
X386813Y517348D01*
X385038Y515985D01*
X383675Y514210D01*
X382819Y512142D01*
X382527Y509923D01*
Y505923D01*
X382819Y503704D01*
X383675Y501637D01*
X385038Y499861D01*
X386813Y498498D01*
X388881Y497642D01*
X391100Y497350D01*
X393319Y497642D01*
X395387Y498498D01*
X397162Y499861D01*
X398525Y501637D01*
X399381Y503704D01*
X399673Y505923D01*
Y509923D01*
X399381Y512142D01*
X398525Y514210D01*
X397162Y515985D01*
X395387Y517348D01*
X393319Y518204D01*
X391100Y518497D01*
D02*
G37*
G36*
X365700D02*
X363481Y518204D01*
X361413Y517348D01*
X359638Y515985D01*
X358275Y514210D01*
X357419Y512142D01*
X357127Y509923D01*
Y505923D01*
X357419Y503704D01*
X358275Y501637D01*
X359638Y499861D01*
X361413Y498498D01*
X363481Y497642D01*
X365700Y497350D01*
X367919Y497642D01*
X369987Y498498D01*
X371762Y499861D01*
X373125Y501637D01*
X373981Y503704D01*
X374273Y505923D01*
Y509923D01*
X373981Y512142D01*
X373125Y514210D01*
X371762Y515985D01*
X369987Y517348D01*
X367919Y518204D01*
X365700Y518497D01*
D02*
G37*
G36*
X339900D02*
X337681Y518204D01*
X335613Y517348D01*
X333838Y515985D01*
X332475Y514210D01*
X331619Y512142D01*
X331327Y509923D01*
Y505923D01*
X331619Y503704D01*
X332475Y501637D01*
X333838Y499861D01*
X335613Y498498D01*
X337681Y497642D01*
X339900Y497350D01*
X342119Y497642D01*
X344187Y498498D01*
X345962Y499861D01*
X347325Y501637D01*
X348181Y503704D01*
X348473Y505923D01*
Y509923D01*
X348181Y512142D01*
X347325Y514210D01*
X345962Y515985D01*
X344187Y517348D01*
X342119Y518204D01*
X339900Y518497D01*
D02*
G37*
G36*
X314900D02*
X312681Y518204D01*
X310613Y517348D01*
X308838Y515985D01*
X307475Y514210D01*
X306619Y512142D01*
X306327Y509923D01*
Y505923D01*
X306619Y503704D01*
X307475Y501637D01*
X308838Y499861D01*
X310613Y498498D01*
X312681Y497642D01*
X314900Y497350D01*
X317119Y497642D01*
X319187Y498498D01*
X320962Y499861D01*
X322325Y501637D01*
X323181Y503704D01*
X323473Y505923D01*
Y509923D01*
X323181Y512142D01*
X322325Y514210D01*
X320962Y515985D01*
X319187Y517348D01*
X317119Y518204D01*
X314900Y518497D01*
D02*
G37*
G36*
X289500D02*
X287281Y518204D01*
X285213Y517348D01*
X283438Y515985D01*
X282075Y514210D01*
X281219Y512142D01*
X280927Y509923D01*
Y505923D01*
X281219Y503704D01*
X282075Y501637D01*
X283438Y499861D01*
X285213Y498498D01*
X287281Y497642D01*
X289500Y497350D01*
X291719Y497642D01*
X293787Y498498D01*
X295562Y499861D01*
X296925Y501637D01*
X297781Y503704D01*
X298073Y505923D01*
Y509923D01*
X297781Y512142D01*
X296925Y514210D01*
X295562Y515985D01*
X293787Y517348D01*
X291719Y518204D01*
X289500Y518497D01*
D02*
G37*
G36*
X238700D02*
X236481Y518204D01*
X234413Y517348D01*
X232638Y515985D01*
X231275Y514210D01*
X230419Y512142D01*
X230127Y509923D01*
Y505923D01*
X230419Y503704D01*
X231275Y501637D01*
X232638Y499861D01*
X234413Y498498D01*
X236481Y497642D01*
X238700Y497350D01*
X240919Y497642D01*
X242987Y498498D01*
X244762Y499861D01*
X246125Y501637D01*
X246981Y503704D01*
X247273Y505923D01*
Y509923D01*
X246981Y512142D01*
X246125Y514210D01*
X244762Y515985D01*
X242987Y517348D01*
X240919Y518204D01*
X238700Y518497D01*
D02*
G37*
G36*
X212900D02*
X210681Y518204D01*
X208613Y517348D01*
X206838Y515985D01*
X205475Y514210D01*
X204619Y512142D01*
X204327Y509923D01*
Y505923D01*
X204619Y503704D01*
X205475Y501637D01*
X206838Y499861D01*
X208613Y498498D01*
X210681Y497642D01*
X212900Y497350D01*
X215119Y497642D01*
X217187Y498498D01*
X218962Y499861D01*
X220325Y501637D01*
X221181Y503704D01*
X221473Y505923D01*
Y509923D01*
X221181Y512142D01*
X220325Y514210D01*
X218962Y515985D01*
X217187Y517348D01*
X215119Y518204D01*
X212900Y518497D01*
D02*
G37*
G36*
X187900D02*
X185681Y518204D01*
X183613Y517348D01*
X181838Y515985D01*
X180475Y514210D01*
X179619Y512142D01*
X179327Y509923D01*
Y505923D01*
X179619Y503704D01*
X180475Y501637D01*
X181838Y499861D01*
X183613Y498498D01*
X185681Y497642D01*
X187900Y497350D01*
X190119Y497642D01*
X192187Y498498D01*
X193962Y499861D01*
X195325Y501637D01*
X196181Y503704D01*
X196473Y505923D01*
Y509923D01*
X196181Y512142D01*
X195325Y514210D01*
X193962Y515985D01*
X192187Y517348D01*
X190119Y518204D01*
X187900Y518497D01*
D02*
G37*
G36*
X273178Y506653D02*
X265370D01*
Y497013D01*
X266449Y497155D01*
X268639Y498062D01*
X270519Y499504D01*
X271961Y501384D01*
X272868Y503574D01*
X273178Y505923D01*
Y506653D01*
D02*
G37*
G36*
X262830D02*
X255022D01*
Y505923D01*
X255332Y503574D01*
X256238Y501384D01*
X257681Y499504D01*
X259561Y498062D01*
X261751Y497155D01*
X262830Y497013D01*
Y506653D01*
D02*
G37*
G36*
X483616Y429603D02*
X480614Y429208D01*
X477816Y428049D01*
X475414Y426206D01*
X473571Y423804D01*
X472412Y421006D01*
X472017Y418004D01*
Y408004D01*
X472412Y405002D01*
X473571Y402204D01*
X475414Y399802D01*
X477816Y397959D01*
X480614Y396800D01*
X483616Y396405D01*
X486618Y396800D01*
X489416Y397959D01*
X491818Y399802D01*
X493661Y402204D01*
X494820Y405002D01*
X495215Y408004D01*
Y418004D01*
X494820Y421006D01*
X493661Y423804D01*
X491818Y426206D01*
X489416Y428049D01*
X486618Y429208D01*
X483616Y429603D01*
D02*
G37*
G36*
X211836Y428841D02*
X208834Y428446D01*
X206036Y427287D01*
X203634Y425444D01*
X201791Y423042D01*
X200632Y420244D01*
X200237Y417242D01*
Y407242D01*
X200632Y404240D01*
X201791Y401442D01*
X203634Y399040D01*
X206036Y397197D01*
X208834Y396038D01*
X211836Y395643D01*
X214838Y396038D01*
X217636Y397197D01*
X220038Y399040D01*
X221881Y401442D01*
X223040Y404240D01*
X223435Y407242D01*
Y417242D01*
X223040Y420244D01*
X221881Y423042D01*
X220038Y425444D01*
X217636Y427287D01*
X214838Y428446D01*
X211836Y428841D01*
D02*
G37*
G36*
X652446Y393230D02*
X642446D01*
X639966Y392904D01*
X637655Y391946D01*
X635671Y390424D01*
X634148Y388439D01*
X633190Y386128D01*
X632864Y383648D01*
X633190Y381168D01*
X634148Y378857D01*
X635671Y376873D01*
X637655Y375350D01*
X639966Y374393D01*
X642446Y374066D01*
X652446D01*
X654926Y374393D01*
X657237Y375350D01*
X659221Y376873D01*
X660744Y378857D01*
X661702Y381168D01*
X662028Y383648D01*
X661702Y386128D01*
X660744Y388439D01*
X659221Y390424D01*
X657237Y391946D01*
X654926Y392904D01*
X652446Y393230D01*
D02*
G37*
G36*
Y368230D02*
X642446D01*
X639966Y367904D01*
X637655Y366946D01*
X635671Y365424D01*
X634148Y363439D01*
X633190Y361128D01*
X632864Y358648D01*
X633190Y356168D01*
X634148Y353857D01*
X635671Y351873D01*
X637655Y350350D01*
X639966Y349393D01*
X642446Y349066D01*
X652446D01*
X654926Y349393D01*
X657237Y350350D01*
X659221Y351873D01*
X660744Y353857D01*
X661702Y356168D01*
X662028Y358648D01*
X661702Y361128D01*
X660744Y363439D01*
X659221Y365424D01*
X657237Y366946D01*
X654926Y367904D01*
X652446Y368230D01*
D02*
G37*
G36*
Y342830D02*
X642446D01*
X639966Y342504D01*
X637655Y341546D01*
X635671Y340023D01*
X634148Y338039D01*
X633190Y335728D01*
X632864Y333248D01*
X633190Y330768D01*
X634148Y328457D01*
X635671Y326473D01*
X637655Y324950D01*
X639966Y323993D01*
X642446Y323666D01*
X652446D01*
X654926Y323993D01*
X657237Y324950D01*
X659221Y326473D01*
X660744Y328457D01*
X661702Y330768D01*
X662028Y333248D01*
X661702Y335728D01*
X660744Y338039D01*
X659221Y340023D01*
X657237Y341546D01*
X654926Y342504D01*
X652446Y342830D01*
D02*
G37*
G36*
X492934Y319820D02*
X489204D01*
Y311004D01*
X502853D01*
X502677Y312344D01*
X501669Y314777D01*
X500066Y316866D01*
X497977Y318469D01*
X495545Y319477D01*
X492934Y319820D01*
D02*
G37*
G36*
X486664D02*
X482934D01*
X480323Y319477D01*
X477891Y318469D01*
X475802Y316866D01*
X474199Y314777D01*
X473191Y312344D01*
X473015Y311004D01*
X486664D01*
Y319820D01*
D02*
G37*
G36*
X652446Y317934D02*
X648716D01*
Y309118D01*
X662365D01*
X662189Y310459D01*
X661181Y312891D01*
X659578Y314980D01*
X657489Y316583D01*
X655057Y317591D01*
X652446Y317934D01*
D02*
G37*
G36*
X646176D02*
X642446D01*
X639836Y317591D01*
X637403Y316583D01*
X635314Y314980D01*
X633711Y312891D01*
X632703Y310459D01*
X632527Y309118D01*
X646176D01*
Y317934D01*
D02*
G37*
G36*
X54597Y309816D02*
X53006D01*
X51536Y309207D01*
X50410Y308082D01*
X49802Y306612D01*
Y305020D01*
X50410Y303550D01*
X51536Y302425D01*
X53006Y301816D01*
X54597D01*
X56067Y302425D01*
X56400Y302757D01*
X300170D01*
X301010Y301917D01*
X302480Y301308D01*
X304072D01*
X305542Y301917D01*
X306667Y303042D01*
X307276Y304512D01*
Y306104D01*
X306667Y307574D01*
X305542Y308699D01*
X304072Y309308D01*
X302480D01*
X301434Y308875D01*
X56400D01*
X56067Y309207D01*
X54597Y309816D01*
D02*
G37*
G36*
X502853Y308464D02*
X489204D01*
Y299648D01*
X492934D01*
X495545Y299991D01*
X497977Y300999D01*
X500066Y302602D01*
X501669Y304691D01*
X502677Y307124D01*
X502853Y308464D01*
D02*
G37*
G36*
X486664D02*
X473015D01*
X473191Y307124D01*
X474199Y304691D01*
X475802Y302602D01*
X477891Y300999D01*
X480323Y299991D01*
X482934Y299648D01*
X486664D01*
Y308464D01*
D02*
G37*
G36*
X662365Y306578D02*
X648716D01*
Y297762D01*
X652446D01*
X655057Y298105D01*
X657489Y299113D01*
X659578Y300716D01*
X661181Y302805D01*
X662189Y305238D01*
X662365Y306578D01*
D02*
G37*
G36*
X646176D02*
X632527D01*
X632703Y305238D01*
X633711Y302805D01*
X635314Y300716D01*
X637403Y299113D01*
X639836Y298105D01*
X642446Y297762D01*
X646176D01*
Y306578D01*
D02*
G37*
G36*
X289848Y301180D02*
X288256D01*
X286786Y300571D01*
X286454Y300239D01*
X51737D01*
X50567Y300006D01*
X49575Y299343D01*
X49575Y299343D01*
X48872Y298640D01*
X48402D01*
X46932Y298031D01*
X45806Y296906D01*
X45198Y295436D01*
Y293844D01*
X45806Y292374D01*
X46932Y291249D01*
X48402Y290640D01*
X49993D01*
X51463Y291249D01*
X52589Y292374D01*
X53197Y293844D01*
Y294121D01*
X286121D01*
X286609Y293619D01*
X286073Y292349D01*
X255513D01*
X255513Y292349D01*
X254343Y292116D01*
X253350Y291453D01*
X247041Y285144D01*
X195180D01*
X194848Y285476D01*
X193377Y286085D01*
X191786D01*
X190316Y285476D01*
X189191Y284351D01*
X188582Y282881D01*
Y281289D01*
X189191Y279819D01*
X190316Y278694D01*
X191786Y278085D01*
X193377D01*
X194848Y278694D01*
X195180Y279026D01*
X248308D01*
X248308Y279026D01*
X249478Y279259D01*
X250471Y279922D01*
X256780Y286231D01*
X303727D01*
X304576Y284961D01*
X304420Y284586D01*
Y284116D01*
X296455Y276151D01*
X50645D01*
X50312Y276483D01*
X48842Y277092D01*
X47251D01*
X45781Y276483D01*
X44655Y275358D01*
X44047Y273888D01*
Y272296D01*
X44655Y270826D01*
X45781Y269701D01*
X47251Y269092D01*
X48842D01*
X50312Y269701D01*
X50645Y270033D01*
X297722D01*
X297722Y270033D01*
X298892Y270266D01*
X299885Y270929D01*
X308746Y279790D01*
X309216D01*
X310686Y280399D01*
X311811Y281524D01*
X312420Y282995D01*
Y283282D01*
X313094Y283835D01*
X313094Y283835D01*
X331222D01*
X331554Y283503D01*
X333024Y282894D01*
X334616D01*
X336086Y283503D01*
X337211Y284628D01*
X337820Y286098D01*
Y287690D01*
X337211Y289160D01*
X336086Y290285D01*
X334616Y290894D01*
X333024D01*
X331554Y290285D01*
X331222Y289953D01*
X314361D01*
X312861Y291453D01*
X311869Y292116D01*
X310698Y292349D01*
X310698Y292349D01*
X291160D01*
X290907Y293619D01*
X291318Y293789D01*
X292443Y294914D01*
X293052Y296384D01*
Y297976D01*
X292443Y299446D01*
X291318Y300571D01*
X289848Y301180D01*
D02*
G37*
G36*
X492934Y293916D02*
X482934D01*
X480454Y293589D01*
X478143Y292632D01*
X476158Y291110D01*
X474636Y289125D01*
X473679Y286814D01*
X473352Y284334D01*
X473679Y281854D01*
X474636Y279543D01*
X476158Y277559D01*
X478143Y276036D01*
X480454Y275079D01*
X482934Y274752D01*
X492934D01*
X495414Y275079D01*
X497725Y276036D01*
X499710Y277559D01*
X501232Y279543D01*
X502189Y281854D01*
X502516Y284334D01*
X502189Y286814D01*
X501232Y289125D01*
X499710Y291110D01*
X497725Y292632D01*
X495414Y293589D01*
X492934Y293916D01*
D02*
G37*
G36*
X651684Y259876D02*
X647954D01*
Y251060D01*
X661603D01*
X661427Y252400D01*
X660419Y254833D01*
X658816Y256922D01*
X656727Y258525D01*
X654295Y259533D01*
X651684Y259876D01*
D02*
G37*
G36*
X645414D02*
X641684D01*
X639073Y259533D01*
X636641Y258525D01*
X634552Y256922D01*
X632949Y254833D01*
X631941Y252400D01*
X631765Y251060D01*
X645414D01*
Y259876D01*
D02*
G37*
G36*
X492934Y268516D02*
X482934D01*
X480454Y268190D01*
X478143Y267232D01*
X476158Y265709D01*
X474636Y263725D01*
X473679Y261414D01*
X473352Y258934D01*
X473679Y256454D01*
X474636Y254143D01*
X476158Y252159D01*
X478143Y250636D01*
X480454Y249678D01*
X482934Y249352D01*
X492934D01*
X495414Y249678D01*
X497725Y250636D01*
X499710Y252159D01*
X501232Y254143D01*
X502189Y256454D01*
X502516Y258934D01*
X502189Y261414D01*
X501232Y263725D01*
X499710Y265709D01*
X497725Y267232D01*
X495414Y268190D01*
X492934Y268516D01*
D02*
G37*
G36*
X425484Y290258D02*
X423892D01*
X422422Y289649D01*
X421297Y288524D01*
X420688Y287054D01*
Y285462D01*
X420867Y285030D01*
Y247454D01*
X420535Y247122D01*
X419926Y245652D01*
Y244060D01*
X420535Y242590D01*
X421660Y241465D01*
X423130Y240856D01*
X424722D01*
X426192Y241465D01*
X427317Y242590D01*
X427926Y244060D01*
Y245652D01*
X427317Y247122D01*
X426985Y247454D01*
Y282898D01*
X428079Y283992D01*
X428688Y285462D01*
Y287054D01*
X428079Y288524D01*
X426954Y289649D01*
X425484Y290258D01*
D02*
G37*
G36*
X661603Y248520D02*
X647954D01*
Y239704D01*
X651684D01*
X654295Y240047D01*
X656727Y241055D01*
X658816Y242658D01*
X660419Y244747D01*
X661427Y247180D01*
X661603Y248520D01*
D02*
G37*
G36*
X645414D02*
X631765D01*
X631941Y247180D01*
X632949Y244747D01*
X634552Y242658D01*
X636641Y241055D01*
X639073Y240047D01*
X641684Y239704D01*
X645414D01*
Y248520D01*
D02*
G37*
G36*
X492934Y243516D02*
X482934D01*
X480454Y243190D01*
X478143Y242232D01*
X476158Y240709D01*
X474636Y238725D01*
X473679Y236414D01*
X473352Y233934D01*
X473679Y231454D01*
X474636Y229143D01*
X476158Y227159D01*
X478143Y225636D01*
X480454Y224678D01*
X482934Y224352D01*
X492934D01*
X495414Y224678D01*
X497725Y225636D01*
X499710Y227159D01*
X501232Y229143D01*
X502189Y231454D01*
X502516Y233934D01*
X502189Y236414D01*
X501232Y238725D01*
X499710Y240709D01*
X497725Y242232D01*
X495414Y243190D01*
X492934Y243516D01*
D02*
G37*
G36*
X358996Y462724D02*
X357404D01*
X355934Y462115D01*
X354809Y460990D01*
X354200Y459520D01*
Y457928D01*
X354809Y456458D01*
X355651Y455616D01*
Y257830D01*
X354809Y256988D01*
X354200Y255518D01*
Y253926D01*
X354809Y252456D01*
X355934Y251331D01*
X357404Y250722D01*
X358996D01*
X359381Y250882D01*
X360651Y250033D01*
Y228388D01*
X360845Y227413D01*
X361398Y226586D01*
X362798Y225185D01*
Y223994D01*
X363407Y222524D01*
X364533Y221399D01*
X366003Y220790D01*
X367594D01*
X369064Y221399D01*
X370189Y222524D01*
X370798Y223994D01*
Y225586D01*
X370189Y227056D01*
X369064Y228181D01*
X367594Y228790D01*
X366403D01*
X365749Y229444D01*
Y449888D01*
X366591Y450730D01*
X367200Y452200D01*
Y453792D01*
X366591Y455262D01*
X365466Y456387D01*
X363996Y456996D01*
X363188D01*
X362250Y457881D01*
X362200Y458169D01*
Y459520D01*
X361591Y460990D01*
X360466Y462115D01*
X358996Y462724D01*
D02*
G37*
G36*
X651684Y234372D02*
X641684D01*
X639204Y234046D01*
X636893Y233088D01*
X634908Y231565D01*
X633386Y229581D01*
X632429Y227270D01*
X632102Y224790D01*
X632429Y222310D01*
X633386Y219999D01*
X634908Y218015D01*
X636893Y216492D01*
X639204Y215534D01*
X641684Y215208D01*
X651684D01*
X654164Y215534D01*
X656475Y216492D01*
X658459Y218015D01*
X659982Y219999D01*
X660939Y222310D01*
X661266Y224790D01*
X660939Y227270D01*
X659982Y229581D01*
X658459Y231565D01*
X656475Y233088D01*
X654164Y234046D01*
X651684Y234372D01*
D02*
G37*
G36*
Y208972D02*
X641684D01*
X639204Y208645D01*
X636893Y207688D01*
X634908Y206165D01*
X633386Y204181D01*
X632429Y201870D01*
X632102Y199390D01*
X632429Y196910D01*
X633386Y194599D01*
X634908Y192614D01*
X636893Y191092D01*
X639204Y190135D01*
X641684Y189808D01*
X651684D01*
X654164Y190135D01*
X656475Y191092D01*
X658459Y192614D01*
X659982Y194599D01*
X660939Y196910D01*
X661266Y199390D01*
X660939Y201870D01*
X659982Y204181D01*
X658459Y206165D01*
X656475Y207688D01*
X654164Y208645D01*
X651684Y208972D01*
D02*
G37*
G36*
X504224Y163766D02*
X502632D01*
X501162Y163157D01*
X500830Y162825D01*
X66508D01*
X66508Y162825D01*
X65337Y162592D01*
X64345Y161929D01*
X64345Y161929D01*
X61142Y158726D01*
X60672D01*
X59202Y158117D01*
X58077Y156992D01*
X57468Y155522D01*
Y153931D01*
X58077Y152460D01*
X59202Y151335D01*
X60672Y150726D01*
X62264D01*
X63734Y151335D01*
X64859Y152460D01*
X65468Y153931D01*
Y154401D01*
X67775Y156707D01*
X500830D01*
X501162Y156375D01*
X502632Y155766D01*
X504224D01*
X505694Y156375D01*
X506819Y157500D01*
X507428Y158970D01*
Y160562D01*
X506819Y162032D01*
X505694Y163157D01*
X504224Y163766D01*
D02*
G37*
G36*
X483616Y149441D02*
X480614Y149046D01*
X477816Y147887D01*
X475414Y146044D01*
X473571Y143642D01*
X472412Y140844D01*
X472017Y137842D01*
Y127842D01*
X472412Y124840D01*
X473571Y122042D01*
X475414Y119640D01*
X477816Y117797D01*
X480614Y116638D01*
X483616Y116243D01*
X486618Y116638D01*
X489416Y117797D01*
X491818Y119640D01*
X493661Y122042D01*
X494820Y124840D01*
X495215Y127842D01*
Y137842D01*
X494820Y140844D01*
X493661Y143642D01*
X491818Y146044D01*
X489416Y147887D01*
X486618Y149046D01*
X483616Y149441D01*
D02*
G37*
G36*
X211582D02*
X208580Y149046D01*
X205782Y147887D01*
X203380Y146044D01*
X201537Y143642D01*
X200378Y140844D01*
X199983Y137842D01*
Y127842D01*
X200378Y124840D01*
X201537Y122042D01*
X203380Y119640D01*
X205782Y117797D01*
X208580Y116638D01*
X211582Y116243D01*
X214584Y116638D01*
X217382Y117797D01*
X219784Y119640D01*
X221627Y122042D01*
X222786Y124840D01*
X223181Y127842D01*
Y137842D01*
X222786Y140844D01*
X221627Y143642D01*
X219784Y146044D01*
X217382Y147887D01*
X214584Y149046D01*
X211582Y149441D01*
D02*
G37*
G36*
X62264Y108962D02*
X60672D01*
X59202Y108353D01*
X58077Y107228D01*
X57468Y105758D01*
Y104166D01*
X58077Y102696D01*
X59202Y101571D01*
X60672Y100962D01*
X62264D01*
X63734Y101571D01*
X64066Y101903D01*
X178855D01*
X188179Y92579D01*
X188179Y92579D01*
X189171Y91916D01*
X190342Y91683D01*
X190342Y91683D01*
X521658D01*
X521990Y91351D01*
X523460Y90742D01*
X525052D01*
X526522Y91351D01*
X527647Y92476D01*
X528256Y93946D01*
Y95538D01*
X527647Y97008D01*
X526522Y98133D01*
X525052Y98742D01*
X523460D01*
X521990Y98133D01*
X521658Y97801D01*
X355307D01*
X354774Y99071D01*
X355282Y100296D01*
Y101888D01*
X354673Y103358D01*
X353548Y104483D01*
X352078Y105092D01*
X351608D01*
X350143Y106557D01*
X349151Y107220D01*
X347980Y107453D01*
X347980Y107453D01*
X191066D01*
X190734Y107785D01*
X189264Y108394D01*
X187672D01*
X186202Y107785D01*
X185077Y106660D01*
X184921Y106284D01*
X183423Y105986D01*
X182285Y107125D01*
X181292Y107788D01*
X180122Y108021D01*
X180122Y108021D01*
X64066D01*
X63734Y108353D01*
X62264Y108962D01*
D02*
G37*
G36*
X540546Y84518D02*
X538954D01*
X537484Y83909D01*
X537152Y83577D01*
X79735D01*
X79735Y83577D01*
X78565Y83344D01*
X77572Y82681D01*
X77572Y82681D01*
X75815Y80924D01*
X75152Y79931D01*
X74976Y79048D01*
X60126Y64198D01*
X59656D01*
X58186Y63589D01*
X57061Y62464D01*
X56452Y60994D01*
Y59402D01*
X57061Y57932D01*
X58186Y56807D01*
X59656Y56198D01*
X61248D01*
X62718Y56807D01*
X63843Y57932D01*
X64452Y59402D01*
Y59872D01*
X80141Y75561D01*
X80141Y75561D01*
X80804Y76553D01*
X80980Y77436D01*
X81002Y77459D01*
X537152D01*
X537484Y77127D01*
X538954Y76518D01*
X540546D01*
X542016Y77127D01*
X543141Y78252D01*
X543750Y79722D01*
Y81314D01*
X543141Y82784D01*
X542016Y83909D01*
X540546Y84518D01*
D02*
G37*
G36*
X432670Y35225D02*
Y26593D01*
X439469D01*
Y27323D01*
X439194Y29411D01*
X438388Y31358D01*
X437106Y33029D01*
X435434Y34311D01*
X433488Y35117D01*
X432670Y35225D01*
D02*
G37*
G36*
X407670D02*
Y26593D01*
X414469D01*
Y27323D01*
X414194Y29411D01*
X413388Y31358D01*
X412106Y33029D01*
X410434Y34311D01*
X408488Y35117D01*
X407670Y35225D01*
D02*
G37*
G36*
X430130D02*
X429311Y35117D01*
X427365Y34311D01*
X425694Y33029D01*
X424412Y31358D01*
X423606Y29411D01*
X423331Y27323D01*
Y26593D01*
X430130D01*
Y35225D01*
D02*
G37*
G36*
X405130D02*
X404311Y35117D01*
X402365Y34311D01*
X400694Y33029D01*
X399412Y31358D01*
X398606Y29411D01*
X398331Y27323D01*
Y26593D01*
X405130D01*
Y35225D01*
D02*
G37*
G36*
X635000Y34888D02*
X633042Y34630D01*
X631218Y33874D01*
X629651Y32672D01*
X628449Y31105D01*
X627693Y29281D01*
X627435Y27323D01*
Y23323D01*
X627693Y21365D01*
X628449Y19541D01*
X629651Y17974D01*
X631218Y16772D01*
X633042Y16016D01*
X635000Y15758D01*
X636958Y16016D01*
X638782Y16772D01*
X640349Y17974D01*
X641551Y19541D01*
X642307Y21365D01*
X642565Y23323D01*
Y27323D01*
X642307Y29281D01*
X641551Y31105D01*
X640349Y32672D01*
X638782Y33874D01*
X636958Y34630D01*
X635000Y34888D01*
D02*
G37*
G36*
X609600D02*
X607642Y34630D01*
X605818Y33874D01*
X604251Y32672D01*
X603049Y31105D01*
X602293Y29281D01*
X602035Y27323D01*
Y23323D01*
X602293Y21365D01*
X603049Y19541D01*
X604251Y17974D01*
X605818Y16772D01*
X607642Y16016D01*
X609600Y15758D01*
X611558Y16016D01*
X613382Y16772D01*
X614949Y17974D01*
X616151Y19541D01*
X616907Y21365D01*
X617165Y23323D01*
Y27323D01*
X616907Y29281D01*
X616151Y31105D01*
X614949Y32672D01*
X613382Y33874D01*
X611558Y34630D01*
X609600Y34888D01*
D02*
G37*
G36*
X584200D02*
X582242Y34630D01*
X580418Y33874D01*
X578851Y32672D01*
X577649Y31105D01*
X576893Y29281D01*
X576635Y27323D01*
Y23323D01*
X576893Y21365D01*
X577649Y19541D01*
X578851Y17974D01*
X580418Y16772D01*
X582242Y16016D01*
X584200Y15758D01*
X586158Y16016D01*
X587982Y16772D01*
X589549Y17974D01*
X590751Y19541D01*
X591507Y21365D01*
X591765Y23323D01*
Y27323D01*
X591507Y29281D01*
X590751Y31105D01*
X589549Y32672D01*
X587982Y33874D01*
X586158Y34630D01*
X584200Y34888D01*
D02*
G37*
G36*
X558800D02*
X556842Y34630D01*
X555018Y33874D01*
X553451Y32672D01*
X552249Y31105D01*
X551493Y29281D01*
X551235Y27323D01*
Y23323D01*
X551493Y21365D01*
X552249Y19541D01*
X553451Y17974D01*
X555018Y16772D01*
X556842Y16016D01*
X558800Y15758D01*
X560758Y16016D01*
X562582Y16772D01*
X564149Y17974D01*
X565351Y19541D01*
X566107Y21365D01*
X566365Y23323D01*
Y27323D01*
X566107Y29281D01*
X565351Y31105D01*
X564149Y32672D01*
X562582Y33874D01*
X560758Y34630D01*
X558800Y34888D01*
D02*
G37*
G36*
X533000D02*
X531042Y34630D01*
X529218Y33874D01*
X527651Y32672D01*
X526449Y31105D01*
X525693Y29281D01*
X525435Y27323D01*
Y23323D01*
X525693Y21365D01*
X526449Y19541D01*
X527651Y17974D01*
X529218Y16772D01*
X531042Y16016D01*
X533000Y15758D01*
X534958Y16016D01*
X536782Y16772D01*
X538349Y17974D01*
X539551Y19541D01*
X540307Y21365D01*
X540565Y23323D01*
Y27323D01*
X540307Y29281D01*
X539551Y31105D01*
X538349Y32672D01*
X536782Y33874D01*
X534958Y34630D01*
X533000Y34888D01*
D02*
G37*
G36*
X508000D02*
X506042Y34630D01*
X504218Y33874D01*
X502651Y32672D01*
X501449Y31105D01*
X500693Y29281D01*
X500435Y27323D01*
Y23323D01*
X500693Y21365D01*
X501449Y19541D01*
X502651Y17974D01*
X504218Y16772D01*
X506042Y16016D01*
X508000Y15758D01*
X509958Y16016D01*
X511782Y16772D01*
X513349Y17974D01*
X514551Y19541D01*
X515307Y21365D01*
X515565Y23323D01*
Y27323D01*
X515307Y29281D01*
X514551Y31105D01*
X513349Y32672D01*
X511782Y33874D01*
X509958Y34630D01*
X508000Y34888D01*
D02*
G37*
G36*
X457200D02*
X455242Y34630D01*
X453418Y33874D01*
X451851Y32672D01*
X450649Y31105D01*
X449893Y29281D01*
X449635Y27323D01*
Y23323D01*
X449893Y21365D01*
X450649Y19541D01*
X451851Y17974D01*
X453418Y16772D01*
X455242Y16016D01*
X457200Y15758D01*
X459158Y16016D01*
X460982Y16772D01*
X462549Y17974D01*
X463751Y19541D01*
X464507Y21365D01*
X464765Y23323D01*
Y27323D01*
X464507Y29281D01*
X463751Y31105D01*
X462549Y32672D01*
X460982Y33874D01*
X459158Y34630D01*
X457200Y34888D01*
D02*
G37*
G36*
X381000D02*
X379042Y34630D01*
X377218Y33874D01*
X375651Y32672D01*
X374449Y31105D01*
X373693Y29281D01*
X373435Y27323D01*
Y23323D01*
X373693Y21365D01*
X374449Y19541D01*
X375651Y17974D01*
X377218Y16772D01*
X379042Y16016D01*
X381000Y15758D01*
X382958Y16016D01*
X384782Y16772D01*
X386349Y17974D01*
X387551Y19541D01*
X388307Y21365D01*
X388565Y23323D01*
Y27323D01*
X388307Y29281D01*
X387551Y31105D01*
X386349Y32672D01*
X384782Y33874D01*
X382958Y34630D01*
X381000Y34888D01*
D02*
G37*
G36*
X355600D02*
X353642Y34630D01*
X351818Y33874D01*
X350251Y32672D01*
X349049Y31105D01*
X348293Y29281D01*
X348035Y27323D01*
Y23323D01*
X348293Y21365D01*
X349049Y19541D01*
X350251Y17974D01*
X351818Y16772D01*
X353642Y16016D01*
X355600Y15758D01*
X357558Y16016D01*
X359382Y16772D01*
X360949Y17974D01*
X362151Y19541D01*
X362907Y21365D01*
X363165Y23323D01*
Y27323D01*
X362907Y29281D01*
X362151Y31105D01*
X360949Y32672D01*
X359382Y33874D01*
X357558Y34630D01*
X355600Y34888D01*
D02*
G37*
G36*
X330200D02*
X328242Y34630D01*
X326418Y33874D01*
X324851Y32672D01*
X323649Y31105D01*
X322893Y29281D01*
X322635Y27323D01*
Y23323D01*
X322893Y21365D01*
X323649Y19541D01*
X324851Y17974D01*
X326418Y16772D01*
X328242Y16016D01*
X330200Y15758D01*
X332158Y16016D01*
X333982Y16772D01*
X335549Y17974D01*
X336751Y19541D01*
X337507Y21365D01*
X337765Y23323D01*
Y27323D01*
X337507Y29281D01*
X336751Y31105D01*
X335549Y32672D01*
X333982Y33874D01*
X332158Y34630D01*
X330200Y34888D01*
D02*
G37*
G36*
X304400D02*
X302442Y34630D01*
X300618Y33874D01*
X299051Y32672D01*
X297849Y31105D01*
X297093Y29281D01*
X296835Y27323D01*
Y23323D01*
X297093Y21365D01*
X297849Y19541D01*
X299051Y17974D01*
X300618Y16772D01*
X302442Y16016D01*
X304400Y15758D01*
X306358Y16016D01*
X308182Y16772D01*
X309749Y17974D01*
X310951Y19541D01*
X311707Y21365D01*
X311965Y23323D01*
Y27323D01*
X311707Y29281D01*
X310951Y31105D01*
X309749Y32672D01*
X308182Y33874D01*
X306358Y34630D01*
X304400Y34888D01*
D02*
G37*
G36*
X279400D02*
X277442Y34630D01*
X275618Y33874D01*
X274051Y32672D01*
X272849Y31105D01*
X272093Y29281D01*
X271835Y27323D01*
Y23323D01*
X272093Y21365D01*
X272849Y19541D01*
X274051Y17974D01*
X275618Y16772D01*
X277442Y16016D01*
X279400Y15758D01*
X281358Y16016D01*
X283182Y16772D01*
X284749Y17974D01*
X285951Y19541D01*
X286707Y21365D01*
X286965Y23323D01*
Y27323D01*
X286707Y29281D01*
X285951Y31105D01*
X284749Y32672D01*
X283182Y33874D01*
X281358Y34630D01*
X279400Y34888D01*
D02*
G37*
G36*
X439469Y24053D02*
X432670D01*
Y15421D01*
X433488Y15529D01*
X435434Y16335D01*
X437106Y17617D01*
X438388Y19289D01*
X439194Y21235D01*
X439469Y23323D01*
Y24053D01*
D02*
G37*
G36*
X414469D02*
X407670D01*
Y15421D01*
X408488Y15529D01*
X410434Y16335D01*
X412106Y17617D01*
X413388Y19289D01*
X414194Y21235D01*
X414469Y23323D01*
Y24053D01*
D02*
G37*
G36*
X430130D02*
X423331D01*
Y23323D01*
X423606Y21235D01*
X424412Y19289D01*
X425694Y17617D01*
X427365Y16335D01*
X429311Y15529D01*
X430130Y15421D01*
Y24053D01*
D02*
G37*
G36*
X405130D02*
X398331D01*
Y23323D01*
X398606Y21235D01*
X399412Y19289D01*
X400694Y17617D01*
X402365Y16335D01*
X404311Y15529D01*
X405130Y15421D01*
Y24053D01*
D02*
G37*
%LPD*%
G36*
X347282Y100766D02*
Y100296D01*
X347790Y99071D01*
X347257Y97801D01*
X191609D01*
X190060Y99349D01*
X190358Y100847D01*
X190734Y101003D01*
X191066Y101335D01*
X346713D01*
X347282Y100766D01*
D02*
G37*
D11*
X363200Y228388D02*
X366798Y224790D01*
X363200Y228388D02*
Y452996D01*
X358200Y254722D02*
Y458724D01*
D45*
X310698Y289290D02*
X313094Y286894D01*
X333820D01*
X255513Y289290D02*
X310698D01*
X248308Y282085D02*
X255513Y289290D01*
X423926Y244856D02*
Y285496D01*
X424688Y286258D01*
X180122Y104962D02*
X190342Y94742D01*
X61468Y104962D02*
X180122D01*
X190342Y94742D02*
X524256D01*
X60452Y60198D02*
X77978Y77724D01*
Y78761D01*
X79735Y80518D01*
X539750D01*
X66508Y159766D02*
X503428D01*
X61468Y154726D02*
X66508Y159766D01*
X51737Y297180D02*
X289052D01*
X49198Y294640D02*
X51737Y297180D01*
X48046Y273092D02*
X297722D01*
X308420Y283790D01*
X53801Y305816D02*
X302768D01*
X303276Y305308D01*
X188468Y104394D02*
X347980D01*
X351282Y101092D01*
X192582Y282085D02*
X248308D01*
D46*
X487934Y284334D02*
D03*
Y309734D02*
D03*
Y233934D02*
D03*
Y258934D02*
D03*
X646684Y249790D02*
D03*
X647446Y307848D02*
D03*
Y358648D02*
D03*
Y383648D02*
D03*
Y333248D02*
D03*
X646684Y199390D02*
D03*
Y224790D02*
D03*
D47*
X483616Y413004D02*
D03*
X211836Y412242D02*
D03*
X211582Y132842D02*
D03*
X483616D02*
D03*
D48*
X264100Y507923D02*
D03*
X289500D02*
D03*
X187900D02*
D03*
X212900D02*
D03*
X238700D02*
D03*
X365700D02*
D03*
X339900D02*
D03*
X314900D02*
D03*
X391100D02*
D03*
X416500D02*
D03*
D49*
X406400Y25323D02*
D03*
X431400D02*
D03*
X381000D02*
D03*
X355600D02*
D03*
X279400D02*
D03*
X304400D02*
D03*
X330200D02*
D03*
X457200D02*
D03*
X609600D02*
D03*
X584200D02*
D03*
X508000D02*
D03*
X533000D02*
D03*
X558800D02*
D03*
X635000D02*
D03*
X558800Y507923D02*
D03*
X533400D02*
D03*
X457200D02*
D03*
X482200D02*
D03*
X508000D02*
D03*
X635000D02*
D03*
X609200D02*
D03*
X584200D02*
D03*
D50*
X547370Y110844D02*
D03*
X602035Y163766D02*
D03*
X659982Y166624D02*
D03*
X661266Y114674D02*
D03*
X655066Y66548D02*
D03*
X602035Y80518D02*
D03*
X636270Y435356D02*
D03*
X566166Y462724D02*
D03*
X482200Y458724D02*
D03*
X508361Y413004D02*
D03*
X510163Y386128D02*
D03*
X636625Y275620D02*
D03*
X586158Y274297D02*
D03*
X555018D02*
D03*
X544544Y143642D02*
D03*
X513000Y183750D02*
D03*
X449893Y209040D02*
D03*
X392176Y196910D02*
D03*
X382819Y231712D02*
D03*
X349470Y222210D02*
D03*
X386813Y274297D02*
D03*
X385826Y317348D02*
D03*
X382819Y336142D02*
D03*
X385826Y395643D02*
D03*
Y450730D02*
D03*
X419926Y354048D02*
D03*
X415820Y408004D02*
D03*
X388881Y477347D02*
D03*
X340688Y481147D02*
D03*
X335003Y457881D02*
D03*
X347700Y382016D02*
D03*
X343966Y337642D02*
D03*
X344187Y307594D02*
D03*
X324851Y266342D02*
D03*
X301434Y260909D02*
D03*
X255642Y259342D02*
D03*
X210681Y253072D02*
D03*
X159766Y252476D02*
D03*
X127508Y255016D02*
D03*
X100838Y261828D02*
D03*
X58674Y254612D02*
D03*
X62549Y319342D02*
D03*
X112268Y325342D02*
D03*
X138938Y319024D02*
D03*
X194848Y319072D02*
D03*
X238700Y325342D02*
D03*
X275336Y469637D02*
D03*
X271961Y438560D02*
D03*
X268639Y407473D02*
D03*
X266449Y358548D02*
D03*
Y325342D02*
D03*
X366798Y224790D02*
D03*
X363200Y452996D02*
D03*
X358200Y254722D02*
D03*
Y458724D02*
D03*
X333820Y286894D02*
D03*
X424688Y286258D02*
D03*
X423926Y244856D02*
D03*
X61468Y104962D02*
D03*
X524256Y94742D02*
D03*
X60452Y60198D02*
D03*
X539750Y80518D02*
D03*
X503428Y159766D02*
D03*
X61468Y154726D02*
D03*
X289052Y297180D02*
D03*
X49198Y294640D02*
D03*
X48046Y273092D02*
D03*
X308420Y283790D02*
D03*
X53801Y305816D02*
D03*
X303276Y305308D02*
D03*
X188468Y104394D02*
D03*
X351282Y101092D02*
D03*
X192582Y282085D02*
D03*
M02*
