G04*
G04 #@! TF.GenerationSoftware,Altium Limited,Altium Designer,25.8.1 (18)*
G04*
G04 Layer_Color=8388736*
%FSLAX44Y44*%
%MOMM*%
G71*
G04*
G04 #@! TF.SameCoordinates,8940569E-AFD4-47AF-A39F-6C324D602B42*
G04*
G04*
G04 #@! TF.FilePolarity,Negative*
G04*
G01*
G75*
%ADD28R,1.1532X0.8032*%
%ADD29R,1.1532X0.9032*%
%ADD30R,1.7532X0.8032*%
%ADD31R,0.4532X1.0032*%
%ADD32R,1.1332X1.1032*%
%ADD33R,3.5332X0.9032*%
%ADD34R,3.0032X1.0632*%
%ADD35R,2.0332X1.3432*%
%ADD36R,0.8032X1.1532*%
%ADD37R,1.3032X0.9032*%
%ADD38R,0.9832X1.2532*%
%ADD39R,1.5032X1.0032*%
%ADD40R,2.0032X0.9032*%
%ADD41O,2.8032X1.8032*%
G04:AMPARAMS|DCode=42|XSize=1.2032mm|YSize=1.2032mm|CornerRadius=0.3516mm|HoleSize=0mm|Usage=FLASHONLY|Rotation=270.000|XOffset=0mm|YOffset=0mm|HoleType=Round|Shape=RoundedRectangle|*
%AMROUNDEDRECTD42*
21,1,1.2032,0.5000,0,0,270.0*
21,1,0.5000,1.2032,0,0,270.0*
1,1,0.7032,-0.2500,-0.2500*
1,1,0.7032,-0.2500,0.2500*
1,1,0.7032,0.2500,0.2500*
1,1,0.7032,0.2500,-0.2500*
%
%ADD42ROUNDEDRECTD42*%
%ADD43O,1.6032X2.0032*%
%ADD44O,1.4032X1.8032*%
D28*
X52324Y138726D02*
D03*
Y154726D02*
D03*
Y85734D02*
D03*
Y101734D02*
D03*
Y34672D02*
D03*
Y50672D02*
D03*
X177243Y266828D02*
D03*
X414468Y302894D02*
D03*
X574040Y103632D02*
D03*
X414468Y222608D02*
D03*
Y238608D02*
D03*
Y255120D02*
D03*
Y271120D02*
D03*
X177243Y282828D02*
D03*
X574040Y119632D02*
D03*
X414468Y286894D02*
D03*
D29*
X27884Y138226D02*
D03*
Y154226D02*
D03*
Y86234D02*
D03*
Y102234D02*
D03*
Y33763D02*
D03*
Y49763D02*
D03*
D30*
X628004Y105844D02*
D03*
Y115844D02*
D03*
Y135844D02*
D03*
Y125844D02*
D03*
D31*
X348200Y411480D02*
D03*
X353200D02*
D03*
X358200D02*
D03*
X363200D02*
D03*
X348200Y440280D02*
D03*
X363200D02*
D03*
X358200D02*
D03*
X353200D02*
D03*
D32*
X156134Y230442D02*
D03*
D33*
X144134Y336142D02*
D03*
Y207342D02*
D03*
D34*
X36484Y336142D02*
D03*
D35*
X31634Y209542D02*
D03*
D36*
X494220Y352298D02*
D03*
X478220D02*
D03*
D37*
X31484Y248342D02*
D03*
Y259342D02*
D03*
Y270342D02*
D03*
Y292342D02*
D03*
Y303342D02*
D03*
Y314342D02*
D03*
Y325342D02*
D03*
Y281342D02*
D03*
D38*
X156884Y273092D02*
D03*
D39*
X355700Y425880D02*
D03*
D40*
X667004Y148844D02*
D03*
Y92844D02*
D03*
D41*
X487934Y284334D02*
D03*
Y309734D02*
D03*
Y233934D02*
D03*
Y258934D02*
D03*
X646684Y249790D02*
D03*
X647446Y307848D02*
D03*
Y358648D02*
D03*
Y383648D02*
D03*
Y333248D02*
D03*
X646684Y199390D02*
D03*
Y224790D02*
D03*
D42*
X483616Y413004D02*
D03*
X211836Y412242D02*
D03*
X211582Y132842D02*
D03*
X483616D02*
D03*
D43*
X264100Y507923D02*
D03*
X289500D02*
D03*
X187900D02*
D03*
X212900D02*
D03*
X238700D02*
D03*
X365700D02*
D03*
X339900D02*
D03*
X314900D02*
D03*
X391100D02*
D03*
X416500D02*
D03*
D44*
X406400Y25323D02*
D03*
X431400D02*
D03*
X381000D02*
D03*
X355600D02*
D03*
X279400D02*
D03*
X304400D02*
D03*
X330200D02*
D03*
X457200D02*
D03*
X609600D02*
D03*
X584200D02*
D03*
X508000D02*
D03*
X533000D02*
D03*
X558800D02*
D03*
X635000D02*
D03*
X558800Y507923D02*
D03*
X533400D02*
D03*
X457200D02*
D03*
X482200D02*
D03*
X508000D02*
D03*
X635000D02*
D03*
X609200D02*
D03*
X584200D02*
D03*
M02*
