G04*
G04 #@! TF.GenerationSoftware,Altium Limited,Altium Designer,25.8.1 (18)*
G04*
G04 Layer_Color=65535*
%FSLAX44Y44*%
%MOMM*%
G71*
G04*
G04 #@! TF.SameCoordinates,8940569E-AFD4-47AF-A39F-6C324D602B42*
G04*
G04*
G04 #@! TF.FilePolarity,Positive*
G04*
G01*
G75*
%ADD10C,0.1000*%
%ADD11C,0.2000*%
%ADD12C,0.1500*%
%ADD13C,0.2500*%
%ADD14C,0.2540*%
G36*
X22494Y512224D02*
X24336D01*
Y511763D01*
X26178D01*
Y511303D01*
X28019D01*
Y510842D01*
X29861D01*
Y510382D01*
X31702D01*
Y509922D01*
X33544D01*
Y509461D01*
X35386D01*
Y509001D01*
X37227D01*
Y508540D01*
X39069D01*
Y508080D01*
X40910D01*
Y507620D01*
X42752D01*
Y507159D01*
X45054D01*
Y506699D01*
X46895D01*
Y506238D01*
X48277D01*
Y505778D01*
X45514D01*
Y506238D01*
X40450D01*
Y506699D01*
X35846D01*
Y507159D01*
X31242D01*
Y507620D01*
X28480D01*
Y506699D01*
X28940D01*
Y506238D01*
X29400D01*
Y505778D01*
X29861D01*
Y504857D01*
X30321D01*
Y504397D01*
X30782D01*
Y503936D01*
X31242D01*
Y503016D01*
X31702D01*
Y502555D01*
X32163D01*
Y502095D01*
X32623D01*
Y501174D01*
X33084D01*
Y500714D01*
X33544D01*
Y500253D01*
X34004D01*
Y499332D01*
X34465D01*
Y498872D01*
X34925D01*
Y497951D01*
X35386D01*
Y497491D01*
X35846D01*
Y497030D01*
X36306D01*
Y496110D01*
X36767D01*
Y495649D01*
X37227D01*
Y495189D01*
X37688D01*
Y494268D01*
X38148D01*
Y493808D01*
X38608D01*
Y493347D01*
X39069D01*
Y492426D01*
X39529D01*
Y491966D01*
X39990D01*
Y491506D01*
X40450D01*
Y490124D01*
X39990D01*
Y486902D01*
X39529D01*
Y483218D01*
X39069D01*
Y479996D01*
X38608D01*
Y476773D01*
X39069D01*
Y474011D01*
X39529D01*
Y470327D01*
X39990D01*
Y467104D01*
X40450D01*
Y465723D01*
X39990D01*
Y465263D01*
X39529D01*
Y464803D01*
X39069D01*
Y463882D01*
X38608D01*
Y463421D01*
X38148D01*
Y462961D01*
X37688D01*
Y462040D01*
X37227D01*
Y461580D01*
X36767D01*
Y461119D01*
X36306D01*
Y460199D01*
X35846D01*
Y459738D01*
X35386D01*
Y459278D01*
X34925D01*
Y458357D01*
X34465D01*
Y457897D01*
X34004D01*
Y456976D01*
X33544D01*
Y456515D01*
X33084D01*
Y456055D01*
X32623D01*
Y455134D01*
X32163D01*
Y454674D01*
X31702D01*
Y454213D01*
X31242D01*
Y453293D01*
X30782D01*
Y452832D01*
X30321D01*
Y452372D01*
X29861D01*
Y451451D01*
X29400D01*
Y450991D01*
X28940D01*
Y450530D01*
X28480D01*
Y449609D01*
X31242D01*
Y450070D01*
X35846D01*
Y450530D01*
X40910D01*
Y450991D01*
X45514D01*
Y451451D01*
X48277D01*
Y450991D01*
X46895D01*
Y450530D01*
X45054D01*
Y450070D01*
X42752D01*
Y449609D01*
X40910D01*
Y449149D01*
X39069D01*
Y448689D01*
X37227D01*
Y448228D01*
X35386D01*
Y447768D01*
X33544D01*
Y447307D01*
X31702D01*
Y446847D01*
X29861D01*
Y446387D01*
X28019D01*
Y445926D01*
X26178D01*
Y445466D01*
X24336D01*
Y445005D01*
X22034D01*
Y444545D01*
X20653D01*
Y445005D01*
X21113D01*
Y445926D01*
X21574D01*
Y446387D01*
X22034D01*
Y447307D01*
X22494D01*
Y447768D01*
X22955D01*
Y448228D01*
X23415D01*
Y449149D01*
X23876D01*
Y449609D01*
X24336D01*
Y450530D01*
X24796D01*
Y450991D01*
X25257D01*
Y451911D01*
X25717D01*
Y452372D01*
X26178D01*
Y453293D01*
X26638D01*
Y453753D01*
X27098D01*
Y454674D01*
X27559D01*
Y455134D01*
X28019D01*
Y456055D01*
X28480D01*
Y456515D01*
X28940D01*
Y456976D01*
X29400D01*
Y457897D01*
X29861D01*
Y458357D01*
X30321D01*
Y459278D01*
X30782D01*
Y459738D01*
X31242D01*
Y460659D01*
X31702D01*
Y461119D01*
X32163D01*
Y462040D01*
X32623D01*
Y462500D01*
X33084D01*
Y463421D01*
X33544D01*
Y463882D01*
X34004D01*
Y464342D01*
X34465D01*
Y465263D01*
X34925D01*
Y465723D01*
X35386D01*
Y466644D01*
X35846D01*
Y470788D01*
X35386D01*
Y475392D01*
X34925D01*
Y481837D01*
X35386D01*
Y486441D01*
X35846D01*
Y490585D01*
X35386D01*
Y491506D01*
X34925D01*
Y491966D01*
X34465D01*
Y492887D01*
X34004D01*
Y493347D01*
X33544D01*
Y493808D01*
X33084D01*
Y494728D01*
X32623D01*
Y495189D01*
X32163D01*
Y496110D01*
X31702D01*
Y496570D01*
X31242D01*
Y497491D01*
X30782D01*
Y497951D01*
X30321D01*
Y498872D01*
X29861D01*
Y499332D01*
X29400D01*
Y500253D01*
X28940D01*
Y500714D01*
X28480D01*
Y501174D01*
X28019D01*
Y502095D01*
X27559D01*
Y502555D01*
X27098D01*
Y503476D01*
X26638D01*
Y503936D01*
X26178D01*
Y504857D01*
X25717D01*
Y505318D01*
X25257D01*
Y506238D01*
X24796D01*
Y506699D01*
X24336D01*
Y507620D01*
X23876D01*
Y508080D01*
X23415D01*
Y509001D01*
X22955D01*
Y509461D01*
X22494D01*
Y510382D01*
X22034D01*
Y510842D01*
X21574D01*
Y511303D01*
X21113D01*
Y512224D01*
X20653D01*
Y512684D01*
X22494D01*
Y512224D01*
D02*
G37*
G36*
X66232Y517748D02*
X66693D01*
Y516828D01*
X67153D01*
Y515907D01*
X67614D01*
Y514986D01*
X68074D01*
Y514065D01*
X68534D01*
Y513144D01*
X68995D01*
Y512224D01*
X69455D01*
Y510842D01*
X69915D01*
Y509922D01*
X70376D01*
Y509001D01*
X70836D01*
Y508080D01*
X71297D01*
Y507159D01*
X72217D01*
Y508080D01*
X72678D01*
Y508540D01*
X73138D01*
Y509461D01*
X73599D01*
Y510382D01*
X74059D01*
Y510842D01*
X74519D01*
Y509922D01*
X74980D01*
Y509001D01*
X75440D01*
Y508080D01*
X75901D01*
Y507159D01*
X76361D01*
Y506238D01*
X76821D01*
Y505318D01*
X77282D01*
Y503936D01*
X77742D01*
Y503016D01*
X78203D01*
Y502095D01*
X78663D01*
Y501174D01*
X79123D01*
Y500253D01*
X79584D01*
Y499332D01*
X80044D01*
Y497951D01*
X80505D01*
Y497030D01*
X80965D01*
Y496110D01*
X81425D01*
Y495189D01*
X81886D01*
Y494268D01*
X81425D01*
Y494728D01*
X80965D01*
Y495649D01*
X80505D01*
Y496110D01*
X80044D01*
Y496570D01*
X79584D01*
Y497030D01*
X79123D01*
Y497491D01*
X78663D01*
Y498412D01*
X78203D01*
Y498872D01*
X77742D01*
Y499332D01*
X77282D01*
Y499793D01*
X76821D01*
Y500253D01*
X76361D01*
Y500714D01*
X75901D01*
Y501634D01*
X75440D01*
Y502095D01*
X74980D01*
Y502555D01*
X74519D01*
Y503016D01*
X74059D01*
Y502555D01*
X73599D01*
Y501634D01*
X73138D01*
Y500714D01*
X72678D01*
Y500253D01*
X72217D01*
Y499332D01*
X71757D01*
Y498412D01*
X71297D01*
Y498872D01*
X70836D01*
Y499793D01*
X70376D01*
Y500714D01*
X69915D01*
Y501634D01*
X69455D01*
Y502555D01*
X68995D01*
Y503476D01*
X68534D01*
Y504397D01*
X68074D01*
Y505318D01*
X67614D01*
Y506238D01*
X67153D01*
Y507159D01*
X66693D01*
Y508080D01*
X66232D01*
Y509001D01*
X65772D01*
Y509922D01*
X65311D01*
Y511303D01*
X64391D01*
Y510842D01*
X63930D01*
Y510382D01*
X63470D01*
Y509922D01*
X63010D01*
Y509461D01*
X62549D01*
Y509001D01*
X62089D01*
Y508540D01*
X61628D01*
Y508080D01*
X61168D01*
Y507159D01*
X60708D01*
Y506699D01*
X60247D01*
Y506238D01*
X59787D01*
Y505778D01*
X59326D01*
Y505318D01*
X58866D01*
Y504857D01*
X58405D01*
Y504397D01*
X57945D01*
Y503936D01*
X57485D01*
Y503016D01*
X57024D01*
Y502555D01*
X56564D01*
Y502095D01*
X56104D01*
Y501634D01*
X55643D01*
Y501174D01*
X55183D01*
Y500714D01*
X54722D01*
Y500253D01*
X54262D01*
Y499793D01*
X53801D01*
Y498872D01*
X53341D01*
Y498412D01*
X52881D01*
Y497951D01*
X52420D01*
Y497491D01*
X51960D01*
Y497030D01*
X51500D01*
Y496570D01*
X51039D01*
Y496110D01*
X50579D01*
Y495649D01*
X50118D01*
Y494728D01*
X49658D01*
Y494268D01*
X49198D01*
Y493808D01*
X48277D01*
Y494268D01*
X47816D01*
Y494728D01*
X46895D01*
Y495189D01*
X46435D01*
Y495649D01*
X45975D01*
Y496110D01*
X45054D01*
Y496570D01*
X44594D01*
Y497030D01*
X44133D01*
Y497491D01*
X43212D01*
Y497951D01*
X42752D01*
Y498412D01*
X42292D01*
Y498872D01*
X41831D01*
Y499332D01*
X40910D01*
Y499793D01*
X40450D01*
Y500253D01*
X39990D01*
Y500714D01*
X39069D01*
Y501174D01*
X38608D01*
Y501634D01*
X38148D01*
Y502095D01*
X37227D01*
Y503016D01*
X37688D01*
Y502555D01*
X38608D01*
Y502095D01*
X39990D01*
Y501634D01*
X40910D01*
Y501174D01*
X42292D01*
Y500714D01*
X43673D01*
Y500253D01*
X44594D01*
Y499793D01*
X45975D01*
Y499332D01*
X47356D01*
Y498872D01*
X48277D01*
Y499332D01*
X48737D01*
Y500253D01*
X49198D01*
Y500714D01*
X49658D01*
Y501174D01*
X50118D01*
Y501634D01*
X50579D01*
Y502095D01*
X51039D01*
Y502555D01*
X51500D01*
Y503016D01*
X51960D01*
Y503476D01*
X52420D01*
Y504397D01*
X52881D01*
Y504857D01*
X53341D01*
Y505318D01*
X53801D01*
Y505778D01*
X54262D01*
Y506238D01*
X54722D01*
Y506699D01*
X55183D01*
Y507159D01*
X55643D01*
Y508080D01*
X56104D01*
Y508540D01*
X56564D01*
Y509001D01*
X57024D01*
Y509461D01*
X57485D01*
Y509922D01*
X57945D01*
Y510382D01*
X58405D01*
Y510842D01*
X58866D01*
Y511303D01*
X59326D01*
Y512224D01*
X59787D01*
Y512684D01*
X60247D01*
Y513144D01*
X60708D01*
Y513605D01*
X61168D01*
Y514065D01*
X61628D01*
Y514525D01*
X62089D01*
Y514986D01*
X62549D01*
Y515446D01*
X63010D01*
Y515907D01*
X63470D01*
Y516828D01*
X63930D01*
Y517288D01*
X64391D01*
Y517748D01*
X64851D01*
Y518209D01*
X65311D01*
Y518669D01*
X66232D01*
Y517748D01*
D02*
G37*
G36*
X57485Y497491D02*
X58405D01*
Y497030D01*
X58866D01*
Y496570D01*
X59787D01*
Y496110D01*
X60708D01*
Y495649D01*
X61628D01*
Y495189D01*
X62549D01*
Y494728D01*
X63010D01*
Y494268D01*
X63930D01*
Y493808D01*
X64851D01*
Y493347D01*
X65311D01*
Y483679D01*
X66693D01*
Y484139D01*
X68995D01*
Y484600D01*
X70836D01*
Y485060D01*
X71757D01*
Y484600D01*
X71297D01*
Y484139D01*
X70376D01*
Y483679D01*
X68995D01*
Y483218D01*
X68074D01*
Y482758D01*
X67153D01*
Y482298D01*
X66232D01*
Y481837D01*
X65311D01*
Y481377D01*
X64391D01*
Y480916D01*
X63470D01*
Y481377D01*
X63010D01*
Y482758D01*
X62549D01*
Y483679D01*
X62089D01*
Y485060D01*
X61628D01*
Y485981D01*
X61168D01*
Y487362D01*
X60708D01*
Y488283D01*
X60247D01*
Y489664D01*
X59787D01*
Y490585D01*
X59326D01*
Y491966D01*
X58866D01*
Y492887D01*
X58405D01*
Y494268D01*
X57945D01*
Y495189D01*
X57485D01*
Y496570D01*
X57024D01*
Y497491D01*
X56564D01*
Y497951D01*
X57485D01*
Y497491D01*
D02*
G37*
G36*
X70376Y494728D02*
X70836D01*
Y494268D01*
X71297D01*
Y493808D01*
X72217D01*
Y493347D01*
X72678D01*
Y492887D01*
X73138D01*
Y492426D01*
X73599D01*
Y491966D01*
X74519D01*
Y491506D01*
X74980D01*
Y491045D01*
X75440D01*
Y490585D01*
X76361D01*
Y490124D01*
X77282D01*
Y490585D01*
X78203D01*
Y491045D01*
X79584D01*
Y491506D01*
X80505D01*
Y491966D01*
X81886D01*
Y492426D01*
X82807D01*
Y492887D01*
X84188D01*
Y493347D01*
X85569D01*
Y493808D01*
X87411D01*
Y493347D01*
X87871D01*
Y492887D01*
X88331D01*
Y492426D01*
X89252D01*
Y491966D01*
X89713D01*
Y491506D01*
X90633D01*
Y491045D01*
X91094D01*
Y490585D01*
X91554D01*
Y490124D01*
X92475D01*
Y489664D01*
X92935D01*
Y489204D01*
X93396D01*
Y488743D01*
X94317D01*
Y488283D01*
X94777D01*
Y487822D01*
X95237D01*
Y487362D01*
X96158D01*
Y486902D01*
X96619D01*
Y486441D01*
X97079D01*
Y485060D01*
X96619D01*
Y484139D01*
X96158D01*
Y482758D01*
X95698D01*
Y481837D01*
X95237D01*
Y480916D01*
X94777D01*
Y479535D01*
X94317D01*
Y477694D01*
X94777D01*
Y476312D01*
X95237D01*
Y475392D01*
X95698D01*
Y474471D01*
X96158D01*
Y473090D01*
X96619D01*
Y472169D01*
X97079D01*
Y470788D01*
X96619D01*
Y470327D01*
X96158D01*
Y469867D01*
X95237D01*
Y469407D01*
X94777D01*
Y468946D01*
X94317D01*
Y468486D01*
X93396D01*
Y468025D01*
X92935D01*
Y467565D01*
X92475D01*
Y467104D01*
X91554D01*
Y466644D01*
X91094D01*
Y466184D01*
X90633D01*
Y465723D01*
X89713D01*
Y465263D01*
X89252D01*
Y464803D01*
X88331D01*
Y464342D01*
X87871D01*
Y463882D01*
X87411D01*
Y463421D01*
X85569D01*
Y463882D01*
X84188D01*
Y464342D01*
X82807D01*
Y464803D01*
X81886D01*
Y465263D01*
X80505D01*
Y465723D01*
X79584D01*
Y466184D01*
X78203D01*
Y466644D01*
X77282D01*
Y467104D01*
X76361D01*
Y466644D01*
X75440D01*
Y466184D01*
X74980D01*
Y465723D01*
X74519D01*
Y465263D01*
X73599D01*
Y464803D01*
X73138D01*
Y464342D01*
X72678D01*
Y463882D01*
X72217D01*
Y463421D01*
X71297D01*
Y462961D01*
X70836D01*
Y462500D01*
X70376D01*
Y463421D01*
X70836D01*
Y463882D01*
X71297D01*
Y464342D01*
X71757D01*
Y464803D01*
X72217D01*
Y465723D01*
X72678D01*
Y466184D01*
X73138D01*
Y466644D01*
X73599D01*
Y467565D01*
X74059D01*
Y468025D01*
X74519D01*
Y468486D01*
X74980D01*
Y469407D01*
X75440D01*
Y469867D01*
X75901D01*
Y470327D01*
X76361D01*
Y470788D01*
X77282D01*
Y470327D01*
X78203D01*
Y469867D01*
X79123D01*
Y469407D01*
X80505D01*
Y468946D01*
X81425D01*
Y468486D01*
X82807D01*
Y468025D01*
X83727D01*
Y467565D01*
X85109D01*
Y467104D01*
X86029D01*
Y467565D01*
X86490D01*
Y468025D01*
X87411D01*
Y468486D01*
X88331D01*
Y468946D01*
X88792D01*
Y469407D01*
X89713D01*
Y469867D01*
X90633D01*
Y470327D01*
X91094D01*
Y470788D01*
X92015D01*
Y471248D01*
X92935D01*
Y473550D01*
X92475D01*
Y475392D01*
X92015D01*
Y476773D01*
X91554D01*
Y476312D01*
X91094D01*
Y475852D01*
X90633D01*
Y474931D01*
X90173D01*
Y474471D01*
X89713D01*
Y474011D01*
X88331D01*
Y473550D01*
X86490D01*
Y474931D01*
X86950D01*
Y476773D01*
X87411D01*
Y478154D01*
X87871D01*
Y479075D01*
X87411D01*
Y480456D01*
X86950D01*
Y482298D01*
X86490D01*
Y484139D01*
X86950D01*
Y483679D01*
X88331D01*
Y483218D01*
X89713D01*
Y482758D01*
X90173D01*
Y482298D01*
X90633D01*
Y481377D01*
X91094D01*
Y480916D01*
X91554D01*
Y480456D01*
X92015D01*
Y481837D01*
X92475D01*
Y483679D01*
X92935D01*
Y485981D01*
X92015D01*
Y486441D01*
X91094D01*
Y486902D01*
X90633D01*
Y487362D01*
X89713D01*
Y487822D01*
X88792D01*
Y488283D01*
X88331D01*
Y488743D01*
X87411D01*
Y489204D01*
X86490D01*
Y489664D01*
X86029D01*
Y490124D01*
X84648D01*
Y489664D01*
X83727D01*
Y489204D01*
X82807D01*
Y488743D01*
X81425D01*
Y488283D01*
X80505D01*
Y487822D01*
X79123D01*
Y487362D01*
X78203D01*
Y486902D01*
X77282D01*
Y486441D01*
X76361D01*
Y486902D01*
X75901D01*
Y487362D01*
X75440D01*
Y487822D01*
X74980D01*
Y488743D01*
X74519D01*
Y489204D01*
X74059D01*
Y489664D01*
X73599D01*
Y490585D01*
X73138D01*
Y491045D01*
X72678D01*
Y491506D01*
X72217D01*
Y492426D01*
X71757D01*
Y492887D01*
X71297D01*
Y493347D01*
X70836D01*
Y493808D01*
X70376D01*
Y494728D01*
X69915D01*
Y495189D01*
X70376D01*
Y494728D01*
D02*
G37*
G36*
X64391Y475852D02*
X65311D01*
Y475392D01*
X66232D01*
Y474931D01*
X67153D01*
Y474471D01*
X68074D01*
Y474011D01*
X68995D01*
Y473550D01*
X70376D01*
Y473090D01*
X71297D01*
Y472629D01*
X71757D01*
Y472169D01*
X70836D01*
Y472629D01*
X68995D01*
Y473090D01*
X66693D01*
Y473550D01*
X65311D01*
Y463882D01*
X64851D01*
Y463421D01*
X63930D01*
Y462961D01*
X63010D01*
Y462500D01*
X62549D01*
Y462040D01*
X61628D01*
Y461580D01*
X60708D01*
Y461119D01*
X59787D01*
Y460659D01*
X58866D01*
Y460199D01*
X58405D01*
Y459738D01*
X57485D01*
Y459278D01*
X56564D01*
Y459738D01*
X57024D01*
Y460659D01*
X57485D01*
Y462040D01*
X57945D01*
Y462961D01*
X58405D01*
Y464342D01*
X58866D01*
Y465263D01*
X59326D01*
Y465723D01*
Y466644D01*
X59787D01*
Y467565D01*
X60247D01*
Y468946D01*
X60708D01*
Y469867D01*
X61168D01*
Y471248D01*
X61628D01*
Y472169D01*
X62089D01*
Y473090D01*
X62549D01*
Y474471D01*
X63010D01*
Y475392D01*
X63470D01*
Y476312D01*
X64391D01*
Y475852D01*
D02*
G37*
G36*
X70376Y462040D02*
X69915D01*
Y462500D01*
X70376D01*
Y462040D01*
D02*
G37*
G36*
X49198Y462961D02*
X49658D01*
Y462500D01*
X50118D01*
Y461580D01*
X50579D01*
Y461119D01*
X51039D01*
Y460659D01*
X51500D01*
Y460199D01*
X51960D01*
Y459738D01*
X52420D01*
Y459278D01*
X52881D01*
Y458817D01*
X53341D01*
Y458357D01*
X53801D01*
Y457436D01*
X54262D01*
Y456976D01*
X54722D01*
Y456515D01*
X55183D01*
Y456055D01*
X55643D01*
Y455595D01*
X56104D01*
Y455134D01*
X56564D01*
Y454674D01*
X57024D01*
Y454213D01*
X57485D01*
Y453293D01*
X57945D01*
Y452832D01*
X58405D01*
Y452372D01*
X58866D01*
Y451911D01*
X59326D01*
Y451451D01*
X59787D01*
Y450991D01*
X60247D01*
Y450530D01*
X60708D01*
Y450070D01*
X61168D01*
Y449149D01*
X61628D01*
Y448689D01*
X62089D01*
Y448228D01*
X62549D01*
Y447768D01*
X63010D01*
Y447307D01*
X63470D01*
Y446847D01*
X63930D01*
Y446387D01*
X64391D01*
Y445926D01*
X65311D01*
Y447307D01*
X65772D01*
Y448228D01*
X66232D01*
Y449149D01*
X66693D01*
Y450070D01*
X67153D01*
Y450991D01*
X67614D01*
Y451911D01*
X68074D01*
Y452832D01*
X68534D01*
Y453753D01*
X68995D01*
Y454674D01*
X69455D01*
Y455595D01*
X69915D01*
Y456515D01*
X70376D01*
Y457436D01*
X70836D01*
Y458357D01*
X71297D01*
Y458817D01*
X71757D01*
Y457897D01*
X72217D01*
Y456976D01*
X72678D01*
Y456515D01*
X73138D01*
Y455595D01*
X73599D01*
Y454674D01*
X74059D01*
Y454213D01*
X74519D01*
Y454674D01*
X74980D01*
Y455134D01*
X75440D01*
Y455595D01*
X75901D01*
Y456515D01*
X76361D01*
Y456976D01*
X76821D01*
Y457436D01*
X77282D01*
Y457897D01*
X77742D01*
Y458357D01*
X78203D01*
Y458817D01*
X78663D01*
Y459738D01*
X79123D01*
Y460199D01*
X79584D01*
Y460659D01*
X80044D01*
Y461119D01*
X80505D01*
Y461580D01*
X80965D01*
Y462500D01*
X81425D01*
Y462961D01*
X81886D01*
Y462040D01*
X81425D01*
Y461119D01*
X80965D01*
Y460199D01*
X80505D01*
Y458817D01*
X80044D01*
Y457897D01*
X79584D01*
Y456976D01*
X79123D01*
Y456055D01*
X78663D01*
Y455134D01*
X78203D01*
Y454213D01*
X77742D01*
Y453293D01*
X77282D01*
Y451911D01*
X76821D01*
Y450991D01*
X76361D01*
Y450070D01*
X75901D01*
Y449149D01*
X75440D01*
Y448228D01*
X74980D01*
Y447307D01*
X74519D01*
Y446387D01*
X74059D01*
Y446847D01*
X73599D01*
Y447768D01*
X73138D01*
Y448689D01*
X72678D01*
Y449149D01*
X72217D01*
Y450070D01*
X71297D01*
Y449149D01*
X70836D01*
Y448228D01*
X70376D01*
Y447307D01*
X69915D01*
Y446387D01*
X69455D01*
Y445005D01*
X68995D01*
Y444085D01*
X68534D01*
Y443164D01*
X68074D01*
Y442243D01*
X67614D01*
Y441322D01*
X67153D01*
Y440401D01*
X66693D01*
Y439481D01*
X66232D01*
Y438560D01*
X65311D01*
Y439020D01*
X64851D01*
Y439481D01*
X64391D01*
Y439941D01*
X63930D01*
Y440401D01*
X63470D01*
Y440862D01*
X63010D01*
Y441783D01*
X62549D01*
Y442243D01*
X62089D01*
Y442703D01*
X61628D01*
Y443164D01*
X61168D01*
Y443624D01*
X60708D01*
Y444085D01*
X60247D01*
Y444545D01*
X59787D01*
Y445466D01*
X59326D01*
Y445926D01*
X58866D01*
Y446387D01*
X58405D01*
Y446847D01*
X57945D01*
Y447307D01*
X57485D01*
Y447768D01*
X57024D01*
Y448228D01*
X56564D01*
Y448689D01*
X56104D01*
Y449149D01*
X55643D01*
Y450070D01*
X55183D01*
Y450530D01*
X54722D01*
Y450991D01*
X54262D01*
Y451451D01*
X53801D01*
Y451911D01*
X53341D01*
Y452372D01*
X52881D01*
Y452832D01*
X52420D01*
Y453753D01*
X51960D01*
Y454213D01*
X51500D01*
Y454674D01*
X51039D01*
Y455134D01*
X50579D01*
Y455595D01*
X50118D01*
Y456055D01*
X49658D01*
Y456515D01*
X49198D01*
Y456976D01*
X48737D01*
Y457897D01*
X48277D01*
Y458357D01*
X47356D01*
Y457897D01*
X45975D01*
Y457436D01*
X44594D01*
Y456976D01*
X43673D01*
Y456515D01*
X42292D01*
Y456055D01*
X40910D01*
Y455595D01*
X39990D01*
Y455134D01*
X38608D01*
Y454674D01*
X37688D01*
Y454213D01*
X37227D01*
Y455134D01*
X38148D01*
Y455595D01*
X38608D01*
Y456055D01*
X39069D01*
Y456515D01*
X39990D01*
Y456976D01*
X40450D01*
Y457436D01*
X40910D01*
Y457897D01*
X41831D01*
Y458357D01*
X42292D01*
Y458817D01*
X42752D01*
Y459278D01*
X43212D01*
Y459738D01*
X44133D01*
Y460199D01*
X44594D01*
Y460659D01*
X45054D01*
Y461119D01*
X45975D01*
Y461580D01*
X46435D01*
Y462040D01*
X46895D01*
Y462500D01*
X47816D01*
Y462961D01*
X48277D01*
Y463421D01*
X49198D01*
Y462961D01*
D02*
G37*
D10*
X11934Y248342D02*
G03*
X10934Y248342I-500J0D01*
G01*
D02*
G03*
X11934Y248342I500J0D01*
G01*
X344770Y404290D02*
G03*
X344770Y404290I-500J0D01*
G01*
X45974Y134026D02*
X58674D01*
Y159426D01*
X45974D02*
X58674D01*
X45974Y134026D02*
Y159426D01*
Y81034D02*
X58674D01*
Y106434D01*
X45974D02*
X58674D01*
X45974Y81034D02*
Y106434D01*
Y29972D02*
X58674D01*
Y55372D01*
X45974D02*
X58674D01*
X45974Y29972D02*
Y55372D01*
X408118Y217908D02*
X420818D01*
Y243308D01*
X408118D02*
X420818D01*
X408118Y217908D02*
Y243308D01*
Y250420D02*
X420818D01*
Y275820D01*
X408118D02*
X420818D01*
X408118Y250420D02*
Y275820D01*
X567690Y98932D02*
X580390D01*
X567690Y124332D02*
X580390D01*
X567690Y98932D02*
Y124332D01*
X580390Y98932D02*
Y124332D01*
X408118Y307594D02*
X420818D01*
X408118Y282194D02*
X420818D01*
Y307594D01*
X408118Y282194D02*
Y307594D01*
X170893Y262128D02*
X183593D01*
X170893Y287528D02*
X183593D01*
X170893Y262128D02*
Y287528D01*
X183593Y262128D02*
Y287528D01*
X14988Y371078D02*
X19653Y373411D01*
X14988Y375743D01*
X19653Y381575D02*
Y379242D01*
X18487Y378076D01*
X16154D01*
X14988Y379242D01*
Y381575D01*
X16154Y382741D01*
X17320D01*
Y378076D01*
X14988Y385074D02*
X19653D01*
X17320D01*
X16154Y386240D01*
X14988Y387406D01*
Y388572D01*
X19653Y399069D02*
Y401402D01*
Y400235D01*
X12655D01*
X13821Y399069D01*
X19653Y404901D02*
X18487D01*
Y406067D01*
X19653D01*
Y404901D01*
X13821Y410732D02*
X12655Y411898D01*
Y414231D01*
X13821Y415397D01*
X18487D01*
X19653Y414231D01*
Y411898D01*
X18487Y410732D01*
X13821D01*
X37593Y127938D02*
Y132603D01*
X35261Y130271D02*
X39926D01*
X37593Y75946D02*
Y80611D01*
X35261Y78279D02*
X39926D01*
X37593Y23475D02*
Y28140D01*
X35261Y25808D02*
X39926D01*
X436382Y414471D02*
Y408639D01*
X437549Y407473D01*
X439881D01*
X441048Y408639D01*
Y414471D01*
X448046D02*
X443380D01*
Y410972D01*
X445713Y412138D01*
X446879D01*
X448046Y410972D01*
Y408639D01*
X446879Y407473D01*
X444547D01*
X443380Y408639D01*
X343966Y452996D02*
Y459994D01*
X347465D01*
X348631Y458828D01*
Y456495D01*
X347465Y455329D01*
X343966D01*
X350964Y452996D02*
X353296D01*
X352130D01*
Y459994D01*
X350964Y458828D01*
D11*
X24134Y145726D02*
Y146726D01*
X31634Y145726D02*
Y146726D01*
X24134Y93734D02*
Y94734D01*
X31634Y93734D02*
Y94734D01*
X24134Y41263D02*
Y42263D01*
X31634Y41263D02*
Y42263D01*
X14984Y207342D02*
X19934D01*
X14984D02*
Y227342D01*
X40934Y242342D01*
Y328342D01*
X14984Y332342D02*
X19934D01*
X14984D02*
Y337642D01*
X19934D01*
X53934D02*
X123934D01*
X155284Y281342D02*
Y328342D01*
Y238342D02*
Y264342D01*
Y214342D02*
Y222342D01*
X43934Y207342D02*
X123934D01*
D12*
X21026Y133018D02*
Y159942D01*
X34488D01*
Y133018D02*
Y159942D01*
X21026Y133018D02*
X34488D01*
X21026Y81026D02*
Y107950D01*
X34488D01*
Y81026D02*
Y107950D01*
X21026Y81026D02*
X34488D01*
X21026Y28555D02*
Y55479D01*
X34488D01*
Y28555D02*
Y55479D01*
X21026Y28555D02*
X34488D01*
D13*
X530860Y183750D02*
X615950D01*
X530860D02*
Y265030D01*
X616712D01*
X530860Y292208D02*
X616712D01*
X530860D02*
Y398888D01*
X616712D01*
X539305Y198588D02*
Y208585D01*
Y203586D01*
X554300D01*
X539305Y223580D02*
Y213583D01*
X554300D01*
Y223580D01*
X546802Y213583D02*
Y218582D01*
X554300Y228578D02*
X539305D01*
X544303Y233577D01*
X539305Y238575D01*
X554300D01*
Y243573D02*
X539305D01*
Y251071D01*
X541804Y253570D01*
X546802D01*
X549302Y251071D01*
Y243573D01*
X541804Y322231D02*
X539305Y319732D01*
Y314733D01*
X541804Y312234D01*
X544303D01*
X546802Y314733D01*
Y319732D01*
X549302Y322231D01*
X551801D01*
X554300Y319732D01*
Y314733D01*
X551801Y312234D01*
X541804Y337226D02*
X539305Y334727D01*
Y329728D01*
X541804Y327229D01*
X551801D01*
X554300Y329728D01*
Y334727D01*
X551801Y337226D01*
X554300Y342224D02*
X544303D01*
X539305Y347223D01*
X544303Y352221D01*
X554300D01*
X546802D01*
Y342224D01*
X539305Y357219D02*
X554300D01*
Y367216D01*
X539305Y382211D02*
Y372215D01*
X554300D01*
Y382211D01*
X546802Y372215D02*
Y377213D01*
X439679Y240423D02*
X437679Y242422D01*
X433680D01*
X431681Y240423D01*
Y238423D01*
X433680Y236424D01*
X437679D01*
X439679Y234425D01*
Y232425D01*
X437679Y230426D01*
X433680D01*
X431681Y232425D01*
X443677Y242422D02*
Y230426D01*
X449675D01*
X451675Y232425D01*
Y240423D01*
X449675Y242422D01*
X443677D01*
X455673Y230426D02*
Y238423D01*
X459672Y242422D01*
X463671Y238423D01*
Y230426D01*
Y236424D01*
X455673D01*
X439679Y263683D02*
X437679Y265682D01*
X433680D01*
X431681Y263683D01*
Y261683D01*
X433680Y259684D01*
X437679D01*
X439679Y257685D01*
Y255685D01*
X437679Y253686D01*
X433680D01*
X431681Y255685D01*
X451675Y263683D02*
X449675Y265682D01*
X445677D01*
X443677Y263683D01*
Y255685D01*
X445677Y253686D01*
X449675D01*
X451675Y255685D01*
X455673Y265682D02*
Y253686D01*
Y257685D01*
X463671Y265682D01*
X457673Y259684D01*
X463671Y253686D01*
X431681Y291468D02*
Y283471D01*
X435680Y279472D01*
X439679Y283471D01*
Y291468D01*
X443677D02*
Y279472D01*
X449675D01*
X451675Y281471D01*
Y289469D01*
X449675Y291468D01*
X443677D01*
X455673D02*
Y279472D01*
X461671D01*
X463671Y281471D01*
Y289469D01*
X461671Y291468D01*
X455673D01*
X439679Y314501D02*
X437679Y316500D01*
X433680D01*
X431681Y314501D01*
Y306503D01*
X433680Y304504D01*
X437679D01*
X439679Y306503D01*
Y310502D01*
X435680D01*
X443677Y304504D02*
Y316500D01*
X451675Y304504D01*
Y316500D01*
X455673D02*
Y304504D01*
X461671D01*
X463671Y306503D01*
Y314501D01*
X461671Y316500D01*
X455673D01*
D14*
X616712Y292208D02*
Y398888D01*
X678434Y292208D02*
Y398888D01*
X616712D02*
X678434D01*
X616712Y292208D02*
X678434D01*
X615950Y183750D02*
Y265030D01*
X677672Y183750D02*
Y265030D01*
X615950D02*
X677672D01*
X615950Y183750D02*
X677672D01*
X566166Y391664D02*
X568705Y394203D01*
X573783D01*
X576323Y391664D01*
Y389125D01*
X573783Y386586D01*
X571244D01*
X573783D01*
X576323Y384046D01*
Y381507D01*
X573783Y378968D01*
X568705D01*
X566166Y381507D01*
X581401Y394203D02*
Y384046D01*
X586479Y378968D01*
X591558Y384046D01*
Y394203D01*
X596636Y391664D02*
X599175Y394203D01*
X604254D01*
X606793Y391664D01*
Y389125D01*
X604254Y386586D01*
X601715D01*
X604254D01*
X606793Y384046D01*
Y381507D01*
X604254Y378968D01*
X599175D01*
X596636Y381507D01*
X576323Y364994D02*
X573783Y367533D01*
X568705D01*
X566166Y364994D01*
Y362455D01*
X568705Y359916D01*
X573783D01*
X576323Y357376D01*
Y354837D01*
X573783Y352298D01*
X568705D01*
X566166Y354837D01*
X591558Y364994D02*
X589019Y367533D01*
X583940D01*
X581401Y364994D01*
Y354837D01*
X583940Y352298D01*
X589019D01*
X591558Y354837D01*
X596636Y367533D02*
Y352298D01*
Y357376D01*
X606793Y367533D01*
X599175Y359916D01*
X606793Y352298D01*
X566166Y340215D02*
Y324980D01*
X573783D01*
X576323Y327519D01*
Y337676D01*
X573783Y340215D01*
X566166D01*
X581401Y324980D02*
Y335137D01*
X586479Y340215D01*
X591558Y335137D01*
Y324980D01*
Y332598D01*
X581401D01*
X596636Y340215D02*
X606793D01*
X601715D01*
Y324980D01*
X576323Y310892D02*
X573783Y313431D01*
X568705D01*
X566166Y310892D01*
Y300735D01*
X568705Y298196D01*
X573783D01*
X576323Y300735D01*
Y305814D01*
X571244D01*
X581401Y298196D02*
Y313431D01*
X591558Y298196D01*
Y313431D01*
X596636D02*
Y298196D01*
X604254D01*
X606793Y300735D01*
Y310892D01*
X604254Y313431D01*
X596636D01*
X576323Y256536D02*
X573783Y259075D01*
X568705D01*
X566166Y256536D01*
Y246379D01*
X568705Y243840D01*
X573783D01*
X576323Y246379D01*
Y251458D01*
X571244D01*
X581401Y243840D02*
Y259075D01*
X591558Y243840D01*
Y259075D01*
X596636D02*
Y243840D01*
X604254D01*
X606793Y246379D01*
Y256536D01*
X604254Y259075D01*
X596636D01*
X566166Y232659D02*
Y217424D01*
X573783D01*
X576323Y219963D01*
Y230120D01*
X573783Y232659D01*
X566166D01*
X581401Y217424D02*
Y227581D01*
X586479Y232659D01*
X591558Y227581D01*
Y217424D01*
Y225042D01*
X581401D01*
X596636Y232659D02*
X606793D01*
X601715D01*
Y217424D01*
X566166Y204212D02*
X568705Y206751D01*
X573783D01*
X576323Y204212D01*
Y201673D01*
X573783Y199133D01*
X571244D01*
X573783D01*
X576323Y196594D01*
Y194055D01*
X573783Y191516D01*
X568705D01*
X566166Y194055D01*
X581401Y206751D02*
Y196594D01*
X586479Y191516D01*
X591558Y196594D01*
Y206751D01*
X596636Y204212D02*
X599175Y206751D01*
X604254D01*
X606793Y204212D01*
Y201673D01*
X604254Y199133D01*
X601715D01*
X604254D01*
X606793Y196594D01*
Y194055D01*
X604254Y191516D01*
X599175D01*
X596636Y194055D01*
M02*
