ISO-10303-21;
HEADER;
FILE_DESCRIPTION (( 'STEP AP214' ),
    '1' );
FILE_NAME ('waegezelle halter.STEP',
    '2026-03-04T16:40:25',
    ( '' ),
    ( '' ),
    'SwSTEP 2.0',
    'SolidWorks 2025',
    '' );
FILE_SCHEMA (( 'AUTOMOTIVE_DESIGN' ));
ENDSEC;

DATA;
#1 = VERTEX_POINT ( 'NONE', #99 ) ;
#2 = LINE ( 'NONE', #565, #123 ) ;
#3 = CYLINDRICAL_SURFACE ( 'NONE', #433, 5.000000000000000000 ) ;
#4 = VERTEX_POINT ( 'NONE', #373 ) ;
#5 = VERTEX_POINT ( 'NONE', #551 ) ;
#6 = LINE ( 'NONE', #486, #272 ) ;
#7 = CARTESIAN_POINT ( 'NONE',  ( -12.04999999999999893, 12.05000000000000249, 0.000000000000000000 ) ) ;
#8 = EDGE_CURVE ( 'NONE', #87, #36, #292, .T. ) ;
#9 = DIRECTION ( 'NONE',  ( 1.000000000000000000, 0.000000000000000000, 0.000000000000000000 ) ) ;
#10 = VERTEX_POINT ( 'NONE', #229 ) ;
#11 = VECTOR ( 'NONE', #390, 1000.000000000000000 ) ;
#12 = ORIENTED_EDGE ( 'NONE', *, *, #153, .T. ) ;
#13 = LINE ( 'NONE', #309, #594 ) ;
#14 = DIRECTION ( 'NONE',  ( 0.000000000000000000, 0.000000000000000000, -1.000000000000000000 ) ) ;
#15 = CYLINDRICAL_SURFACE ( 'NONE', #221, 1.000000000000000888 ) ;
#16 = ORIENTED_EDGE ( 'NONE', *, *, #58, .T. ) ;
#17 = ADVANCED_FACE ( 'NONE', ( #489 ), #761, .F. ) ;
#18 = ORIENTED_EDGE ( 'NONE', *, *, #190, .F. ) ;
#19 = CARTESIAN_POINT ( 'NONE',  ( -12.04999999999999893, -13.04999999999999893, -15.00000000000000000 ) ) ;
#20 = CARTESIAN_POINT ( 'NONE',  ( 17.05000000000000071, -17.04999999999999716, 3.000000000000000000 ) ) ;
#21 = EDGE_CURVE ( 'NONE', #788, #484, #785, .T. ) ;
#22 = VECTOR ( 'NONE', #27, 1000.000000000000000 ) ;
#23 = CARTESIAN_POINT ( 'NONE',  ( 13.04999999999999893, 12.05000000000000249, -15.00000000000000000 ) ) ;
#24 = ORIENTED_EDGE ( 'NONE', *, *, #8, .T. ) ;
#25 = AXIS2_PLACEMENT_3D ( 'NONE', #371, #640, #30 ) ;
#26 = EDGE_CURVE ( 'NONE', #726, #216, #202, .T. ) ;
#27 = DIRECTION ( 'NONE',  ( 0.000000000000000000, -1.000000000000000000, 0.000000000000000000 ) ) ;
#28 = DIRECTION ( 'NONE',  ( 0.000000000000000000, 0.000000000000000000, -1.000000000000000000 ) ) ;
#29 = ORIENTED_EDGE ( 'NONE', *, *, #718, .T. ) ;
#30 = DIRECTION ( 'NONE',  ( -0.000000000000000000, 0.000000000000000000, 1.000000000000000000 ) ) ;
#31 = ORIENTED_EDGE ( 'NONE', *, *, #77, .F. ) ;
#32 = AXIS2_PLACEMENT_3D ( 'NONE', #344, #206, #733 ) ;
#33 = CARTESIAN_POINT ( 'NONE',  ( 19.05000000000000071, -19.04999999999999716, 3.000000000000000000 ) ) ;
#34 = VECTOR ( 'NONE', #638, 1000.000000000000000 ) ;
#35 = CARTESIAN_POINT ( 'NONE',  ( -12.04999999999999893, 17.05000000000000426, 0.000000000000000000 ) ) ;
#36 = VERTEX_POINT ( 'NONE', #510 ) ;
#37 = EDGE_CURVE ( 'NONE', #422, #1, #699, .T. ) ;
#38 = CARTESIAN_POINT ( 'NONE',  ( -12.04999999999999893, -17.05000000000000071, 3.000000000000000000 ) ) ;
#39 = DIRECTION ( 'NONE',  ( 1.000000000000000000, 0.000000000000000000, 0.000000000000000000 ) ) ;
#40 = ORIENTED_EDGE ( 'NONE', *, *, #293, .F. ) ;
#41 = EDGE_LOOP ( 'NONE', ( #586, #574, #31, #301 ) ) ;
#42 = ADVANCED_FACE ( 'NONE', ( #654 ), #320, .F. ) ;
#43 = DIRECTION ( 'NONE',  ( 1.000000000000000000, 0.000000000000000000, 0.000000000000000000 ) ) ;
#44 = DIRECTION ( 'NONE',  ( 0.000000000000000000, 0.000000000000000000, 1.000000000000000000 ) ) ;
#45 = ORIENTED_EDGE ( 'NONE', *, *, #198, .F. ) ;
#46 = ORIENTED_EDGE ( 'NONE', *, *, #210, .T. ) ;
#47 = LINE ( 'NONE', #325, #163 ) ;
#48 = AXIS2_PLACEMENT_3D ( 'NONE', #332, #536, #270 ) ;
#49 = VECTOR ( 'NONE', #397, 1000.000000000000000 ) ;
#50 = LINE ( 'NONE', #317, #722 ) ;
#51 = PRESENTATION_LAYER_ASSIGNMENT (  '', '', ( #257 ) ) ;
#52 = VERTEX_POINT ( 'NONE', #850 ) ;
#53 = EDGE_CURVE ( 'NONE', #421, #858, #808, .T. ) ;
#54 = ORIENTED_EDGE ( 'NONE', *, *, #293, .T. ) ;
#55 = CARTESIAN_POINT ( 'NONE',  ( 12.05000000000000249, -19.04999999999999716, 3.000000000000000000 ) ) ;
#56 = CARTESIAN_POINT ( 'NONE',  ( -12.04999999999999893, -12.04999999999999893, -15.00000000000000000 ) ) ;
#57 = DIRECTION ( 'NONE',  ( 1.000000000000000000, 0.000000000000000000, 0.000000000000000000 ) ) ;
#58 = EDGE_CURVE ( 'NONE', #241, #858, #256, .T. ) ;
#59 =( NAMED_UNIT ( * ) SI_UNIT ( $, .STERADIAN. ) SOLID_ANGLE_UNIT ( ) );
#60 = LINE ( 'NONE', #403, #485 ) ;
#61 = DIRECTION ( 'NONE',  ( -1.000000000000000000, 0.000000000000000000, 0.000000000000000000 ) ) ;
#62 = CARTESIAN_POINT ( 'NONE',  ( 13.04999999999999893, -12.04999999999999538, 0.000000000000000000 ) ) ;
#63 = DIRECTION ( 'NONE',  ( -1.000000000000000000, 0.000000000000000000, 0.000000000000000000 ) ) ;
#64 = AXIS2_PLACEMENT_3D ( 'NONE', #439, #499, #687 ) ;
#65 = VECTOR ( 'NONE', #91, 1000.000000000000000 ) ;
#66 = CARTESIAN_POINT ( 'NONE',  ( -12.04999999999999893, 12.04999999999999893, 3.000000000000000000 ) ) ;
#67 = CARTESIAN_POINT ( 'NONE',  ( 19.05000000000000071, -19.04999999999999716, 3.000000000000000000 ) ) ;
#68 =( LENGTH_UNIT ( ) NAMED_UNIT ( * ) SI_UNIT ( .MILLI., .METRE. ) );
#69 = DIRECTION ( 'NONE',  ( 0.000000000000000000, -0.000000000000000000, 1.000000000000000000 ) ) ;
#70 = ORIENTED_EDGE ( 'NONE', *, *, #77, .T. ) ;
#71 = EDGE_CURVE ( 'NONE', #453, #726, #795, .T. ) ;
#72 = CIRCLE ( 'NONE', #571, 5.000000000000000888 ) ;
#73 = CARTESIAN_POINT ( 'NONE',  ( 12.04999999999999893, -12.04999999999999538, -15.00000000000000000 ) ) ;
#74 = CIRCLE ( 'NONE', #194, 5.000000000000000888 ) ;
#75 = LINE ( 'NONE', #336, #825 ) ;
#76 = ORIENTED_EDGE ( 'NONE', *, *, #362, .F. ) ;
#77 = EDGE_CURVE ( 'NONE', #479, #4, #847, .T. ) ;
#78 = DIRECTION ( 'NONE',  ( -0.000000000000000000, -0.000000000000000000, 1.000000000000000000 ) ) ;
#79 = LINE ( 'NONE', #298, #859 ) ;
#80 = CARTESIAN_POINT ( 'NONE',  ( -12.04999999999999893, -13.04999999999999893, -15.00000000000000000 ) ) ;
#81 = ORIENTED_EDGE ( 'NONE', *, *, #644, .F. ) ;
#82 = VERTEX_POINT ( 'NONE', #780 ) ;
#83 = DIRECTION ( 'NONE',  ( -1.000000000000000000, 0.000000000000000000, 0.000000000000000000 ) ) ;
#84 = CARTESIAN_POINT ( 'NONE',  ( 17.05000000000000071, -17.04999999999999716, 3.000000000000000000 ) ) ;
#85 = DIRECTION ( 'NONE',  ( 1.000000000000000000, 0.000000000000000000, 0.000000000000000000 ) ) ;
#86 = EDGE_CURVE ( 'NONE', #82, #518, #469, .T. ) ;
#87 = VERTEX_POINT ( 'NONE', #444 ) ;
#88 = AXIS2_PLACEMENT_3D ( 'NONE', #575, #185, #174 ) ;
#89 = ORIENTED_EDGE ( 'NONE', *, *, #744, .F. ) ;
#90 = EDGE_CURVE ( 'NONE', #164, #82, #118, .T. ) ;
#91 = DIRECTION ( 'NONE',  ( -0.000000000000000000, -0.000000000000000000, 1.000000000000000000 ) ) ;
#92 = DIRECTION ( 'NONE',  ( -0.000000000000000000, -0.000000000000000000, 1.000000000000000000 ) ) ;
#93 = DIRECTION ( 'NONE',  ( -1.000000000000000000, 1.040834085586084257E-15, 0.000000000000000000 ) ) ;
#94 = EDGE_LOOP ( 'NONE', ( #324, #767, #318, #151 ) ) ;
#95 = CIRCLE ( 'NONE', #237, 1.000000000000000888 ) ;
#96 = ORIENTED_EDGE ( 'NONE', *, *, #90, .F. ) ;
#97 = PLANE ( 'NONE',  #25 ) ;
#98 = DIRECTION ( 'NONE',  ( -0.000000000000000000, -0.000000000000000000, 1.000000000000000000 ) ) ;
#99 = CARTESIAN_POINT ( 'NONE',  ( 12.04999999999999893, 17.05000000000000426, 0.000000000000000000 ) ) ;
#100 = CIRCLE ( 'NONE', #677, 6.999999999999999112 ) ;
#101 = CARTESIAN_POINT ( 'NONE',  ( 13.04999999999999893, 12.05000000000000249, -15.00000000000000000 ) ) ;
#102 = ORIENTED_EDGE ( 'NONE', *, *, #265, .F. ) ;
#103 = EDGE_LOOP ( 'NONE', ( #617, #458, #224, #504 ) ) ;
#104 = EDGE_CURVE ( 'NONE', #731, #106, #47, .T. ) ;
#105 = FACE_OUTER_BOUND ( 'NONE', #158, .T. ) ;
#106 = VERTEX_POINT ( 'NONE', #312 ) ;
#107 = CARTESIAN_POINT ( 'NONE',  ( -19.04999999999999716, 19.04999999999999716, -15.00000000000000000 ) ) ;
#108 = VECTOR ( 'NONE', #201, 1000.000000000000000 ) ;
#109 = EDGE_CURVE ( 'NONE', #10, #421, #861, .T. ) ;
#110 = CARTESIAN_POINT ( 'NONE',  ( -12.04999999999999893, -12.04999999999999893, -15.00000000000000000 ) ) ;
#111 = EDGE_LOOP ( 'NONE', ( #552, #854, #454, #863 ) ) ;
#112 = ORIENTED_EDGE ( 'NONE', *, *, #873, .T. ) ;
#113 = AXIS2_PLACEMENT_3D ( 'NONE', #852, #786, #115 ) ;
#114 = DIRECTION ( 'NONE',  ( 0.000000000000000000, 0.000000000000000000, 1.000000000000000000 ) ) ;
#115 = DIRECTION ( 'NONE',  ( 0.000000000000000000, 0.000000000000000000, 1.000000000000000000 ) ) ;
#116 = ORIENTED_EDGE ( 'NONE', *, *, #186, .T. ) ;
#117 = ORIENTED_EDGE ( 'NONE', *, *, #806, .T. ) ;
#118 = LINE ( 'NONE', #38, #583 ) ;
#119 = LINE ( 'NONE', #663, #635 ) ;
#120 = EDGE_LOOP ( 'NONE', ( #168, #703, #411, #686 ) ) ;
#121 = EDGE_CURVE ( 'NONE', #709, #422, #579, .T. ) ;
#122 = AXIS2_PLACEMENT_3D ( 'NONE', #745, #199, #211 ) ;
#123 = VECTOR ( 'NONE', #14, 1000.000000000000000 ) ;
#124 = ORIENTED_EDGE ( 'NONE', *, *, #341, .T. ) ;
#125 = DIRECTION ( 'NONE',  ( -0.000000000000000000, 0.000000000000000000, -1.000000000000000000 ) ) ;
#126 = ORIENTED_EDGE ( 'NONE', *, *, #678, .F. ) ;
#127 = FACE_OUTER_BOUND ( 'NONE', #719, .T. ) ;
#128 =( NAMED_UNIT ( * ) PLANE_ANGLE_UNIT ( ) SI_UNIT ( $, .RADIAN. ) );
#129 = EDGE_CURVE ( 'NONE', #1, #659, #369, .T. ) ;
#130 = CARTESIAN_POINT ( 'NONE',  ( 17.05000000000000071, -12.04999999999999538, 3.000000000000000000 ) ) ;
#131 = DIRECTION ( 'NONE',  ( -1.000000000000000000, 0.000000000000000000, 0.000000000000000000 ) ) ;
#132 = PLANE ( 'NONE',  #662 ) ;
#133 = CARTESIAN_POINT ( 'NONE',  ( 12.04999999999999893, -13.04999999999999538, 0.000000000000000000 ) ) ;
#134 = LINE ( 'NONE', #335, #832 ) ;
#135 = CARTESIAN_POINT ( 'NONE',  ( 12.04999999999999893, 17.05000000000000426, 3.000000000000000000 ) ) ;
#136 = AXIS2_PLACEMENT_3D ( 'NONE', #650, #44, #39 ) ;
#137 = AXIS2_PLACEMENT_3D ( 'NONE', #558, #827, #226 ) ;
#138 = LINE ( 'NONE', #130, #49 ) ;
#139 = CARTESIAN_POINT ( 'NONE',  ( -12.04999999999999893, 12.05000000000000249, 0.000000000000000000 ) ) ;
#140 = APPLICATION_CONTEXT ( 'automotive_design' ) ;
#141 = EDGE_LOOP ( 'NONE', ( #395, #102, #76, #195 ) ) ;
#142 = FACE_BOUND ( 'NONE', #427, .T. ) ;
#143 = DIRECTION ( 'NONE',  ( -1.000000000000000000, 0.000000000000000000, 0.000000000000000000 ) ) ;
#144 = EDGE_CURVE ( 'NONE', #234, #659, #566, .T. ) ;
#145 = ORIENTED_EDGE ( 'NONE', *, *, #578, .F. ) ;
#146 = CARTESIAN_POINT ( 'NONE',  ( 12.05000000000000249, -12.04999999999999893, -15.00000000000000000 ) ) ;
#147 = CARTESIAN_POINT ( 'NONE',  ( 19.05000000000000071, 12.04999999999999893, -15.00000000000000000 ) ) ;
#148 = AXIS2_PLACEMENT_3D ( 'NONE', #437, #561, #93 ) ;
#149 = FACE_OUTER_BOUND ( 'NONE', #587, .T. ) ;
#150 = ORIENTED_EDGE ( 'NONE', *, *, #534, .T. ) ;
#151 = ORIENTED_EDGE ( 'NONE', *, *, #316, .T. ) ;
#152 = LINE ( 'NONE', #306, #759 ) ;
#153 = EDGE_CURVE ( 'NONE', #846, #570, #74, .T. ) ;
#154 = PLANE ( 'NONE',  #602 ) ;
#155 = DIRECTION ( 'NONE',  ( -0.000000000000000000, -0.000000000000000000, 1.000000000000000000 ) ) ;
#156 = ORIENTED_EDGE ( 'NONE', *, *, #269, .F. ) ;
#157 = EDGE_CURVE ( 'NONE', #36, #823, #633, .T. ) ;
#158 = EDGE_LOOP ( 'NONE', ( #181, #366, #447, #622 ) ) ;
#159 = FACE_OUTER_BOUND ( 'NONE', #642, .T. ) ;
#160 = LINE ( 'NONE', #429, #452 ) ;
#161 = LINE ( 'NONE', #696, #645 ) ;
#162 = ORIENTED_EDGE ( 'NONE', *, *, #21, .T. ) ;
#163 = VECTOR ( 'NONE', #648, 1000.000000000000000 ) ;
#164 = VERTEX_POINT ( 'NONE', #299 ) ;
#165 = CARTESIAN_POINT ( 'NONE',  ( -19.04999999999999716, -12.04999999999999893, 3.000000000000000000 ) ) ;
#166 = VECTOR ( 'NONE', #670, 1000.000000000000000 ) ;
#167 = LINE ( 'NONE', #233, #844 ) ;
#168 = ORIENTED_EDGE ( 'NONE', *, *, #743, .F. ) ;
#169 = DIRECTION ( 'NONE',  ( -0.000000000000000000, -0.000000000000000000, 1.000000000000000000 ) ) ;
#170 = VERTEX_POINT ( 'NONE', #222 ) ;
#171 = ORIENTED_EDGE ( 'NONE', *, *, #461, .T. ) ;
#172 = LINE ( 'NONE', #180, #490 ) ;
#173 = ORIENTED_EDGE ( 'NONE', *, *, #346, .T. ) ;
#174 = DIRECTION ( 'NONE',  ( 1.000000000000000000, 1.040834085586084257E-15, 0.000000000000000000 ) ) ;
#175 = ADVANCED_FACE ( 'NONE', ( #506 ), #15, .F. ) ;
#176 = CARTESIAN_POINT ( 'NONE',  ( 19.05000000000000071, 19.04999999999999716, 3.000000000000000000 ) ) ;
#177 = ORIENTED_EDGE ( 'NONE', *, *, #86, .T. ) ;
#178 = ORIENTED_EDGE ( 'NONE', *, *, #534, .F. ) ;
#179 = CARTESIAN_POINT ( 'NONE',  ( -12.04999999999999893, 12.04999999999999893, -15.00000000000000000 ) ) ;
#180 = CARTESIAN_POINT ( 'NONE',  ( -13.04999999999999893, -12.04999999999999893, -15.00000000000000000 ) ) ;
#181 = ORIENTED_EDGE ( 'NONE', *, *, #109, .T. ) ;
#182 = EDGE_CURVE ( 'NONE', #788, #10, #554, .T. ) ;
#183 = VERTEX_POINT ( 'NONE', #766 ) ;
#184 = AXIS2_PLACEMENT_3D ( 'NONE', #176, #442, #585 ) ;
#185 = DIRECTION ( 'NONE',  ( -0.000000000000000000, 0.000000000000000000, -1.000000000000000000 ) ) ;
#186 = EDGE_CURVE ( 'NONE', #183, #793, #715, .T. ) ;
#187 = CIRCLE ( 'NONE', #724, 5.000000000000000888 ) ;
#188 = CARTESIAN_POINT ( 'NONE',  ( 17.05000000000000071, 12.05000000000000249, 3.000000000000000000 ) ) ;
#189 = EDGE_LOOP ( 'NONE', ( #629, #729, #860, #16 ) ) ;
#190 = EDGE_CURVE ( 'NONE', #858, #595, #167, .T. ) ;
#191 = ORIENTED_EDGE ( 'NONE', *, *, #781, .F. ) ;
#192 = CARTESIAN_POINT ( 'NONE',  ( 13.04999999999999893, -12.04999999999999538, -15.00000000000000000 ) ) ;
#193 = ORIENTED_EDGE ( 'NONE', *, *, #560, .T. ) ;
#194 = AXIS2_PLACEMENT_3D ( 'NONE', #294, #430, #85 ) ;
#195 = ORIENTED_EDGE ( 'NONE', *, *, #144, .F. ) ;
#196 = DIRECTION ( 'NONE',  ( 0.000000000000000000, 0.000000000000000000, -1.000000000000000000 ) ) ;
#197 = CYLINDRICAL_SURFACE ( 'NONE', #209, 5.000000000000000000 ) ;
#198 = EDGE_CURVE ( 'NONE', #570, #704, #161, .T. ) ;
#199 = DIRECTION ( 'NONE',  ( 0.000000000000000000, -1.000000000000000000, 0.000000000000000000 ) ) ;
#200 = APPLICATION_PROTOCOL_DEFINITION ( 'draft international standard', 'automotive_design', 1998, #140 ) ;
#201 = DIRECTION ( 'NONE',  ( 1.000000000000000000, -0.000000000000000000, -0.000000000000000000 ) ) ;
#202 = CIRCLE ( 'NONE', #514, 6.999999999999999112 ) ;
#203 = CARTESIAN_POINT ( 'NONE',  ( 12.04999999999999893, 12.05000000000000249, -15.00000000000000000 ) ) ;
#204 = CARTESIAN_POINT ( 'NONE',  ( 12.04999999999999893, 12.05000000000000249, 3.000000000000000000 ) ) ;
#205 = DIRECTION ( 'NONE',  ( 1.000000000000000000, 0.000000000000000000, -0.000000000000000000 ) ) ;
#206 = DIRECTION ( 'NONE',  ( -0.000000000000000000, 0.000000000000000000, -1.000000000000000000 ) ) ;
#207 = VECTOR ( 'NONE', #61, 1000.000000000000000 ) ;
#208 = DIRECTION ( 'NONE',  ( 0.000000000000000000, 0.000000000000000000, 1.000000000000000000 ) ) ;
#209 = AXIS2_PLACEMENT_3D ( 'NONE', #402, #803, #406 ) ;
#210 = EDGE_CURVE ( 'NONE', #4, #731, #799, .T. ) ;
#211 = DIRECTION ( 'NONE',  ( 0.000000000000000000, -0.000000000000000000, -1.000000000000000000 ) ) ;
#212 = DIRECTION ( 'NONE',  ( 0.000000000000000000, 1.000000000000000000, 0.000000000000000000 ) ) ;
#213 = ORIENTED_EDGE ( 'NONE', *, *, #864, .T. ) ;
#214 = LINE ( 'NONE', #821, #613 ) ;
#215 = DIRECTION ( 'NONE',  ( -0.000000000000000000, 0.000000000000000000, -1.000000000000000000 ) ) ;
#216 = VERTEX_POINT ( 'NONE', #364 ) ;
#217 = EDGE_CURVE ( 'NONE', #717, #682, #702, .T. ) ;
#218 = ORIENTED_EDGE ( 'NONE', *, *, #556, .F. ) ;
#219 = CARTESIAN_POINT ( 'NONE',  ( 12.04999999999999893, 12.05000000000000249, -15.00000000000000000 ) ) ;
#220 = DIRECTION ( 'NONE',  ( -1.000000000000000000, 0.000000000000000000, 0.000000000000000000 ) ) ;
#221 = AXIS2_PLACEMENT_3D ( 'NONE', #836, #155, #690 ) ;
#222 = CARTESIAN_POINT ( 'NONE',  ( 12.04999999999999893, 13.05000000000000249, 0.000000000000000000 ) ) ;
#223 = ORIENTED_EDGE ( 'NONE', *, *, #644, .T. ) ;
#224 = ORIENTED_EDGE ( 'NONE', *, *, #186, .F. ) ;
#225 = AXIS2_PLACEMENT_3D ( 'NONE', #110, #446, #457 ) ;
#226 = DIRECTION ( 'NONE',  ( -1.000000000000000000, 0.000000000000000000, 0.000000000000000000 ) ) ;
#227 = DIRECTION ( 'NONE',  ( -1.000000000000000000, 0.000000000000000000, 0.000000000000000000 ) ) ;
#228 = DIRECTION ( 'NONE',  ( 0.000000000000000000, -0.000000000000000000, 1.000000000000000000 ) ) ;
#229 = CARTESIAN_POINT ( 'NONE',  ( -12.04999999999999893, -13.04999999999999893, 0.000000000000000000 ) ) ;
#230 = ORIENTED_EDGE ( 'NONE', *, *, #763, .F. ) ;
#231 = CARTESIAN_POINT ( 'NONE',  ( 19.05000000000000071, 19.04999999999999716, -15.00000000000000000 ) ) ;
#232 = CARTESIAN_POINT ( 'NONE',  ( -13.04999999999999893, -12.04999999999999893, 0.000000000000000000 ) ) ;
#233 = CARTESIAN_POINT ( 'NONE',  ( 13.04999999999999893, -12.04999999999999538, 0.000000000000000000 ) ) ;
#234 = VERTEX_POINT ( 'NONE', #822 ) ;
#235 = LINE ( 'NONE', #553, #674 ) ;
#236 = PRODUCT_DEFINITION_FORMATION_WITH_SPECIFIED_SOURCE ( 'ANY', '', #284, .NOT_KNOWN. ) ;
#237 = AXIS2_PLACEMENT_3D ( 'NONE', #7, #695, #291 ) ;
#238 = ORIENTED_EDGE ( 'NONE', *, *, #711, .T. ) ;
#239 = DIRECTION ( 'NONE',  ( -0.000000000000000000, -1.000000000000000000, -0.000000000000000000 ) ) ;
#240 = EDGE_CURVE ( 'NONE', #704, #52, #417, .T. ) ;
#241 = VERTEX_POINT ( 'NONE', #304 ) ;
#242 =( GEOMETRIC_REPRESENTATION_CONTEXT ( 3 ) GLOBAL_UNCERTAINTY_ASSIGNED_CONTEXT ( ( #653 ) ) GLOBAL_UNIT_ASSIGNED_CONTEXT ( ( #68, #626, #765 ) ) REPRESENTATION_CONTEXT ( 'NONE', 'WORKASPACE' ) );
#243 = CARTESIAN_POINT ( 'NONE',  ( 12.05000000000000249, 19.04999999999999716, 3.000000000000000000 ) ) ;
#244 = EDGE_LOOP ( 'NONE', ( #370, #89, #524, #582 ) ) ;
#245 = CARTESIAN_POINT ( 'NONE',  ( -12.04999999999999893, -13.04999999999999893, -15.00000000000000000 ) ) ;
#246 = PLANE ( 'NONE',  #113 ) ;
#247 = VERTEX_POINT ( 'NONE', #23 ) ;
#248 = PRODUCT_DEFINITION_CONTEXT ( 'detailed design', #140, 'design' ) ;
#249 = CARTESIAN_POINT ( 'NONE',  ( 17.05000000000000071, 12.05000000000000249, 0.000000000000000000 ) ) ;
#250 = AXIS2_PLACEMENT_3D ( 'NONE', #450, #114, #43 ) ;
#251 = EDGE_CURVE ( 'NONE', #793, #563, #770, .T. ) ;
#252 = DIRECTION ( 'NONE',  ( -0.000000000000000000, -0.000000000000000000, 1.000000000000000000 ) ) ;
#253 = ORIENTED_EDGE ( 'NONE', *, *, #538, .F. ) ;
#254 = VERTEX_POINT ( 'NONE', #372 ) ;
#255 = ADVANCED_FACE ( 'NONE', ( #805 ), #615, .F. ) ;
#256 = LINE ( 'NONE', #192, #737 ) ;
#257 = STYLED_ITEM ( 'NONE', ( #273 ), #531 ) ;
#258 = LINE ( 'NONE', #521, #829 ) ;
#259 = ORIENTED_EDGE ( 'NONE', *, *, #157, .T. ) ;
#260 = ORIENTED_EDGE ( 'NONE', *, *, #182, .F. ) ;
#261 = AXIS2_PLACEMENT_3D ( 'NONE', #723, #451, #782 ) ;
#262 = DIRECTION ( 'NONE',  ( -1.000000000000000000, 0.000000000000000000, 0.000000000000000000 ) ) ;
#263 = ORIENTED_EDGE ( 'NONE', *, *, #669, .T. ) ;
#264 = ORIENTED_EDGE ( 'NONE', *, *, #265, .T. ) ;
#265 = EDGE_CURVE ( 'NONE', #717, #652, #60, .T. ) ;
#266 = LINE ( 'NONE', #55, #798 ) ;
#267 = AXIS2_PLACEMENT_3D ( 'NONE', #620, #841, #9 ) ;
#268 = DIRECTION ( 'NONE',  ( -0.000000000000000000, -0.000000000000000000, 1.000000000000000000 ) ) ;
#269 = EDGE_CURVE ( 'NONE', #216, #634, #812, .T. ) ;
#270 = DIRECTION ( 'NONE',  ( 1.000000000000000000, 0.000000000000000000, 0.000000000000000000 ) ) ;
#271 = DIRECTION ( 'NONE',  ( 0.000000000000000000, 0.000000000000000000, -1.000000000000000000 ) ) ;
#272 = VECTOR ( 'NONE', #568, 1000.000000000000000 ) ;
#273 = PRESENTATION_STYLE_ASSIGNMENT (( #281 ) ) ;
#274 = DIRECTION ( 'NONE',  ( -1.000000000000000000, 0.000000000000000000, 0.000000000000000000 ) ) ;
#275 = FACE_OUTER_BOUND ( 'NONE', #497, .T. ) ;
#276 = AXIS2_PLACEMENT_3D ( 'NONE', #377, #381, #456 ) ;
#277 = CARTESIAN_POINT ( 'NONE',  ( -19.04999999999999716, -12.04999999999999893, -15.00000000000000000 ) ) ;
#278 = FACE_OUTER_BOUND ( 'NONE', #794, .T. ) ;
#279 = FACE_OUTER_BOUND ( 'NONE', #310, .T. ) ;
#280 = ADVANCED_FACE ( 'NONE', ( #149 ), #468, .T. ) ;
#281 = SURFACE_STYLE_USAGE ( .BOTH. , #879 ) ;
#282 = CIRCLE ( 'NONE', #742, 1.000000000000000888 ) ;
#283 = FACE_OUTER_BOUND ( 'NONE', #330, .T. ) ;
#284 = PRODUCT ( 'waegezelle halter', 'waegezelle halter', '', ( #604 ) ) ;
#285 = ORIENTED_EDGE ( 'NONE', *, *, #549, .T. ) ;
#286 = PLANE ( 'NONE',  #436 ) ;
#287 = FACE_BOUND ( 'NONE', #855, .T. ) ;
#288 = ORIENTED_EDGE ( 'NONE', *, *, #445, .F. ) ;
#289 = ORIENTED_EDGE ( 'NONE', *, *, #240, .T. ) ;
#290 = LINE ( 'NONE', #101, #409 ) ;
#291 = DIRECTION ( 'NONE',  ( 1.000000000000000000, 0.000000000000000000, 0.000000000000000000 ) ) ;
#292 = CIRCLE ( 'NONE', #783, 7.000000000000000000 ) ;
#293 = EDGE_CURVE ( 'NONE', #52, #422, #75, .T. ) ;
#294 = CARTESIAN_POINT ( 'NONE',  ( 12.04999999999999893, -12.04999999999999538, 3.000000000000000000 ) ) ;
#295 = ORIENTED_EDGE ( 'NONE', *, *, #86, .F. ) ;
#296 = ORIENTED_EDGE ( 'NONE', *, *, #657, .F. ) ;
#297 = CYLINDRICAL_SURFACE ( 'NONE', #137, 7.000000000000000000 ) ;
#298 = CARTESIAN_POINT ( 'NONE',  ( -12.04999999999999893, -19.04999999999999716, 3.000000000000000000 ) ) ;
#299 = CARTESIAN_POINT ( 'NONE',  ( -12.04999999999999893, -17.05000000000000071, 0.000000000000000000 ) ) ;
#300 = ORIENTED_EDGE ( 'NONE', *, *, #362, .T. ) ;
#301 = ORIENTED_EDGE ( 'NONE', *, *, #588, .T. ) ;
#302 = AXIS2_PLACEMENT_3D ( 'NONE', #576, #712, #517 ) ;
#303 = CARTESIAN_POINT ( 'NONE',  ( 12.04999999999999893, 13.05000000000000249, -15.00000000000000000 ) ) ;
#304 = CARTESIAN_POINT ( 'NONE',  ( 13.04999999999999893, -12.04999999999999538, -15.00000000000000000 ) ) ;
#305 = ORIENTED_EDGE ( 'NONE', *, *, #129, .F. ) ;
#306 = CARTESIAN_POINT ( 'NONE',  ( 17.05000000000000071, -17.04999999999999716, 3.000000000000000000 ) ) ;
#307 = CARTESIAN_POINT ( 'NONE',  ( 12.05000000000000249, -12.04999999999999893, 3.000000000000000000 ) ) ;
#308 = ORIENTED_EDGE ( 'NONE', *, *, #781, .T. ) ;
#309 = CARTESIAN_POINT ( 'NONE',  ( 17.05000000000000071, -17.04999999999999716, 0.000000000000000000 ) ) ;
#310 = EDGE_LOOP ( 'NONE', ( #779, #308, #193, #112, #353, #385, #725, #263 ) ) ;
#311 = VECTOR ( 'NONE', #830, 1000.000000000000000 ) ;
#312 = CARTESIAN_POINT ( 'NONE',  ( 19.05000000000000071, -12.04999999999999893, -15.00000000000000000 ) ) ;
#313 = LINE ( 'NONE', #592, #522 ) ;
#314 = ORIENTED_EDGE ( 'NONE', *, *, #873, .F. ) ;
#315 = DIRECTION ( 'NONE',  ( 0.000000000000000000, 0.000000000000000000, 1.000000000000000000 ) ) ;
#316 = EDGE_CURVE ( 'NONE', #36, #726, #738, .T. ) ;
#317 = CARTESIAN_POINT ( 'NONE',  ( 12.04999999999999893, 13.05000000000000249, 0.000000000000000000 ) ) ;
#318 = ORIENTED_EDGE ( 'NONE', *, *, #157, .F. ) ;
#319 = ORIENTED_EDGE ( 'NONE', *, *, #718, .F. ) ;
#320 = CYLINDRICAL_SURFACE ( 'NONE', #250, 5.000000000000000888 ) ;
#321 = AXIS2_PLACEMENT_3D ( 'NONE', #386, #589, #720 ) ;
#322 = FACE_OUTER_BOUND ( 'NONE', #593, .T. ) ;
#323 = ORIENTED_EDGE ( 'NONE', *, *, #240, .F. ) ;
#324 = ORIENTED_EDGE ( 'NONE', *, *, #71, .F. ) ;
#325 = CARTESIAN_POINT ( 'NONE',  ( 19.05000000000000071, -12.04999999999999893, 3.000000000000000000 ) ) ;
#326 = CIRCLE ( 'NONE', #505, 1.000000000000000888 ) ;
#327 = DIRECTION ( 'NONE',  ( 0.000000000000000000, 1.000000000000000000, 0.000000000000000000 ) ) ;
#328 = ORIENTED_EDGE ( 'NONE', *, *, #404, .F. ) ;
#329 = APPLICATION_CONTEXT ( 'automotive_design' ) ;
#330 = EDGE_LOOP ( 'NONE', ( #491, #831, #555, #441 ) ) ;
#331 = CARTESIAN_POINT ( 'NONE',  ( -12.04999999999999893, 13.05000000000000249, 0.000000000000000000 ) ) ;
#332 = CARTESIAN_POINT ( 'NONE',  ( 0.000000000000000000, 0.000000000000000000, 0.000000000000000000 ) ) ;
#333 = EDGE_CURVE ( 'NONE', #652, #518, #420, .T. ) ;
#334 = CARTESIAN_POINT ( 'NONE',  ( -12.04999999999999893, -12.04999999999999893, -15.00000000000000000 ) ) ;
#335 = CARTESIAN_POINT ( 'NONE',  ( 12.04999999999999893, 13.05000000000000249, -15.00000000000000000 ) ) ;
#336 = CARTESIAN_POINT ( 'NONE',  ( 17.05000000000000071, -17.04999999999999716, 0.000000000000000000 ) ) ;
#337 = VECTOR ( 'NONE', #494, 1000.000000000000000 ) ;
#338 = FILL_AREA_STYLE_COLOUR ( '', #472 ) ;
#339 = FACE_OUTER_BOUND ( 'NONE', #800, .T. ) ;
#340 = CIRCLE ( 'NONE', #136, 1.000000000000000888 ) ;
#341 = EDGE_CURVE ( 'NONE', #756, #634, #676, .T. ) ;
#342 = AXIS2_PLACEMENT_3D ( 'NONE', #708, #508, #503 ) ;
#343 = PRODUCT_RELATED_PRODUCT_CATEGORY ( 'part', '', ( #284 ) ) ;
#344 = CARTESIAN_POINT ( 'NONE',  ( 0.000000000000000000, 0.000000000000000000, 0.000000000000000000 ) ) ;
#345 = CARTESIAN_POINT ( 'NONE',  ( -12.04999999999999893, 12.05000000000000249, 3.000000000000000000 ) ) ;
#346 = EDGE_CURVE ( 'NONE', #216, #87, #817, .T. ) ;
#347 = FACE_OUTER_BOUND ( 'NONE', #358, .T. ) ;
#348 = DIRECTION ( 'NONE',  ( -0.000000000000000000, 0.000000000000000000, 1.000000000000000000 ) ) ;
#349 = VECTOR ( 'NONE', #746, 1000.000000000000000 ) ;
#350 = ORIENTED_EDGE ( 'NONE', *, *, #851, .F. ) ;
#351 = DIRECTION ( 'NONE',  ( 0.000000000000000000, 0.000000000000000000, 1.000000000000000000 ) ) ;
#352 = PLANE ( 'NONE',  #842 ) ;
#353 = ORIENTED_EDGE ( 'NONE', *, *, #71, .T. ) ;
#354 = ADVANCED_FACE ( 'NONE', ( #537 ), #132, .F. ) ;
#355 = DIRECTION ( 'NONE',  ( 1.000000000000000000, 1.017433123740062894E-16, -0.000000000000000000 ) ) ;
#356 = DIRECTION ( 'NONE',  ( 1.000000000000000000, 0.000000000000000000, 0.000000000000000000 ) ) ;
#357 = CARTESIAN_POINT ( 'NONE',  ( -19.04999999999999716, -19.04999999999999716, 3.000000000000000000 ) ) ;
#358 = EDGE_LOOP ( 'NONE', ( #557, #519, #697, #289, #54, #463, #818, #300 ) ) ;
#359 = EDGE_LOOP ( 'NONE', ( #567, #753, #145, #507 ) ) ;
#360 = FACE_OUTER_BOUND ( 'NONE', #611, .T. ) ;
#361 = DIRECTION ( 'NONE',  ( 0.000000000000000000, 0.000000000000000000, 1.000000000000000000 ) ) ;
#362 = EDGE_CURVE ( 'NONE', #659, #717, #72, .T. ) ;
#363 = VECTOR ( 'NONE', #856, 1000.000000000000000 ) ;
#364 = CARTESIAN_POINT ( 'NONE',  ( -12.04999999999999893, 19.04999999999999716, -15.00000000000000000 ) ) ;
#365 = ORIENTED_EDGE ( 'NONE', *, *, #198, .T. ) ;
#366 = ORIENTED_EDGE ( 'NONE', *, *, #493, .F. ) ;
#367 = CARTESIAN_POINT ( 'NONE',  ( 12.04999999999999893, 17.05000000000000426, 3.000000000000000000 ) ) ;
#368 = AXIS2_PLACEMENT_3D ( 'NONE', #73, #351, #356 ) ;
#369 = LINE ( 'NONE', #760, #867 ) ;
#370 = ORIENTED_EDGE ( 'NONE', *, *, #839, .F. ) ;
#371 = CARTESIAN_POINT ( 'NONE',  ( -13.04999999999999893, 12.05000000000000249, -15.00000000000000000 ) ) ;
#372 = CARTESIAN_POINT ( 'NONE',  ( 19.05000000000000071, 12.04999999999999893, 3.000000000000000000 ) ) ;
#373 = CARTESIAN_POINT ( 'NONE',  ( 12.05000000000000249, -19.04999999999999716, 3.000000000000000000 ) ) ;
#374 = ADVANCED_FACE ( 'NONE', ( #339 ), #878, .T. ) ;
#375 = CYLINDRICAL_SURFACE ( 'NONE', #455, 5.000000000000000888 ) ;
#376 = ORIENTED_EDGE ( 'NONE', *, *, #104, .F. ) ;
#377 = CARTESIAN_POINT ( 'NONE',  ( -19.04999999999999716, -19.04999999999999716, 3.000000000000000000 ) ) ;
#378 = DIRECTION ( 'NONE',  ( -1.000000000000000000, 0.000000000000000000, 0.000000000000000000 ) ) ;
#379 = ADVANCED_FACE ( 'NONE', ( #275, #885 ), #352, .T. ) ;
#380 = VECTOR ( 'NONE', #98, 1000.000000000000000 ) ;
#381 = DIRECTION ( 'NONE',  ( 1.000000000000000000, 0.000000000000000000, 0.000000000000000000 ) ) ;
#382 = PLANE ( 'NONE',  #261 ) ;
#383 = VERTEX_POINT ( 'NONE', #135 ) ;
#384 = ADVANCED_FACE ( 'NONE', ( #407 ), #3, .F. ) ;
#385 = ORIENTED_EDGE ( 'NONE', *, *, #26, .T. ) ;
#386 = CARTESIAN_POINT ( 'NONE',  ( 12.04999999999999893, 12.05000000000000249, 0.000000000000000000 ) ) ;
#387 = CARTESIAN_POINT ( 'NONE',  ( -17.05000000000000071, -12.04999999999999893, 0.000000000000000000 ) ) ;
#388 = ORIENTED_EDGE ( 'NONE', *, *, #341, .F. ) ;
#389 = ORIENTED_EDGE ( 'NONE', *, *, #588, .F. ) ;
#390 = DIRECTION ( 'NONE',  ( 1.000000000000000000, 1.439604544379093333E-16, 0.000000000000000000 ) ) ;
#391 = CARTESIAN_POINT ( 'NONE',  ( 12.05000000000000249, 19.04999999999999716, -15.00000000000000000 ) ) ;
#392 = VECTOR ( 'NONE', #735, 1000.000000000000000 ) ;
#393 = ORIENTED_EDGE ( 'NONE', *, *, #217, .F. ) ;
#394 = MECHANICAL_DESIGN_GEOMETRIC_PRESENTATION_REPRESENTATION (  '', ( #257 ), #242 ) ;
#395 = ORIENTED_EDGE ( 'NONE', *, *, #776, .F. ) ;
#396 = ADVANCED_FACE ( 'NONE', ( #287, #279 ), #544, .T. ) ;
#397 = DIRECTION ( 'NONE',  ( -0.000000000000000000, -0.000000000000000000, 1.000000000000000000 ) ) ;
#398 = DIRECTION ( 'NONE',  ( 0.000000000000000000, 0.000000000000000000, -1.000000000000000000 ) ) ;
#399 = CLOSED_SHELL ( 'NONE', ( #466, #379, #17, #681, #354, #688, #721, #591, #612, #478, #396, #875, #384, #42, #816, #810, #374, #401, #280, #498, #255, #734, #838, #175, #671, #641, #824 ) ) ;
#400 = DIRECTION ( 'NONE',  ( 1.000000000000000000, 0.000000000000000000, 0.000000000000000000 ) ) ;
#401 = ADVANCED_FACE ( 'NONE', ( #283 ), #547, .T. ) ;
#402 = CARTESIAN_POINT ( 'NONE',  ( -12.04999999999999893, -12.04999999999999893, 3.000000000000000000 ) ) ;
#403 = CARTESIAN_POINT ( 'NONE',  ( -17.05000000000000071, 12.05000000000000249, 3.000000000000000000 ) ) ;
#404 = EDGE_CURVE ( 'NONE', #577, #4, #266, .T. ) ;
#405 = CARTESIAN_POINT ( 'NONE',  ( 12.05000000000000249, 12.04999999999999893, 3.000000000000000000 ) ) ;
#406 = DIRECTION ( 'NONE',  ( 1.000000000000000000, 0.000000000000000000, 0.000000000000000000 ) ) ;
#407 = FACE_OUTER_BOUND ( 'NONE', #141, .T. ) ;
#408 = VECTOR ( 'NONE', #631, 1000.000000000000000 ) ;
#409 = VECTOR ( 'NONE', #169, 1000.000000000000000 ) ;
#410 = DIRECTION ( 'NONE',  ( -1.000000000000000000, 0.000000000000000000, 0.000000000000000000 ) ) ;
#411 = ORIENTED_EDGE ( 'NONE', *, *, #755, .F. ) ;
#412 = VECTOR ( 'NONE', #515, 1000.000000000000000 ) ;
#413 = CARTESIAN_POINT ( 'NONE',  ( -13.04999999999999893, 12.05000000000000249, 0.000000000000000000 ) ) ;
#414 = CARTESIAN_POINT ( 'NONE',  ( -12.04999999999999893, -12.04999999999999893, 3.000000000000000000 ) ) ;
#415 = CIRCLE ( 'NONE', #459, 7.000000000000000000 ) ;
#416 = ORIENTED_EDGE ( 'NONE', *, *, #511, .T. ) ;
#417 = CIRCLE ( 'NONE', #148, 5.000000000000000000 ) ;
#418 = LINE ( 'NONE', #303, #65 ) ;
#419 = DIRECTION ( 'NONE',  ( 0.000000000000000000, -0.000000000000000000, -1.000000000000000000 ) ) ;
#420 = LINE ( 'NONE', #471, #572 ) ;
#421 = VERTEX_POINT ( 'NONE', #133 ) ;
#422 = VERTEX_POINT ( 'NONE', #811 ) ;
#423 = LINE ( 'NONE', #367, #408 ) ;
#424 = CARTESIAN_POINT ( 'NONE',  ( 12.04999999999999893, -17.04999999999999716, 3.000000000000000000 ) ) ;
#425 = DIRECTION ( 'NONE',  ( 0.000000000000000000, 1.000000000000000000, 0.000000000000000000 ) ) ;
#426 = EDGE_LOOP ( 'NONE', ( #440, #713, #691, #365 ) ) ;
#427 = EDGE_LOOP ( 'NONE', ( #762, #732, #253, #18, #750, #448, #126, #81 ) ) ;
#428 = CARTESIAN_POINT ( 'NONE',  ( -19.04999999999999716, 12.04999999999999893, -15.00000000000000000 ) ) ;
#429 = CARTESIAN_POINT ( 'NONE',  ( 17.05000000000000071, -17.04999999999999716, 3.000000000000000000 ) ) ;
#430 = DIRECTION ( 'NONE',  ( -0.000000000000000000, 0.000000000000000000, -1.000000000000000000 ) ) ;
#431 = EDGE_LOOP ( 'NONE', ( #223, #296, #319, #849 ) ) ;
#432 = ORIENTED_EDGE ( 'NONE', *, *, #511, .F. ) ;
#433 = AXIS2_PLACEMENT_3D ( 'NONE', #345, #348, #882 ) ;
#434 = CARTESIAN_POINT ( 'NONE',  ( 12.04999999999999893, -12.04999999999999538, 3.000000000000000000 ) ) ;
#435 = EDGE_CURVE ( 'NONE', #581, #254, #747, .T. ) ;
#436 = AXIS2_PLACEMENT_3D ( 'NONE', #20, #487, #619 ) ;
#437 = CARTESIAN_POINT ( 'NONE',  ( 12.04999999999999893, -12.04999999999999538, 0.000000000000000000 ) ) ;
#438 = ORIENTED_EDGE ( 'NONE', *, *, #527, .T. ) ;
#439 = CARTESIAN_POINT ( 'NONE',  ( -17.05000000000000071, -17.05000000000000071, 3.000000000000000000 ) ) ;
#440 = ORIENTED_EDGE ( 'NONE', *, *, #802, .F. ) ;
#441 = ORIENTED_EDGE ( 'NONE', *, *, #316, .F. ) ;
#442 = DIRECTION ( 'NONE',  ( 0.000000000000000000, -1.000000000000000000, 0.000000000000000000 ) ) ;
#443 = ORIENTED_EDGE ( 'NONE', *, *, #669, .F. ) ;
#444 = CARTESIAN_POINT ( 'NONE',  ( -12.04999999999999893, 19.04999999999999716, 3.000000000000000000 ) ) ;
#445 = EDGE_CURVE ( 'NONE', #247, #5, #543, .T. ) ;
#446 = DIRECTION ( 'NONE',  ( -0.000000000000000000, -0.000000000000000000, 1.000000000000000000 ) ) ;
#447 = ORIENTED_EDGE ( 'NONE', *, *, #21, .F. ) ;
#448 = ORIENTED_EDGE ( 'NONE', *, *, #109, .F. ) ;
#449 = AXIS2_PLACEMENT_3D ( 'NONE', #608, #741, #685 ) ;
#450 = CARTESIAN_POINT ( 'NONE',  ( 12.04999999999999893, 12.05000000000000249, 3.000000000000000000 ) ) ;
#451 = DIRECTION ( 'NONE',  ( 1.439604544379093333E-16, -1.000000000000000000, 0.000000000000000000 ) ) ;
#452 = VECTOR ( 'NONE', #857, 1000.000000000000000 ) ;
#453 = VERTEX_POINT ( 'NONE', #277 ) ;
#454 = ORIENTED_EDGE ( 'NONE', *, *, #864, .F. ) ;
#455 = AXIS2_PLACEMENT_3D ( 'NONE', #434, #834, #769 ) ;
#456 = DIRECTION ( 'NONE',  ( 0.000000000000000000, 0.000000000000000000, -1.000000000000000000 ) ) ;
#457 = DIRECTION ( 'NONE',  ( 1.000000000000000000, 0.000000000000000000, 0.000000000000000000 ) ) ;
#458 = ORIENTED_EDGE ( 'NONE', *, *, #251, .F. ) ;
#459 = AXIS2_PLACEMENT_3D ( 'NONE', #539, #596, #464 ) ;
#460 = ORIENTED_EDGE ( 'NONE', *, *, #657, .T. ) ;
#461 = EDGE_CURVE ( 'NONE', #823, #479, #415, .T. ) ;
#462 = VECTOR ( 'NONE', #271, 1000.000000000000000 ) ;
#463 = ORIENTED_EDGE ( 'NONE', *, *, #37, .T. ) ;
#464 = DIRECTION ( 'NONE',  ( 1.000000000000000000, 0.000000000000000000, 0.000000000000000000 ) ) ;
#465 = PLANE ( 'NONE',  #525 ) ;
#466 = ADVANCED_FACE ( 'NONE', ( #347, #142 ), #473, .F. ) ;
#467 = DIRECTION ( 'NONE',  ( -1.000000000000000000, 0.000000000000000000, 0.000000000000000000 ) ) ;
#468 = CYLINDRICAL_SURFACE ( 'NONE', #449, 7.000000000000000000 ) ;
#469 = CIRCLE ( 'NONE', #88, 5.000000000000000000 ) ;
#470 = CARTESIAN_POINT ( 'NONE',  ( 12.04999999999999893, -13.04999999999999538, -15.00000000000000000 ) ) ;
#471 = CARTESIAN_POINT ( 'NONE',  ( -17.05000000000000071, -17.05000000000000071, 3.000000000000000000 ) ) ;
#472 = COLOUR_RGB ( '',0.7921568627450980005, 0.8196078431372548767, 0.9333333333333333481 ) ;
#473 = PLANE ( 'NONE',  #32 ) ;
#474 = DIRECTION ( 'NONE',  ( 0.000000000000000000, 1.000000000000000000, 0.000000000000000000 ) ) ;
#475 = CIRCLE ( 'NONE', #636, 5.000000000000000888 ) ;
#476 = CARTESIAN_POINT ( 'NONE',  ( -12.04999999999999893, 12.05000000000000249, -15.00000000000000000 ) ) ;
#477 = CARTESIAN_POINT ( 'NONE',  ( -19.04999999999999716, 12.04999999999999893, 3.000000000000000000 ) ) ;
#478 = ADVANCED_FACE ( 'NONE', ( #127 ), #667, .T. ) ;
#479 = VERTEX_POINT ( 'NONE', #546 ) ;
#480 = LINE ( 'NONE', #559, #813 ) ;
#481 = CARTESIAN_POINT ( 'NONE',  ( 19.05000000000000071, 19.04999999999999716, -15.00000000000000000 ) ) ;
#482 = ORIENTED_EDGE ( 'NONE', *, *, #527, .F. ) ;
#483 = EDGE_CURVE ( 'NONE', #52, #846, #138, .T. ) ;
#484 = VERTEX_POINT ( 'NONE', #866 ) ;
#485 = VECTOR ( 'NONE', #814, 1000.000000000000000 ) ;
#486 = CARTESIAN_POINT ( 'NONE',  ( -13.04999999999999893, 12.05000000000000249, -15.00000000000000000 ) ) ;
#487 = DIRECTION ( 'NONE',  ( -1.017433123740062771E-16, 1.000000000000000000, 0.000000000000000000 ) ) ;
#488 = DIRECTION ( 'NONE',  ( -1.000000000000000000, 0.000000000000000000, 0.000000000000000000 ) ) ;
#489 = FACE_OUTER_BOUND ( 'NONE', #94, .T. ) ;
#490 = VECTOR ( 'NONE', #252, 1000.000000000000000 ) ;
#491 = ORIENTED_EDGE ( 'NONE', *, *, #8, .F. ) ;
#492 = CARTESIAN_POINT ( 'NONE',  ( -17.05000000000000071, 12.05000000000000249, 0.000000000000000000 ) ) ;
#493 = EDGE_CURVE ( 'NONE', #484, #421, #804, .T. ) ;
#494 = DIRECTION ( 'NONE',  ( -0.000000000000000000, -1.000000000000000000, -0.000000000000000000 ) ) ;
#495 = VERTEX_POINT ( 'NONE', #331 ) ;
#496 = PRODUCT_DEFINITION ( 'UNKNOWN', '', #236, #248 ) ;
#497 = EDGE_LOOP ( 'NONE', ( #70, #46, #513, #438, #509, #24, #259, #171 ) ) ;
#498 = ADVANCED_FACE ( 'NONE', ( #607 ), #530, .F. ) ;
#499 = DIRECTION ( 'NONE',  ( 1.000000000000000000, 0.000000000000000000, 0.000000000000000000 ) ) ;
#500 = DIRECTION ( 'NONE',  ( 1.000000000000000000, 0.000000000000000000, 0.000000000000000000 ) ) ;
#501 = ORIENTED_EDGE ( 'NONE', *, *, #578, .T. ) ;
#502 = AXIS2_PLACEMENT_3D ( 'NONE', #203, #801, #675 ) ;
#503 = DIRECTION ( 'NONE',  ( 1.000000000000000000, 0.000000000000000000, 0.000000000000000000 ) ) ;
#504 = ORIENTED_EDGE ( 'NONE', *, *, #693, .T. ) ;
#505 = AXIS2_PLACEMENT_3D ( 'NONE', #672, #361, #701 ) ;
#506 = FACE_OUTER_BOUND ( 'NONE', #359, .T. ) ;
#507 = ORIENTED_EDGE ( 'NONE', *, *, #493, .T. ) ;
#508 = DIRECTION ( 'NONE',  ( -0.000000000000000000, 0.000000000000000000, -1.000000000000000000 ) ) ;
#509 = ORIENTED_EDGE ( 'NONE', *, *, #516, .T. ) ;
#510 = CARTESIAN_POINT ( 'NONE',  ( -19.04999999999999716, 12.04999999999999893, 3.000000000000000000 ) ) ;
#511 = EDGE_CURVE ( 'NONE', #768, #788, #282, .T. ) ;
#512 = PLANE ( 'NONE',  #184 ) ;
#513 = ORIENTED_EDGE ( 'NONE', *, *, #743, .T. ) ;
#514 = AXIS2_PLACEMENT_3D ( 'NONE', #179, #727, #262 ) ;
#515 = DIRECTION ( 'NONE',  ( 0.000000000000000000, 0.000000000000000000, -1.000000000000000000 ) ) ;
#516 = EDGE_CURVE ( 'NONE', #756, #87, #870, .T. ) ;
#517 = DIRECTION ( 'NONE',  ( -1.000000000000000000, 0.000000000000000000, 0.000000000000000000 ) ) ;
#518 = VERTEX_POINT ( 'NONE', #535 ) ;
#519 = ORIENTED_EDGE ( 'NONE', *, *, #851, .T. ) ;
#520 = DIRECTION ( 'NONE',  ( 1.000000000000000000, -0.000000000000000000, -0.000000000000000000 ) ) ;
#521 = CARTESIAN_POINT ( 'NONE',  ( -12.04999999999999893, 13.05000000000000249, -15.00000000000000000 ) ) ;
#522 = VECTOR ( 'NONE', #848, 1000.000000000000000 ) ;
#523 = ORIENTED_EDGE ( 'NONE', *, *, #461, .F. ) ;
#524 = ORIENTED_EDGE ( 'NONE', *, *, #37, .F. ) ;
#525 = AXIS2_PLACEMENT_3D ( 'NONE', #533, #877, #398 ) ;
#526 = CARTESIAN_POINT ( 'NONE',  ( -12.04999999999999893, -13.04999999999999893, 0.000000000000000000 ) ) ;
#527 = EDGE_CURVE ( 'NONE', #254, #756, #545, .T. ) ;
#528 = ORIENTED_EDGE ( 'NONE', *, *, #621, .T. ) ;
#529 = ORIENTED_EDGE ( 'NONE', *, *, #483, .F. ) ;
#530 = CYLINDRICAL_SURFACE ( 'NONE', #665, 1.000000000000000888 ) ;
#531 = MANIFOLD_SOLID_BREP ( 'Schnitt-Linear austragen1', #399 ) ;
#532 = VECTOR ( 'NONE', #239, 1000.000000000000000 ) ;
#533 = CARTESIAN_POINT ( 'NONE',  ( 13.04999999999999893, -12.04999999999999538, -15.00000000000000000 ) ) ;
#534 = EDGE_CURVE ( 'NONE', #383, #234, #683, .T. ) ;
#535 = CARTESIAN_POINT ( 'NONE',  ( -17.05000000000000071, -12.04999999999999893, 3.000000000000000000 ) ) ;
#536 = DIRECTION ( 'NONE',  ( 0.000000000000000000, 0.000000000000000000, 1.000000000000000000 ) ) ;
#537 = FACE_OUTER_BOUND ( 'NONE', #120, .T. ) ;
#538 = EDGE_CURVE ( 'NONE', #595, #170, #326, .T. ) ;
#539 = CARTESIAN_POINT ( 'NONE',  ( -12.04999999999999893, -12.04999999999999893, 3.000000000000000000 ) ) ;
#540 = CARTESIAN_POINT ( 'NONE',  ( 17.05000000000000071, -12.04999999999999538, 3.000000000000000000 ) ) ;
#541 = DIRECTION ( 'NONE',  ( 0.000000000000000000, -0.000000000000000000, -1.000000000000000000 ) ) ;
#542 = CARTESIAN_POINT ( 'NONE',  ( 19.05000000000000071, 19.04999999999999716, 3.000000000000000000 ) ) ;
#543 = CIRCLE ( 'NONE', #502, 1.000000000000000888 ) ;
#544 = PLANE ( 'NONE',  #684 ) ;
#545 = CIRCLE ( 'NONE', #773, 6.999999999999999112 ) ;
#546 = CARTESIAN_POINT ( 'NONE',  ( -12.04999999999999893, -19.04999999999999716, 3.000000000000000000 ) ) ;
#547 = CYLINDRICAL_SURFACE ( 'NONE', #771, 6.999999999999999112 ) ;
#548 = ORIENTED_EDGE ( 'NONE', *, *, #538, .T. ) ;
#549 = EDGE_CURVE ( 'NONE', #518, #682, #2, .T. ) ;
#550 = DIRECTION ( 'NONE',  ( -1.000000000000000000, 0.000000000000000000, 0.000000000000000000 ) ) ;
#551 = CARTESIAN_POINT ( 'NONE',  ( 12.04999999999999893, 13.05000000000000249, -15.00000000000000000 ) ) ;
#552 = ORIENTED_EDGE ( 'NONE', *, *, #655, .T. ) ;
#553 = CARTESIAN_POINT ( 'NONE',  ( 19.05000000000000071, -19.04999999999999716, 3.000000000000000000 ) ) ;
#554 = LINE ( 'NONE', #80, #311 ) ;
#555 = ORIENTED_EDGE ( 'NONE', *, *, #26, .F. ) ;
#556 = EDGE_CURVE ( 'NONE', #453, #823, #214, .T. ) ;
#557 = ORIENTED_EDGE ( 'NONE', *, *, #217, .T. ) ;
#558 = CARTESIAN_POINT ( 'NONE',  ( 12.05000000000000249, -12.04999999999999893, 3.000000000000000000 ) ) ;
#559 = CARTESIAN_POINT ( 'NONE',  ( 19.05000000000000071, -19.04999999999999716, -15.00000000000000000 ) ) ;
#560 = EDGE_CURVE ( 'NONE', #577, #651, #480, .T. ) ;
#561 = DIRECTION ( 'NONE',  ( 0.000000000000000000, 0.000000000000000000, 1.000000000000000000 ) ) ;
#562 = EDGE_LOOP ( 'NONE', ( #528, #865, #40, #796 ) ) ;
#563 = VERTEX_POINT ( 'NONE', #413 ) ;
#564 = FACE_OUTER_BOUND ( 'NONE', #698, .T. ) ;
#565 = CARTESIAN_POINT ( 'NONE',  ( -17.05000000000000071, -12.04999999999999893, 0.000000000000000000 ) ) ;
#566 = LINE ( 'NONE', #569, #34 ) ;
#567 = ORIENTED_EDGE ( 'NONE', *, *, #53, .T. ) ;
#568 = DIRECTION ( 'NONE',  ( 0.000000000000000000, -1.000000000000000000, 0.000000000000000000 ) ) ;
#569 = CARTESIAN_POINT ( 'NONE',  ( -12.04999999999999893, 17.05000000000000426, 0.000000000000000000 ) ) ;
#570 = VERTEX_POINT ( 'NONE', #424 ) ;
#571 = AXIS2_PLACEMENT_3D ( 'NONE', #139, #673, #63 ) ;
#572 = VECTOR ( 'NONE', #600, 1000.000000000000000 ) ;
#573 = FACE_OUTER_BOUND ( 'NONE', #189, .T. ) ;
#574 = ORIENTED_EDGE ( 'NONE', *, *, #404, .T. ) ;
#575 = CARTESIAN_POINT ( 'NONE',  ( -12.04999999999999893, -12.04999999999999893, 3.000000000000000000 ) ) ;
#576 = CARTESIAN_POINT ( 'NONE',  ( 12.05000000000000249, 12.04999999999999893, -15.00000000000000000 ) ) ;
#577 = VERTEX_POINT ( 'NONE', #632 ) ;
#578 = EDGE_CURVE ( 'NONE', #484, #241, #630, .T. ) ;
#579 = LINE ( 'NONE', #249, #412 ) ;
#580 = FACE_OUTER_BOUND ( 'NONE', #41, .T. ) ;
#581 = VERTEX_POINT ( 'NONE', #147 ) ;
#582 = ORIENTED_EDGE ( 'NONE', *, *, #121, .F. ) ;
#583 = VECTOR ( 'NONE', #714, 1000.000000000000000 ) ;
#584 = DIRECTION ( 'NONE',  ( 1.000000000000000000, 0.000000000000000000, 0.000000000000000000 ) ) ;
#585 = DIRECTION ( 'NONE',  ( 0.000000000000000000, -0.000000000000000000, -1.000000000000000000 ) ) ;
#586 = ORIENTED_EDGE ( 'NONE', *, *, #560, .F. ) ;
#587 = EDGE_LOOP ( 'NONE', ( #482, #647, #443, #388 ) ) ;
#588 = EDGE_CURVE ( 'NONE', #479, #651, #79, .T. ) ;
#589 = DIRECTION ( 'NONE',  ( 0.000000000000000000, 0.000000000000000000, 1.000000000000000000 ) ) ;
#590 = VECTOR ( 'NONE', #227, 1000.000000000000000 ) ;
#591 = ADVANCED_FACE ( 'NONE', ( #614 ), #286, .T. ) ;
#592 = CARTESIAN_POINT ( 'NONE',  ( -13.04999999999999893, 12.05000000000000249, 0.000000000000000000 ) ) ;
#593 = EDGE_LOOP ( 'NONE', ( #156, #173, #833, #124 ) ) ;
#594 = VECTOR ( 'NONE', #355, 1000.000000000000000 ) ;
#595 = VERTEX_POINT ( 'NONE', #689 ) ;
#596 = DIRECTION ( 'NONE',  ( 0.000000000000000000, -0.000000000000000000, 1.000000000000000000 ) ) ;
#597 = EDGE_CURVE ( 'NONE', #495, #563, #95, .T. ) ;
#598 = DIRECTION ( 'NONE',  ( 0.000000000000000000, 0.000000000000000000, 1.000000000000000000 ) ) ;
#599 = APPLICATION_PROTOCOL_DEFINITION ( 'draft international standard', 'automotive_design', 1998, #329 ) ;
#600 = DIRECTION ( 'NONE',  ( -0.000000000000000000, -1.000000000000000000, -0.000000000000000000 ) ) ;
#601 = ADVANCED_BREP_SHAPE_REPRESENTATION ( 'waegezelle halter', ( #531, #48 ), #862 ) ;
#602 = AXIS2_PLACEMENT_3D ( 'NONE', #84, #828, #835 ) ;
#603 = FILL_AREA_STYLE ('',( #338 ) ) ;
#604 = PRODUCT_CONTEXT ( 'NONE', #329, 'mechanical' ) ;
#605 = CARTESIAN_POINT ( 'NONE',  ( 12.04999999999999893, 13.05000000000000249, -15.00000000000000000 ) ) ;
#606 = AXIS2_PLACEMENT_3D ( 'NONE', #146, #774, #83 ) ;
#607 = FACE_OUTER_BOUND ( 'NONE', #103, .T. ) ;
#608 = CARTESIAN_POINT ( 'NONE',  ( 12.05000000000000249, 12.04999999999999893, 3.000000000000000000 ) ) ;
#609 = CARTESIAN_POINT ( 'NONE',  ( 19.05000000000000071, 12.04999999999999893, 3.000000000000000000 ) ) ;
#610 = CARTESIAN_POINT ( 'NONE',  ( 0.000000000000000000, 0.000000000000000000, -15.00000000000000000 ) ) ;
#611 = EDGE_LOOP ( 'NONE', ( #548, #772, #288, #117 ) ) ;
#612 = ADVANCED_FACE ( 'NONE', ( #758 ), #154, .T. ) ;
#613 = VECTOR ( 'NONE', #92, 1000.000000000000000 ) ;
#614 = FACE_OUTER_BOUND ( 'NONE', #426, .T. ) ;
#615 = PLANE ( 'NONE',  #869 ) ;
#616 = VERTEX_POINT ( 'NONE', #232 ) ;
#617 = ORIENTED_EDGE ( 'NONE', *, *, #597, .T. ) ;
#618 = LINE ( 'NONE', #231, #22 ) ;
#619 = DIRECTION ( 'NONE',  ( -1.000000000000000000, -1.017433123740062771E-16, 0.000000000000000000 ) ) ;
#620 = CARTESIAN_POINT ( 'NONE',  ( -12.04999999999999893, 12.05000000000000249, -15.00000000000000000 ) ) ;
#621 = EDGE_CURVE ( 'NONE', #846, #709, #160, .T. ) ;
#622 = ORIENTED_EDGE ( 'NONE', *, *, #182, .T. ) ;
#623 = ORIENTED_EDGE ( 'NONE', *, *, #333, .T. ) ;
#624 = AXIS2_PLACEMENT_3D ( 'NONE', #789, #315, #584 ) ;
#625 = CARTESIAN_POINT ( 'NONE',  ( -13.04999999999999893, 12.05000000000000249, -15.00000000000000000 ) ) ;
#626 =( NAMED_UNIT ( * ) PLANE_ANGLE_UNIT ( ) SI_UNIT ( $, .RADIAN. ) );
#627 = CARTESIAN_POINT ( 'NONE',  ( -17.05000000000000071, -17.05000000000000071, 0.000000000000000000 ) ) ;
#628 = DIRECTION ( 'NONE',  ( 1.000000000000000000, 0.000000000000000000, 0.000000000000000000 ) ) ;
#629 = ORIENTED_EDGE ( 'NONE', *, *, #190, .T. ) ;
#630 = CIRCLE ( 'NONE', #368, 1.000000000000000888 ) ;
#631 = DIRECTION ( 'NONE',  ( -0.000000000000000000, -0.000000000000000000, 1.000000000000000000 ) ) ;
#632 = CARTESIAN_POINT ( 'NONE',  ( 12.05000000000000249, -19.04999999999999716, -15.00000000000000000 ) ) ;
#633 = LINE ( 'NONE', #357, #337 ) ;
#634 = VERTEX_POINT ( 'NONE', #391 ) ;
#635 = VECTOR ( 'NONE', #327, 1000.000000000000000 ) ;
#636 = AXIS2_PLACEMENT_3D ( 'NONE', #204, #125, #868 ) ;
#637 = CARTESIAN_POINT ( 'NONE',  ( 19.05000000000000071, -12.04999999999999893, 3.000000000000000000 ) ) ;
#638 = DIRECTION ( 'NONE',  ( 0.000000000000000000, 0.000000000000000000, -1.000000000000000000 ) ) ;
#639 = ORIENTED_EDGE ( 'NONE', *, *, #153, .F. ) ;
#640 = DIRECTION ( 'NONE',  ( -1.000000000000000000, 0.000000000000000000, -0.000000000000000000 ) ) ;
#641 = ADVANCED_FACE ( 'NONE', ( #716 ), #646, .F. ) ;
#642 = EDGE_LOOP ( 'NONE', ( #639, #529, #323, #45 ) ) ;
#643 = DIRECTION ( 'NONE',  ( 1.000000000000000000, 1.439604544379093333E-16, 0.000000000000000000 ) ) ;
#644 = EDGE_CURVE ( 'NONE', #563, #616, #313, .T. ) ;
#645 = VECTOR ( 'NONE', #28, 1000.000000000000000 ) ;
#646 = CYLINDRICAL_SURFACE ( 'NONE', #225, 1.000000000000000888 ) ;
#647 = ORIENTED_EDGE ( 'NONE', *, *, #435, .F. ) ;
#648 = DIRECTION ( 'NONE',  ( 0.000000000000000000, 0.000000000000000000, -1.000000000000000000 ) ) ;
#649 = CIRCLE ( 'NONE', #302, 7.000000000000000000 ) ;
#650 = CARTESIAN_POINT ( 'NONE',  ( -12.04999999999999893, -12.04999999999999893, 0.000000000000000000 ) ) ;
#651 = VERTEX_POINT ( 'NONE', #656 ) ;
#652 = VERTEX_POINT ( 'NONE', #778 ) ;
#653 = UNCERTAINTY_MEASURE_WITH_UNIT (LENGTH_MEASURE( 1.000000000000000082E-05 ), #68, 'distance_accuracy_value', 'NONE');
#654 = FACE_OUTER_BOUND ( 'NONE', #244, .T. ) ;
#655 = EDGE_CURVE ( 'NONE', #170, #495, #50, .T. ) ;
#656 = CARTESIAN_POINT ( 'NONE',  ( -12.04999999999999893, -19.04999999999999716, -15.00000000000000000 ) ) ;
#657 = EDGE_CURVE ( 'NONE', #768, #616, #172, .T. ) ;
#658 = EDGE_LOOP ( 'NONE', ( #230, #177, #815, #775, #178, #666, #843, #12 ) ) ;
#659 = VERTEX_POINT ( 'NONE', #35 ) ;
#660 = VECTOR ( 'NONE', #643, 1000.000000000000000 ) ;
#661 = DIRECTION ( 'NONE',  ( -0.000000000000000000, -0.000000000000000000, 1.000000000000000000 ) ) ;
#662 = AXIS2_PLACEMENT_3D ( 'NONE', #67, #143, #208 ) ;
#663 = CARTESIAN_POINT ( 'NONE',  ( 13.04999999999999893, -12.04999999999999538, -15.00000000000000000 ) ) ;
#664 = ORIENTED_EDGE ( 'NONE', *, *, #445, .T. ) ;
#665 = AXIS2_PLACEMENT_3D ( 'NONE', #476, #268, #57 ) ;
#666 = ORIENTED_EDGE ( 'NONE', *, *, #839, .T. ) ;
#667 = PLANE ( 'NONE',  #122 ) ;
#668 = DIRECTION ( 'NONE',  ( 0.000000000000000000, 0.000000000000000000, 1.000000000000000000 ) ) ;
#669 = EDGE_CURVE ( 'NONE', #634, #581, #649, .T. ) ;
#670 = DIRECTION ( 'NONE',  ( -0.000000000000000000, -0.000000000000000000, 1.000000000000000000 ) ) ;
#671 = ADVANCED_FACE ( 'NONE', ( #105 ), #382, .F. ) ;
#672 = CARTESIAN_POINT ( 'NONE',  ( 12.04999999999999893, 12.05000000000000249, 0.000000000000000000 ) ) ;
#673 = DIRECTION ( 'NONE',  ( 0.000000000000000000, 0.000000000000000000, 1.000000000000000000 ) ) ;
#674 = VECTOR ( 'NONE', #757, 1000.000000000000000 ) ;
#675 = DIRECTION ( 'NONE',  ( 1.000000000000000000, 0.000000000000000000, 0.000000000000000000 ) ) ;
#676 = LINE ( 'NONE', #748, #349 ) ;
#677 = AXIS2_PLACEMENT_3D ( 'NONE', #56, #871, #807 ) ;
#678 = EDGE_CURVE ( 'NONE', #616, #10, #340, .T. ) ;
#679 = DIRECTION ( 'NONE',  ( 1.000000000000000000, 0.000000000000000000, 0.000000000000000000 ) ) ;
#680 = DIRECTION ( 'NONE',  ( -0.000000000000000000, -0.000000000000000000, 1.000000000000000000 ) ) ;
#681 = ADVANCED_FACE ( 'NONE', ( #580 ), #246, .F. ) ;
#682 = VERTEX_POINT ( 'NONE', #387 ) ;
#683 = LINE ( 'NONE', #751, #590 ) ;
#684 = AXIS2_PLACEMENT_3D ( 'NONE', #610, #215, #550 ) ;
#685 = DIRECTION ( 'NONE',  ( -1.000000000000000000, 0.000000000000000000, 0.000000000000000000 ) ) ;
#686 = ORIENTED_EDGE ( 'NONE', *, *, #435, .T. ) ;
#687 = DIRECTION ( 'NONE',  ( 0.000000000000000000, 0.000000000000000000, -1.000000000000000000 ) ) ;
#688 = ADVANCED_FACE ( 'NONE', ( #322 ), #512, .F. ) ;
#689 = CARTESIAN_POINT ( 'NONE',  ( 13.04999999999999893, 12.05000000000000249, 0.000000000000000000 ) ) ;
#690 = DIRECTION ( 'NONE',  ( 1.000000000000000000, 0.000000000000000000, 0.000000000000000000 ) ) ;
#691 = ORIENTED_EDGE ( 'NONE', *, *, #763, .T. ) ;
#692 = ORIENTED_EDGE ( 'NONE', *, *, #744, .T. ) ;
#693 = EDGE_CURVE ( 'NONE', #183, #495, #258, .T. ) ;
#694 = CARTESIAN_POINT ( 'NONE',  ( -13.04999999999999893, -12.04999999999999893, -15.00000000000000000 ) ) ;
#695 = DIRECTION ( 'NONE',  ( 0.000000000000000000, 0.000000000000000000, 1.000000000000000000 ) ) ;
#696 = CARTESIAN_POINT ( 'NONE',  ( 12.04999999999999893, -17.04999999999999716, 0.000000000000000000 ) ) ;
#697 = ORIENTED_EDGE ( 'NONE', *, *, #802, .T. ) ;
#698 = EDGE_LOOP ( 'NONE', ( #837, #328, #191, #376 ) ) ;
#699 = CIRCLE ( 'NONE', #321, 5.000000000000000000 ) ;
#700 = DIRECTION ( 'NONE',  ( 1.000000000000000000, 1.017433123740062894E-16, -0.000000000000000000 ) ) ;
#701 = DIRECTION ( 'NONE',  ( 1.000000000000000000, 0.000000000000000000, 0.000000000000000000 ) ) ;
#702 = LINE ( 'NONE', #627, #532 ) ;
#703 = ORIENTED_EDGE ( 'NONE', *, *, #104, .T. ) ;
#704 = VERTEX_POINT ( 'NONE', #728 ) ;
#705 = FACE_OUTER_BOUND ( 'NONE', #431, .T. ) ;
#706 = CARTESIAN_POINT ( 'NONE',  ( -13.04999999999999893, 12.05000000000000249, -15.00000000000000000 ) ) ;
#707 = EDGE_LOOP ( 'NONE', ( #623, #285, #393, #264 ) ) ;
#708 = CARTESIAN_POINT ( 'NONE',  ( -12.04999999999999893, 12.05000000000000249, 3.000000000000000000 ) ) ;
#709 = VERTEX_POINT ( 'NONE', #188 ) ;
#710 = CARTESIAN_POINT ( 'NONE',  ( -12.04999999999999893, 12.04999999999999893, 3.000000000000000000 ) ) ;
#711 = EDGE_CURVE ( 'NONE', #241, #247, #119, .T. ) ;
#712 = DIRECTION ( 'NONE',  ( -0.000000000000000000, -0.000000000000000000, -1.000000000000000000 ) ) ;
#713 = ORIENTED_EDGE ( 'NONE', *, *, #90, .T. ) ;
#714 = DIRECTION ( 'NONE',  ( -0.000000000000000000, -0.000000000000000000, 1.000000000000000000 ) ) ;
#715 = CIRCLE ( 'NONE', #267, 1.000000000000000888 ) ;
#716 = FACE_OUTER_BOUND ( 'NONE', #826, .T. ) ;
#717 = VERTEX_POINT ( 'NONE', #492 ) ;
#718 = EDGE_CURVE ( 'NONE', #793, #768, #6, .T. ) ;
#719 = EDGE_LOOP ( 'NONE', ( #150, #784, #305, #692 ) ) ;
#720 = DIRECTION ( 'NONE',  ( -1.000000000000000000, 0.000000000000000000, 0.000000000000000000 ) ) ;
#721 = ADVANCED_FACE ( 'NONE', ( #845 ), #764, .T. ) ;
#722 = VECTOR ( 'NONE', #378, 1000.000000000000000 ) ;
#723 = CARTESIAN_POINT ( 'NONE',  ( -12.04999999999999893, -13.04999999999999893, -15.00000000000000000 ) ) ;
#724 = AXIS2_PLACEMENT_3D ( 'NONE', #881, #668, #131 ) ;
#725 = ORIENTED_EDGE ( 'NONE', *, *, #269, .T. ) ;
#726 = VERTEX_POINT ( 'NONE', #428 ) ;
#727 = DIRECTION ( 'NONE',  ( -0.000000000000000000, -0.000000000000000000, -1.000000000000000000 ) ) ;
#728 = CARTESIAN_POINT ( 'NONE',  ( 12.04999999999999893, -17.04999999999999716, 0.000000000000000000 ) ) ;
#729 = ORIENTED_EDGE ( 'NONE', *, *, #806, .F. ) ;
#730 = AXIS2_PLACEMENT_3D ( 'NONE', #414, #541, #410 ) ;
#731 = VERTEX_POINT ( 'NONE', #637 ) ;
#732 = ORIENTED_EDGE ( 'NONE', *, *, #655, .F. ) ;
#733 = DIRECTION ( 'NONE',  ( -1.000000000000000000, 0.000000000000000000, 0.000000000000000000 ) ) ;
#734 = ADVANCED_FACE ( 'NONE', ( #360 ), #840, .F. ) ;
#735 = DIRECTION ( 'NONE',  ( -0.000000000000000000, -0.000000000000000000, 1.000000000000000000 ) ) ;
#736 = SHAPE_DEFINITION_REPRESENTATION ( #749, #601 ) ;
#737 = VECTOR ( 'NONE', #661, 1000.000000000000000 ) ;
#738 = LINE ( 'NONE', #477, #462 ) ;
#739 = DIRECTION ( 'NONE',  ( -0.000000000000000000, 0.000000000000000000, 1.000000000000000000 ) ) ;
#740 =( LENGTH_UNIT ( ) NAMED_UNIT ( * ) SI_UNIT ( .MILLI., .METRE. ) );
#741 = DIRECTION ( 'NONE',  ( 0.000000000000000000, 0.000000000000000000, -1.000000000000000000 ) ) ;
#742 = AXIS2_PLACEMENT_3D ( 'NONE', #334, #598, #679 ) ;
#743 = EDGE_CURVE ( 'NONE', #731, #254, #235, .T. ) ;
#744 = EDGE_CURVE ( 'NONE', #1, #383, #423, .T. ) ;
#745 = CARTESIAN_POINT ( 'NONE',  ( 17.05000000000000071, 17.05000000000000426, 3.000000000000000000 ) ) ;
#746 = DIRECTION ( 'NONE',  ( 0.000000000000000000, 0.000000000000000000, -1.000000000000000000 ) ) ;
#747 = LINE ( 'NONE', #609, #392 ) ;
#748 = CARTESIAN_POINT ( 'NONE',  ( 12.05000000000000249, 19.04999999999999716, 3.000000000000000000 ) ) ;
#749 = PRODUCT_DEFINITION_SHAPE ( 'NONE', 'NONE',  #496 ) ;
#750 = ORIENTED_EDGE ( 'NONE', *, *, #53, .F. ) ;
#751 = CARTESIAN_POINT ( 'NONE',  ( 17.05000000000000071, 17.05000000000000426, 3.000000000000000000 ) ) ;
#752 = DIRECTION ( 'NONE',  ( 0.000000000000000000, -0.000000000000000000, 1.000000000000000000 ) ) ;
#753 = ORIENTED_EDGE ( 'NONE', *, *, #58, .F. ) ;
#754 = AXIS2_PLACEMENT_3D ( 'NONE', #307, #228, #500 ) ;
#755 = EDGE_CURVE ( 'NONE', #581, #106, #618, .T. ) ;
#756 = VERTEX_POINT ( 'NONE', #243 ) ;
#757 = DIRECTION ( 'NONE',  ( 0.000000000000000000, 1.000000000000000000, 0.000000000000000000 ) ) ;
#758 = FACE_OUTER_BOUND ( 'NONE', #562, .T. ) ;
#759 = VECTOR ( 'NONE', #700, 1000.000000000000000 ) ;
#760 = CARTESIAN_POINT ( 'NONE',  ( 17.05000000000000071, 17.05000000000000426, 0.000000000000000000 ) ) ;
#761 = PLANE ( 'NONE',  #276 ) ;
#762 = ORIENTED_EDGE ( 'NONE', *, *, #597, .F. ) ;
#763 = EDGE_CURVE ( 'NONE', #82, #570, #152, .T. ) ;
#764 = PLANE ( 'NONE',  #64 ) ;
#765 =( NAMED_UNIT ( * ) SI_UNIT ( $, .STERADIAN. ) SOLID_ANGLE_UNIT ( ) );
#766 = CARTESIAN_POINT ( 'NONE',  ( -12.04999999999999893, 13.05000000000000249, -15.00000000000000000 ) ) ;
#767 = ORIENTED_EDGE ( 'NONE', *, *, #556, .T. ) ;
#768 = VERTEX_POINT ( 'NONE', #694 ) ;
#769 = DIRECTION ( 'NONE',  ( 1.000000000000000000, 0.000000000000000000, 0.000000000000000000 ) ) ;
#770 = LINE ( 'NONE', #706, #380 ) ;
#771 = AXIS2_PLACEMENT_3D ( 'NONE', #66, #196, #467 ) ;
#772 = ORIENTED_EDGE ( 'NONE', *, *, #797, .F. ) ;
#773 = AXIS2_PLACEMENT_3D ( 'NONE', #405, #884, #400 ) ;
#774 = DIRECTION ( 'NONE',  ( -0.000000000000000000, -0.000000000000000000, -1.000000000000000000 ) ) ;
#775 = ORIENTED_EDGE ( 'NONE', *, *, #776, .T. ) ;
#776 = EDGE_CURVE ( 'NONE', #652, #234, #874, .T. ) ;
#777 = DIRECTION ( 'NONE',  ( 0.000000000000000000, -0.000000000000000000, 1.000000000000000000 ) ) ;
#778 = CARTESIAN_POINT ( 'NONE',  ( -17.05000000000000071, 12.05000000000000249, 3.000000000000000000 ) ) ;
#779 = ORIENTED_EDGE ( 'NONE', *, *, #755, .T. ) ;
#780 = CARTESIAN_POINT ( 'NONE',  ( -12.04999999999999893, -17.05000000000000071, 3.000000000000000000 ) ) ;
#781 = EDGE_CURVE ( 'NONE', #106, #577, #792, .T. ) ;
#782 = DIRECTION ( 'NONE',  ( 1.000000000000000000, 1.439604544379093333E-16, 0.000000000000000000 ) ) ;
#783 = AXIS2_PLACEMENT_3D ( 'NONE', #710, #777, #628 ) ;
#784 = ORIENTED_EDGE ( 'NONE', *, *, #144, .T. ) ;
#785 = LINE ( 'NONE', #245, #11 ) ;
#786 = DIRECTION ( 'NONE',  ( 0.000000000000000000, 1.000000000000000000, -0.000000000000000000 ) ) ;
#787 = ORIENTED_EDGE ( 'NONE', *, *, #549, .F. ) ;
#788 = VERTEX_POINT ( 'NONE', #19 ) ;
#789 = CARTESIAN_POINT ( 'NONE',  ( 12.04999999999999893, -12.04999999999999538, 0.000000000000000000 ) ) ;
#790 = AXIS2_PLACEMENT_3D ( 'NONE', #219, #78, #820 ) ;
#791 = DIRECTION ( 'NONE',  ( -0.000000000000000000, -0.000000000000000000, 1.000000000000000000 ) ) ;
#792 = CIRCLE ( 'NONE', #606, 7.000000000000000000 ) ;
#793 = VERTEX_POINT ( 'NONE', #625 ) ;
#794 = EDGE_LOOP ( 'NONE', ( #295, #96, #350, #787 ) ) ;
#795 = LINE ( 'NONE', #107, #363 ) ;
#796 = ORIENTED_EDGE ( 'NONE', *, *, #483, .T. ) ;
#797 = EDGE_CURVE ( 'NONE', #5, #170, #418, .T. ) ;
#798 = VECTOR ( 'NONE', #739, 1000.000000000000000 ) ;
#799 = CIRCLE ( 'NONE', #754, 6.999999999999999112 ) ;
#800 = EDGE_LOOP ( 'NONE', ( #523, #218, #314, #389 ) ) ;
#801 = DIRECTION ( 'NONE',  ( 0.000000000000000000, 0.000000000000000000, 1.000000000000000000 ) ) ;
#802 = EDGE_CURVE ( 'NONE', #164, #704, #13, .T. ) ;
#803 = DIRECTION ( 'NONE',  ( 0.000000000000000000, -0.000000000000000000, 1.000000000000000000 ) ) ;
#804 = LINE ( 'NONE', #470, #166 ) ;
#805 = FACE_OUTER_BOUND ( 'NONE', #111, .T. ) ;
#806 = EDGE_CURVE ( 'NONE', #247, #595, #290, .T. ) ;
#807 = DIRECTION ( 'NONE',  ( -1.000000000000000000, 0.000000000000000000, 0.000000000000000000 ) ) ;
#808 = CIRCLE ( 'NONE', #624, 1.000000000000000888 ) ;
#809 = CARTESIAN_POINT ( 'NONE',  ( 0.000000000000000000, 0.000000000000000000, 3.000000000000000000 ) ) ;
#810 = ADVANCED_FACE ( 'NONE', ( #564 ), #297, .T. ) ;
#811 = CARTESIAN_POINT ( 'NONE',  ( 17.05000000000000071, 12.05000000000000249, 0.000000000000000000 ) ) ;
#812 = LINE ( 'NONE', #481, #108 ) ;
#813 = VECTOR ( 'NONE', #220, 1000.000000000000000 ) ;
#814 = DIRECTION ( 'NONE',  ( -0.000000000000000000, 0.000000000000000000, 1.000000000000000000 ) ) ;
#815 = ORIENTED_EDGE ( 'NONE', *, *, #333, .F. ) ;
#816 = ADVANCED_FACE ( 'NONE', ( #159 ), #375, .F. ) ;
#817 = LINE ( 'NONE', #872, #883 ) ;
#818 = ORIENTED_EDGE ( 'NONE', *, *, #129, .T. ) ;
#819 = ORIENTED_EDGE ( 'NONE', *, *, #678, .T. ) ;
#820 = DIRECTION ( 'NONE',  ( 1.000000000000000000, 0.000000000000000000, 0.000000000000000000 ) ) ;
#821 = CARTESIAN_POINT ( 'NONE',  ( -19.04999999999999716, -12.04999999999999893, 3.000000000000000000 ) ) ;
#822 = CARTESIAN_POINT ( 'NONE',  ( -12.04999999999999893, 17.05000000000000426, 3.000000000000000000 ) ) ;
#823 = VERTEX_POINT ( 'NONE', #165 ) ;
#824 = ADVANCED_FACE ( 'NONE', ( #705 ), #97, .F. ) ;
#825 = VECTOR ( 'NONE', #474, 1000.000000000000000 ) ;
#826 = EDGE_LOOP ( 'NONE', ( #819, #260, #432, #460 ) ) ;
#827 = DIRECTION ( 'NONE',  ( 0.000000000000000000, 0.000000000000000000, -1.000000000000000000 ) ) ;
#828 = DIRECTION ( 'NONE',  ( -1.000000000000000000, 0.000000000000000000, 0.000000000000000000 ) ) ;
#829 = VECTOR ( 'NONE', #791, 1000.000000000000000 ) ;
#830 = DIRECTION ( 'NONE',  ( -0.000000000000000000, -0.000000000000000000, 1.000000000000000000 ) ) ;
#831 = ORIENTED_EDGE ( 'NONE', *, *, #346, .F. ) ;
#832 = VECTOR ( 'NONE', #274, 1000.000000000000000 ) ;
#833 = ORIENTED_EDGE ( 'NONE', *, *, #516, .F. ) ;
#834 = DIRECTION ( 'NONE',  ( 0.000000000000000000, 0.000000000000000000, 1.000000000000000000 ) ) ;
#835 = DIRECTION ( 'NONE',  ( 0.000000000000000000, 0.000000000000000000, 1.000000000000000000 ) ) ;
#836 = CARTESIAN_POINT ( 'NONE',  ( 12.04999999999999893, -12.04999999999999538, -15.00000000000000000 ) ) ;
#837 = ORIENTED_EDGE ( 'NONE', *, *, #210, .F. ) ;
#838 = ADVANCED_FACE ( 'NONE', ( #573 ), #465, .F. ) ;
#839 = EDGE_CURVE ( 'NONE', #383, #709, #475, .T. ) ;
#840 = CYLINDRICAL_SURFACE ( 'NONE', #790, 1.000000000000000888 ) ;
#841 = DIRECTION ( 'NONE',  ( 0.000000000000000000, 0.000000000000000000, 1.000000000000000000 ) ) ;
#842 = AXIS2_PLACEMENT_3D ( 'NONE', #809, #69, #205 ) ;
#843 = ORIENTED_EDGE ( 'NONE', *, *, #621, .F. ) ;
#844 = VECTOR ( 'NONE', #425, 1000.000000000000000 ) ;
#845 = FACE_OUTER_BOUND ( 'NONE', #707, .T. ) ;
#846 = VERTEX_POINT ( 'NONE', #540 ) ;
#847 = LINE ( 'NONE', #33, #853 ) ;
#848 = DIRECTION ( 'NONE',  ( 0.000000000000000000, -1.000000000000000000, 0.000000000000000000 ) ) ;
#849 = ORIENTED_EDGE ( 'NONE', *, *, #251, .T. ) ;
#850 = CARTESIAN_POINT ( 'NONE',  ( 17.05000000000000071, -12.04999999999999538, 0.000000000000000000 ) ) ;
#851 = EDGE_CURVE ( 'NONE', #682, #164, #187, .T. ) ;
#852 = CARTESIAN_POINT ( 'NONE',  ( 19.05000000000000071, -19.04999999999999716, 3.000000000000000000 ) ) ;
#853 = VECTOR ( 'NONE', #520, 1000.000000000000000 ) ;
#854 = ORIENTED_EDGE ( 'NONE', *, *, #693, .F. ) ;
#855 = EDGE_LOOP ( 'NONE', ( #116, #29, #416, #162, #501, #238, #664, #213 ) ) ;
#856 = DIRECTION ( 'NONE',  ( -0.000000000000000000, 1.000000000000000000, -0.000000000000000000 ) ) ;
#857 = DIRECTION ( 'NONE',  ( 0.000000000000000000, 1.000000000000000000, 0.000000000000000000 ) ) ;
#858 = VERTEX_POINT ( 'NONE', #62 ) ;
#859 = VECTOR ( 'NONE', #419, 1000.000000000000000 ) ;
#860 = ORIENTED_EDGE ( 'NONE', *, *, #711, .F. ) ;
#861 = LINE ( 'NONE', #526, #660 ) ;
#862 =( GEOMETRIC_REPRESENTATION_CONTEXT ( 3 ) GLOBAL_UNCERTAINTY_ASSIGNED_CONTEXT ( ( #880 ) ) GLOBAL_UNIT_ASSIGNED_CONTEXT ( ( #740, #128, #59 ) ) REPRESENTATION_CONTEXT ( 'NONE', 'WORKASPACE' ) );
#863 = ORIENTED_EDGE ( 'NONE', *, *, #797, .T. ) ;
#864 = EDGE_CURVE ( 'NONE', #5, #183, #134, .T. ) ;
#865 = ORIENTED_EDGE ( 'NONE', *, *, #121, .T. ) ;
#866 = CARTESIAN_POINT ( 'NONE',  ( 12.04999999999999893, -13.04999999999999538, -15.00000000000000000 ) ) ;
#867 = VECTOR ( 'NONE', #488, 1000.000000000000000 ) ;
#868 = DIRECTION ( 'NONE',  ( 1.000000000000000000, 0.000000000000000000, 0.000000000000000000 ) ) ;
#869 = AXIS2_PLACEMENT_3D ( 'NONE', #605, #212, #752 ) ;
#870 = LINE ( 'NONE', #542, #207 ) ;
#871 = DIRECTION ( 'NONE',  ( -0.000000000000000000, -0.000000000000000000, -1.000000000000000000 ) ) ;
#872 = CARTESIAN_POINT ( 'NONE',  ( -12.04999999999999893, 19.04999999999999716, 3.000000000000000000 ) ) ;
#873 = EDGE_CURVE ( 'NONE', #651, #453, #100, .T. ) ;
#874 = CIRCLE ( 'NONE', #342, 5.000000000000000000 ) ;
#875 = ADVANCED_FACE ( 'NONE', ( #278 ), #197, .F. ) ;
#876 = SURFACE_STYLE_FILL_AREA ( #603 ) ;
#877 = DIRECTION ( 'NONE',  ( 1.000000000000000000, -0.000000000000000000, 0.000000000000000000 ) ) ;
#878 = CYLINDRICAL_SURFACE ( 'NONE', #730, 6.999999999999999112 ) ;
#879 = SURFACE_SIDE_STYLE ('',( #876 ) ) ;
#880 = UNCERTAINTY_MEASURE_WITH_UNIT (LENGTH_MEASURE( 1.000000000000000082E-05 ), #740, 'distance_accuracy_value', 'NONE');
#881 = CARTESIAN_POINT ( 'NONE',  ( -12.04999999999999893, -12.04999999999999893, 0.000000000000000000 ) ) ;
#882 = DIRECTION ( 'NONE',  ( 1.000000000000000000, 0.000000000000000000, 0.000000000000000000 ) ) ;
#883 = VECTOR ( 'NONE', #680, 1000.000000000000000 ) ;
#884 = DIRECTION ( 'NONE',  ( 0.000000000000000000, -0.000000000000000000, 1.000000000000000000 ) ) ;
#885 = FACE_BOUND ( 'NONE', #658, .T. ) ;
ENDSEC;
END-ISO-10303-21;
