M48
;Layer_Color=9474304
;FILE_FORMAT=4:4
METRIC,LZ
;TYPE=PLATED
T1F00S00C0.3000
T2F00S00C0.6000
T3F00S00C0.9000
T4F00S00C1.0000
T5F00S00C1.0160
T6F00S00C3.1000
;TYPE=NON_PLATED
T7F00S00C1.6510
%
T01
X0045025Y00141321
X00567768Y00163
X00589743Y00151638
X0057393Y0019105
X0055443Y0019425
X00549Y002055
X0052843Y00256399
X00576224
X00620538Y00214322
X00448818Y00285092
X004375Y002805
X003875Y001718
X0018475Y002135
X00127944Y00197466
X00147721Y001653
X000435Y0021075
X001355Y003685
T02
X0041978Y003214
Y003468
Y003722
X0039438
Y003468
Y003214
X0001948Y0037601
Y0040141
T03
X0065075Y000448
Y000698
Y000956
Y00121
Y001464
Y001718
Y001968
T04
X00428694Y0003175
X00453694
X00511694
X00537094
X00562094
X00403294
X00377894
X00314444Y0003225
X00289444
X00264044
X00201971Y000325
X00176971
X00151571
X0005675Y00033274
X0003175
T05
X000398Y002706
X000652
X000906
X00116
X001414
X001668
X001922
X002176
X00243
X002684
X002938
X003192
X003446
X0037
X003954
Y00423
X0037
X003446
X003192
X002938
X002684
X00243
X002176
X001922
X001668
X001414
X00116
X000906
X000652
X000398
T06
X004695Y0041725
X0010625Y0009575
T07
X004208Y002706
Y00423
X000144
Y002706
M30
